<svg xmlns="http://www.w3.org/2000/svg" xmlns:xlink="http://www.w3.org/1999/xlink" width="74.0155029296875" height="75.709228515625" viewBox="0 0 74.0155029296875 75.709228515625" fill="none"><path d="M37.2905 57.0644C37.2905 54.9928 37.2905 52.9211 37.1021 50.8495C37.0822 50.8295 37.0643 50.8138 37.0477 50.8016C36.9645 50.8006 36.8816 50.7989 36.7989 50.7964C36.7056 50.8203 36.5708 50.8495 36.3488 50.8495C36.3488 52.9211 36.1604 54.9928 36.1604 57.0644L36.1604 63.2793C36.1604 65.351 36.3488 67.4226 36.3488 69.4943C36.5371 71.5659 36.5371 73.6376 36.7255 75.7092C36.9138 73.6376 37.1021 71.5659 37.1021 69.4943C37.2905 67.4226 37.2905 65.351 37.2905 63.2793L37.2905 57.0644ZM35.0034 50.6182C34.824 52.2163 34.6446 53.6516 34.4652 55.0869C34.2768 56.5935 33.9002 58.2886 33.7118 59.7953C33.5235 61.3019 33.1469 62.9969 32.7701 64.5035C32.3935 66.0101 32.0168 67.7051 31.6402 69.2118C31.6402 67.5168 32.0168 66.0101 32.2052 64.3152C32.3935 62.8085 32.5818 61.1136 32.9584 59.6069C33.3352 58.1002 33.5235 56.4052 33.9002 54.8986C34.2427 53.5287 34.5851 52.0032 34.9276 50.6051C34.9528 50.6095 34.9781 50.6139 35.0034 50.6182ZM31.2892 49.3855C31.4202 49.4525 31.5524 49.5173 31.6859 49.5798C30.9644 51.0082 30.2429 52.2785 29.5213 53.7215C28.7681 55.2281 28.0147 56.5464 27.0731 57.8648C26.3197 59.1831 25.3781 60.6897 24.6247 62.0081C23.683 63.3264 22.9297 64.6447 21.988 65.9631C22.553 64.4564 23.3063 62.9498 24.0597 61.6314C24.813 60.1248 25.5664 58.8065 26.3197 57.4881C27.0731 56.1698 27.8263 54.6632 28.7681 53.3448C29.4905 52.0804 30.3863 50.816 31.2892 49.3855ZM26.3785 45.0109C26.4346 45.0951 26.4918 45.1786 26.5498 45.2614C26.5376 45.3875 26.4977 45.3875 26.3669 45.3875C25.4252 46.3292 24.2951 47.0825 23.3535 47.8359C22.4118 48.5891 21.2818 49.3425 20.1518 50.0958C19.0218 50.8492 17.8918 51.6024 16.9501 52.3558C15.8201 53.1091 14.6901 53.6741 13.5601 54.2391C14.5017 53.2974 15.6317 52.5441 16.5735 51.6024C17.7035 50.8492 18.6451 50.0958 19.7751 49.3425C20.9052 48.5891 21.8469 47.8359 22.9768 47.0825C24.1068 46.3292 25.2369 45.7642 26.3669 45.0109L26.3785 45.0109ZM28.062 28.5641C27.9939 28.6314 27.9265 28.6995 27.8599 28.7683C27.7588 28.8142 27.6854 28.8142 27.6854 28.8142C26.7436 28.0608 25.6136 27.1192 24.672 26.1775L21.847 23.3526C20.9053 22.4109 19.9636 21.4693 19.2103 20.5276C18.2686 19.5859 17.5153 18.6443 16.7619 17.5143C17.8919 18.2676 18.8335 19.2093 19.7752 19.9626C20.7169 20.9042 21.6586 21.6576 22.6003 22.5993L25.4253 25.4243C26.367 26.3659 27.1203 27.3076 28.062 28.4376L28.062 28.5641ZM28.8423 27.853C28.7655 27.9175 28.6896 27.9828 28.6143 28.049C27.1129 26.5465 25.7983 25.0441 24.4836 23.5416C23.1652 22.035 21.8469 20.5283 20.5285 18.8334C19.2102 17.3267 17.8918 15.6317 16.7618 14.125C15.4434 12.4301 14.3135 10.9234 13.1835 9.2284C14.6901 10.7351 16.0085 12.2417 17.3268 13.7484C18.6452 15.255 19.9636 16.7617 21.2819 18.4566C22.6003 19.9633 23.9185 21.6584 25.2369 23.165C26.5011 24.6098 27.5922 26.2279 28.8423 27.853ZM30.2329 26.8336C30.1125 26.9101 29.9935 26.9886 29.8759 27.0689C28.9402 25.7565 28.1894 24.4433 27.252 22.9434C26.3103 21.6251 25.557 20.1185 24.8036 18.8001C24.0503 17.4818 23.2969 15.9752 22.5436 14.6568C21.7902 13.1502 21.037 11.8319 20.4719 10.3252C21.4136 11.6435 22.3552 12.9619 23.1086 14.2802C23.862 15.5985 24.8036 17.1052 25.557 18.4235C26.3103 19.7418 27.252 21.2485 28.0052 22.5668C28.7478 24.0518 29.4903 25.3539 30.2329 26.8336ZM31.9134 25.9312C31.7529 26.0027 31.5941 26.0774 31.4371 26.1551C30.691 25.0324 30.1297 23.9098 29.5683 22.7872C29.0034 21.6572 28.4383 20.3388 27.8733 19.2088C27.3084 18.0788 26.7433 16.7605 26.3667 15.6306C25.8017 14.3123 25.425 13.1822 25.0483 11.8639C25.8017 12.9939 26.3667 14.1239 27.1201 15.2538C27.685 16.3839 28.25 17.5139 28.8151 18.8322C29.38 19.9622 29.9451 21.2805 30.5101 22.4104C31.0399 23.4702 31.4042 24.6956 31.9134 25.9312ZM32.8814 25.546C32.7088 25.6068 32.5379 25.671 32.3688 25.7387L30.1336 20.1511C29.3802 18.2678 28.627 16.3844 28.062 14.5011C27.3086 12.6178 26.7436 10.7344 25.9903 8.6629C25.4253 6.7796 24.6719 4.7079 24.2953 2.8246C25.237 4.7079 25.9903 6.5912 26.7436 8.4745L29.0036 14.1245C29.757 16.0078 30.3219 17.891 31.0753 19.9627C31.6149 21.7614 32.3264 23.7319 32.8814 25.546ZM37.6669 24.821C37.5106 24.8155 37.3536 24.8127 37.196 24.8127C37.1002 24.8127 37.0048 24.8137 36.9095 24.8158C36.7252 22.7588 36.7252 20.7019 36.7252 18.6449L36.7252 12.4299C36.7252 10.3582 36.7252 8.2866 36.9135 6.2149C36.9135 4.1433 37.1018 2.0716 37.2903 0C37.4786 2.0716 37.4786 4.1433 37.6669 6.2149C37.6669 8.2866 37.8552 10.3582 37.8552 12.4299L37.8552 18.6449C37.8552 20.7036 37.6692 22.7623 37.6669 24.821ZM40.3107 25.1883C40.5012 23.8858 40.8711 22.5833 41.0572 21.2809C41.2455 19.9625 41.6222 18.6442 41.9988 17.5142C42.3756 16.1959 42.7522 15.066 43.1288 13.7476C43.5055 12.4293 43.8822 11.2993 44.4472 9.981C44.2589 11.2993 44.0706 12.6176 43.6938 13.9359C43.3172 15.2543 43.1288 16.5726 42.7522 17.7025C42.3756 19.0208 41.9988 20.1509 41.6222 21.4692C41.2498 22.7726 40.8774 23.892 40.3229 25.1913C40.3188 25.1903 40.3147 25.1893 40.3107 25.1883ZM41.7777 25.6434C41.616 25.5824 41.4528 25.5246 41.2881 25.47C41.8389 23.6251 42.3944 21.6102 43.1287 19.7742C43.6938 17.8909 44.4471 16.0077 45.2005 13.9359L47.4604 8.286C48.2138 6.4027 48.9671 4.5193 49.9088 2.636C49.3439 4.7076 48.7788 6.591 48.2138 8.4743C47.6488 10.3577 46.8955 12.4293 46.1421 14.3126C45.3888 16.196 44.8237 18.0793 44.0704 19.9626L41.8104 25.6126C41.7995 25.6235 41.7886 25.6337 41.7777 25.6434ZM43.3375 26.3526C43.1934 26.2751 43.0476 26.2003 42.9002 26.1282C43.5413 24.8866 44.1824 23.7408 44.8236 22.4585C45.5769 20.9519 46.3303 19.6335 47.2719 18.3152C48.0253 16.9969 48.967 15.4902 49.7203 14.1719C50.662 12.8536 51.4153 11.5353 52.357 10.2169C51.792 11.7236 51.0386 13.2302 50.2854 14.5485C49.532 16.0552 48.7786 17.3735 48.0253 18.6919C47.2719 20.0102 46.5186 21.5168 45.5769 22.8352C44.9297 23.9678 44.1434 25.1005 43.3375 26.3526ZM44.5892 27.1192C44.5079 27.0629 44.4259 27.0074 44.3433 26.9529C44.8976 25.8784 45.614 24.8038 46.3304 23.7293C47.0838 22.5993 47.8371 21.4693 48.5905 20.5276C49.3438 19.3976 50.0971 18.456 50.8504 17.326C51.6038 16.3843 52.5454 15.2543 53.4871 14.3127C52.9222 15.4426 52.1688 16.5726 51.6038 17.7026C50.8504 18.8326 50.0971 19.9626 49.3438 20.9043C48.5905 22.0342 47.8371 22.9759 47.0838 24.1059C46.3304 25.236 45.577 26.1775 44.6354 27.1192L44.5892 27.1192ZM45.5726 27.8723C45.4937 27.8057 45.4139 27.74 45.3334 27.6752C46.4332 26.0598 47.7003 24.6047 48.9673 22.9756C50.2857 21.2806 51.6039 19.774 52.9223 18.2674C54.2406 16.7607 55.559 15.2541 56.8773 13.5591C58.1957 12.0525 59.7024 10.5458 61.0207 9.039C59.8907 10.7341 58.5723 12.4291 57.4424 13.9357C56.1241 15.4424 54.8057 17.1373 53.6757 18.644C52.3573 20.1506 51.039 21.8457 49.7206 23.3524C48.4023 24.859 47.0839 26.3656 45.5772 27.8723L45.5726 27.8723ZM46.7549 29.0042C46.6493 28.8896 46.5416 28.7769 46.432 28.6661C47.4666 27.634 48.5147 26.6154 49.7203 25.7543C50.8503 24.6243 52.1687 23.6826 53.2987 22.5526C54.6171 21.611 55.747 20.481 57.0653 19.5393L61.0204 16.7144L57.6304 20.1044C56.5004 21.2343 55.182 22.176 54.052 23.306C52.7336 24.2477 51.6036 25.3776 50.2852 26.3193C49.0464 27.2043 47.9738 28.2555 46.7549 29.0042ZM47.9459 30.5039C47.8814 30.4092 47.8157 30.3154 47.7488 30.2225C48.6697 29.3265 49.7535 28.5998 50.662 27.8729C51.6037 27.1197 52.7337 26.3663 53.8637 25.613C54.9937 24.8596 56.1237 24.1064 57.0654 23.353C58.1954 22.5996 59.3254 22.0347 60.4554 21.4697C59.5137 22.4113 58.3838 23.1647 57.4421 24.1064C56.3121 24.8596 55.3703 25.613 54.2404 26.3663C53.1104 27.1197 52.1687 27.8729 51.0386 28.6263C50.0078 29.3135 48.9768 29.844 47.9459 30.5039ZM48.504 31.3999C48.4586 31.3199 48.4124 31.2405 48.3653 31.1616C50.01 30.0654 51.6599 28.9746 53.4871 28.061C55.1821 26.931 57.0654 25.9893 58.7604 24.8593C60.4555 23.9177 62.3389 22.7877 64.0339 21.846C65.9172 20.9044 67.6122 19.9627 69.4956 19.0211L64.4105 22.4111C62.7155 23.541 60.8322 24.4827 59.1372 25.6127C57.4422 26.5544 55.5588 27.6843 53.8638 28.626C52.0145 29.5507 50.3468 30.4752 48.504 31.3999ZM49.6987 34.2522C49.6948 34.2383 49.6908 34.2243 49.6868 34.2103C50.9396 33.6815 52.0324 33.3197 53.2989 32.9578C54.6173 32.5811 55.7473 32.2045 57.0657 31.8278C58.384 31.4512 59.7023 31.2629 60.8323 30.8861C62.1506 30.6978 63.469 30.3212 64.7874 30.1329C63.6573 30.6978 62.339 31.0744 61.0206 31.4512C59.7023 31.8278 58.5723 32.2045 57.254 32.5811C55.9356 32.9578 54.8056 33.3345 53.4872 33.5228C52.2244 33.8836 50.9616 34.0715 49.6987 34.2522ZM49.9988 35.5677C49.9856 35.4918 49.9717 35.4161 49.9573 35.3407C51.9365 34.8109 53.7548 34.4487 55.7473 34.0863C57.8191 33.7097 59.7024 33.3331 61.7741 32.9564C63.8457 32.5797 65.7291 32.3914 67.8008 32.0147C69.8725 31.8264 71.9442 31.4497 73.8275 31.2614C71.7558 31.8264 69.8725 32.203 67.8008 32.768C65.7291 33.1447 63.8457 33.5214 61.7741 33.898C59.7024 34.2748 57.8191 34.6514 55.7473 34.8397C53.7688 35.1994 51.962 35.3874 49.9988 35.5677ZM50.1898 37.6194C50.1861 37.3642 50.1752 37.1108 50.157 36.8593C51.8276 36.6775 53.3187 36.6775 54.9937 36.6775L59.8904 36.6775C61.5854 36.6775 63.092 36.6775 64.7871 36.8659C66.4821 36.8659 67.9888 37.0542 69.6838 37.2426C67.9888 37.4309 66.4821 37.4309 64.7871 37.6192C63.092 37.6192 61.5854 37.8075 59.8904 37.8075L54.9937 37.8075C53.3296 37.8075 51.8471 37.626 50.1898 37.6194ZM50.1171 39.2026C50.1315 39.0677 50.1438 38.9322 50.1541 38.7961L53.8641 38.7961C55.1825 38.7961 56.5008 38.9845 57.8191 39.1728C59.1374 39.3612 60.4558 39.5495 61.7741 39.5495C63.0925 39.7378 64.4108 39.9262 65.7292 40.3029L61.7741 40.3029C60.4558 40.3029 59.1374 40.1145 57.8191 40.1145C56.5008 39.9262 55.1825 39.9262 53.8641 39.7378L50.1171 39.2026ZM49.9833 40.1345C49.9953 40.0685 50.0067 40.0023 50.0176 39.936C52.053 40.1274 54.085 40.4942 55.9353 40.6793C58.007 41.0559 59.8904 41.4325 61.9621 41.6209C64.0337 41.9975 65.9171 42.3742 67.9888 42.7509C70.0605 43.1275 71.9438 43.6926 74.0155 44.2575C71.9438 44.0692 69.8721 43.8809 67.9888 43.5041C65.9171 43.1275 64.0337 42.9392 61.9621 42.5626C59.8904 42.1859 58.007 41.8092 55.9353 41.4325C53.8886 41.0604 52.0257 40.6883 49.9833 40.1345ZM49.697 41.3689C49.727 41.2636 49.7556 41.1578 49.7829 41.0515C51.1756 41.4239 52.5805 41.9325 54.1462 42.2805C55.6529 42.8454 57.1596 43.4104 58.6662 43.7871L63.1862 45.4821C64.6929 46.047 66.1996 46.8004 67.518 47.5537C66.0113 47.177 64.3163 46.8004 62.8096 46.2353C61.3029 45.6704 59.7963 45.2937 58.2895 44.7287L53.7695 43.0337C52.412 42.5247 51.0545 42.0156 49.697 41.3689ZM48.7835 43.6959C48.8666 43.5327 48.9464 43.3674 49.0228 43.2003C50.2385 43.5748 51.3092 44.1047 52.5455 44.6345C53.6755 45.1994 54.9938 45.7645 56.1238 46.3294C57.2539 46.8945 58.3839 47.4594 59.7023 48.0244C60.8322 48.5895 61.9622 49.3427 63.0922 50.0961C61.7739 49.7195 60.6439 49.1544 59.3255 48.7778C58.1956 48.2128 56.8772 47.8361 55.7472 47.2711C54.6172 46.7062 53.2988 46.1411 52.1688 45.5762C51.0404 45.0119 49.912 44.4477 48.7835 43.6959ZM48.4628 44.2872C50.322 45.2187 52.0007 46.1503 53.8638 47.0817C55.7471 48.0234 57.4422 49.1534 59.1372 50.095C60.8322 51.0367 62.7155 52.1667 64.4105 53.2967L69.4956 56.6867C67.6122 55.745 65.7289 54.8034 64.0339 53.8617C62.1505 52.92 60.4555 51.9784 58.7604 50.8484C57.0654 49.7184 55.1821 48.7767 53.4871 47.6468C51.8268 46.5399 50.1663 45.6137 48.329 44.5141C48.3743 44.439 48.419 44.3633 48.4628 44.2872ZM46.4173 46.9638C47.3411 47.705 48.4311 48.618 49.344 49.5309L52.169 52.3559C53.1107 53.2975 54.0524 54.2392 54.8057 55.1809C55.7474 56.1225 56.5007 57.0642 57.2541 58.1942C56.1241 57.4408 55.1825 56.4992 54.2407 55.7458C53.299 54.8043 52.3574 54.0509 51.4157 53.1092L48.5907 50.2842C47.6706 49.3643 46.9304 48.4442 46.0187 47.3486C46.1543 47.2231 46.2872 47.0948 46.4173 46.9638ZM45.5248 47.7829C46.9751 49.2441 48.2537 50.7053 49.5323 52.1665C50.8506 53.6732 52.169 55.1798 53.4873 56.8749C54.8057 58.3815 56.1241 60.0765 57.254 61.5831C58.5723 63.2781 59.7024 64.7847 60.8324 66.4797C59.3257 64.9731 58.0074 63.4664 56.689 61.9598C55.3707 60.4531 54.0523 58.9465 52.734 57.2515C51.4156 55.7449 50.0974 54.0499 48.779 52.5433C47.5489 51.1375 46.4827 49.5676 45.2746 47.9869C45.3588 47.9199 45.4422 47.8519 45.5248 47.7829ZM44.3833 48.6356C45.1648 49.7845 45.8412 50.9521 46.6598 52.2619C47.6015 53.5802 48.3548 55.0869 49.1082 56.4052C49.8615 57.7236 50.6149 59.2302 51.3683 60.5485C52.1216 62.0552 52.875 63.3735 53.4399 64.8801C52.4982 63.5618 51.5566 62.2435 50.8032 60.9252C50.0499 59.6068 49.1082 58.1002 48.3548 56.7819C47.6015 55.4635 46.6598 53.9569 45.9065 52.6386C45.2552 51.3361 44.604 50.1743 43.9527 48.9099C44.0982 48.8212 44.2417 48.7298 44.3833 48.6356ZM42.6218 49.619C43.3463 50.7198 43.8966 51.8206 44.4471 52.9213C45.012 54.0513 45.5771 55.3696 46.1421 56.4997C46.707 57.6297 47.2721 58.948 47.6488 60.0779C48.2137 61.3962 48.5905 62.5262 48.9671 63.8446C48.2137 62.7146 47.6488 61.5845 46.8955 60.4546C46.3304 59.3246 45.7654 58.1946 45.2004 56.8763C44.6354 55.7463 44.0704 54.4279 43.5054 53.298C42.9634 52.2141 42.5948 50.9568 42.0669 49.8587C42.254 49.783 42.4391 49.703 42.6218 49.619ZM41.5768 50.0455C41.5892 50.0411 41.6015 50.0366 41.6138 50.0322C41.6189 50.0502 41.6221 50.0714 41.6221 50.0957C41.6035 50.0771 41.5886 50.0604 41.5768 50.0455ZM41.5408 50.0583C41.5658 50.0687 41.5928 50.081 41.6221 50.0957L43.8821 55.7456C44.6354 57.629 45.3888 59.5123 45.9538 61.3957C46.7072 63.279 47.2721 65.1623 48.0255 67.2339C48.5905 69.1172 49.3439 71.1889 49.7205 73.0722C48.7788 71.1889 48.0255 69.3056 47.2721 67.4223L45.0122 61.7723C44.2588 59.8889 43.6938 58.0056 42.9404 55.934C42.3867 54.0882 41.652 52.0616 41.0911 50.2086C41.2422 50.1612 41.3921 50.1111 41.5408 50.0583ZM40.3594 50.4147C40.7174 51.8638 41.0755 53.4663 41.4335 54.8986C41.8103 56.4052 41.9986 58.1002 42.3752 59.6068C42.5636 61.1135 42.9402 62.8084 43.1286 64.3152C43.3169 65.8218 43.5053 67.5168 43.6936 69.2118C43.3169 67.7051 42.9402 66.0101 42.5636 64.5035C42.1869 62.9969 41.8103 61.3018 41.622 59.7951C41.4335 58.2885 41.0569 56.5935 40.8686 55.0869C40.6823 53.5963 40.4959 51.9215 40.3096 50.427C40.3262 50.4229 40.3428 50.4188 40.3594 50.4147ZM38.1482 50.768C38.1717 50.7895 38.199 50.8168 38.2321 50.8499L38.7971 54.8049C38.9855 56.1232 38.9855 57.4416 39.1738 58.7598C39.3621 60.0781 39.3621 61.3964 39.3621 62.7148L39.3621 66.6698C38.9855 65.3514 38.7971 64.0331 38.6087 62.7148C38.4204 61.3964 38.2321 60.0781 38.2321 58.7598C38.2321 57.4416 38.0438 56.1232 37.8554 54.8049C37.8554 54.3655 37.8345 53.926 37.8135 53.4866C37.7717 52.6077 37.7299 51.7288 37.8554 50.8499C37.8816 50.8238 37.9041 50.8012 37.924 50.7824C37.9989 50.7782 38.0736 50.7734 38.1482 50.768ZM30.8872 55.9338C31.6405 54.0504 32.2056 51.9788 32.7706 50.0955C32.5823 49.9072 32.3939 49.9072 32.2056 50.0955L29.9455 55.7454C29.1921 57.6288 28.6272 59.5121 27.8739 61.3955C27.1205 63.2787 26.3672 65.3504 25.8021 67.2337C25.2372 69.117 24.6721 71.0004 24.1072 73.072C25.0489 71.1887 25.8021 69.3054 26.5555 67.422L28.8155 61.7721C29.5689 59.7004 30.3222 57.8171 30.8872 55.9338ZM25.0485 52.7332C26.3669 51.0382 27.6852 49.5316 28.8153 47.8365L28.4386 47.8365C26.932 49.3432 25.6136 50.8499 24.2953 52.3566C22.9769 53.8632 21.6586 55.5582 20.3402 57.0648C19.2102 58.5715 17.8918 60.2664 16.5735 61.7731C15.4435 63.2798 14.1252 64.9748 12.9951 66.6698C14.3135 65.1631 15.8202 63.6565 17.1385 62.1498C18.4569 60.4549 19.7752 58.9481 21.0936 57.4415C22.4119 55.9348 23.7302 54.4282 25.0485 52.7332ZM32.9587 54.4284C33.1471 53.11 33.5237 51.7917 33.712 50.4734C33.1471 51.7917 32.7703 52.9217 32.3937 54.2401C32.0171 55.5584 31.6404 56.6884 31.2637 58.0067C30.887 59.1366 30.6987 60.455 30.3221 61.7733C29.9453 63.0916 29.757 64.4099 29.5687 65.7283C30.1336 64.4099 30.5104 63.2799 30.887 61.9616C31.2637 60.6433 31.6404 59.5134 32.0171 58.195C32.3937 57.065 32.7703 55.7467 32.9587 54.4284ZM27.6854 51.9784C28.4386 50.8484 29.192 49.7184 29.757 48.5885C29.757 48.5885 29.757 48.4001 29.5687 48.5885L29.3803 48.5885C28.4386 49.5301 27.6854 50.4718 26.932 51.6018C26.1786 52.7318 25.4253 53.6734 24.6719 54.8034C23.9186 55.7451 23.1652 56.8751 22.4119 58.005C21.8469 59.135 21.0936 60.265 20.5285 61.395C21.4702 60.4533 22.4119 59.3233 23.1652 58.3817C23.9186 57.2517 24.6719 56.31 25.4253 55.18C26.1786 54.2384 26.932 53.1084 27.6854 51.9784ZM23.8713 50.4257C25.1896 49.484 26.3197 48.354 27.4497 47.224C27.4497 47.224 27.4497 47.0357 27.2614 47.0357L27.0731 47.0357C25.7547 47.7891 24.6247 48.9191 23.3063 49.8607C21.988 50.8024 20.8579 51.9324 19.5396 52.874C18.4097 54.004 17.0913 54.9457 15.9613 56.0757L12.5712 59.4656L16.5262 56.6406C17.8446 55.6989 18.9746 54.569 20.293 53.6274C21.423 52.4973 22.7414 51.5556 23.8713 50.4257ZM52.4511 48.7778C51.3212 47.8362 50.0028 46.8945 48.6845 45.9528L48.3077 45.9528L48.3077 46.1411C49.4378 47.2711 50.7561 48.2128 51.8861 49.3428C53.0162 50.4727 54.3345 51.4144 55.4646 52.5444C56.7828 53.4861 57.9128 54.616 59.2312 55.5577L63.1862 58.3827L59.7963 54.9928C58.6662 53.8628 57.5362 52.7328 56.2178 51.7911C54.8995 50.8495 53.7695 49.7195 52.4511 48.7778ZM25.8019 44.4451C24.1069 45.5751 22.4119 46.7051 20.5285 47.6468C18.8335 48.7767 16.9502 49.7184 15.2552 50.8484C13.5601 51.7901 11.6768 52.92 9.9818 53.8617C8.0985 54.8034 6.4035 55.745 4.5202 56.6867C6.2152 55.5567 7.9101 54.4266 9.6052 53.2967C11.3001 52.1667 13.1835 51.225 14.8785 50.095C16.5735 49.1534 18.4569 48.0234 20.1519 47.0817C22.0352 46.1401 23.7302 45.1985 25.6136 44.2568L25.8019 44.2568C25.9903 44.4451 25.8019 44.4451 25.8019 44.4451ZM20.7638 45.1995C22.2705 44.6346 23.7772 44.0695 25.2839 43.3163C25.2839 43.1279 25.2839 43.1279 25.0955 43.1279C23.4005 43.5046 21.8939 43.8812 20.3872 44.4463C18.8805 44.8229 17.3737 45.3878 15.8671 45.9529L11.347 47.6479C10.0287 48.4011 8.522 48.9662 7.0153 49.7195C8.7103 49.3428 10.217 48.7778 11.7237 48.4011C13.2305 48.0245 14.7371 47.4596 16.2438 46.8945L20.7638 45.1995ZM20.7168 42.7508C22.0352 42.3741 23.1652 41.9975 24.4836 41.4325C24.5778 41.2441 24.5778 41.15 24.5542 41.15C24.5307 41.15 24.4836 41.2441 24.4836 41.4325C23.1652 41.6209 21.8469 41.8092 20.5285 42.1858C19.2102 42.3741 18.0802 42.7508 16.7619 43.1275C15.4435 43.5041 14.3135 43.8808 12.9951 44.2574C11.6768 44.634 10.3584 45.0108 9.2284 45.5757C10.5468 45.3874 11.8651 45.0108 13.1835 44.8225C14.3135 44.4457 15.6319 44.2574 16.9502 43.8808C18.2686 43.5041 19.3985 43.1275 20.7168 42.7508ZM24.2954 40.3029C22.2237 40.8679 20.3403 41.2445 18.2687 41.6212C16.1969 41.9978 14.3136 42.3746 12.242 42.7512C10.1702 43.1278 8.2869 43.3161 6.2152 43.6928C4.1435 43.8812 2.0718 44.2578 0.1885 44.4462C2.2602 43.8812 4.1435 43.5045 6.2152 42.9395C8.2869 42.5629 10.1702 42.1862 12.242 41.8095C14.3136 41.4329 16.1969 41.0562 18.2687 40.8679C20.3403 40.4912 22.2237 40.3029 24.2954 40.1145L24.2954 40.3029ZM19.3043 39.4319C20.9993 39.4319 22.5059 39.4319 24.2009 39.2436L24.2009 38.4903C22.5059 38.4903 20.9993 38.3019 19.3043 38.3019L14.4075 38.3019C12.7125 38.3019 11.2058 38.4903 9.5108 38.4903C7.8157 38.6786 6.3091 38.6786 4.6141 38.8669C6.3091 39.0552 7.8157 39.2436 9.5108 39.2436C11.2058 39.4319 12.7125 39.4319 14.4075 39.4319L19.3043 39.4319ZM20.1518 36.9114L24.1068 36.9114C24.2951 36.7231 24.1068 36.5348 24.1068 36.5348L20.1518 35.9697C18.8334 35.7814 17.5151 35.7814 16.1968 35.5931C14.8785 35.5931 13.5601 35.4047 12.2418 35.4047L8.2867 35.4047C9.605 35.7814 10.9234 35.9697 12.2418 36.158C13.5601 36.158 14.8785 36.3463 16.1968 36.5348C17.5151 36.7231 18.8334 36.9114 20.1518 36.9114ZM24.1069 35.782C22.0352 35.5937 19.9636 35.2171 18.0801 35.0287C16.0085 34.652 14.1252 34.2754 12.0534 34.0871C9.9818 33.7104 8.0984 33.3337 6.0267 32.9571C3.955 32.5804 2.0717 32.0154 0 31.4504C2.0717 31.6387 4.1434 31.8271 6.0267 32.2038C8.0984 32.5804 9.9818 32.7688 12.0534 33.1454C14.1252 33.522 16.0085 33.8988 18.0801 34.2754C20.1519 34.652 22.0352 35.0287 24.1069 35.5937C24.2953 35.4054 24.2953 35.5937 24.1069 35.782ZM19.6903 32.8073C21.3853 33.1839 22.892 33.749 24.3987 34.1256C24.7753 33.9373 24.587 33.9373 24.587 33.9373C23.0803 33.1839 21.5736 32.619 20.067 32.054L15.5469 30.3591C14.0403 29.794 12.5336 29.4174 11.0269 28.8524C9.5203 28.2874 7.8252 27.9107 6.3185 27.5341C7.6368 28.2874 9.1435 29.0407 10.6502 29.6057L15.1703 31.3007C16.677 31.6773 18.1837 32.2424 19.6903 32.8073ZM21.6586 31.0745C22.7886 31.6395 23.9186 32.2046 25.237 32.5812C25.4253 32.3929 25.4253 32.2046 25.4253 32.0162C24.2953 31.2629 23.1652 30.6979 22.0353 30.1329C20.9053 29.5679 19.5869 29.0028 18.4569 28.4379C17.3268 27.8729 16.0085 27.4962 14.8786 26.9312C13.5602 26.5546 12.4302 25.9895 11.1118 25.6129C12.2419 26.3662 13.3718 27.1196 14.5018 27.6845C15.8202 28.2496 16.9502 28.8145 18.0802 29.3796C19.2103 29.9445 20.5286 30.5095 21.6586 31.0745ZM53.7695 30.3214C52.2628 30.8863 50.7561 31.4513 49.2494 32.2047C49.2494 32.393 49.2494 32.393 49.4378 32.393C51.1329 32.0164 52.6395 31.6396 54.1462 31.0747C55.6529 30.698 57.1596 30.1331 58.6662 29.568L63.1862 27.873C64.5046 27.1198 66.0113 26.5547 67.518 25.8015C65.8229 26.1781 64.3163 26.743 62.8096 27.1198C61.3029 27.4964 59.7963 28.0614 58.2896 28.6264L53.7695 30.3214ZM25.6137 31.451C23.7304 30.5093 22.0353 29.5677 20.152 28.626C18.2687 27.6843 16.5737 26.5544 14.8786 25.6127C13.1836 24.671 11.3003 23.541 9.6053 22.4111L4.5202 19.0211C6.4035 19.9627 8.2869 20.9044 9.9819 21.846C11.8652 22.7877 13.5602 23.7294 15.2553 24.8593C16.9503 25.9893 18.8336 26.931 20.5286 28.061C22.2236 29.1909 23.9187 30.1326 25.802 31.2627L25.802 31.451L25.6137 31.451ZM22.2234 27.261C23.3534 28.2026 24.6718 29.1443 25.9901 30.086C25.9901 30.2743 26.1785 30.2743 26.3668 30.086L26.3668 29.8976C25.2367 28.7676 23.9184 27.8259 22.7884 26.6959C21.6584 25.566 20.3401 24.6243 19.2101 23.4943C17.8917 22.5527 16.7617 21.4227 15.4433 20.481L11.4883 17.6562L14.8784 21.0461C16.0084 22.1761 17.1383 23.306 18.4567 24.2477C19.775 25.1893 20.905 26.3193 22.2234 27.261ZM34.5462 20.7167L35.1113 24.6717C35.2054 24.7658 35.2525 24.8129 35.2996 24.8129C35.3467 24.8129 35.3937 24.7658 35.4879 24.6717C35.6134 23.7928 35.5716 22.9139 35.5297 22.035C35.5088 21.5956 35.4879 21.1561 35.4879 20.7167C35.2996 19.3983 35.1113 18.08 35.1113 16.7617C35.1113 15.4433 34.923 14.125 34.7347 12.8067C34.5462 11.4884 34.3579 10.1701 33.9813 8.8518L33.9813 12.8067C33.9813 14.125 33.9813 15.4433 34.1696 16.7617C34.3579 18.08 34.3579 19.3983 34.5462 20.7167ZM38.9275 24.7951C38.9359 24.7767 38.9016 24.739 38.825 24.6619C39.1892 23.1936 39.5533 21.561 39.9174 20.1044C40.2942 18.5977 40.4825 16.9028 40.8591 15.3961C41.2358 13.8895 41.4241 12.1944 41.6125 10.6878C41.8009 8.9928 42.1775 7.4862 42.1775 5.7912C41.8009 7.2978 41.4241 8.9928 41.0475 10.4995C40.6708 12.0061 40.2942 13.7012 40.1057 15.2078C39.9174 16.7145 39.5408 18.4094 39.3525 19.9161C39.1641 21.4227 38.9758 22.9294 38.7875 24.6243C38.8009 24.6378 38.8134 24.6503 38.825 24.6619C38.8125 24.7124 38.8 24.7626 38.7875 24.8126C38.8728 24.8126 38.9195 24.8126 38.9275 24.7951ZM32.676 19.9631C33.0527 21.4697 33.4293 23.1648 33.806 24.6714C33.9944 24.8598 33.9944 24.6714 33.806 24.483C33.6177 22.9764 33.4293 21.2814 33.241 19.7748C33.0527 18.2681 32.676 16.5731 32.4877 15.0665C32.2994 13.5599 31.9226 11.8649 31.546 10.3582C31.1693 8.8515 30.7926 7.1565 30.4159 5.6499C30.6043 7.3448 30.7926 9.0399 30.981 10.5466C31.1693 12.0532 31.546 13.7482 31.7343 15.2548C32.1109 16.7615 32.2994 18.4564 32.676 19.9631Z" fill-rule="evenodd"  fill="#E4B967" ></path><path d="M46.9462 41.4416C45.769 42.0044 44.4507 42.3194 43.0588 42.3194C38.0747 42.3194 34.0342 38.279 34.0342 33.2949C34.0342 30.8357 35.0178 28.6062 36.6132 26.9785C30.6913 27.0472 25.9119 31.8691 25.9119 37.8072C25.9119 43.7881 30.7605 48.6366 36.7416 48.6366C41.4477 48.6366 45.4527 45.6349 46.9462 41.4416Z" fill-rule="evenodd"  fill="#E4B967" ></path></svg>