<svg xmlns="http://www.w3.org/2000/svg" xmlns:xlink="http://www.w3.org/1999/xlink" width="74.0155029296875" height="75.70928955078125" viewBox="0 0 74.0155029296875 75.70928955078125" fill="none"><path d="M36.7251 18.6448C36.7251 20.7164 36.7251 22.7881 36.9134 24.8597C36.9334 24.8798 36.9513 24.8955 36.968 24.9077C37.051 24.9087 37.1337 24.9104 37.2163 24.9128C37.3096 24.8889 37.4444 24.8597 37.6668 24.8597C37.6668 22.7881 37.8551 20.7164 37.8551 18.6448L37.8551 12.4299C37.8551 10.3582 37.6668 8.28658 37.6668 6.21494C37.4784 4.14329 37.4784 2.07164 37.29 0C37.1017 2.07164 36.9134 4.14329 36.9134 6.21494C36.7251 8.28658 36.7251 10.3582 36.7251 12.4299L36.7251 18.6448ZM39.0121 25.0911C39.1915 23.493 39.3709 22.0576 39.5503 20.6223C39.7387 19.1157 40.1154 17.4206 40.3037 15.9139C40.492 14.4073 40.8687 12.7123 41.2454 11.2057C41.622 9.69907 41.9987 8.00408 42.3753 6.49743C42.3753 8.19241 41.9987 9.69907 41.8104 11.394C41.622 12.9007 41.4337 14.5956 41.0571 16.1023C40.6803 17.609 40.492 19.304 40.1154 20.8106C39.7729 22.1805 39.4304 23.7061 39.0879 25.1042C39.0627 25.0998 39.0374 25.0954 39.0121 25.0911ZM42.7263 26.3238C42.5953 26.2569 42.463 26.1921 42.3296 26.1295C43.0511 24.7011 43.7726 23.4308 44.4942 21.9877C45.2475 20.4811 46.0009 19.1628 46.9425 17.8444C47.6959 16.5261 48.6375 15.0195 49.3908 13.7011C50.3326 12.3828 51.0858 11.0645 52.0276 9.74615C51.4625 11.2528 50.7092 12.7594 49.9558 14.0778C49.2025 15.5844 48.4491 16.9028 47.6959 18.2211C46.9425 19.5394 46.1892 21.0461 45.2475 22.3644C44.525 23.6288 43.6292 24.8932 42.7263 26.3238ZM47.6369 30.6983C47.5807 30.6142 47.5237 30.5308 47.4657 30.4481C47.4778 30.3217 47.5178 30.3217 47.6486 30.3217C48.5903 29.38 49.7204 28.6267 50.662 27.8733C51.6037 27.1201 52.7337 26.3667 53.8638 25.6134C54.9937 24.86 56.1237 24.1068 57.0654 23.3534C58.1955 22.6001 59.3254 22.0351 60.4554 21.4701C59.5138 22.4118 58.3838 23.1651 57.4421 24.1068C56.312 24.86 55.3704 25.6134 54.2404 26.3667C53.1104 27.1201 52.1687 27.8733 51.0387 28.6267C49.9087 29.38 48.7787 29.945 47.6486 30.6983L47.6369 30.6983ZM45.9535 47.145C46.0216 47.0777 46.089 47.0097 46.1556 46.9409C46.2567 46.895 46.3302 46.895 46.3302 46.895C47.2719 47.6484 48.4019 48.59 49.3435 49.5317L52.1686 52.3566C53.1103 53.2983 54.052 54.2399 54.8053 55.1816C55.747 56.1233 56.5003 57.0649 57.2537 58.1949C56.1236 57.4416 55.182 56.5 54.2403 55.7466C53.2986 54.805 52.357 54.0516 51.4153 53.1099L48.5902 50.2849C47.6485 49.3434 46.8952 48.4017 45.9535 47.2716L45.9535 47.145ZM45.1732 47.8562C45.25 47.7917 45.326 47.7264 45.4012 47.6602C46.9026 49.1627 48.2173 50.6651 49.532 52.1676C50.8503 53.6742 52.1687 55.1809 53.487 56.8758C54.8054 58.3825 56.1237 60.0775 57.2538 61.5842C58.5721 63.2792 59.702 64.7858 60.8321 66.4808C59.3254 64.9741 58.007 63.4675 56.6887 61.9608C55.3703 60.4542 54.052 58.9475 52.7336 57.2526C51.4153 55.7459 50.097 54.0509 48.7787 52.5442C47.5144 51.0994 46.4233 49.4813 45.1732 47.8562ZM43.7827 48.8756C43.903 48.7991 44.022 48.7206 44.1396 48.6403C45.0754 49.9527 45.8261 51.2659 46.7636 52.7658C47.7053 54.0841 48.4586 55.5907 49.2119 56.9091C49.9652 58.2274 50.7186 59.7341 51.4719 61.0524C52.2253 62.559 52.9786 63.8774 53.5437 65.384C52.6019 64.0657 51.6603 62.7473 50.9069 61.429C50.1536 60.1107 49.2119 58.604 48.4586 57.2857C47.7053 55.9674 46.7636 54.4607 46.0103 53.1424C45.2677 51.6574 44.5252 50.3553 43.7827 48.8756ZM42.1021 49.778C42.2626 49.7065 42.4214 49.6319 42.5784 49.5541C43.3245 50.6768 43.8858 51.7995 44.4472 52.922C45.0121 54.052 45.5772 55.3704 46.1422 56.5004C46.7071 57.6304 47.2722 58.9487 47.6489 60.0786C48.2138 61.397 48.5906 62.527 48.9672 63.8453C48.2138 62.7153 47.6489 61.5853 46.8955 60.4554C46.3305 59.3254 45.7655 58.1954 45.2005 56.877C44.6355 55.747 44.0704 54.4287 43.5055 53.2988C42.9756 52.239 42.6113 51.0137 42.1021 49.778ZM41.1341 50.1632C41.3067 50.1025 41.4776 50.0382 41.6468 49.9705L43.8819 55.5582C44.6353 57.4414 45.3886 59.3248 45.9535 61.2081C46.7069 63.0914 47.2719 64.9748 48.0253 67.0464C48.5902 68.9296 49.3436 71.0014 49.7203 72.8846C48.7786 71.0014 48.0253 69.118 47.2719 67.2347L45.0119 61.5847C44.2585 59.7015 43.6936 57.8182 42.9402 55.7465C42.4006 53.9478 41.6892 51.9773 41.1341 50.1632ZM36.3486 50.8883C36.5049 50.8938 36.6618 50.8966 36.8194 50.8966C36.9152 50.8966 37.0107 50.8956 37.106 50.8935C37.2903 52.9505 37.2903 55.0074 37.2903 57.0644L37.2903 63.2793C37.2903 65.351 37.2903 67.4226 37.102 69.4943C37.102 71.5659 36.9137 73.6376 36.7253 75.7092C36.5369 73.6376 36.5369 71.5659 36.3486 69.4943C36.3486 67.4226 36.1603 65.351 36.1603 63.2793L36.1603 57.0644C36.1603 55.0056 36.3463 52.947 36.3486 50.8883ZM33.7048 50.521C33.5143 51.8235 33.1444 53.1259 32.9583 54.4284C32.77 55.7467 32.3933 57.065 32.0167 58.195C31.64 59.5134 31.2633 60.6433 30.8867 61.9616C30.51 63.2799 30.1333 64.4099 29.5683 65.7283C29.7566 64.4099 29.945 63.0916 30.3217 61.7733C30.6984 60.4549 30.8867 59.1366 31.2633 58.0067C31.64 56.6884 32.0167 55.5584 32.3933 54.24C32.7657 52.9366 33.1381 51.8173 33.6926 50.518C33.6967 50.519 33.7007 50.52 33.7048 50.521ZM32.2377 50.0659C32.3994 50.1269 32.5627 50.1847 32.7274 50.2393C32.1765 52.0842 31.6211 54.0991 30.8868 55.935C30.3217 57.8183 29.5684 59.7016 28.815 61.7733L26.5551 67.4232C25.8017 69.3065 25.0484 71.1899 24.1067 73.0732C24.6717 71.0016 25.2367 69.1182 25.8017 67.2349C26.3668 65.3515 27.12 63.2799 27.8734 61.3966C28.6267 59.5132 29.1918 57.63 29.9451 55.7466L32.2051 50.0966C32.216 50.0858 32.2268 50.0755 32.2377 50.0659ZM30.6779 49.3567C30.8221 49.4342 30.9679 49.509 31.1153 49.5811C30.4741 50.8227 29.8331 51.9685 29.1919 53.2507C28.4386 54.7573 27.6852 56.0757 26.7436 57.394C25.9902 58.7123 25.0485 60.219 24.2952 61.5373C23.3535 62.8556 22.6002 64.174 21.6585 65.4923C22.2235 63.9856 22.9769 62.479 23.7302 61.1607C24.4835 59.654 25.2369 58.3357 25.9902 57.0174C26.7436 55.699 27.4969 54.1924 28.4386 52.8741C29.0858 51.7414 29.8721 50.6088 30.6779 49.3567ZM29.4261 48.59C29.5074 48.6464 29.5895 48.7019 29.6722 48.7564C29.1178 49.8309 28.4015 50.9055 27.6851 51.9799C26.9317 53.1099 26.1784 54.2399 25.425 55.1816C24.6718 56.3116 23.9184 57.2532 23.1651 58.3832C22.4117 59.3249 21.4701 60.4549 20.5284 61.3965C21.0933 60.2666 21.8467 59.1366 22.4117 58.0066C23.1651 56.8766 23.9184 55.7466 24.6718 54.8049C25.425 53.675 26.1784 52.7333 26.9317 51.6033C27.6851 50.4733 28.4385 49.5317 29.3801 48.59L29.4261 48.59ZM28.4427 47.8369C28.5217 47.9036 28.6015 47.9693 28.6821 48.0341C27.5822 49.6495 26.3152 51.1045 25.0482 52.7336C23.7298 54.4286 22.4116 55.9352 21.0932 57.4419C19.7749 58.9485 18.4565 60.4552 17.1382 62.1501C15.8198 63.6568 14.3131 65.1634 12.9948 66.6702C14.1248 64.9751 15.4432 63.2801 16.5731 61.7735C17.8915 60.2668 19.2098 58.5719 20.3398 57.0652C21.6582 55.5586 22.9765 53.8635 24.2949 52.3569C25.6133 50.8502 26.9316 49.3436 28.4383 47.8369L28.4427 47.8369ZM27.2605 46.7051C27.3661 46.8197 27.4738 46.9324 27.5834 47.0432C26.5489 48.0753 25.5008 49.0938 24.2952 49.9549C23.1652 51.0849 21.8468 52.0266 20.7168 53.1566C19.3985 54.0982 18.2685 55.2282 16.9502 56.1699L12.9951 58.9949L16.3851 55.6048C17.5151 54.4749 18.8335 53.5332 19.9635 52.4032C21.2819 51.4615 22.4119 50.3316 23.7303 49.3899C24.9691 48.505 26.0416 47.4537 27.2605 46.7051ZM26.0695 45.2054C26.134 45.3002 26.1997 45.394 26.2666 45.4869C25.3457 46.3827 24.262 47.1095 23.3535 47.8363C22.4118 48.5895 21.2818 49.3429 20.1518 50.0962C19.0218 50.8496 17.8918 51.6028 16.9501 52.3562C15.8201 53.1096 14.6901 53.6745 13.5601 54.2395C14.5018 53.2979 15.6317 52.5445 16.5734 51.6028C17.7035 50.8496 18.6452 50.0962 19.7751 49.3429C20.9051 48.5895 21.8468 47.8363 22.9769 47.0829C24.0077 46.3957 25.0386 45.8652 26.0695 45.2054ZM25.5113 44.3094C25.5568 44.3894 25.603 44.4688 25.65 44.5477C24.0055 45.6439 22.3556 46.7347 20.5284 47.6482C18.8334 48.7782 16.9501 49.7199 15.2551 50.8499C13.56 51.7915 11.6767 52.9215 9.98163 53.8632C8.09828 54.8048 6.40327 55.7465 4.51992 56.6882L9.60497 53.2981C11.3 52.1682 13.1833 51.2265 14.8783 50.0965C16.5733 49.1548 18.4567 48.0249 20.1517 47.0832C22.001 46.1586 23.6686 45.234 25.5113 44.3094ZM24.3166 41.457C24.3206 41.471 24.3246 41.485 24.3286 41.499C23.0758 42.0277 21.9831 42.3896 20.7166 42.7514C19.3982 43.1281 18.2682 43.5048 16.9499 43.8814C15.6315 44.258 14.3132 44.4463 13.1832 44.8231C11.8649 45.0114 10.5465 45.388 9.22815 45.5764C10.3582 45.0114 11.6765 44.6348 12.9949 44.258C14.3132 43.8814 15.4432 43.5048 16.7615 43.1281C18.0799 42.7514 19.2099 42.3747 20.5283 42.1864C21.7911 41.8257 23.0538 41.6377 24.3166 41.457ZM24.0166 40.1416C24.0298 40.2174 24.0436 40.2931 24.0581 40.3685C22.0789 40.8983 20.2607 41.2605 18.2682 41.6229C16.1965 41.9995 14.3131 42.3762 12.2414 42.7528C10.1698 43.1295 8.28641 43.3179 6.21472 43.6945C4.14304 43.8828 2.07135 44.2595 0.187996 44.4479C2.25969 43.8828 4.14304 43.5062 6.21472 42.9412C8.28641 42.5645 10.1698 42.1878 12.2414 41.8112C14.3131 41.4345 16.1965 41.0578 18.2682 40.8695C20.2467 40.5098 22.0534 40.3219 24.0166 40.1416ZM23.8256 38.0898C23.8293 38.345 23.8402 38.5985 23.8584 38.8499C22.1878 39.0317 20.6968 39.0317 19.0218 39.0317L14.1251 39.0317C12.4302 39.0317 10.9235 39.0317 9.22841 38.8433C7.5334 38.8433 6.02672 38.655 4.3317 38.4666C6.02672 38.2783 7.5334 38.2783 9.22841 38.09C10.9235 38.09 12.4302 37.9017 14.1251 37.9017L19.0218 37.9017C20.6859 37.9017 22.1683 38.0832 23.8256 38.0898ZM23.8983 36.5066C23.8839 36.6415 23.8716 36.777 23.8613 36.9131L20.1514 36.9131C18.8331 36.9131 17.5147 36.7247 16.1965 36.5364C14.8781 36.3481 13.5597 36.1597 12.2414 36.1597C10.923 35.9714 9.60468 35.783 8.28633 35.4064L12.2414 35.4064C13.5597 35.4064 14.8781 35.5947 16.1965 35.5947C17.5147 35.783 18.8331 35.783 20.1514 35.9714L23.8983 36.5066ZM24.0321 35.5747C24.0202 35.6407 24.0087 35.7069 23.9978 35.7732C21.9625 35.5818 19.9305 35.2151 18.0802 35.0299C16.0085 34.6533 14.1251 34.2767 12.0534 34.0884C9.98176 33.7117 8.09841 33.335 6.02672 32.9583C3.95504 32.5817 2.07169 32.0166 0 31.4517C2.07169 31.64 4.14337 31.8283 6.02672 32.2051C8.09841 32.5817 9.98176 32.77 12.0534 33.1467C14.1251 33.5233 16.0085 33.9 18.0802 34.2767C20.1269 34.6488 21.9897 35.0209 24.0321 35.5747ZM24.3184 34.3403C24.2885 34.4456 24.2598 34.5514 24.2325 34.6577C22.8399 34.2853 21.435 33.7767 19.8693 33.4288C18.3626 32.8638 16.856 32.2989 15.3493 31.9221L10.8293 30.2271C9.32259 29.6622 7.8159 28.9088 6.49756 28.1555C8.00424 28.5322 9.69926 28.9088 11.2059 29.4739C12.7126 30.0388 14.2193 30.4155 15.726 30.9805L20.2461 32.6755C21.6035 33.1845 22.961 33.6936 24.3184 34.3403ZM25.232 32.0133C25.1488 32.1765 25.069 32.3418 24.9927 32.5089C23.777 32.1344 22.7063 31.6045 21.47 31.0747C20.3401 30.5098 19.0217 29.9447 17.8917 29.3798C16.7616 28.8147 15.6316 28.2498 14.3132 27.6848C13.1833 27.1197 12.0533 26.3665 10.9233 25.6131C12.2416 25.9897 13.3716 26.5548 14.69 26.9314C15.8199 27.4964 17.1383 27.8731 18.2683 28.4381C19.3983 29.003 20.7167 29.5681 21.8467 30.133C22.9751 30.6973 24.1035 31.2615 25.232 32.0133ZM25.5526 31.422C23.6935 30.4905 22.0147 29.5589 20.1517 28.6275C18.2684 27.6858 16.5733 26.5558 14.8783 25.6142C13.1833 24.6725 11.3 23.5425 9.60497 22.4125L4.51992 19.0225C6.40327 19.9642 8.28662 20.9058 9.98163 21.8475C11.865 22.7892 13.56 23.7308 15.2551 24.8608C16.9501 25.9908 18.8334 26.9325 20.5284 28.0624C22.1887 29.1693 23.8492 30.0955 25.6865 31.1951C25.6411 31.2702 25.5965 31.3459 25.5526 31.422ZM27.5982 28.7454C26.6744 28.0042 25.5844 27.0912 24.6715 26.1783L21.8465 23.3533C20.9048 22.4117 19.9631 21.47 19.2098 20.5283C18.2681 19.5867 17.5148 18.645 16.7614 17.515C17.8915 18.2684 18.8331 19.21 19.7748 19.9634C20.7165 20.905 21.6581 21.6583 22.5998 22.6L25.4248 25.425C26.3449 26.3449 27.0851 27.265 27.9969 28.3606C27.8612 28.4861 27.7283 28.6144 27.5982 28.7454ZM28.4907 27.9263C27.0404 26.4651 25.7618 25.0039 24.4832 23.5427C23.1649 22.036 21.8465 20.5294 20.5282 18.8343C19.2098 17.3277 17.8915 15.6327 16.7615 14.1261C15.4432 12.4311 14.3131 10.9245 13.1831 9.2295C14.6898 10.7361 16.0081 12.2428 17.3265 13.7494C18.6448 15.2561 19.9632 16.7627 21.2816 18.4577C22.5999 19.9643 23.9182 21.6593 25.2365 23.166C26.4666 24.5718 27.5328 26.1416 28.7409 27.7224C28.6567 27.7893 28.5733 27.8573 28.4907 27.9263ZM29.6322 27.0736C28.8507 25.9247 28.1743 24.7572 27.3557 23.4473C26.414 22.129 25.6607 20.6223 24.9073 19.304C24.154 17.9857 23.4006 16.479 22.6472 15.1607C21.8939 13.654 21.1406 12.3357 20.5756 10.8291C21.5173 12.1474 22.4589 13.4657 23.2123 14.784C23.9656 16.1024 24.9073 17.609 25.6607 18.9273C26.414 20.2457 27.3557 21.7523 28.109 23.0707C28.7603 24.3732 29.4115 25.5349 30.0628 26.7993C29.9174 26.888 29.7738 26.9794 29.6322 27.0736ZM31.3937 26.0903C30.6693 24.9894 30.1189 23.8886 29.5684 22.7879C29.0035 21.6579 28.4384 20.3396 27.8734 19.2096C27.3085 18.0795 26.7434 16.7612 26.3668 15.6313C25.8018 14.313 25.425 13.183 25.0484 11.8646C25.8018 12.9947 26.3668 14.1247 27.12 15.2546C27.6851 16.3846 28.2501 17.5146 28.8151 18.8329C29.3801 19.9629 29.9451 21.2813 30.5101 22.4112C31.0521 23.4951 31.4207 24.7524 31.9487 25.8505C31.7615 25.9262 31.5765 26.0062 31.3937 26.0903ZM32.4387 25.6638C32.4264 25.6682 32.414 25.6726 32.4017 25.6771C32.3966 25.659 32.3935 25.6379 32.3935 25.6135C32.412 25.6321 32.4269 25.6488 32.4387 25.6638ZM32.4748 25.6509C32.4498 25.6405 32.4228 25.6282 32.3935 25.6135L30.1334 19.9636C29.3801 18.0802 28.6267 16.1969 28.0618 14.3135C27.3084 12.4302 26.7434 10.5469 25.99 8.47527C25.425 6.59196 24.6717 4.52031 24.295 2.63698C25.2367 4.52031 25.99 6.40362 26.7434 8.28695L29.0034 13.9369C29.7568 15.8203 30.3217 17.7036 31.0751 19.7752C31.6288 21.621 32.3635 23.6476 32.9244 25.5007C32.7733 25.5481 32.6235 25.5982 32.4748 25.6509ZM33.6562 25.2946C33.2981 23.8455 32.9401 22.243 32.582 20.8106C32.2052 19.304 32.0169 17.609 31.6403 16.1024C31.452 14.5957 31.0753 12.9008 30.8869 11.394C30.6986 9.88741 30.5103 8.19242 30.3219 6.49743C30.6986 8.00409 31.0753 9.69908 31.452 11.2057C31.8286 12.7123 32.2052 14.4074 32.3936 15.9141C32.582 17.4207 32.9586 19.1157 33.147 20.6223C33.3333 22.1129 33.5196 23.7878 33.7059 25.2823C33.6893 25.2863 33.6727 25.2904 33.6562 25.2946ZM35.8674 24.9412C35.8439 24.9198 35.8166 24.8925 35.7835 24.8593L35.2184 20.9043C35.0301 19.586 35.0301 18.2676 34.8417 16.9494C34.6534 15.6311 34.6534 14.3128 34.6534 12.9944L34.6534 9.03945C35.0301 10.3578 35.2184 11.6761 35.4068 12.9944C35.5951 14.3128 35.7835 15.6311 35.7835 16.9494C35.7835 18.2676 35.9718 19.586 36.1601 20.9043C36.1601 21.3437 36.181 21.7832 36.202 22.2226C36.2438 23.1015 36.2856 23.9804 36.1601 24.8593C36.1339 24.8855 36.1113 24.908 36.0914 24.9269C36.0166 24.9311 35.9419 24.9358 35.8674 24.9412ZM43.1283 19.7754C42.375 21.6588 41.8099 23.7304 41.245 25.6138C41.4333 25.8021 41.6216 25.8021 41.8099 25.6138L44.07 19.9638C44.8234 18.0804 45.3884 16.1971 46.1416 14.3137C46.895 12.4305 47.6483 10.3588 48.2134 8.47549C48.7783 6.59218 49.3434 4.70885 49.9084 2.6372C48.9667 4.52052 48.2134 6.40384 47.46 8.28716L45.2 13.9371C44.4466 16.0088 43.6934 17.8921 43.1283 19.7754ZM48.967 22.976C47.6486 24.671 46.3303 26.1776 45.2002 27.8727L45.5769 27.8727C47.0836 26.366 48.4019 24.8593 49.7203 23.3526C51.0386 21.846 52.357 20.151 53.6753 18.6444C54.8054 17.1377 56.1237 15.4428 57.4421 13.9361C58.572 12.4294 59.8904 10.7344 61.0204 9.03945C59.702 10.5461 58.1954 12.0527 56.877 13.5594C55.5587 15.2544 54.2403 16.7611 52.9219 18.2678C51.6036 19.7744 50.2853 21.281 48.967 22.976ZM41.0569 21.2808C40.8684 22.5992 40.4918 23.9175 40.3035 25.2358C40.8684 23.9175 41.2452 22.7875 41.6218 21.4691C41.9985 20.1508 42.3751 19.0208 42.7519 17.7025C43.1285 16.5726 43.3168 15.2542 43.6935 13.9359C44.0702 12.6176 44.2585 11.2993 44.4469 9.98092C43.8819 11.2993 43.5051 12.4293 43.1285 13.7476C42.7519 15.0659 42.3751 16.1958 41.9985 17.5142C41.6218 18.6442 41.2452 19.9625 41.0569 21.2808ZM46.3302 23.7308C45.5769 24.8608 44.8235 25.9908 44.2585 27.1207C44.2585 27.1207 44.2585 27.3091 44.4469 27.1207L44.6352 27.1207C45.5769 26.1791 46.3302 25.2374 47.0836 24.1074C47.837 22.9774 48.5902 22.0358 49.3436 20.9058C50.0969 19.9641 50.8503 18.8341 51.6036 17.7042C52.1687 16.5742 52.9219 15.4442 53.487 14.3142C52.5453 15.2559 51.6036 16.3859 50.8503 17.3275C50.0969 18.4575 49.3436 19.3992 48.5902 20.5292C47.837 21.4708 47.0836 22.6008 46.3302 23.7308ZM50.1442 25.2835C48.8259 26.2252 47.6959 27.3552 46.5658 28.4852C46.5658 28.4852 46.5658 28.6735 46.7541 28.6735L46.9425 28.6735C48.2608 27.9201 49.3908 26.7901 50.7092 25.8485C52.0276 24.9068 53.1576 23.7768 54.4759 22.8352C55.6059 21.7052 56.9242 20.7635 58.0543 19.6335L61.4444 16.2436L57.4893 19.0686C56.1709 20.0103 55.0409 21.1402 53.7226 22.0819C52.5925 23.2119 51.2742 24.1536 50.1442 25.2835ZM21.5644 26.9314C22.6943 27.873 24.0127 28.8147 25.331 29.7564L25.7078 29.7564L25.7078 29.5681C24.5778 28.4381 23.2594 27.4964 22.1294 26.3664C20.9993 25.2365 19.681 24.2948 18.551 23.1648C17.2327 22.2231 16.1027 21.0932 14.7843 20.1515L10.8293 17.3265L14.2193 20.7164C15.3493 21.8464 16.4793 22.9764 17.7977 23.9181C19.116 24.8597 20.2461 25.9897 21.5644 26.9314ZM48.2136 31.2641C49.9086 30.1341 51.6036 29.0041 53.487 28.0624C55.182 26.9325 57.0653 25.9908 58.7603 24.8608C60.4554 23.9191 62.3387 22.7892 64.0337 21.8475C65.9171 20.9058 67.6121 19.9642 69.4954 19.0225C67.8004 20.1525 66.1055 21.2826 64.4104 22.4125C62.7154 23.5425 60.8321 24.4842 59.1371 25.6142C57.4421 26.5558 55.5587 27.6858 53.8637 28.6275C51.9803 29.5691 50.2853 30.5108 48.4019 31.4525L48.2136 31.4525C48.0253 31.2641 48.2136 31.2641 48.2136 31.2641ZM53.2517 30.5097C51.745 31.0746 50.2383 31.6397 48.7317 32.393C48.7317 32.5813 48.7317 32.5813 48.92 32.5813C50.615 32.2046 52.1217 31.828 53.6283 31.2629C55.135 30.8863 56.6418 30.3214 58.1485 29.7563L62.6685 28.0613C63.9869 27.3081 65.4935 26.743 67.0002 25.9897C65.3052 26.3664 63.7985 26.9314 62.2919 27.3081C60.7851 27.6847 59.2784 28.2497 57.7717 28.8147L53.2517 30.5097ZM53.2987 32.9585C51.9803 33.3351 50.8503 33.7117 49.532 34.2767C49.4377 34.4651 49.4377 34.5592 49.4613 34.5592C49.4848 34.5592 49.532 34.4651 49.532 34.2767C50.8503 34.0884 52.1687 33.9 53.487 33.5234C54.8054 33.3351 55.9353 32.9585 57.2537 32.5817C58.572 32.2051 59.702 31.8284 61.0204 31.4518C62.3387 31.0752 63.6571 30.6984 64.7871 30.1335C63.4688 30.3218 62.1504 30.6984 60.8321 30.8867C59.702 31.2635 58.3837 31.4518 57.0653 31.8284C55.747 32.2051 54.6171 32.5817 53.2987 32.9585ZM49.7202 35.4064C51.7918 34.8413 53.6752 34.4647 55.7469 34.088C57.8186 33.7114 59.7019 33.3347 61.7736 32.958C63.8453 32.5814 65.7286 32.3931 67.8004 32.0164C69.872 31.828 71.9438 31.4514 73.8271 31.2631C71.7553 31.828 69.872 32.2047 67.8004 32.7697C65.7286 33.1463 63.8453 33.523 61.7736 33.8997C59.7019 34.2763 57.8186 34.653 55.7469 34.8413C53.6752 35.218 51.7918 35.4064 49.7202 35.5947L49.7202 35.4064ZM54.7113 36.2773C53.0163 36.2773 51.5096 36.2773 49.8146 36.4657L49.8146 37.2189C51.5096 37.2189 53.0163 37.4074 54.7113 37.4074L59.608 37.4074C61.303 37.4074 62.8097 37.2189 64.5047 37.2189C66.1998 37.0306 67.7065 37.0306 69.4015 36.8423C67.7065 36.654 66.1998 36.4657 64.5047 36.4657C62.8097 36.2773 61.303 36.2773 59.608 36.2773L54.7113 36.2773ZM53.8638 38.7978L49.9087 38.7978C49.7204 38.9861 49.9087 39.1744 49.9087 39.1744L53.8638 39.7395C55.1821 39.9278 56.5005 39.9278 57.8187 40.1161C59.1371 40.1161 60.4554 40.3046 61.7738 40.3046L65.7288 40.3046C64.4105 39.9278 63.0921 39.7395 61.7738 39.5512C60.4554 39.5512 59.1371 39.3629 57.8187 39.1744C56.5005 38.9861 55.1821 38.7978 53.8638 38.7978ZM49.9086 39.9272C51.9803 40.1155 54.052 40.4921 55.9354 40.6805C58.007 41.0572 59.8904 41.4338 61.9621 41.6221C64.0337 41.9988 65.9172 42.3755 67.9888 42.7521C70.0605 43.1288 71.9439 43.6938 74.0155 44.2588C71.9439 44.0705 69.8721 43.8822 67.9888 43.5054C65.9172 43.1288 64.0337 42.9405 61.9621 42.5638C59.8904 42.1872 58.007 41.8104 55.9354 41.4338C53.8637 41.0572 51.9803 40.6805 49.9086 40.1155C49.7203 40.3038 49.7203 40.1155 49.9086 39.9272ZM54.3252 42.9019C52.6302 42.5253 51.1235 41.9602 49.6169 41.5836C49.2402 41.7719 49.4285 41.7719 49.4285 41.7719C50.9352 42.5253 52.4419 43.0902 53.9486 43.6552L58.4686 45.3501C59.9753 45.9152 61.4819 46.2918 62.9886 46.8568C64.4953 47.4218 66.1904 47.7985 67.6971 48.1751C66.3787 47.4218 64.872 46.6685 63.3654 46.1035L58.8452 44.4086C57.3386 44.0319 55.8319 43.4669 54.3252 42.9019ZM52.357 44.6347C51.2269 44.0697 50.0969 43.5047 48.7786 43.128C48.5902 43.3163 48.5902 43.5047 48.5902 43.693C49.7203 44.4463 50.8503 45.0113 51.9802 45.5764C53.1103 46.1413 54.4286 46.7064 55.5587 47.2713C56.6887 47.8363 58.007 48.213 59.137 48.778C60.4553 49.1546 61.5854 49.7197 62.9037 50.0963C61.7737 49.343 60.6437 48.5897 59.5137 48.0247C58.1954 47.4596 57.0653 46.8947 55.9353 46.3296C54.8053 45.7647 53.4869 45.1997 52.357 44.6347ZM20.2461 45.3878C21.7527 44.8229 23.2594 44.2579 24.7661 43.5045C24.7661 43.3162 24.7661 43.3162 24.5778 43.3162C22.8827 43.6929 21.376 44.0696 19.8693 44.6346C18.3626 45.0112 16.856 45.5761 15.3493 46.1412L10.8293 47.8362C9.51092 48.5894 8.00423 49.1545 6.49756 49.9078C8.19257 49.5311 9.69925 48.9662 11.2059 48.5894C12.7126 48.2128 14.2193 47.6479 15.7259 47.0828L20.2461 45.3878ZM48.4018 44.2582C50.2851 45.1999 51.9802 46.1415 53.8635 47.0832C55.7469 48.0249 57.4419 49.1548 59.137 50.0965C60.832 51.0382 62.7153 52.1682 64.4103 53.2981L69.4954 56.6882C67.6121 55.7465 65.7286 54.8048 64.0336 53.8632C62.1503 52.9215 60.4553 51.9798 58.7602 50.8499C57.0652 49.7199 55.1819 48.7782 53.4869 47.6482C51.7919 46.5183 50.0968 45.5766 48.2135 44.4466L48.2135 44.2582L48.4018 44.2582ZM51.7921 48.4482C50.6621 47.5066 49.3437 46.5649 48.0254 45.6232C48.0254 45.4349 47.8371 45.4349 47.6487 45.6232L47.6487 45.8116C48.7788 46.9416 50.0971 47.8833 51.2272 49.0133C52.3571 50.1432 53.6754 51.0849 54.8055 52.2149C56.1238 53.1565 57.2539 54.2865 58.5722 55.2282L62.5273 58.0531L59.1372 54.6631C58.0071 53.5331 56.8772 52.4032 55.5589 51.4615C54.2405 50.5199 53.1105 49.3899 51.7921 48.4482ZM39.4693 54.9925L38.9042 51.0376C38.8101 50.9435 38.763 50.8964 38.7159 50.8964C38.6688 50.8964 38.6218 50.9435 38.5276 51.0376C38.4021 51.9164 38.4439 52.7953 38.4858 53.6742C38.5067 54.1137 38.5276 54.5531 38.5276 54.9925C38.7159 56.3109 38.9042 57.6292 38.9042 58.9475C38.9042 60.2659 39.0925 61.5842 39.2809 62.9025C39.4693 64.2209 39.6576 65.5391 40.0343 66.8574L40.0343 62.9025C40.0343 61.5842 40.0343 60.2659 39.8459 58.9475C39.6576 57.6292 39.6576 56.3109 39.4693 54.9925ZM35.088 50.9141C35.0797 50.9325 35.1139 50.9702 35.1905 51.0473C34.8264 52.5156 34.4622 54.1482 34.0981 55.6048C33.7213 57.1115 33.533 58.8064 33.1564 60.3131C32.7797 61.8197 32.5914 63.5148 32.403 65.0214C32.2147 66.7164 31.838 68.2231 31.838 69.918C32.2147 68.4114 32.5914 66.7164 32.9681 65.2098C33.3447 63.7031 33.7213 62.008 33.9098 60.5014C34.0981 58.9948 34.4747 57.2998 34.6631 55.7931C34.8514 54.2865 35.0397 52.7798 35.228 51.0849C35.2146 51.0715 35.2021 51.0589 35.1905 51.0473C35.203 50.9968 35.2156 50.9466 35.228 50.8966C35.1427 50.8966 35.096 50.8966 35.088 50.9141ZM41.3395 55.7461C40.9629 54.2395 40.5862 52.5444 40.2095 51.0378C40.0212 50.8495 40.0212 51.0378 40.2095 51.2262C40.3978 52.7328 40.5862 54.4278 40.7745 55.9345C40.9629 57.4411 41.3395 59.1361 41.5278 60.6427C41.7162 62.1494 42.0929 63.8443 42.4695 65.351C42.8462 66.8577 43.2229 68.5527 43.5996 70.0593C43.4113 68.3644 43.2229 66.6693 43.0345 65.1627C42.8462 63.656 42.4695 61.961 42.2812 60.4544C41.9046 58.9478 41.7162 57.2528 41.3395 55.7461Z" fill-rule="evenodd"  fill="#E4B967" ></path><path d="M36.8194 27.0727C30.8386 27.0727 25.9902 31.921 25.9902 37.9017C25.9902 38.2197 26.0039 38.5344 26.0307 38.8455C26.4643 34.2654 30.321 30.6824 35.0145 30.6824C39.9986 30.6824 44.0389 34.7227 44.0389 39.7066C44.0389 44.4001 40.4558 48.2567 35.8757 48.6902C36.1867 48.7171 36.5015 48.7308 36.8194 48.7308C42.8003 48.7308 47.6487 43.8825 47.6487 37.9017C47.6487 31.921 42.8003 27.0727 36.8194 27.0727Z" fill-rule="evenodd"  fill="#E4B967" ></path></svg>