<svg xmlns="http://www.w3.org/2000/svg" xmlns:xlink="http://www.w3.org/1999/xlink" width="86.63409423828125" height="86.63116455078125" viewBox="0 0 86.63409423828125 86.63116455078125" fill="none"><path d="M44.447 30.3215C44.6354 27.6848 44.6354 25.2365 44.8237 22.5998C45.012 19.9631 45.2004 17.5148 45.3888 15.0666C45.5771 12.6182 45.9537 9.98158 46.142 7.53328C46.5187 5.08496 46.7071 2.44831 47.0837 0C47.0837 2.63665 46.8954 5.08496 46.7071 7.7216C46.5187 10.3583 46.3304 12.8065 46.142 15.2549C45.9537 17.7032 45.7654 20.3398 45.3888 22.7881C45.2004 25.2365 44.8237 27.8731 44.447 30.3215ZM39.8937 30.7769L37.6668 23.5401C36.9135 21.0919 36.3485 18.6435 35.5951 16.1952C34.8418 13.7468 34.2769 11.2986 33.7118 8.85028C33.1468 6.40198 32.5818 3.95367 32.0168 1.31703L34.2769 8.66194C35.0301 11.1103 35.7835 13.5585 36.3485 16.0069C36.9135 18.4552 37.6668 20.9034 38.2318 23.3518C38.789 25.7659 39.346 28.1798 39.9032 30.7744C39.9001 30.7753 39.8968 30.7761 39.8937 30.7769ZM39.3236 30.9465C38.7632 29.0973 38.0309 27.0763 37.4786 25.2353C36.7252 23.1637 36.1603 21.2804 35.4069 19.397L33.1469 13.7471C32.3935 11.8638 31.6403 9.98043 30.6985 8.0971C31.0752 9.98043 31.8286 12.0521 32.3935 13.9354C33.1469 16.0071 33.7119 17.8904 34.4653 19.7736C35.0303 21.657 35.7836 23.5403 36.5369 25.4237L38.797 31.0737C38.797 31.0935 38.799 31.1112 38.8026 31.1269C38.8134 31.1229 38.8242 31.1189 38.835 31.1149C38.8245 31.1023 38.8119 31.0886 38.797 31.0737C38.8205 31.0853 38.8426 31.0956 38.8633 31.1046C39.0154 31.0492 39.1689 30.9963 39.3236 30.9465ZM38.3493 31.3046C37.8229 30.208 37.4546 28.9533 36.9137 27.8713C36.3486 26.7414 35.7836 25.423 35.2187 24.293C34.6536 22.9747 34.0886 21.8447 33.5236 20.7147C32.7703 19.5848 32.2053 18.4548 31.4519 17.3248C31.8286 18.6431 32.2053 19.7731 32.7703 21.0914C33.1469 22.2213 33.712 23.5397 34.277 24.6697C34.8419 25.7997 35.407 27.118 35.972 28.248C36.5222 29.3483 37.0723 30.4486 37.7964 31.5489C37.9784 31.4634 38.1627 31.3818 38.3493 31.3046ZM37.0575 31.9255C36.3189 30.4556 35.5805 29.1596 34.8419 27.6826C34.0886 26.3643 33.1469 24.8577 32.3937 23.5393C31.6403 22.221 30.6985 20.7144 29.9453 19.396C29.1919 18.0777 28.2503 16.7594 27.3086 15.441C27.8735 16.9477 28.6269 18.266 29.3802 19.7727C30.1336 21.091 30.887 22.5976 31.6403 23.916C32.3937 25.2343 33.1469 26.7409 34.0886 28.0593C35.0155 29.5424 35.76 30.8431 36.6814 32.1409C36.8055 32.067 36.9308 31.9952 37.0575 31.9255ZM35.9717 32.5949L35.9717 32.5807C34.6534 30.509 33.3351 28.2491 31.8284 26.1774C30.5101 24.1058 29.0034 22.0341 27.4967 19.9625L22.9766 13.7475C21.47 11.6759 19.9633 9.79255 18.2683 7.7209C19.5867 9.79255 21.0933 12.0525 22.4117 14.1242C23.9184 16.3841 25.2367 18.4559 26.7434 20.5274L31.2634 26.7425C32.7633 28.6173 34.2632 30.6787 35.7631 32.7411C35.8322 32.6917 35.9017 32.643 35.9717 32.5949ZM35.1585 33.2009C33.9446 31.614 32.8749 30.0374 31.64 28.6262C30.3217 27.1195 29.0034 25.4246 27.6851 23.9179C26.3667 22.223 25.0484 20.7163 23.73 19.2097C22.4117 17.703 21.0933 16.1964 19.5867 14.6897C20.7167 16.3847 21.8467 17.8913 23.165 19.5863C24.295 21.0929 25.6133 22.7879 26.9317 24.2946C28.2501 25.9896 29.5684 27.4963 30.8868 29.0029C32.1707 30.4701 33.4546 31.9375 34.9123 33.4047C34.9935 33.3358 35.0756 33.2678 35.1585 33.2009ZM34.4201 33.8444C33.4992 32.7383 32.755 31.8117 31.8284 30.8851L29.0033 28.0601C28.0616 27.1184 27.12 26.3651 26.1783 25.4235C25.2366 24.6701 24.295 23.7284 23.165 22.9751C23.9184 24.1052 24.6716 25.0467 25.6133 25.9884C26.3666 26.9301 27.3083 27.8718 28.2501 28.8134L31.0751 31.6384C31.997 32.5604 33.0995 33.4824 34.0291 34.2275C34.1568 34.0971 34.2871 33.9693 34.4201 33.8444ZM33.5797 34.7106C32.48 33.6379 31.2198 32.7257 30.1336 31.6396C29.0036 30.5097 27.6852 29.568 26.5552 28.438C25.2369 27.4963 24.1069 26.3664 22.7885 25.4247L18.8335 22.5997L22.2235 25.9896C23.3535 27.1196 24.4835 28.2496 25.8019 29.1913C27.1202 30.1329 28.2503 31.2629 29.5686 32.2046C30.6933 33.1419 32.0049 34.0793 33.3172 35.0167C33.403 34.9133 33.4905 34.8112 33.5797 34.7106ZM32.8123 35.6647C30.9682 34.1971 28.9501 32.7293 26.9318 31.2615C24.8602 29.5666 22.7884 28.2482 20.7168 26.7416C18.4567 25.2349 16.3851 23.9166 14.3133 22.41C12.2417 20.9033 10.17 19.585 7.91001 18.2667C9.79336 19.9616 11.8651 21.4683 13.9367 22.9749L20.1518 27.4949C22.2235 29.0015 24.2951 30.5082 26.3668 31.8265C28.3983 33.1193 30.611 34.5931 32.6495 35.8929C32.7029 35.8162 32.7572 35.7402 32.8123 35.6647ZM32.1392 36.6846C30.2822 35.5721 28.607 34.6393 26.9318 33.5225C25.2368 32.3926 23.3535 31.4509 21.6585 30.3209C19.9634 29.1909 18.2684 28.2493 16.3851 27.3076C14.6901 26.3659 12.8067 25.4243 10.9234 24.4827L16.0085 27.8726C17.7034 29.0026 19.5868 30.1326 21.2818 31.0743C22.9767 32.0159 24.6719 33.1459 26.5552 34.0876C28.4359 35.0279 30.1287 35.9683 32.009 36.9086C32.0517 36.8334 32.095 36.7588 32.1392 36.6846ZM31.682 37.522C31.6692 37.5069 31.6553 37.4917 31.6402 37.4765C30.5101 36.7232 29.3801 36.1582 28.2502 35.5932C27.1201 35.0282 25.8018 34.4631 24.6717 33.8982C23.5417 33.3332 22.2234 32.9565 21.0934 32.3915C19.7751 32.0149 18.645 31.4499 17.3267 31.0732C18.4567 31.8266 19.5868 32.5799 20.7167 33.1449C22.035 33.7099 23.1651 34.2748 24.2951 34.8399C25.4251 35.4048 26.7435 35.9699 27.8734 36.5349C29.1316 37.074 30.2182 37.6132 31.4607 37.9888C31.5314 37.8315 31.6053 37.6759 31.682 37.522ZM31.1506 38.7401C29.6816 38.0146 28.2125 37.4638 26.7435 36.9129L22.2235 35.2179C20.7167 34.6529 19.21 34.2762 17.7033 33.7113C16.1967 33.1462 14.5017 32.7696 12.995 32.393C14.3133 33.1462 15.82 33.8996 17.3267 34.4646L21.8467 36.1595C23.3534 36.5363 24.8601 37.1012 26.3667 37.6662C28.0571 38.0418 29.5601 38.6047 31.0625 38.9813C31.0911 38.9006 31.1205 38.8201 31.1506 38.7401ZM30.7779 39.8916L23.5417 37.6651C21.0933 36.9117 18.6449 36.3467 16.1966 35.5935C13.7483 34.8401 11.2999 34.2752 8.85154 33.7101C6.40319 33.1451 3.76649 32.5801 1.31814 32.0151C3.76649 32.9568 6.21484 33.5218 8.66321 34.4635C11.1116 35.2167 13.56 35.9701 16.0082 36.5351C18.4566 37.1001 20.905 37.8534 23.3533 38.4185C25.9334 38.9713 28.333 39.5241 30.7289 40.077C30.7448 40.015 30.7611 39.9533 30.7779 39.8916ZM30.5195 41.0461C30.5165 41.0489 30.5135 41.052 30.5103 41.0551C28.4386 40.4901 26.5553 40.1134 24.4836 39.7368C22.4119 39.3601 20.5286 38.9834 18.4568 38.6068C16.3852 38.2301 14.5019 38.0418 12.4301 37.6652C10.5468 37.2884 8.47514 37.1001 6.40345 36.9118C8.47514 37.4768 10.3585 38.0418 12.4301 38.4185C14.5019 38.7951 16.3852 39.1718 18.4568 39.5485C20.5286 39.7368 22.4119 40.1134 24.4836 40.4901C26.3598 40.6777 28.4228 41.0523 30.4866 41.2413C30.4971 41.1761 30.5081 41.111 30.5195 41.0461ZM30.3898 41.9794L26.5548 41.4315C25.2365 41.2431 23.9181 41.2431 22.5999 41.0548C21.2815 41.0548 19.9632 40.8665 18.6448 40.8665L14.6898 40.8665C16.0081 41.2431 17.3265 41.4315 18.6448 41.6199C19.9632 41.6199 21.2815 41.8082 22.5999 41.9965C23.9181 42.1848 25.2365 42.3732 26.5548 42.3732L30.3556 42.3732C30.365 42.2413 30.3765 42.1101 30.3898 41.9794ZM30.334 42.7493C28.7102 42.7371 27.2496 42.5617 25.6135 42.5617L20.7168 42.5617C19.0218 42.5617 17.5151 42.75 15.82 42.75C14.125 42.9383 12.6184 42.9383 10.9234 43.1266C12.6184 43.3149 14.125 43.5032 15.82 43.5032C17.5151 43.6917 19.0218 43.6917 20.7168 43.6917L25.6135 43.6917C27.2461 43.6917 28.7039 43.6917 30.3235 43.5233C30.3224 43.4544 30.3219 43.3854 30.3219 43.3162C30.3219 43.1263 30.326 42.9373 30.334 42.7493ZM30.3668 44.4041C30.352 44.4167 30.337 44.4304 30.3219 44.4455C27.6853 44.4455 25.0486 44.6339 22.6002 44.8222C20.1518 45.0105 17.5151 45.1989 15.0668 45.3872C12.6185 45.5755 9.98177 45.9522 7.5334 46.1405C5.08505 46.3289 2.44835 46.7055 0 47.0822C2.6367 47.0822 5.08505 46.8939 7.91008 46.8939C10.3584 46.7055 12.9951 46.5172 15.4435 46.3289C17.8919 46.1405 20.5286 45.9522 22.9769 45.5755C25.3851 45.3902 27.9755 45.0229 30.3898 44.6524C30.3814 44.5699 30.3737 44.4871 30.3668 44.4041ZM30.5206 45.5925C28.5185 45.7756 26.6839 45.9638 24.6717 46.3296C22.6 46.5179 20.7167 46.8946 18.6449 47.2713C16.5733 47.648 14.69 48.0246 12.6182 48.4013C10.5466 48.9663 8.66324 49.3429 6.59155 49.908C8.4749 49.7197 10.5466 49.3429 12.6182 49.1546C14.69 48.778 16.5733 48.5896 18.6449 48.2129C20.7167 47.8363 22.6 47.4596 24.6717 47.083C26.6969 46.7147 28.5422 46.3465 30.5595 45.8024C30.546 45.7326 30.533 45.6627 30.5206 45.5925ZM30.8231 46.9025C29.526 47.0879 28.2289 47.2761 26.9318 47.6467C25.6135 47.835 24.4834 48.2116 23.1651 48.5883C21.8467 48.965 20.7168 49.3416 19.3984 49.7183C18.0801 50.095 16.7617 50.4716 15.6317 51.0366C16.9501 50.8483 18.2684 50.4716 19.5868 50.2833C20.7168 49.9066 22.035 49.7183 23.3534 49.3416C24.6717 48.965 25.8018 48.5883 27.1201 48.2116C28.4188 47.8406 29.5346 47.4696 30.8277 46.9186C30.8262 46.9133 30.8246 46.9079 30.8231 46.9025ZM31.062 47.6497C29.3723 48.0253 27.8695 48.4017 26.3667 48.9651C24.8601 49.3417 23.3534 49.9067 21.8467 50.4717L17.3267 52.1667C16.0083 52.92 14.5017 53.485 12.995 54.2383C14.69 53.8617 16.1967 53.2967 17.7033 52.92C19.21 52.5433 20.7167 51.9784 22.2234 51.4133L26.7435 49.7184C28.2124 49.1676 29.6812 48.6168 31.1502 47.8914C31.12 47.8111 31.0907 47.7306 31.062 47.6497ZM31.3688 48.4347C29.1319 49.3649 26.7157 50.2972 24.4833 51.4134C22.2232 52.5434 19.7749 53.4851 17.5149 54.615C15.0665 55.7451 12.8065 56.8751 10.5465 58.0051C8.28646 59.1351 6.02644 60.2651 3.76641 61.5833C6.21477 60.8301 8.66312 59.7 10.9231 58.7583C13.1832 57.6284 15.6315 56.6867 17.8916 55.5567C20.3399 54.615 22.5999 53.4851 24.86 52.3551L31.6163 48.9769C31.5298 48.7984 31.4473 48.6176 31.3688 48.4347ZM32.0082 49.7227C30.1283 50.663 28.4356 51.6031 26.5552 52.5433C24.8602 53.485 22.9767 54.6149 21.2818 55.5566C19.5868 56.6866 17.7034 57.6283 16.0085 58.7582L10.9234 62.1483C12.8067 61.2066 14.5018 60.2649 16.3851 59.3233C18.0801 58.3816 19.9634 57.2516 21.6585 56.31C23.3535 55.18 25.2368 54.2383 26.9318 53.1083C28.7912 52.1787 30.4669 51.0655 32.1404 49.9499C32.0956 49.8746 32.0516 49.7989 32.0082 49.7227ZM32.5601 50.6095C31.5001 51.2956 30.4402 51.8364 29.3803 52.543C28.2503 53.2964 27.3086 54.0497 26.1785 54.803C25.0486 55.5563 24.1069 56.3097 22.9769 57.063C22.0351 58.0046 20.9052 58.758 19.9635 59.6996C21.0935 59.1347 22.2236 58.5697 23.3535 57.8163C24.2952 57.063 25.4252 56.3097 26.5553 55.5563C27.6852 54.803 28.8152 54.0497 29.7569 53.2964C30.6901 52.5499 31.8079 51.8035 32.7444 50.8738C32.6819 50.7865 32.6204 50.6984 32.5601 50.6095ZM33.3056 51.6017L33.1467 51.6017C31.8284 52.355 30.6983 53.485 29.3801 54.4267C28.0617 55.3684 26.9317 56.4983 25.6133 57.44C24.4833 58.57 23.165 59.5117 22.0349 60.6416L18.6449 64.0317L22.6 61.2067C23.9184 60.265 25.0483 59.135 26.3666 58.1934C27.4967 57.0634 28.815 56.1217 29.945 54.9917C31.2512 54.0589 32.3724 52.9411 33.4918 51.8216C33.4289 51.749 33.3669 51.6757 33.3056 51.6017ZM34.031 52.4069C32.1668 54.0884 30.3025 55.9507 28.4383 57.6286C26.555 59.3235 24.86 61.2068 22.9765 62.9018C21.2815 64.5967 19.3982 66.4801 17.7032 68.3634L12.6181 74.0133L18.2682 68.9283C20.1515 67.2334 21.8465 65.5384 23.7299 63.6551C25.4249 61.7719 27.3082 60.0768 29.0032 58.1935C30.8675 56.3294 32.5472 54.4651 34.225 52.6009C34.1597 52.5369 34.095 52.4722 34.031 52.4069ZM34.9947 53.297L34.8417 53.297C33.335 54.8037 32.0167 56.3103 30.6983 57.817C29.38 59.3236 28.0616 61.0187 26.7433 62.5253C25.6132 64.032 24.2949 65.727 22.9765 67.2336C21.8466 68.7402 20.5283 70.4352 19.3982 72.1303C20.7166 70.6236 22.2232 69.1169 23.5416 67.6102C24.86 65.9153 26.1783 64.4086 27.4967 62.902C28.815 61.3953 30.1333 59.8887 31.4516 58.1937C32.7391 56.5383 34.0267 55.0625 35.1388 53.4156C35.0905 53.3764 35.0425 53.3369 34.9947 53.297ZM35.9793 54.0428C35.9769 54.0452 35.9745 54.0476 35.972 54.0501L35.7836 54.0501C34.842 54.9918 34.0886 55.9334 33.3353 57.0634C32.582 58.1934 31.8286 59.1351 31.0753 60.265C30.3219 61.2067 29.5686 62.3367 28.8152 63.4667C28.2503 64.5967 27.4969 65.7267 26.9319 66.8566C27.8736 65.915 28.8152 64.785 29.5686 63.8433C30.3219 62.7133 31.0753 61.7717 31.8286 60.6417C32.582 59.7 33.3353 58.57 34.0886 57.44C34.823 56.3387 35.5572 55.2373 36.1171 54.1359C36.0709 54.1051 36.025 54.0741 35.9793 54.0428ZM36.6837 54.493C35.7559 55.9719 34.8308 57.2709 34.0886 58.5697C33.1469 59.888 32.3937 61.3947 31.6403 62.713C30.887 64.0313 30.1336 65.3497 29.3802 66.8563C28.6269 68.1746 27.8735 69.6813 27.3086 71.1879C28.2503 69.8696 29.0036 68.5513 29.9453 67.2329C30.6985 65.9146 31.6403 64.408 32.3937 63.0896C33.3353 61.7713 34.0886 60.453 34.8419 58.9463C35.5801 57.4702 36.3181 56.175 37.0561 54.7062C36.9307 54.6371 36.8066 54.566 36.6837 54.493ZM37.5246 54.9519C37.4982 54.9721 37.4789 54.9915 37.4789 54.9915L34.0889 61.7714C32.9588 64.0313 32.0171 66.4797 30.8871 68.7396C29.7571 70.9996 28.8154 73.448 27.6854 75.7078C26.7437 78.1561 25.8021 80.4161 24.8604 82.8644C26.1787 80.6044 27.3088 78.3444 28.4388 76.0845C29.5687 73.6363 30.6988 71.3763 31.8288 69.1163C32.9588 66.8563 34.0889 64.4081 35.0305 62.1481C36.1582 59.8925 37.0985 57.637 38.0383 55.1942C37.865 55.1171 37.6937 55.0363 37.5246 54.9519ZM38.7127 55.4718C38.678 55.4938 38.6433 55.5221 38.6087 55.5567L36.3486 61.2067C35.5953 63.0901 35.0303 64.9734 34.277 66.8567C33.5236 68.74 32.7703 70.8116 32.2052 72.695C31.6403 74.5783 31.0752 76.4616 30.5102 78.5333C31.4519 76.65 32.2052 74.7666 32.9586 72.8833L35.2186 67.2334C35.972 65.1617 36.7252 63.2784 37.2903 61.3951C38.034 59.5359 38.5942 57.4932 39.1519 55.6293C39.0043 55.5794 38.8578 55.5268 38.7127 55.4718ZM40.0903 55.9074C40.0978 55.9156 40.106 55.9244 40.1152 55.9335C39.5502 57.2518 39.1735 58.3818 38.7969 59.7001C38.4202 61.0185 38.0435 62.1485 37.6668 63.4668C37.2902 64.5967 37.1019 65.915 36.7252 67.2334C36.3485 68.5517 36.1602 69.87 35.9719 71.1884C36.5368 69.87 36.9136 68.74 37.2902 67.4217C37.6668 66.1034 38.0435 64.9735 38.4202 63.6551C38.7969 62.5251 39.1735 61.2068 39.3618 59.8885C39.5502 58.5701 39.9269 57.2518 40.1152 55.9335C40.1206 55.9281 40.1258 55.9228 40.1306 55.9176C40.1257 55.9164 40.1209 55.9151 40.116 55.9139C40.1154 55.9202 40.1152 55.9267 40.1152 55.9335C40.1152 55.9265 40.115 55.9199 40.1145 55.9136C40.1065 55.9115 40.0984 55.9094 40.0903 55.9074ZM41.1944 56.1386C40.8346 57.5928 40.475 59.2032 40.1153 60.642C39.7386 62.1486 39.5503 63.8436 39.1736 65.3502C38.797 66.8568 38.6087 68.5519 38.4202 70.0586C38.2319 71.7535 37.8553 73.2602 37.8553 74.9551C38.2319 73.4485 38.6087 71.7535 38.9853 70.2469C39.3619 68.7402 39.7386 67.0453 39.927 65.5385C40.1153 64.0319 40.492 62.3369 40.6803 60.8303C40.8678 59.3309 41.0551 57.8315 41.2426 56.1464C41.2265 56.1439 41.2104 56.1412 41.1944 56.1386ZM42.7802 56.3002C42.7711 56.3032 42.7619 56.3063 42.7525 56.3095L42.752 56.3096C42.752 58.3813 42.5637 60.4529 42.5637 62.5246L42.5637 68.7395C42.5637 70.8112 42.752 72.8828 42.752 74.9545C42.9404 77.0261 42.9404 79.0978 43.1287 81.1694C43.3171 79.0978 43.5054 77.0261 43.5054 74.9545C43.6938 72.8828 43.6938 70.8112 43.6938 68.7395L43.6938 62.5246C43.6938 60.453 43.6938 58.3814 43.5054 56.3098C43.4427 56.3107 43.3799 56.3111 43.317 56.3111C43.1372 56.3111 42.9582 56.3074 42.7802 56.3002ZM44.2933 56.2749C44.2824 56.2857 44.2709 56.2972 44.2585 56.3096C44.133 57.1885 44.1748 58.0673 44.2166 58.9462C44.2376 59.3857 44.2585 59.8251 44.2585 60.2646C44.4468 61.5829 44.6351 62.9012 44.6351 64.2195C44.6351 65.5379 44.8235 66.8562 45.0118 68.1745C45.2002 69.4928 45.3885 70.8111 45.7652 72.1294L45.7652 68.1745C45.7652 66.8562 45.7652 65.5379 45.5769 64.2195C45.3885 62.9012 45.3885 61.5829 45.2002 60.2646L44.6351 56.3096C44.6129 56.2874 44.5935 56.2679 44.5758 56.2509C44.4819 56.26 44.3877 56.268 44.2933 56.2749ZM45.6291 56.106C45.6435 56.1573 45.6889 56.2337 45.7653 56.3101C45.9536 57.8168 46.142 59.5117 46.3304 61.0184C46.5187 62.525 46.8953 64.22 47.0836 65.7266C47.272 67.2333 47.6487 68.9282 48.0254 70.4349C48.402 71.9416 48.7787 73.6366 49.1554 75.1432C48.9671 73.4483 48.7787 71.7532 48.5903 70.2466C48.402 68.7399 48.0254 67.045 47.837 65.5383C47.4604 64.0317 47.272 62.3367 46.8953 60.8301C46.5187 59.3234 46.142 57.6283 45.7653 56.1217C45.7522 56.1086 45.7399 56.0973 45.7287 56.0877C45.6955 56.094 45.6623 56.1 45.6291 56.106ZM46.9091 55.8083C47.4695 58.4206 48.0299 60.849 48.5903 63.2775C49.1554 65.7259 49.9087 68.1741 50.4737 70.6224C51.0387 73.0708 51.7921 75.519 52.5454 77.9674L54.8054 85.3123C54.2404 82.6756 53.6754 80.2274 53.1104 77.779C52.5454 75.3307 51.9804 72.8825 51.227 70.4341C50.4737 67.9858 49.9087 65.5376 49.1554 63.0892L46.9145 55.8067C46.9126 55.8072 46.9109 55.8078 46.9091 55.8083ZM47.5339 55.6116C48.0895 57.429 48.8029 59.4041 49.3436 61.2066C50.097 63.2783 50.6619 65.1616 51.4153 67.0448L53.6753 72.6948C54.4287 74.5781 55.182 76.4615 56.1237 78.3447C55.747 76.4615 54.9937 74.3898 54.4287 72.5065C53.6753 70.4348 53.1103 68.5515 52.3569 66.6682C51.792 64.7849 51.0387 62.9015 50.2853 61.0183L48.0472 55.4233C47.8779 55.4896 47.7068 55.5524 47.5339 55.6116ZM48.5041 55.2346C49.0141 56.4715 49.3786 57.6982 49.9089 58.7589C50.4738 59.8888 51.0389 61.2071 51.6039 62.3371C52.1689 63.6555 52.7339 64.7855 53.2989 65.9155C54.0523 67.0454 54.6172 68.1754 55.3706 69.3054C54.994 67.9871 54.6172 66.8571 54.0523 65.5387C53.6756 64.4088 53.1106 63.0905 52.5456 61.9605C51.9806 60.8305 51.4156 59.5122 50.8506 58.3821C50.2892 57.2597 49.728 56.1372 48.9821 55.0146C48.8244 55.0911 48.6651 55.1644 48.5041 55.2346ZM49.725 54.6239C50.4768 56.1268 51.2285 57.4427 51.9804 58.9463C52.7337 60.2647 53.6754 61.7713 54.4287 63.0896C55.1821 64.408 56.1237 65.9146 56.8771 67.2329C57.6305 68.5513 58.5721 69.8696 59.5138 71.1879C58.9487 69.6813 58.1954 68.363 57.442 66.8563C56.6888 65.538 55.9354 64.0313 55.1821 62.713C54.4287 61.3947 53.6754 59.888 52.7337 58.5697C51.792 57.0631 51.0387 55.7447 50.097 54.4264L50.061 54.4264C49.95 54.4939 49.8381 54.5597 49.725 54.6239ZM50.8503 53.9061L50.8503 54.0492C52.1686 56.1209 53.487 58.3808 54.9937 60.4526C56.312 62.5242 57.8187 64.5959 59.3254 66.6674L63.8454 72.8825C65.3521 74.9541 66.8587 76.8373 68.5537 78.909C67.2354 76.8373 65.7287 74.5774 64.4103 72.5057C62.9037 70.2458 61.5854 68.1741 60.0786 66.1025L55.5586 59.8875C54.0519 58.0042 52.5453 55.9325 51.0386 53.8609L50.9133 53.8609C50.8923 53.8761 50.8713 53.8911 50.8503 53.9061ZM51.5921 53.3362C52.8357 54.9546 53.9231 56.5654 55.1822 58.0043C56.5005 59.511 57.8188 61.206 59.1371 62.7127C60.4555 64.4076 61.7738 65.9143 63.0922 67.4209C64.4106 68.9276 65.7289 70.4342 67.2356 71.9409C66.1055 70.2459 64.9755 68.7393 63.6573 67.0443C62.5272 65.5377 61.2089 63.8426 59.8905 62.3359C58.5722 60.641 57.2538 59.1343 55.9355 57.6277C54.6264 56.1318 53.3175 54.6357 51.8241 53.1398C51.7476 53.2062 51.6703 53.2717 51.5921 53.3362ZM52.3571 52.6515L52.3571 52.7318C53.2988 53.8618 54.052 54.8035 54.9938 55.7451L57.8188 58.57C58.7605 59.5117 59.7021 60.2651 60.6438 61.2067C61.5855 61.9601 62.5271 62.9018 63.6572 63.655C62.9038 62.525 62.1505 61.5834 61.2088 60.6417C60.4555 59.7 59.5138 58.7585 58.5721 57.8168L55.747 54.9918C54.8054 54.0501 53.6754 53.1085 52.7337 52.3551C52.7337 52.3551 52.6957 52.3551 52.6369 52.3721C52.545 52.4667 52.4517 52.5598 52.3571 52.6515ZM53.1422 51.8216C54.2651 52.9375 55.5692 53.8721 56.6886 54.9915C57.8186 56.1214 59.1369 57.0631 60.267 58.1931C61.5853 59.1347 62.7153 60.2647 64.0337 61.2064L67.9888 64.0312L64.5987 60.6413C63.4686 59.5113 62.3387 58.3814 61.0203 57.4397C59.702 56.4981 58.572 55.3681 57.2536 54.4264C56.1236 53.4848 54.8052 52.5431 53.4869 51.6014C53.4869 51.5388 53.4661 51.497 53.4313 51.476C53.3369 51.5929 53.2405 51.7081 53.1422 51.8216ZM53.8918 50.8708C55.7676 52.37 57.8291 53.8691 59.8904 55.3683C61.9622 57.0633 64.0338 58.3816 66.1055 59.8883C68.3655 61.3949 70.4372 62.7132 72.5089 64.2199C74.5805 65.7265 76.6523 67.0448 78.9123 68.3632C77.0289 66.6682 74.9573 65.1616 72.8855 63.6549L66.6705 59.135C64.5988 57.6283 62.5271 56.1217 60.4555 54.8034C58.3837 53.485 56.1238 51.9784 54.052 50.6601L54.0395 50.6601C53.9909 50.7308 53.9417 50.801 53.8918 50.8708ZM54.617 49.7381L54.617 49.9067C56.5003 51.0367 58.1954 51.9784 59.8904 53.1083C61.5854 54.2383 63.4687 55.18 65.1637 56.31C66.8588 57.4399 68.5538 58.3816 70.4371 59.3233C72.1321 60.2649 74.0156 61.2066 75.8989 62.1483L70.8138 58.7582C69.1188 57.6283 67.2355 56.4983 65.5405 55.5566C63.8454 54.6149 62.1504 53.485 60.2671 52.5433C58.3837 51.6016 56.6886 50.6601 54.8053 49.7184L54.6282 49.7184C54.6245 49.725 54.6207 49.7315 54.617 49.7381ZM54.9961 49.0211C54.9938 49.065 54.9938 49.1091 54.9938 49.1531C56.1238 49.9065 57.2538 50.4714 58.3837 51.0365C59.5138 51.6014 60.8321 52.1665 61.9622 52.7314C63.0922 53.2964 64.4106 53.6731 65.5405 54.2381C66.8588 54.6147 67.9889 55.1798 69.3072 55.5564C68.1772 54.8031 67.0473 54.0498 65.9172 53.4848C64.5989 52.9198 63.4688 52.3548 62.3388 51.7897C61.2088 51.2248 59.8904 50.6598 58.7605 50.0948C57.6346 49.5319 56.5087 48.9689 55.1964 48.5922C55.1322 48.7366 55.0654 48.8795 54.9961 49.0211ZM55.512 47.8156C55.5171 47.8351 55.5586 47.8351 55.5586 47.8351C57.0653 48.5885 58.572 49.1534 60.0786 49.7184L64.5987 51.4133C66.1053 51.9784 67.612 52.355 69.1187 52.92C70.6254 53.485 72.3205 53.8617 73.8271 54.2383C72.5088 53.485 71.0021 52.7317 69.4954 52.1667L64.9753 50.4717C63.4686 50.0951 61.9619 49.53 60.4553 48.9651C58.7603 48.5885 57.2536 48.0234 55.7469 47.6468C55.6056 47.7175 55.5439 47.7615 55.5218 47.7892C55.5185 47.7979 55.5153 47.8068 55.512 47.8156ZM55.8797 46.6531C55.904 46.6389 55.9354 46.5935 55.9354 46.5166L63.2804 48.7766C65.7288 49.5299 68.1772 50.0949 70.6255 50.8483C73.0738 51.6015 75.5221 52.1666 77.9705 52.7315C80.4188 53.2965 83.0555 53.8616 85.5039 54.4265L78.1588 52.1666C75.7104 51.4132 73.2622 50.6599 70.8138 50.0949C68.3655 49.5299 65.9171 48.7766 63.4687 48.2116C60.832 47.6467 58.3837 47.0816 55.9354 46.5166C55.925 46.527 55.9158 46.5368 55.9075 46.5461C55.8984 46.5818 55.8891 46.6175 55.8797 46.6531ZM56.2544 44.549C56.279 44.6014 56.3121 44.6346 56.3121 44.6346L60.2672 45.1996C61.5855 45.3879 62.9039 45.3879 64.2221 45.5762C65.5405 45.5762 66.8588 45.7647 68.1772 45.7647L72.1322 45.7647C70.8139 45.3879 69.4955 45.1996 68.1772 45.0113C66.8588 45.0113 65.5405 44.823 64.2221 44.6346C62.9039 44.4462 61.5855 44.2579 60.2672 44.2579L56.3121 44.2579C56.2977 44.2723 56.2856 44.2866 56.2754 44.3009C56.2691 44.3839 56.2622 44.4666 56.2544 44.549ZM56.312 43.3696L56.312 43.8792C58.007 43.8792 59.5137 44.0676 61.2087 44.0676L66.1054 44.0676C67.8004 44.0676 69.3071 43.8792 71.0021 43.8792C72.6971 43.6909 74.2039 43.6909 75.8989 43.5026C74.2039 43.3143 72.6971 43.126 71.0021 43.126C69.3071 42.9376 67.8004 42.9376 66.1054 42.9376L61.2087 42.9376C59.5137 42.9376 58.007 42.9376 56.312 43.126L56.312 43.2628C56.3121 43.2806 56.3121 43.2985 56.3121 43.3162C56.3121 43.334 56.3121 43.3518 56.312 43.3696ZM56.2658 42.2112C56.2881 42.1951 56.3121 42.1326 56.3121 41.9981C58.9488 41.9981 61.3971 41.8098 64.0338 41.6215C66.4822 41.4332 69.1189 41.2447 71.5673 41.0564C74.0156 40.8681 76.6522 40.4915 79.1005 40.3031C81.5489 40.1148 84.1856 39.7381 86.6339 39.3615C83.9973 39.5498 81.5489 39.5498 78.9122 39.7381C76.4638 39.9264 73.8272 40.1148 71.379 40.3031C68.9306 40.4915 66.2939 40.6798 63.8455 41.0564C61.3971 41.2447 58.7605 41.6215 56.3121 41.9981C56.2858 42.0244 56.2668 42.0507 56.2536 42.0755C56.258 42.1207 56.262 42.166 56.2658 42.2112ZM55.8857 40.0019C55.9088 39.9667 55.9354 39.8783 55.9354 39.7369C57.2537 39.5486 58.5721 39.3603 59.8904 38.9836C61.2088 38.7953 62.3387 38.4187 63.6571 38.0419C64.9754 37.6653 66.1054 37.2887 67.4238 36.912C68.7421 36.5354 70.0605 36.1586 71.1905 35.5937C69.8722 35.782 68.5538 36.1586 67.2355 36.347C66.1054 36.7237 64.7871 36.912 63.4687 37.2887C62.1504 37.6653 61.0205 38.0419 59.7021 38.4187C58.3837 38.7953 57.2537 39.1719 55.9354 39.7369C55.8978 39.812 55.8752 39.8723 55.8631 39.9174C55.8707 39.9456 55.8782 39.9737 55.8857 40.0019ZM55.279 38.23L55.3703 38.23C57.6304 37.2884 60.0787 36.3467 62.3387 35.2167C64.5988 34.0867 67.0471 33.1451 69.3071 32.0151C71.7555 30.8851 74.0156 29.7551 76.2755 28.6252C78.5356 27.4952 80.7955 26.3652 83.0556 25.0468C80.6072 25.8002 78.1588 26.9301 75.8989 27.8718C73.6388 29.0018 71.1905 29.9435 68.9305 31.0734C66.4821 32.0151 64.2221 33.1451 61.9621 34.2752L55.182 37.6651C55.1171 37.6651 55.0747 37.6874 55.0544 37.732C55.1327 37.8962 55.2075 38.0622 55.279 38.23ZM54.6273 36.9126L54.8053 36.9126C56.6886 35.9709 58.3837 35.0292 60.2671 34.0876C61.9621 33.1459 63.8455 32.0159 65.5405 31.0743C67.2355 29.9443 69.1188 29.0026 70.8138 27.8726C72.5089 26.7427 74.2038 25.6127 75.8988 24.4827C74.0154 25.4243 72.3205 26.3659 70.4371 27.3076C68.7421 28.2493 66.8588 29.3792 65.1637 30.3209C63.4687 31.4509 61.5854 32.3926 59.8904 33.5225C58.007 34.4642 56.312 35.5942 54.617 36.7243C54.617 36.7243 54.5567 36.7243 54.5385 36.7584C54.5684 36.8096 54.5981 36.861 54.6273 36.9126ZM54.1303 36.1066C55.2343 35.379 56.3382 34.8227 57.4421 34.0868C58.5721 33.3335 59.5138 32.5802 60.6438 31.8268C61.7738 31.0735 62.7155 30.3202 63.8455 29.5669C64.7872 28.6252 65.9172 27.8719 66.8588 26.9302C65.7288 27.4952 64.5989 28.0602 63.4688 28.8135C62.5271 29.5669 61.3971 30.3202 60.2672 31.0735C59.1371 31.8268 58.0071 32.5802 57.0654 33.3335C56.1238 34.0868 54.9938 34.8401 54.052 35.7818C53.9874 35.7818 53.9448 35.7818 53.917 35.7971C53.9896 35.8992 54.0607 36.0023 54.1303 36.1066ZM52.6514 34.2753L52.7336 34.2753C54.617 32.5803 56.5003 30.697 58.3836 29.0019C60.2671 27.307 61.9621 25.4237 63.8454 23.7287C65.5404 22.0338 67.4238 20.1504 69.1188 18.2671L74.2039 12.6171L68.5538 17.7021C66.6704 19.3971 64.9754 21.0921 63.0921 22.9754C61.3971 24.8586 59.5137 26.5537 57.8187 28.437C55.9354 30.3203 54.2404 32.2037 52.5453 34.0869C52.5135 34.0869 52.4872 34.0869 52.4661 34.0878C52.5285 34.1496 52.5903 34.2121 52.6514 34.2753ZM51.6362 33.3328L51.9803 33.3328C53.487 31.8261 54.8053 30.3194 56.1237 28.8128C57.442 27.3061 58.7604 25.6111 60.0787 24.1045C61.2088 22.5979 62.5271 20.9029 63.8455 19.3962C64.9754 17.8895 66.2938 16.1945 67.4238 14.4996C66.1054 16.0062 64.5988 17.5129 63.2804 19.0195C61.9621 20.7145 60.6437 22.2212 59.3254 23.7279C58.007 25.2345 56.6888 26.7412 55.3704 28.4361C54.0566 30.1252 52.7427 31.6274 51.6152 33.3154C51.6223 33.3212 51.6292 33.327 51.6362 33.3328ZM50.7513 32.6565C50.7765 32.6456 50.8089 32.6223 50.8504 32.5808L51.0387 32.5808C51.9804 31.6393 52.7337 30.6976 53.4871 29.5675C54.2405 28.4375 54.9938 27.4959 55.7472 26.3659C56.5004 25.4242 57.2538 24.2942 58.0071 23.1643C58.5722 22.0343 59.3255 20.9043 59.8905 19.7743C58.9488 20.716 58.0071 21.846 57.2538 22.7876C56.5004 23.9176 55.7472 24.8593 54.9938 25.9893C54.2405 26.9309 53.4871 28.0609 52.7337 29.1909C51.9804 30.3209 51.227 31.4509 50.6621 32.5808C50.6621 32.5808 50.6621 32.5868 50.6631 32.5955C50.6926 32.6157 50.7221 32.6361 50.7513 32.6565ZM50.0553 32.2026L50.097 32.2026C51.0387 30.6959 51.9804 29.3776 52.7337 28.0593C53.6754 26.7409 54.4287 25.2343 55.1821 23.916C55.9354 22.5976 56.6888 21.2793 57.442 19.7727C58.1954 18.4543 58.9487 16.9477 59.5138 15.441C58.5721 16.7594 57.8188 18.0777 56.8771 19.396C56.1237 20.7144 55.1821 22.221 54.4287 23.5393C53.4871 24.8577 52.7337 26.176 51.9804 27.6826C51.2281 29.1871 50.4759 30.5038 49.7236 32.0078C49.8352 32.0711 49.9458 32.1361 50.0553 32.2026ZM48.9962 31.6247C49.0398 31.6334 49.0923 31.6387 49.1552 31.6387C49.1552 31.827 49.3435 31.6387 49.3435 31.6387L52.7336 24.8587C53.8636 22.5988 54.8052 20.1505 55.9353 17.8906C57.0653 15.6306 58.1953 13.1822 59.1369 10.9223C60.0786 8.47397 61.0203 6.214 61.9619 3.7657C60.6436 6.02567 59.5137 8.28565 58.3836 10.5456C57.2536 12.9939 56.1236 15.2539 54.9935 17.5138C53.8636 19.7739 52.7336 22.2222 51.7919 24.4821C50.6618 26.7421 49.7202 29.0021 48.7785 31.4504C48.7785 31.4504 48.7785 31.4959 48.8232 31.5421C48.8811 31.5692 48.9387 31.5968 48.9962 31.6247ZM48.0237 31.1999C48.087 31.1791 48.1502 31.1371 48.2135 31.0739L50.4735 25.4239C51.2269 23.5405 51.7919 21.6572 52.5452 19.7739C53.2985 17.8906 54.0518 15.819 54.6169 13.9356C55.1819 12.0523 55.7469 10.169 56.3119 8.09732C55.3702 9.98064 54.6169 11.864 53.8635 13.7473L51.6036 19.3972C50.8502 21.4689 50.0969 23.3522 49.5318 25.2355C48.7802 27.1149 48.2158 29.1817 47.6521 31.062C47.7768 31.1061 47.9007 31.1521 48.0237 31.1999ZM45.62 30.5248C45.9822 29.0622 46.3447 27.4386 46.707 25.9892C47.0836 24.4825 47.272 22.7875 47.6487 21.2808C48.0254 19.7742 48.2137 18.0792 48.402 16.5726C48.5903 14.8776 48.967 13.371 48.967 11.676C48.5903 13.1826 48.2137 14.8776 47.837 16.3843C47.4603 17.8909 47.0836 19.5859 46.8953 21.0925C46.707 22.5992 46.3304 24.2942 46.1419 25.8009C45.9536 27.3075 45.7653 28.8142 45.577 30.5091L45.5867 30.5189C45.5978 30.5208 45.6089 30.5228 45.62 30.5248ZM43.8416 30.3318C43.9056 30.3246 43.9808 30.3198 44.0702 30.3198C44.0702 28.2482 44.2585 26.1765 44.2585 24.1049L44.2585 17.89C44.2585 15.8183 44.0702 13.7467 44.0702 11.675C43.8819 9.60341 43.8819 7.53176 43.6934 5.46012C43.5051 7.53176 43.3168 9.60341 43.3168 11.675C43.1285 13.7467 43.1285 15.8183 43.1285 17.89L43.1285 24.1049C43.1285 26.1765 43.1285 28.2482 43.3168 30.3198L43.3183 30.3214C43.4935 30.3214 43.668 30.3248 43.8416 30.3318ZM42.5387 30.3443C42.5466 30.3364 42.555 30.3281 42.5636 30.3194C42.6891 29.4405 42.6473 28.5616 42.6054 27.6827C42.5845 27.2433 42.5636 26.8039 42.5636 26.3644C42.3753 25.0461 42.187 23.7278 42.187 22.4094C42.187 21.0912 41.9987 19.7729 41.8103 18.4546C41.6219 17.1362 41.4336 15.8179 41.0569 14.4996L41.0569 18.4546C41.0569 19.7729 41.0569 21.0912 41.2453 22.4094C41.4336 23.7278 41.4336 25.0461 41.6219 26.3644L42.187 30.3194C42.204 30.3364 42.2195 30.3519 42.2337 30.3659C42.335 30.3575 42.4367 30.3503 42.5387 30.3443ZM41.1835 30.4956C41.1629 30.4465 41.1207 30.3829 41.0571 30.3193C40.8687 28.8127 40.6804 27.1177 40.4921 25.611C40.3038 24.1044 39.9271 22.4094 39.7387 20.9028C39.5504 19.3961 39.1737 17.7011 38.7971 16.1944C38.4205 14.6878 38.0437 12.9928 37.6671 11.4862C37.8554 13.1811 38.0437 14.8761 38.232 16.3827C38.4205 17.8895 38.7971 19.5845 38.9854 21.0911C39.3621 22.5977 39.5504 24.2927 39.9271 25.7994C40.3038 27.306 40.6804 29.001 41.0571 30.5076C41.0599 30.5104 41.0626 30.5131 41.0653 30.5157C41.1046 30.5088 41.144 30.5022 41.1835 30.4956ZM46.707 30.6959C46.8953 29.3776 47.272 28.0593 47.4604 26.7409C47.6487 25.4226 48.0254 24.1043 48.402 22.9743C48.7786 21.6559 49.1554 20.526 49.532 19.2077C49.9087 17.8894 50.2854 16.7594 50.8504 15.441C50.6621 16.7594 50.4737 18.0777 50.097 19.396C49.7203 20.7144 49.532 22.0327 49.1554 23.1626C48.7786 24.4809 48.402 25.6109 48.0254 26.9293C47.6487 28.2476 47.272 29.3776 46.707 30.6959ZM53.2987 34.8413C54.4287 33.7113 55.5587 32.5813 56.8771 31.6396C58.007 30.5097 59.3254 29.568 60.4554 28.438C61.7737 27.4963 62.9038 26.3664 64.2221 25.4247L68.1772 22.5997L64.7871 25.9896C63.6571 27.1196 62.3387 28.0613 61.2088 29.1913C59.8904 30.1329 58.7604 31.2629 57.442 32.2046C56.1237 33.1462 54.9937 34.2762 53.6753 35.0296L53.487 35.0296C53.2987 35.0296 53.2987 34.8413 53.2987 34.8413ZM55.5586 38.7962C57.0653 38.0429 58.572 37.4778 60.0786 36.9129L64.5987 35.2179C66.1053 34.6529 67.612 34.0879 69.1188 33.7113C70.6255 33.3346 72.1321 32.7696 73.8271 32.393C72.3205 33.1462 70.8138 33.7113 69.4954 34.4646L64.9754 36.1595C63.4687 36.7246 61.9619 37.2895 60.4553 37.6662C58.9486 38.2312 57.4419 38.6079 55.7469 38.9845C55.5586 38.9845 55.5586 38.9845 55.5586 38.7962ZM68.177 38.4181C66.1053 38.7948 64.222 39.1715 62.1503 39.5481C60.0786 39.9248 58.1952 40.3014 56.1236 40.8665L56.1236 41.0548C58.1952 40.8665 60.0786 40.6782 62.1503 40.3014C64.222 40.1131 66.1053 39.7365 68.177 39.3598C70.2487 38.9831 72.132 38.6064 74.2038 38.2298C76.2754 37.6649 78.1587 37.2881 80.2305 36.7232C78.3472 36.9115 76.2754 37.2881 74.2038 37.4765C72.132 37.8532 70.2487 38.0415 68.177 38.4181ZM62.3388 46.1407C60.4554 45.9522 58.3837 45.5756 56.312 45.3873C56.1237 45.5756 56.1237 45.7639 56.312 45.5756C58.3837 46.1407 60.2671 46.5173 62.3388 46.8939C64.4104 47.2706 66.2938 47.6473 68.3655 48.0239C70.4371 48.4006 72.3206 48.5889 74.3922 48.9655C76.2755 49.3423 78.3473 49.5306 80.4189 49.7189C78.3473 49.1539 76.4639 48.5889 74.3922 48.2123C72.3206 47.8356 70.4371 47.4589 68.3655 47.0822C66.2938 46.8939 64.4104 46.5173 62.3388 46.1407ZM42.3754 56.3096C42.1871 58.9462 42.1871 61.3946 41.9988 64.0312C41.8103 66.6679 41.622 69.1161 41.4337 71.5645C41.2454 74.0128 40.8687 76.6495 40.6804 79.0978C40.3037 81.546 40.1153 84.1827 39.7387 86.631C39.7387 83.9944 39.927 81.546 40.1153 78.9094C40.3037 76.2728 40.4921 73.8245 40.6804 71.3761C40.8687 68.9278 41.0571 66.2911 41.4337 63.8429C41.622 61.3946 41.9988 58.7579 42.3754 56.3096Z" fill-rule="evenodd"  fill="#E4B967" ></path><path d="M54.1464 43.3163C54.1464 49.2058 49.3967 54.1454 43.3171 54.1454C37.2375 54.1454 32.4878 49.3958 32.4878 43.3163C32.4878 37.4268 37.2375 32.4872 43.3171 32.4872C49.3967 32.4872 54.1464 37.4268 54.1464 43.3163Z"   fill="#E4B967" ></path></svg>