<svg xmlns="http://www.w3.org/2000/svg" xmlns:xlink="http://www.w3.org/1999/xlink" width="74.01553344726562" height="75.709228515625" viewBox="0 0 74.01553344726562 75.709228515625" fill="none"><path d="M36.9133 24.8598C36.725 22.7881 36.725 20.7165 36.725 18.6448L36.725 12.4299C36.725 10.3582 36.725 8.28659 36.9133 6.21494C36.9133 4.14329 37.1017 2.07165 37.29 0C37.4783 2.07165 37.4783 4.14329 37.6667 6.21494C37.6667 8.28659 37.855 10.3582 37.855 12.4299L37.855 18.6448C37.855 20.7165 37.6667 22.7881 37.6667 24.8598C37.4171 24.8598 37.2777 24.8965 37.1837 24.9213C37.0649 24.9527 37.0185 24.9649 36.9133 24.8598ZM32.3934 25.6134L30.1334 19.9634C29.38 18.0801 28.6267 16.1968 28.0617 14.3135C27.3084 12.4302 26.7433 10.5468 25.99 8.47519C25.425 6.59187 24.6717 4.52022 24.295 2.6369C25.2367 4.52022 25.99 6.40354 26.7433 8.28686L29.0034 13.9368C29.7567 15.8201 30.3217 17.7034 31.075 19.7751C31.64 21.6584 32.3934 23.7301 32.9584 25.6134C32.8956 25.6134 32.8538 25.6343 32.8119 25.6552C32.7282 25.6971 32.6445 25.7389 32.3934 25.6134ZM32.3934 25.6134C32.4876 25.7076 32.4876 25.7546 32.464 25.7546C32.4405 25.7546 32.3934 25.7076 32.3934 25.6134ZM43.1283 19.7753C42.375 21.6586 41.81 23.7303 41.245 25.6136C41.4333 25.8019 41.6217 25.8019 41.81 25.6136L44.07 19.9636C44.8234 18.0803 45.3884 16.197 46.1417 14.3137C46.8951 12.4304 47.6484 10.3587 48.2134 8.47539C48.7784 6.59207 49.3434 4.70875 49.9084 2.6371C48.9667 4.52042 48.2134 6.40374 47.4601 8.28706L45.2 13.937C44.4467 16.0087 43.6934 17.892 43.1283 19.7753ZM34.6536 25.0475C34.277 23.5408 33.9003 21.8458 33.5236 20.3392C33.147 18.8325 32.9586 17.1376 32.5819 15.6309C32.3936 14.1243 32.0169 12.4293 31.8286 10.9226C31.6403 9.41597 31.4519 7.72099 31.2636 6.026C31.6403 7.53266 32.0169 9.22763 32.3936 10.7343C32.7703 12.2409 33.147 13.9359 33.3353 15.4426C33.5236 16.9492 33.9003 18.6442 34.0886 20.1509C34.277 21.6575 34.4653 23.3525 34.6536 24.8591C34.842 25.0475 34.842 25.2358 34.6536 25.0475ZM39.1735 25.0489C39.3618 23.3539 39.5502 21.8473 39.7385 20.3406C39.9268 18.834 40.3035 17.139 40.4918 15.6324C40.6802 14.1257 41.0568 12.4307 41.4335 10.9241C41.8101 9.41743 42.1868 7.72245 42.5635 6.2158C42.5635 7.91078 42.1868 9.41743 41.9985 11.1124C41.8101 12.6191 41.6218 14.314 41.2452 15.8207C40.8685 17.3273 40.6802 19.0223 40.3035 20.529C39.9393 21.9856 39.5752 23.6182 39.211 25.0865C39.1995 25.0749 39.187 25.0624 39.1735 25.0489ZM39.211 25.0865C39.2877 25.1636 39.3219 25.2013 39.3135 25.2197C39.3056 25.2372 39.2589 25.2372 39.1735 25.2372C39.186 25.1872 39.1985 25.137 39.211 25.0865ZM48.9669 22.9759C47.6486 24.6709 46.3302 26.1776 45.2002 27.8726L45.5769 27.8726C47.0835 26.3659 48.4019 24.8593 49.7202 23.3526C51.0386 21.8459 52.3569 20.151 53.6753 18.6443C54.8053 17.1377 56.1236 15.4427 57.442 13.936C58.572 12.4294 59.8903 10.7344 61.0203 9.0394C59.702 10.5461 58.1953 12.0527 56.877 13.5594C55.5586 15.2543 54.2403 16.761 52.9219 18.2676C51.6036 19.7743 50.2852 21.281 48.9669 22.9759ZM28.6267 28.0627C27.12 26.556 25.8016 25.0494 24.4833 23.5427C23.1649 22.0361 21.8466 20.5294 20.5283 18.8344C19.2099 17.3278 17.8916 15.6328 16.7616 14.1261C15.4432 12.4311 14.3132 10.9245 13.1832 9.2295C14.6899 10.7362 16.0082 12.2428 17.3266 13.7495C18.6449 15.2561 19.9633 16.7628 21.2816 18.4578C22.5999 19.9644 23.9183 21.6594 25.2366 23.1661C26.555 24.6727 27.685 26.3677 29.0033 28.0627L29.0033 28.251L28.6267 28.0627ZM30.3218 26.7424C29.3802 25.4241 28.6268 24.1058 27.6852 22.5991C26.7435 21.2808 25.9901 19.7742 25.2368 18.4558C24.4835 17.1375 23.7301 15.6309 22.9768 14.3125C22.2234 12.8059 21.4701 11.4876 20.9051 9.9809C21.8468 11.2992 22.7884 12.6175 23.5418 13.9359C24.2951 15.2542 25.2368 16.7608 25.9901 18.0792C26.7435 19.3975 27.6852 20.9042 28.4385 22.2225C29.1918 23.7291 29.9452 25.0475 30.6985 26.5541L30.6985 26.7424L30.3218 26.7424ZM43.3169 26.554C44.0702 25.0474 44.8236 23.7291 45.5769 22.2224C46.3302 20.7158 47.0836 19.3975 48.0253 18.0791C48.7786 16.7608 49.7203 15.2542 50.4736 13.9359C51.4153 12.6175 52.1686 11.2992 53.1103 9.9809C52.5453 11.4875 51.792 12.9942 51.0386 14.3125C50.2853 15.8192 49.5319 17.1375 48.7786 18.4558C48.0253 19.7741 47.2719 21.2808 46.3302 22.5991C45.5769 23.9174 44.6352 25.2357 43.6936 26.7424L43.5052 26.7424C43.3169 26.7424 43.3169 26.554 43.3169 26.554ZM26.9318 29.5695C25.6135 28.6278 24.2951 27.6862 23.1651 26.7445C21.8468 25.8029 20.7167 24.6729 19.3984 23.7312C18.0801 22.7896 16.95 21.6596 15.82 20.5296L12.43 17.1396L16.385 19.9646C17.7034 20.9062 18.8334 22.0362 20.1517 22.9779C21.2817 24.1079 22.6001 25.0495 23.7301 26.1795C24.8601 27.3095 26.1785 28.2512 27.3085 29.3812L27.3085 29.5695L26.9318 29.5695ZM46.8951 29.3812C48.0251 28.2512 49.1551 27.1212 50.4735 26.1795C51.6035 25.0495 52.9218 24.1079 54.0518 22.9779C55.3702 22.0362 56.5002 20.9062 57.8185 19.9646L61.7736 17.1396L58.3835 20.5296C57.2535 21.6596 55.9352 22.6012 54.8052 23.7312C53.4868 24.6729 52.3568 25.8029 51.0385 26.7445C49.7201 27.6862 48.5901 28.8162 47.2718 29.5695L47.0834 29.5695C46.8951 29.5695 46.8951 29.3812 46.8951 29.3812ZM25.6134 31.4523C23.73 30.5106 22.035 29.569 20.1517 28.6273C18.2683 27.6857 16.5733 26.5557 14.8783 25.614C13.1833 24.6724 11.2999 23.5424 9.60493 22.4124C7.90992 21.2824 6.21491 20.1524 4.5199 19.0224C6.40325 19.9641 8.28659 20.9057 9.9816 21.8474C11.8649 22.789 13.56 23.7307 15.255 24.8607C16.95 25.9907 18.8333 26.9323 20.5283 28.0623C22.2233 29.1923 23.9184 30.134 25.8017 31.264L25.8017 31.4523L25.6134 31.4523ZM53.4868 28.0624C51.6034 29.004 49.9084 30.134 48.2134 31.264C48.2134 31.264 48.0251 31.264 48.2134 31.4523L48.4017 31.4523C50.2851 30.5107 51.9801 29.569 53.8634 28.6273C55.5585 27.6857 57.4418 26.5557 59.1368 25.614C60.8318 24.484 62.7152 23.5424 64.4101 22.4124C66.1052 21.2824 67.8001 20.1524 69.4951 19.0224C67.6118 19.9641 65.9168 20.9057 64.0335 21.8474C62.3385 22.789 60.4551 23.919 58.7601 24.8607C57.0651 25.9907 55.1818 26.9324 53.4868 28.0624ZM24.6718 33.5244C23.1651 33.1477 21.6584 32.5827 19.9634 32.2061C18.4567 31.6411 16.95 31.0761 15.4433 30.6994L10.9233 29.0044C9.41663 28.4394 7.90995 27.6861 6.5916 26.9328C8.09828 27.3095 9.7933 27.6861 11.3 28.2511C12.8067 28.8161 14.3133 29.1928 15.82 29.7578L20.3401 31.4528C21.8467 32.0177 23.3534 32.5827 24.8601 33.3361C24.8601 33.3361 25.0484 33.3361 24.6718 33.5244ZM49.1551 33.3361C50.6618 32.5827 52.1685 32.0177 53.6751 31.4528L58.1952 29.7578C59.7018 29.1928 61.2085 28.6278 62.7152 28.2511C64.2219 27.8745 65.7286 27.3095 67.4236 26.9328C65.9169 27.6861 64.4102 28.2511 63.0919 29.0044L58.5718 30.6994C57.0652 31.2644 55.5585 31.8294 54.0518 32.2061C52.5451 32.7711 51.0384 33.1477 49.3434 33.5244C49.1551 33.5244 49.1551 33.5244 49.1551 33.3361ZM55.7468 34.088C53.6751 34.4647 51.7918 34.8414 49.7201 35.4064L49.7201 35.5947C51.7918 35.4064 53.6751 35.218 55.7468 34.8414C57.8185 34.653 59.7018 34.2764 61.7735 33.8997C63.8452 33.5231 65.7285 33.1464 67.8002 32.7697C69.8719 32.2047 71.7552 31.8281 73.8269 31.2631C71.9436 31.4514 69.8719 31.8281 67.8002 32.0164C65.7285 32.3931 63.8452 32.5814 61.7735 32.9581C59.7018 33.3347 57.8185 33.7114 55.7468 34.088ZM24.1069 35.7833C22.0352 35.595 19.9635 35.2183 18.0802 35.03C16.0085 34.6533 14.1251 34.2766 12.0534 34.0883C9.98176 33.7117 8.09841 33.335 6.02672 32.9583C3.95504 32.5817 2.07169 32.0167 0 31.4517C2.07169 31.64 4.14337 31.8284 6.02672 32.205C8.09841 32.5817 9.98176 32.77 12.0534 33.1467C14.1251 33.5233 16.0085 33.9 18.0802 34.2766C20.1518 34.6533 22.0352 35.03 24.1069 35.595C24.2952 35.4066 24.2952 35.595 24.1069 35.7833ZM24.1067 38.0431C22.4117 38.2314 20.905 38.2314 19.21 38.2314L14.3133 38.2314C12.6183 38.2314 11.1116 38.2314 9.41661 38.0431C7.72159 38.0431 6.21491 37.8547 4.5199 37.6664C6.21491 37.4781 7.72159 37.4781 9.41661 37.2897C11.1116 37.2897 12.6183 37.1014 14.3133 37.1014L19.21 37.1014C20.905 37.1014 22.4117 37.2897 24.1067 37.2897L24.1067 38.0431ZM49.9084 37.6658C51.6034 37.4775 53.1101 37.4775 54.8051 37.4775L59.7018 37.4775C61.3968 37.4775 62.9035 37.4775 64.5985 37.6658C66.2935 37.6658 67.8002 37.8542 69.4952 38.0425C67.8002 38.2309 66.2935 38.2309 64.5985 38.4192C62.9035 38.4192 61.3968 38.6075 59.7018 38.6075L54.8051 38.6075C53.1101 38.6075 51.6034 38.4192 49.9084 38.4192L49.9084 37.6658ZM49.9086 39.9271C51.9803 40.1154 54.052 40.4921 55.9354 40.6804C58.007 41.0571 59.8904 41.4337 61.9621 41.6221C64.0337 41.9987 65.9171 42.3754 67.9888 42.752C70.0604 43.1287 71.9438 43.6937 74.0155 44.2587C71.9438 44.0704 69.8721 43.882 67.9888 43.5054C65.9171 43.1287 64.0337 42.9404 61.9621 42.5637C59.8904 42.1871 58.007 41.8104 55.9354 41.4337C53.8637 41.0571 51.9803 40.6804 49.9086 40.1154C49.7203 40.3038 49.7203 40.1154 49.9086 39.9271ZM24.2949 40.3044C22.2232 40.8694 20.3398 41.2461 18.2681 41.6228C16.1965 41.9994 14.3131 42.3761 12.2414 42.7528C10.1697 43.1294 8.2864 43.3178 6.21472 43.6944C4.14303 43.8828 2.07135 44.2594 0.188 44.4478C2.25968 43.8828 4.14303 43.5061 6.21472 42.9411C8.2864 42.5644 10.1697 42.1878 12.2414 41.8111C14.3131 41.4344 16.1965 41.0578 18.2681 40.8694C20.3398 40.4928 22.2232 40.3044 24.2949 40.1161L24.2949 40.3044ZM24.8601 42.3749C23.3534 43.1283 21.8467 43.6933 20.34 44.2583L15.82 45.9532C14.3133 46.5182 12.8066 47.0832 11.3 47.4599C9.79329 47.8366 8.28661 48.4016 6.5916 48.7782C8.09828 48.0249 9.60496 47.4599 10.9233 46.7066L15.4433 45.0116C16.95 44.4466 18.4567 43.8816 19.9634 43.5049C21.47 42.9399 22.9767 42.5633 24.6717 42.1866C24.8601 42.1866 24.8601 42.1866 24.8601 42.3749ZM49.3434 42.1866C50.8501 42.5633 52.3568 43.1283 54.0518 43.5049C55.5585 44.0699 57.0651 44.6349 58.5718 45.0116L63.0919 46.7065C64.5985 47.2715 66.1052 48.0249 67.4236 48.7782C65.9169 48.4015 64.2219 48.0249 62.7152 47.4599C61.2085 46.8949 59.7018 46.5182 58.1952 45.9532L53.6751 44.2582C52.1684 43.6932 50.6618 43.1283 49.1551 42.3749C49.1551 42.3749 48.9667 42.3749 49.3434 42.1866ZM25.8017 44.4464C24.1067 45.5764 22.4117 46.7064 20.5283 47.6481C18.8333 48.7781 16.95 49.7197 15.255 50.8497C13.56 51.7914 11.6766 52.9214 9.98161 53.863C8.09826 54.8047 6.40325 55.7463 4.5199 56.688L9.60494 53.298C11.2999 52.168 13.1833 51.2264 14.8783 50.0964C16.5733 49.1547 18.4567 48.0247 20.1517 47.0831C22.035 46.1414 23.73 45.1998 25.6134 44.2581L25.8017 44.2581C25.9901 44.2581 25.9901 44.4464 25.8017 44.4464ZM48.4018 44.2581C50.2852 45.1998 51.9802 46.1414 53.8635 47.0831C55.7469 48.0247 57.4419 49.1547 59.1369 50.0964C60.8319 51.038 62.7153 52.168 64.4103 53.298L69.4953 56.688C67.612 55.7463 65.7286 54.8047 64.0336 53.863C62.1503 52.9214 60.4553 51.9797 58.7602 50.8497C57.0652 49.7197 55.1819 48.7781 53.4869 47.6481C51.7919 46.5181 50.0968 45.5764 48.2135 44.4464L48.2135 44.2581L48.4018 44.2581ZM47.0835 46.1413C48.4018 47.083 49.7202 48.0247 50.8502 48.9663C52.1685 49.908 53.2985 51.038 54.6169 51.9796C55.9352 52.9213 57.0652 54.0513 58.1952 55.1812L61.5853 58.5712L57.6302 55.7462C56.3119 54.8046 55.1819 53.6746 53.8635 52.7329C52.7335 51.603 51.4152 50.6613 50.2852 49.5313C49.1552 48.4013 47.8368 47.4597 46.7068 46.3297L46.7068 46.1413C46.8951 45.953 47.0835 45.953 47.0835 46.1413ZM27.1198 46.3299C25.9898 47.4599 24.8598 48.5899 23.5415 49.5316C22.4115 50.6616 21.0931 51.6032 19.9631 52.7332C18.6448 53.6749 17.5148 54.8049 16.1964 55.7465L12.2414 58.5715L15.6314 55.1815C16.7614 54.0515 18.0798 53.1099 19.2098 51.9799C20.5281 51.0382 21.6581 49.9082 22.9765 48.9666C24.2948 48.0249 25.4248 46.8949 26.7432 46.1416L26.9315 46.1416C27.3082 46.1416 27.1198 46.3299 27.1198 46.3299ZM45.3886 47.6476C46.8952 49.1543 48.2136 50.6609 49.5319 52.1676C50.8503 53.6742 52.1686 55.1809 53.487 56.8759C54.8053 58.3825 56.1236 60.0775 57.2536 61.5842C58.572 63.2792 59.702 64.7858 60.832 66.4808C59.3253 64.9741 58.007 63.4675 56.6886 61.9608C55.3703 60.4542 54.052 58.9475 52.7336 57.2525C51.4153 55.7459 50.0969 54.0509 48.7786 52.5443C47.4603 51.0376 46.3302 49.3426 45.0119 47.6476L45.0119 47.4593L45.3886 47.6476ZM28.8149 47.8369C27.6849 49.5319 26.3666 51.0385 25.0482 52.7335C23.7299 54.4285 22.4115 55.9351 21.0932 57.4418C19.7749 58.9484 18.4565 60.4551 17.1382 62.1501C15.8198 63.6567 14.3131 65.1634 12.9948 66.67C14.1248 64.975 15.4432 63.2801 16.5732 61.7734C17.8915 60.2668 19.2098 58.5718 20.3399 57.0651C21.6582 55.5585 22.9765 53.8635 24.2949 52.3568C25.6132 50.8502 26.9316 49.3435 28.4383 47.8369L28.8149 47.8369ZM30.6985 49.1547C29.9452 50.6614 29.1918 51.9797 28.4385 53.4864C27.6852 54.993 26.9318 56.3113 25.9901 57.6297C25.2368 58.948 24.2951 60.4546 23.5418 61.773C22.6001 63.0913 21.8468 64.4096 20.9051 65.7279C21.4701 64.2213 22.2234 62.7146 22.9768 61.3963C23.7301 59.8896 24.4835 58.5713 25.2368 57.253C25.9901 55.9347 26.7435 54.428 27.6852 53.1097C28.4385 51.7914 29.3802 50.4731 30.3218 48.9664L30.5102 48.9664C30.6985 48.9664 30.6985 49.1547 30.6985 49.1547ZM43.6936 48.9664C44.6352 50.2847 45.3886 51.603 46.3302 53.1097C47.2719 54.428 48.0253 55.9347 48.7786 57.253C49.5319 58.5713 50.2853 60.0779 51.0386 61.3963C51.792 62.9029 52.5453 64.2212 53.1103 65.7279C52.1686 64.4096 51.2269 63.0912 50.4736 61.7729C49.7203 60.4546 48.7786 58.948 48.0253 57.6296C47.2719 56.3113 46.3302 54.8047 45.5769 53.4863C44.8236 51.9797 44.0702 50.6614 43.3169 49.1547L43.3169 48.9664L43.6936 48.9664ZM41.6219 49.9081L43.8819 55.558C44.6353 57.4414 45.3886 59.3247 45.9536 61.208C46.707 63.0913 47.272 64.9746 48.0253 67.0463C48.5903 68.9296 49.3437 71.0012 49.7203 72.8845C48.7786 71.0012 48.0253 69.1179 47.272 67.2346L45.0119 61.5847C44.2586 59.7013 43.6936 57.818 42.9403 55.7464C42.3752 53.8631 41.6219 51.7914 41.0569 49.9081C41.1656 50.0168 41.2116 50 41.3035 49.9664C41.3708 49.9417 41.4627 49.9081 41.6219 49.9081ZM32.7702 50.0965C32.2052 51.9799 31.6402 54.0515 30.8868 55.9348C30.3218 57.8182 29.5685 59.7015 28.8152 61.7731L26.5551 67.4231C25.8018 69.3064 25.0485 71.1897 24.1068 73.073C24.6718 71.0014 25.2368 69.1181 25.8018 67.2347C26.3668 65.3514 27.1202 63.2798 27.8735 61.3965C28.6268 59.5131 29.1918 57.6298 29.9452 55.7465L32.2052 50.0965C32.3935 49.9082 32.5819 49.9082 32.7702 50.0965ZM34.8043 50.6242C34.7276 50.5471 34.6935 50.5094 34.7018 50.4911C34.7098 50.4735 34.7564 50.4735 34.8418 50.4735C34.8293 50.5235 34.8168 50.5738 34.8043 50.6242ZM33.7118 55.1818C34.076 53.7252 34.4401 52.0925 34.8043 50.6242C34.8158 50.6358 34.8284 50.6484 34.8418 50.6618C34.6535 52.3568 34.4652 53.8635 34.2768 55.3701C34.0885 56.8768 33.7118 58.5717 33.5235 60.0784C33.3351 61.585 32.9585 63.28 32.5818 64.7867C32.2051 66.2933 31.8285 67.9883 31.4518 69.495C31.4518 67.8 31.8285 66.2933 32.0168 64.5983C32.2051 63.0917 32.3935 61.3967 32.7701 59.8901C33.1468 58.3834 33.3351 56.6884 33.7118 55.1818ZM39.3618 50.6616C39.7385 52.1682 40.1152 53.8632 40.4919 55.3698C40.8685 56.8765 41.0569 58.5715 41.4335 60.0781C41.6219 61.5848 41.9985 63.2798 42.1869 64.7864C42.3752 66.2931 42.5635 67.9881 42.7519 69.683C42.3752 68.1764 41.9985 66.4814 41.6219 64.9747C41.2452 63.4681 40.8685 61.7731 40.6802 60.2665C40.4919 58.7598 40.1152 57.0648 39.9269 55.5582C39.7385 54.0515 39.5502 52.3565 39.3618 50.8499C39.1735 50.6616 39.1735 50.4732 39.3618 50.6616ZM37.1019 50.8494C37.2903 52.9211 37.2903 54.9927 37.2903 57.0644L37.2903 63.2793C37.2903 65.351 37.2903 67.4226 37.1019 69.4942C37.1019 71.5659 36.9136 73.6375 36.7253 75.7092C36.537 73.6375 36.537 71.5659 36.3486 69.4942C36.3486 67.4226 36.1603 65.351 36.1603 63.2793L36.1603 57.0644C36.1603 54.9927 36.3486 52.9211 36.3486 50.8494C36.7175 50.7265 36.8456 50.6838 36.9424 50.7214C36.9939 50.7414 37.0366 50.7841 37.1019 50.8494Z" fill-rule="evenodd"  fill="#E4B967" ></path><path d="M47.6488 37.9017C47.6488 43.7912 42.8992 48.7308 36.8195 48.7308C30.7399 48.7308 25.9902 43.9812 25.9902 37.9017C25.9902 32.0122 30.7399 27.0726 36.8195 27.0726C42.8992 27.0726 47.6488 32.0122 47.6488 37.9017Z" stroke="rgba(228, 185, 103, 1)" stroke-width="1"      fill="#E4B967" fill-opacity="0.2"></path></svg>