<svg xmlns="http://www.w3.org/2000/svg" xmlns:xlink="http://www.w3.org/1999/xlink" width="68.50079345703125" height="36.3544921875" viewBox="0 0 68.50079345703125 36.3544921875" fill="none"><path d="M44.3269 13.224C43.539 13.1524 42.7217 13.1692 41.9356 13.311L42.5876 13.0502C42.4137 12.3545 42.0659 11.6589 41.5442 10.9632C41.0224 10.4415 40.3268 9.91976 39.4572 9.74585C38.5876 9.57193 37.7181 9.74585 37.0224 9.91976C36.6088 10.0232 36.1952 10.2495 35.8182 10.5257C36.1324 8.54546 36.0067 6.47266 35.1094 4.52846C34.4137 3.31107 33.7181 2.4415 32.6746 1.74585C31.6311 1.05019 30.5876 0.702375 29.3702 0.354555C27.1094 -0.341101 24.5007 0.0067204 22.4137 1.22412C20.8241 2.2357 19.3545 3.72761 18.7035 5.60006C18.5599 5.82485 18.4314 6.05465 18.3257 6.2921C17.5497 5.76001 16.6515 5.36988 15.6311 5.22411C14.4137 5.0502 13.1963 5.39802 12.3267 6.09367C11.4572 6.78932 10.7615 7.8328 10.5876 9.05019C10.4806 9.79931 10.5053 10.4826 10.6617 11.1405C10.677 11.3594 10.7051 11.5819 10.7477 11.8063C7.53924 10.7502 3.68444 11.9904 1.54412 14.7893C-0.542825 17.7459 -0.542825 22.0937 1.71804 25.0502C2.61766 26.3997 4.03436 27.2321 5.63378 27.6588L5.54414 27.6588C5.37022 29.3979 6.23979 31.1371 7.97893 32.0066C8.84849 32.3545 9.71806 32.5284 10.5876 32.3545C11.3311 32.2058 12.0746 31.9299 12.6007 31.4182C13.1495 32.8681 14.1498 34.146 15.4572 34.9632C16.8485 36.0066 18.5876 36.3545 20.1528 36.3545C21.892 36.3545 23.4573 35.8327 24.8486 34.7893C25.8732 33.911 26.6515 32.7863 27.0796 31.4151C28.206 31.9141 29.4433 32.2272 30.5877 32.3544C32.1529 32.5283 33.892 32.5283 35.4572 32.0065C38.7616 31.137 41.1964 28.7022 43.4573 26.6153C44.5008 25.5718 45.7182 24.3544 47.1095 23.8327C48.5008 23.3109 50.066 23.4849 51.6312 23.6588C53.1964 24.0066 54.7617 24.1805 56.3269 24.3544C58.066 24.5283 59.6312 24.3544 61.1964 24.0066C62.7617 23.6588 64.3269 22.7892 65.5443 21.7457C66.7617 20.7022 67.8051 19.3109 68.5008 17.9196L68.3269 17.7457C67.2834 19.137 65.7182 20.0066 63.9791 20.5283C62.2399 20.8762 60.5008 20.8762 58.7617 20.5283C55.2834 19.8327 52.6747 17.224 49.5443 15.3109C47.9791 14.4414 46.2399 13.3979 44.3269 13.224ZM26.2795 31.0176C26.1477 30.9443 26.0184 30.8682 25.892 30.7891C23.1094 29.0501 21.1964 25.5718 21.5442 22.2674C21.7181 20.5283 22.5877 18.9631 24.1529 17.9196C25.7181 17.0501 27.4572 16.8762 29.0225 17.7457C30.5877 18.6153 31.2833 20.5283 30.5877 22.2674C30.0659 24.0066 27.4572 24.5283 26.4138 22.9631L26.7616 22.4414C27.1094 23.137 27.979 23.3109 28.6746 23.137C29.3703 22.9631 29.892 22.4414 30.2398 21.7457C30.7616 20.3544 30.0659 18.6153 28.8485 18.0936C27.6311 17.5718 25.892 17.5718 24.6746 18.4414C23.4572 19.3109 22.7616 20.7022 22.5877 22.0936C22.4138 25.0501 23.979 28.0066 26.5877 29.5718C27.8051 30.4414 29.3703 30.963 30.7616 31.137C32.3268 31.3109 33.7181 31.3109 35.2833 30.963C38.2398 30.0935 40.6747 28.0066 42.9356 25.9196C44.153 24.8761 45.3704 23.6588 46.9356 23.137C48.5008 22.6153 50.2399 22.7892 51.8051 22.9631C54.9356 23.4849 58.066 23.8327 61.1964 23.3109C62.7617 22.9631 64.153 22.2674 65.3704 21.3979C66.1267 20.7496 66.7488 20.0342 67.3201 19.2516C66.354 20.0943 65.1665 20.6938 63.9791 21.0501C62.2399 21.5718 60.3269 21.5718 58.4138 21.3979C56.5008 21.0501 54.9356 20.1805 53.3704 19.3109C51.8051 18.4414 50.4138 17.3979 48.8486 16.3544C47.2834 15.4849 45.7182 14.6153 44.153 14.4414C42.4138 14.2675 40.6747 14.4414 39.4573 15.6588C38.2398 16.7022 37.5442 18.6153 38.4138 20.0066C38.7616 20.7022 39.4573 21.224 40.3269 21.3979C41.1964 21.5718 42.066 21.224 42.7617 20.7022L42.9356 20.8762C42.2399 21.5718 41.3704 21.9196 40.3269 21.7457C39.2834 21.5718 38.4138 21.0501 37.892 20.1805C36.8485 18.4414 37.5442 16.1805 38.9356 14.7892C39.4707 14.2541 40.1088 13.8733 40.8002 13.6172C40.5921 13.1137 40.125 12.4866 39.805 12.0067C39.4572 11.485 38.7615 11.1372 38.2398 10.9632C37.4201 10.7291 36.5216 10.8102 35.7035 11.1537C35.6807 11.2645 35.6565 11.3749 35.6311 11.485L35.3698 11.3108C35.0945 11.4548 34.8316 11.6295 34.5876 11.8328L34.0659 12.1806L34.2398 11.485C34.5876 9.39802 34.4137 6.96324 33.3702 5.0502C32.8485 4.18063 32.1529 3.31107 31.2833 2.78933C30.4137 2.26759 29.3702 1.74585 28.3268 1.57194C26.2398 1.05019 23.9789 1.22412 22.0659 2.26759C21.1963 2.78933 20.3268 3.48498 19.6311 4.35454C19.3038 4.76368 18.9765 5.17281 18.7035 5.60006C18.6131 5.86012 18.5385 6.12751 18.4815 6.40198C18.4302 6.36473 18.3782 6.32809 18.3257 6.2921C18.2054 6.56256 18.1149 6.84294 18.0659 7.13715L18.0659 7.48498L17.7181 7.31106C16.8485 6.78932 15.805 6.4415 14.9354 6.4415C13.8919 6.4415 13.0224 6.61541 12.3267 7.31106C11.4572 7.8328 10.9354 8.70237 10.7615 9.57193C10.6656 10.0516 10.6226 10.5842 10.6617 11.1405C10.7188 11.3808 10.7935 11.6178 10.8857 11.8533C10.8399 11.8372 10.7939 11.8215 10.7477 11.8063C10.7931 12.0456 10.8549 12.287 10.9354 12.5285L11.1093 12.8763L10.7615 12.7024C7.63107 11.6589 3.80499 12.8763 1.89195 15.485C-0.0210868 18.2676 0.152823 22.0937 2.23977 24.7024C3.28325 25.9198 4.67455 26.7894 6.41368 27.1372C7.9789 27.485 9.71805 26.9633 10.4137 25.572C11.1093 24.1807 10.9354 22.0937 9.3702 21.572C8.67455 21.2242 7.80499 21.2242 7.10934 21.7459C6.41368 22.0937 6.23977 23.1372 6.5876 23.8329L6.41368 23.8329C6.23977 23.485 6.06586 22.9633 6.23977 22.4416C6.23977 21.9198 6.5876 21.572 6.93542 21.2242C7.63107 20.7024 8.67455 20.5285 9.54412 20.8763C10.4137 21.2242 11.1093 22.0937 11.4572 22.9633C11.6311 23.8329 11.6311 24.8763 11.2832 25.7459C10.9354 26.6155 10.0659 27.3111 9.19629 27.6589C8.32673 28.0068 7.28325 28.0068 6.41368 27.8329C6.35713 27.8226 6.30074 27.8118 6.24451 27.8006C6.28709 28.4482 6.61126 29.0856 6.93544 29.5719C7.28327 30.0936 7.80501 30.6153 8.32675 30.9631C9.02241 31.311 9.71806 31.311 10.4137 31.311C11.1093 31.311 11.805 30.9631 12.3268 30.6153L12.6746 30.4414L12.8485 30.7892C13.5441 32.1806 14.5876 33.3979 15.805 34.0936C17.0224 34.9632 18.5876 35.311 19.9789 35.1371C21.5441 35.1371 22.9355 34.6153 24.1529 33.7458C25.0991 33.0699 25.8352 32.0788 26.2795 31.0176ZM10.8857 11.8533C11.0195 11.9004 11.1521 11.9515 11.2832 12.0067L11.1093 12.3545C11.0259 12.1877 10.9514 12.0209 10.8857 11.8533ZM18.4815 6.40198C18.5768 6.47107 18.6701 6.54228 18.7616 6.61541L18.4137 6.78932C18.4324 6.6587 18.4551 6.52958 18.4815 6.40198Z" fill-rule="evenodd"  fill="#D5B270" ></path></svg>