<svg xmlns="http://www.w3.org/2000/svg" xmlns:xlink="http://www.w3.org/1999/xlink" width="70.6798095703125" height="40" viewBox="0 0 70.6798095703125 40" fill="none"><path d="M7.3042 26.7827C7.6304 27.1089 7.9949 27.3586 8.3976 27.5677C5.3162 28.5355 2.6433 30.7445 1.3422 33.6594C1.7403 32.2498 2.368 30.943 3.30441 29.7392C4.2068 28.3855 5.4994 27.162 6.8448 26.2935C6.9941 26.4639 7.1491 26.6276 7.3042 26.7827ZM6.2448 25.5084C6.00201 25.1322 5.81741 24.74 5.73901 24.3479C5.3912 23.3044 5.5651 22.2609 5.9129 21.3913C6.7606 19.5265 8.5998 18.6532 10.4641 18.6104C10.6916 17.4669 11.5277 16.4887 12.5216 15.8261C13.2344 15.3509 14.1096 15.038 14.9807 14.9983C15.1753 14.0274 15.6819 13.3615 16.3478 12.6956C17.0434 12 17.913 11.4783 18.7825 11.3043C20.6651 10.9621 22.5476 11.2934 23.9329 12.4641C24.1251 12.3507 24.3234 12.2532 24.5218 12.1739C25.2987 11.8631 26.2146 11.83 27.0211 11.9506C27.5745 10.1392 28.7639 8.66154 30.4348 7.82606C32.1739 6.78258 34.087 6.60867 36 6.95649C36.7628 7.10905 37.5256 7.36197 38.259 7.71524C38.1214 7.48456 38.005 7.23273 37.9129 6.95653C37.5651 5.91305 37.5651 4.86957 37.9129 3.82609C38.6086 1.73913 40.6955 0.521745 42.6086 0.347835C44.453 0.0124665 46.4593 0.647132 47.6918 2.09594C47.9152 1.30361 48.5663 0.673374 49.2174 0.347835C49.913 0 50.7826 0 51.6521 0C52.5217 0.173924 53.3913 0.521745 53.913 1.2174C54.3701 1.82681 54.6936 2.43619 54.7669 3.1625C56.9632 2.29784 59.5709 2.69295 61.3913 4.34783C62.4348 5.2174 63.1304 6.26089 63.4782 7.47827C63.7267 8.34792 63.7089 9.30632 63.4883 10.2267C64.2965 10.0886 65.1047 10.1115 65.9129 10.4347C66.6086 10.7826 67.3042 11.3043 67.826 12C68.1738 12.6956 68.5216 13.5652 68.3477 14.4347C68.3477 15.2152 68.0675 15.8555 67.6329 16.4815C68.7975 17.4954 69.9351 18.6824 70.4347 20.3478C70.9564 22.0869 70.6086 23.8261 69.739 25.3913C69.2173 26.087 68.6955 26.7826 67.9999 27.3043C67.6521 27.4783 67.3042 27.8261 66.9564 28C66.6086 28.174 66.0868 28.3479 65.739 28.5218C65.1126 28.7306 64.4583 28.8837 63.7873 28.9699C63.9286 29.9293 63.735 30.7907 63.3042 31.6522C62.9564 32.6957 62.0868 33.5653 61.0434 34.087C59.9999 34.6088 58.7825 34.7827 57.739 34.6088C56.76 34.4456 55.6279 33.9762 55.0609 33.0571C54.2152 33.6836 53.1076 34.2452 51.9999 34.087C51.3043 33.9131 50.7825 33.5653 50.2608 33.2174C50.1421 33.0394 50.0234 32.8614 49.9116 32.6834C47.8764 35.036 45.4683 37.0579 42.6086 38.4348C40.3478 39.4782 37.7391 40 35.1304 40C32.5217 40 30.0869 39.4782 27.6521 38.6087C22.7826 37.0435 18.4347 34.2608 14.0869 32C12 30.9565 9.3913 30.4348 7.1304 31.1304C4.86951 31.8261 2.7826 33.2174 1.2174 35.1304L0.521706 35.8261L0.869507 34.9565C0.8722 34.9473 0.874802 34.9381 0.877502 34.9289L0 34.7826C0.347801 32.8696 1.2174 30.7826 2.43481 29.2174C3.1305 28.3478 3.8261 27.6522 4.5218 26.9565C5.0267 26.4517 5.6232 25.9468 6.2448 25.5084ZM56.8695 8.52175C55.6521 8.17392 54.2608 9.2174 54.2608 10.6087C54.4348 12 55.3043 13.0435 56.5217 13.5652C58.7826 14.7826 62.0869 13.7392 63.1304 11.3044C63.2246 11.0845 63.3075 10.859 63.378 10.6298L63.4781 11.1304C64.1738 10.9565 64.8694 11.1304 65.5651 11.3043C66.2607 11.4782 66.7825 12 67.1303 12.5217C67.9999 13.5652 67.826 15.3043 67.1303 16.5217L66.9564 16.6956L67.1303 16.8695C68.3477 17.913 69.2173 19.1304 69.5651 20.6957C69.9129 22.0869 69.5651 23.6522 68.8695 24.8696C68.5216 25.5652 67.9999 26.0869 67.3042 26.4348C66.7825 26.9565 66.0868 27.3043 65.3912 27.4783C63.9999 28 62.4347 28.174 60.8694 27.8261C59.4781 27.6522 57.9129 26.9565 57.0433 25.7391C56.3477 24.6956 56.1738 22.9565 57.2172 21.7391C58.0868 20.6957 59.8259 20.1739 61.2173 21.0435C61.9129 21.3913 62.2607 22.0869 62.0868 22.7826C62.0868 23.1304 61.739 23.4783 61.3912 23.4783C61.2363 23.5557 61.0815 23.5642 60.9266 23.5344C61.1538 23.6046 61.3832 23.6522 61.5651 23.6522C62.0868 23.4783 62.4347 23.1304 62.4347 22.7826C62.7825 21.913 62.0868 21.0435 61.3912 20.5217C59.9999 19.4782 57.739 19.8261 56.6955 21.2174C55.4781 22.6087 55.4781 24.6956 56.3477 26.2609C56.6038 26.645 56.9018 26.9768 57.2288 27.2639C56.8011 27.4968 56.3135 27.7041 55.8259 27.826C55.1304 27.9999 54.4348 27.8261 53.7392 27.6522L53.739 27.6521C52.5998 27.3266 51.7652 26.0875 51.5202 24.7896C52.4155 24.1514 53.1639 23.264 53.5652 22.2609C53.913 21.3914 54.0869 20.5218 54.0869 19.6522C54.0869 18.7827 53.913 17.7392 53.5652 16.8696C52.8695 15.1305 51.3043 13.9131 49.5651 13.2175C47.826 12.5218 45.913 12.6957 44.1739 13.3914C43.8864 13.5063 43.6085 13.6451 43.3431 13.8044C42.9475 12.2087 42.172 10.7677 41.0166 9.69754C41.5608 9.82441 42.1129 9.83828 42.6086 9.73916C43.652 9.73916 44.5216 9.04349 45.0434 8.17392L44.8694 8.00003C43.826 9.56523 41.5651 9.39132 40.1738 8.34784C39.4781 7.8261 38.9564 7.13046 38.7825 6.43479C38.6086 5.56522 38.6086 4.86957 38.9564 4.00001C39.3042 3.30435 39.826 2.6087 40.5216 2.08696C41.2173 1.56522 42.0868 1.2174 42.7825 1.04349C44.5216 0.695657 46.2607 1.2174 47.6521 2.26087L47.826 2.43479L48 2.26087C48.8695 1.04349 50.2608 0.347835 51.8261 0.695657C52.5217 0.695657 53.2174 1.04349 53.7391 1.56522C54.1885 2.01458 54.5088 2.59295 54.7001 3.1892C54.6109 3.22549 54.5225 3.26387 54.4348 3.30435L54.7826 3.47827L54.7826 3.6522L54.9565 3.6522C57.0435 2.95653 59.6522 3.30435 61.0435 5.04348C62.6087 6.6087 63.3043 8.86959 62.2608 10.7826C61.3913 12.6957 58.9565 13.7392 57.0435 12.8696C56 12.5218 55.3043 11.6522 55.1304 10.6087C54.9565 9.56523 56 8.52175 57.0435 8.69566L56.8695 8.52175ZM60.9266 23.5344C60.7193 23.4703 60.5137 23.3874 60.3478 23.3044C60.5407 23.4009 60.7337 23.4973 60.9266 23.5344ZM40.7821 17.0347C41.0781 15.9969 41.74 15.0406 42.6129 14.3208C42.1927 12.9733 41.4002 11.661 40.3479 10.6087C39.1305 9.5652 37.5653 8.69563 35.8261 8.3478C34.2609 7.99998 32.5218 8.17389 30.9566 9.04346C29.5653 9.73911 28.3479 11.1304 27.6522 12.6956L27.6522 12.8695L27.4783 12.8695C25.9131 12.8695 24.1739 13.3913 23.6522 14.7826C23.3044 15.4782 23.1305 16.3478 23.3044 17.0435C23.4783 17.7391 23.8261 18.4348 24.3479 19.1304L24.5218 19.4782L24.1739 19.4782C22.9566 19.8261 21.5652 20.3478 20.6957 21.2174C19.8261 22.2609 19.3044 23.4782 19.1305 24.6956C18.7826 27.1304 20.6957 29.7391 23.3044 30.0869C24.5218 30.2608 25.9131 29.913 26.9566 29.2174C28.0001 28.5217 28.5218 27.1304 28.3479 25.913C28.1739 25.2174 28.0001 24.5217 27.4783 24.1739C26.9566 23.6522 26.4348 23.4782 25.7392 23.4782C25.0435 23.6522 24.3479 23.8261 24 24.3478C23.4783 24.8695 23.6522 25.5652 24 26.0869L23.8261 26.2608C23.3044 25.7391 23.3044 24.8695 23.6522 24.1739C24 23.4782 24.8696 23.1304 25.5653 23.1304C26.2609 23.1304 27.1305 23.3043 27.6522 23.8261C28.1739 24.3478 28.5218 25.0434 28.6957 25.7391C29.0435 27.1304 28.3479 28.8695 27.1305 29.7391C26.3009 30.3316 25.3098 30.6819 24.2673 30.7899C26.0769 31.4453 27.8833 32.0578 29.7391 32.5217C31.4782 33.0435 33.2173 33.2174 34.9565 32.6956C36.5447 32.2192 37.8429 31.1625 38.3211 29.6582C37.3912 30.8805 35.8426 31.2868 34.4347 31.1304C32.8695 30.9565 31.1304 29.9131 30.6087 28.3479C29.913 26.7827 30.2608 25.0435 31.1304 23.6522C32.107 22.3501 33.5406 21.6573 35.0035 21.5738C34.7403 20.8174 34.6087 20.0609 34.6087 19.3044C34.6087 18.4348 35.3043 17.3913 36 16.8696C36.6956 16.3479 37.7391 16 38.6086 16.174C39.3724 16.3267 40.1362 16.6136 40.7821 17.0347ZM20.1589 19.9117C20.0856 18.8443 19.7428 17.8091 19.1303 17.0435C18.4347 16 17.3912 15.3044 16.1738 15.1305C16.0301 15.0894 15.884 15.058 15.7363 15.0358C15.9633 14.4323 16.4374 13.8458 17.0434 13.3913C17.5651 12.8695 18.2608 12.5217 19.1303 12.3478C19.826 12.1739 20.6956 12.1739 21.3912 12.3478C21.9442 12.4861 22.6071 12.7342 23.2052 13.0049C22.8707 13.3164 22.5964 13.6829 22.4348 14.0869C22.087 14.9565 21.9131 16 22.2609 16.8695C22.4025 17.5777 22.7749 18.2859 23.3779 18.8062C22.2841 18.8899 21.1335 19.2067 20.1589 19.9117ZM10.2712 28.234C10.7929 28.305 11.3638 28.3116 11.9515 28.2214C12.6688 28.2715 13.3918 28.3828 14.0869 28.5218C15.8261 28.8696 17.5652 29.3914 19.3043 30.087C22.7826 31.3043 26.0869 32.5217 29.7391 33.3913C31.4782 33.913 33.5652 33.913 35.3043 33.3913C37.2173 32.8695 38.7826 31.1304 38.7826 29.2174L38.7826 28.5218L38.4347 29.0435C37.5652 30.2608 36 30.4348 34.6087 30.2608C33.2173 30.087 32 29.2174 31.6521 28.0001C31.3043 26.7827 31.4782 25.2174 32.1739 24.174C32.8695 22.9566 34.2608 22.2609 35.6521 22.087L35.826 22.087L35.826 21.7392C35.6521 21.0435 35.6521 20.174 35.826 19.4783C36 18.7827 36.3478 18.087 37.0434 17.7392C38.1108 16.9768 39.4455 17.0165 40.696 17.3895L40.6956 17.3913L40.698 17.3901C40.8731 17.4424 41.0465 17.5012 41.2173 17.5653L41.3913 17.7392L41.5652 17.3913C42.4347 16 43.4782 14.6088 44.8695 14.087C46.2608 13.3914 47.9999 13.3914 49.5651 14.087C51.1304 14.6088 52.3478 15.6522 53.0434 17.2174C53.3912 17.9131 53.5652 18.7827 53.3912 19.4783C53.3912 20.3479 53.2173 21.0435 52.8695 21.7392C52.3478 23.1305 50.9565 24.174 49.3913 24.6957C47.826 25.0435 46.0869 24.6957 45.2173 23.4783C44.3478 22.2609 44.8695 20.174 46.0869 19.4783C46.7826 19.1305 47.6521 18.9566 48.3478 19.3044C49.0434 19.6522 49.5651 20.3479 49.3913 21.2174C49.7391 20.3479 49.2173 19.3044 48.3478 18.9566C47.4782 18.6087 46.4347 18.6087 45.5652 19.1305C44 20 43.1304 22.4348 44.3478 24.0001C44.8695 24.8696 45.7391 25.3914 46.6086 25.7392C47.4782 26.087 48.5217 26.087 49.3913 25.7392C49.8751 25.6424 50.359 25.4649 50.8204 25.2215C50.8889 25.8474 51.0502 26.4483 51.3042 26.9565C51.4748 27.2977 51.771 27.6389 52.131 27.9185C49.5849 31.851 46.3945 35.4071 42.2608 37.3913C37.913 39.4782 32.6956 39.3043 28 37.7391C23.3043 36.1739 19.1304 33.5652 14.6087 31.1304C12.3478 30.087 9.5652 29.5653 6.9565 30.4348C5.1683 30.9457 3.4738 32.0195 2.1488 33.3806C3.7211 30.9741 6.1801 29.2295 8.8695 28.5218C9.3128 28.374 9.784 28.2821 10.2712 28.234ZM14.2608 27.4783C15.9591 27.9878 17.6574 28.4973 19.3557 29.0068C19.2109 28.8524 19.077 28.6904 18.9566 28.5217C18.087 27.3043 17.5652 25.7391 17.7392 24.1739C17.9036 22.6941 18.5343 21.3698 19.6314 20.3478L19.4781 20.3478C19.3042 19.3044 18.9564 18.4348 18.2607 17.5653C17.739 16.6957 16.8694 16.1739 15.826 16C14.9564 15.8261 13.9129 16 13.0433 16.5218C12.1738 17.0435 11.3042 17.9131 10.9564 18.7826L10.9564 18.9566L10.7825 18.9566C9.0433 19.1305 7.4781 20 6.9564 21.5653C6.4346 22.9565 6.9564 24.6957 8.1738 25.7392C9.0054 26.5708 10.0805 27.0778 11.1219 27.1493C11.263 27.1483 11.4043 27.15 11.5456 27.1539C11.8818 27.1377 12.2104 27.0732 12.5216 26.9566C13.2173 26.7827 13.9129 26.2609 14.2607 25.5652C14.6086 24.8696 14.6086 24 14.2607 23.3044L14.4347 23.1305C14.9564 23.8261 15.1303 25.0435 14.7825 25.9131C14.679 26.5338 14.3294 27.0315 13.88 27.4061C14.0086 27.4291 14.1356 27.4533 14.2608 27.4783ZM53.0282 28.4197C52.269 29.6375 51.4392 30.8226 50.5309 31.9435C50.9836 32.5016 51.5312 32.915 52.1738 33.0435C53.0434 33.2174 54.0869 32.8696 54.9564 32.3479L55.1303 32.174L55.3043 32.3479C55.826 33.0435 56.8695 33.3913 57.739 33.3913C58.7825 33.5653 59.652 33.2175 60.5215 32.8697L60.5216 32.8696C61.3912 32.5218 62.0868 31.8261 62.4347 30.9566C62.8234 30.4383 63.019 29.727 63.0216 29.0384C62.2567 29.0767 61.4761 29.0257 60.6955 28.8696C59.698 28.6479 58.6299 28.285 57.7162 27.6458C57.2497 28.0393 56.6776 28.3861 55.9999 28.5217C55.1303 28.8695 54.2608 28.6956 53.3913 28.5217L53.3912 28.5217C53.2697 28.4974 53.1483 28.4629 53.0282 28.4197Z" fill-rule="evenodd"  fill="#D5B270" ></path></svg>