<svg xmlns="http://www.w3.org/2000/svg" xmlns:xlink="http://www.w3.org/1999/xlink" width="68.7608642578125" height="35.58135986328125" viewBox="0 0 68.7608642578125 35.58135986328125" fill="none"><path d="M44.3478 9.27614C42.9565 7.88483 41.0435 7.18918 39.1304 7.18918C37.2174 7.01527 35.3043 7.36309 33.3913 7.88483C29.7391 8.92831 26.2609 10.8414 22.6087 12.4066C18.9565 13.9718 15.1304 15.1892 11.1304 15.0153C9.21737 14.8414 7.13041 14.3196 5.39128 13.2761C3.65216 12.2327 2.08696 10.8414 1.04346 9.27614L1.39128 9.10222C2.43476 11.8848 4.52172 14.1457 6.95652 15.7109C9.39128 17.2761 12.3478 18.1457 15.3043 18.3196C18.2609 18.6675 21.2174 18.1457 24.1739 17.7979C27.1304 17.4501 30.2609 16.9283 33.2174 17.4501C34.7826 17.7979 36.3478 18.1457 37.5652 19.1892C38.0869 19.7109 38.6087 20.4066 38.7826 21.2762C38.9565 22.1457 38.7826 23.0153 38.6087 23.7109C38.0869 25.2762 36.5217 26.4936 34.7826 26.4936C33.0435 26.4936 31.6522 25.7979 30.2609 25.1023C27.6522 23.7109 24.8696 22.3196 21.913 21.9718C18.9565 21.4501 16 21.9718 13.3913 23.3631L13.2174 23.0153C15.8261 22.4936 18.4348 22.4936 21.0435 22.8414C23.6522 23.1892 26.0869 24.4066 28 26.3196C29.913 28.2327 30.9565 30.6675 32.8696 32.2327C33.913 32.9283 34.9565 33.4501 36.1739 33.2762C37.3913 33.1022 38.2609 32.4066 39.3043 31.537L39.4782 31.3631L39.6522 31.537C40.6956 32.5805 41.913 33.4501 43.1304 33.9718C44.3478 34.4936 45.913 34.8414 47.1304 34.6675C48.5217 34.4936 49.7391 33.7979 50.4348 32.5805C51.1304 31.3631 51.4782 29.9718 51.6522 28.5805L51.6522 28.2327L51.8261 28.4066C55.3043 29.624 59.3043 29.624 62.2608 27.8849C63.8261 27.0153 65.0435 25.624 65.913 24.0588C66.7826 22.4936 67.4782 20.7544 67.6522 19.0153C67.8261 17.2761 67.6522 15.3631 67.1304 13.7979C66.6087 12.0587 65.5652 10.4935 64.3478 9.27614C63.1304 7.88483 61.5652 7.01527 60 6.31961C58.2608 5.62396 56.5217 5.45005 54.6087 5.27614L54.4348 5.27614L54.4348 5.10222C53.7391 3.71092 52.6956 2.49353 51.4782 1.62397C50.0869 0.754407 48.5217 0.580483 47.1304 0.928318C45.5652 1.10223 44.1739 1.79788 43.1304 2.84136C42.0869 3.88483 41.3913 5.45005 41.2174 7.01527L40.6956 7.01527C40.8695 5.27614 41.3913 3.71092 42.6087 2.31962C43.6522 0.928318 45.3913 0.232663 47.1304 0.058753C48.8695 -0.115157 50.6087 0.058753 52 1.10223C53.3913 2.1457 54.4348 3.53701 54.9565 5.10222L54.7826 4.92831C58.4348 4.58049 62.6087 5.62396 65.2174 8.58048C66.6087 9.97179 67.6522 11.7109 68.1739 13.4501C68.6956 15.3631 68.8695 17.2761 68.6956 19.1892C68.5217 21.1023 67.8261 23.0153 66.7826 24.5805C65.7391 26.1457 64.3478 27.7109 62.6087 28.5805C59.1304 30.4936 54.9565 30.1457 51.6522 28.7544L51.8261 28.5805C52 30.1457 51.8261 31.7109 50.9565 33.1022C50.0869 34.4936 48.5217 35.3631 46.9565 35.537C45.3913 35.7109 43.8261 35.3631 42.4348 34.6675C41.0435 33.9718 39.8261 32.9283 38.9565 31.7109L39.3043 31.7109C38.6087 32.7544 37.3913 33.7979 36 33.9718C34.6087 34.1457 33.2174 33.624 32 32.7544C30.9565 31.8849 30.0869 30.8414 29.3913 29.7979C28.6956 28.7544 28 27.7109 27.1304 26.6675C25.3913 24.7544 23.1304 23.7109 20.5217 23.1892C18.087 22.6675 15.4782 22.8414 12.8695 23.1892L12 23.3631L12.6956 23.0153C15.3043 21.4501 18.4348 20.7544 21.5652 21.2762C24.6956 21.624 27.4783 23.0153 30.0869 24.4066C31.4783 25.1023 32.8696 25.624 34.2609 25.624C35.6522 25.624 36.8696 24.7544 37.3913 23.3631C37.5652 22.6675 37.7391 21.9718 37.5652 21.2762C37.3913 20.5805 37.0435 20.0588 36.5217 19.537C35.4782 18.4936 34.0869 18.1457 32.6956 17.7979C29.7391 17.2761 26.7826 17.7979 23.8261 18.1457C20.8696 18.4936 17.7391 19.0153 14.7826 18.6675C11.8261 18.4936 8.69565 17.624 6.08695 15.8848C3.47826 14.1457 1.39128 11.7109 0.347821 8.7544L0 7.71092L0.695642 8.58048C1.91303 10.1457 3.30433 11.3631 5.04346 12.4066C6.78259 13.2761 8.69565 13.7979 10.6087 13.9718C14.4348 14.1457 18.2609 12.9283 21.7391 11.3631C25.2174 9.62396 28.6956 7.88483 32.5217 6.66744C34.4348 6.1457 36.5217 5.97179 38.4348 6.1457C41.3913 6.66744 43.3043 7.53701 44.3478 9.27614Z"   fill="#D5B270" ></path></svg>