<svg xmlns="http://www.w3.org/2000/svg" xmlns:xlink="http://www.w3.org/1999/xlink" width="70.6798095703125" height="40" viewBox="0 0 70.6798095703125 40" fill="none"><path d="M63.3756 26.7827C63.0494 27.1089 62.6849 27.3586 62.2822 27.5677C65.3636 28.5355 68.0365 30.7445 69.3376 33.6594C68.9395 32.2498 68.3118 30.943 67.3754 29.7392C66.473 28.3855 65.1804 27.162 63.835 26.2935C63.6857 26.4639 63.5307 26.6276 63.3756 26.7827ZM64.435 25.5084C64.6778 25.1322 64.8624 24.74 64.9408 24.3479C65.2886 23.3044 65.1147 22.2609 64.7669 21.3913C63.9192 19.5265 62.08 18.6532 60.2157 18.6104C59.9882 17.4669 59.1521 16.4887 58.1582 15.8261C57.4454 15.3509 56.5702 15.038 55.6991 14.9983C55.5045 14.0274 54.9979 13.3615 54.332 12.6956C53.6364 12 52.7668 11.4783 51.8973 11.3043C50.0147 10.9621 48.1322 11.2934 46.7469 12.4641C46.5547 12.3507 46.3564 12.2532 46.158 12.1739C45.3811 11.8631 44.4652 11.83 43.6587 11.9506C43.1053 10.1392 41.9159 8.66154 40.245 7.82606C38.5059 6.78258 36.5928 6.60867 34.6798 6.95649C33.917 7.10905 33.1542 7.36197 32.4208 7.71524C32.5584 7.48456 32.6748 7.23273 32.7669 6.95653C33.1147 5.91305 33.1147 4.86957 32.7669 3.82609C32.0712 1.73913 29.9843 0.521745 28.0712 0.347835C26.2268 0.0124665 24.2205 0.647132 22.988 2.09594C22.7646 1.30361 22.1135 0.673374 21.4624 0.347835C20.7668 0 19.8972 0 19.0277 0C18.1581 0.173924 17.2885 0.521745 16.7668 1.2174C16.3097 1.82681 15.9862 2.43619 15.9129 3.1625C13.7166 2.29784 11.1089 2.69295 9.28853 4.34783C8.24506 5.2174 7.5494 6.26089 7.20158 7.47827C6.9531 8.34792 6.97087 9.30632 7.1915 10.2267C6.38329 10.0886 5.57509 10.1115 4.76689 10.4347C4.07124 10.7826 3.37558 11.3043 2.85384 12C2.50602 12.6956 2.15819 13.5652 2.3321 14.4347C2.3321 15.2152 2.61227 15.8555 3.04688 16.4815C1.8823 17.4954 0.744754 18.6824 0.245142 20.3478C-0.276603 22.0869 0.0712189 23.8261 0.940786 25.3913C1.46254 26.087 1.98428 26.7826 2.67993 27.3043C3.02776 27.4783 3.37558 27.8261 3.72341 28C4.07124 28.174 4.59298 28.3479 4.94081 28.5218C5.56722 28.7306 6.22149 28.8837 6.89247 28.9699C6.75119 29.9293 6.94485 30.7907 7.3756 31.6522C7.72342 32.6957 8.59298 33.5653 9.63645 34.087C10.6799 34.6088 11.8973 34.7827 12.9408 34.6088C13.9198 34.4456 15.0519 33.9762 15.6189 33.0571C16.4646 33.6836 17.5722 34.2452 18.6799 34.087C19.3755 33.9131 19.8973 33.5653 20.419 33.2174C20.5377 33.0394 20.6564 32.8614 20.7682 32.6834C22.8034 35.036 25.2115 37.0579 28.0712 38.4348C30.332 39.4782 32.9407 40 35.5494 40C38.1581 40 40.5929 39.4782 43.0277 38.6087C47.8972 37.0435 52.2451 34.2608 56.5929 32C58.6798 30.9565 61.2885 30.4348 63.5494 31.1304C65.8103 31.8261 67.8972 33.2174 69.4624 35.1304L70.1581 35.8261L69.8103 34.9565C69.8076 34.9473 69.805 34.9381 69.8023 34.9289L70.6798 34.7826C70.332 32.8696 69.4624 30.7826 68.245 29.2174C67.5493 28.3478 66.8537 27.6522 66.158 26.9565C65.6531 26.4517 65.0566 25.9468 64.435 25.5084ZM13.8103 8.52175C15.0277 8.17392 16.419 9.2174 16.419 10.6087C16.245 12 15.3755 13.0435 14.1581 13.5652C11.8972 14.7826 8.59288 13.7392 7.5494 11.3044C7.45518 11.0845 7.3723 10.859 7.30179 10.6298L7.20168 11.1304C6.50603 10.9565 5.81037 11.1304 5.11472 11.3043C4.41906 11.4782 3.89732 12 3.5495 12.5217C2.67993 13.5652 2.85384 15.3043 3.5495 16.5217L3.72341 16.6956L3.5495 16.8695C2.3321 17.913 1.46254 19.1304 1.11471 20.6957C0.766874 22.0869 1.11471 23.6522 1.81036 24.8696C2.15818 25.5652 2.67992 26.0869 3.37558 26.4348C3.89732 26.9565 4.59298 27.3043 5.28863 27.4783C6.67994 28 8.24516 28.174 9.81038 27.8261C11.2017 27.6522 12.7669 26.9565 13.6365 25.7391C14.3321 24.6956 14.506 22.9565 13.4626 21.7391C12.593 20.6957 10.8539 20.1739 9.46256 21.0435C8.7669 21.3913 8.41908 22.0869 8.59299 22.7826C8.59299 23.1304 8.94082 23.4783 9.28864 23.4783C9.4435 23.5557 9.59835 23.5642 9.75322 23.5344C9.52599 23.6046 9.29659 23.6522 9.11473 23.6522C8.59299 23.4783 8.24516 23.1304 8.24516 22.7826C7.89734 21.913 8.59299 21.0435 9.28864 20.5217C10.6799 19.4782 12.9408 19.8261 13.9843 21.2174C15.2017 22.6087 15.2017 24.6956 14.3321 26.2609C14.076 26.645 13.778 26.9768 13.451 27.2639C13.8787 27.4968 14.3663 27.7041 14.8539 27.826C15.5494 27.9999 16.245 27.8261 16.9406 27.6522L16.9408 27.6521C18.08 27.3266 18.9146 26.0875 19.1596 24.7896C18.2643 24.1514 17.5159 23.264 17.1146 22.2609C16.7668 21.3914 16.5929 20.5218 16.5929 19.6522C16.5929 18.7827 16.7668 17.7392 17.1146 16.8696C17.8103 15.1305 19.3755 13.9131 21.1147 13.2175C22.8538 12.5218 24.7668 12.6957 26.5059 13.3914C26.7934 13.5063 27.0713 13.6451 27.3367 13.8044C27.7323 12.2087 28.5078 10.7677 29.6632 9.69754C29.119 9.82441 28.5669 9.83828 28.0712 9.73916C27.0278 9.73916 26.1582 9.04349 25.6364 8.17392L25.8104 8.00003C26.8538 9.56523 29.1147 9.39132 30.506 8.34784C31.2017 7.8261 31.7234 7.13046 31.8973 6.43479C32.0712 5.56522 32.0712 4.86957 31.7234 4.00001C31.3756 3.30435 30.8538 2.6087 30.1582 2.08696C29.4625 1.56522 28.593 1.2174 27.8973 1.04349C26.1582 0.695657 24.4191 1.2174 23.0277 2.26087L22.8538 2.43479L22.6798 2.26087C21.8103 1.04349 20.419 0.347835 18.8537 0.695657C18.1581 0.695657 17.4624 1.04349 16.9407 1.56522C16.4913 2.01458 16.171 2.59295 15.9797 3.1892C16.0689 3.22549 16.1573 3.26387 16.245 3.30435L15.8972 3.47827L15.8972 3.6522L15.7233 3.6522C13.6363 2.95653 11.0276 3.30435 9.63635 5.04348C8.07115 6.6087 7.37549 8.86959 8.41897 10.7826C9.28853 12.6957 11.7233 13.7392 13.6363 12.8696C14.6798 12.5218 15.3755 11.6522 15.5494 10.6087C15.7233 9.56523 14.6798 8.52175 13.6363 8.69566L13.8103 8.52175ZM9.75322 23.5344C9.96055 23.4703 10.1661 23.3874 10.332 23.3044C10.1391 23.4009 9.94615 23.4973 9.75322 23.5344ZM29.8977 17.0347C29.6017 15.9969 28.9398 15.0406 28.0669 14.3208C28.4871 12.9733 29.2796 11.661 30.3319 10.6087C31.5493 9.5652 33.1145 8.69563 34.8537 8.3478C36.4189 7.99998 38.158 8.17389 39.7232 9.04346C41.1145 9.73911 42.3319 11.1304 43.0276 12.6956L43.0276 12.8695L43.2015 12.8695C44.7667 12.8695 46.5059 13.3913 47.0276 14.7826C47.3754 15.4782 47.5493 16.3478 47.3754 17.0435C47.2015 17.7391 46.8537 18.4348 46.3319 19.1304L46.158 19.4782L46.5059 19.4782C47.7232 19.8261 49.1146 20.3478 49.9841 21.2174C50.8537 22.2609 51.3754 23.4782 51.5493 24.6956C51.8972 27.1304 49.9841 29.7391 47.3754 30.0869C46.158 30.2608 44.7667 29.913 43.7232 29.2174C42.6797 28.5217 42.158 27.1304 42.3319 25.913C42.5059 25.2174 42.6797 24.5217 43.2015 24.1739C43.7232 23.6522 44.245 23.4782 44.9406 23.4782C45.6363 23.6522 46.3319 23.8261 46.6798 24.3478C47.2015 24.8695 47.0276 25.5652 46.6798 26.0869L46.8537 26.2608C47.3754 25.7391 47.3754 24.8695 47.0276 24.1739C46.6798 23.4782 45.8102 23.1304 45.1145 23.1304C44.4189 23.1304 43.5493 23.3043 43.0276 23.8261C42.5059 24.3478 42.158 25.0434 41.9841 25.7391C41.6363 27.1304 42.3319 28.8695 43.5493 29.7391C44.3789 30.3316 45.37 30.6819 46.4125 30.7899C44.6029 31.4453 42.7965 32.0578 40.9407 32.5217C39.2016 33.0435 37.4625 33.2174 35.7233 32.6956C34.1351 32.2192 32.8369 31.1625 32.3587 29.6582C33.2886 30.8805 34.8372 31.2868 36.2451 31.1304C37.8103 30.9565 39.5494 29.9131 40.0711 28.3479C40.7668 26.7827 40.419 25.0435 39.5494 23.6522C38.5728 22.3501 37.1392 21.6573 35.6763 21.5738C35.9395 20.8174 36.0711 20.0609 36.0711 19.3044C36.0711 18.4348 35.3755 17.3913 34.6798 16.8696C33.9842 16.3479 32.9407 16 32.0712 16.174C31.3074 16.3267 30.5436 16.6136 29.8977 17.0347ZM50.5209 19.9117C50.5942 18.8443 50.937 17.8091 51.5495 17.0435C52.2451 16 53.2886 15.3044 54.506 15.1305C54.6497 15.0894 54.7958 15.058 54.9435 15.0358C54.7165 14.4323 54.2424 13.8458 53.6364 13.3913C53.1147 12.8695 52.419 12.5217 51.5495 12.3478C50.8538 12.1739 49.9842 12.1739 49.2886 12.3478C48.7356 12.4861 48.0727 12.7342 47.4746 13.0049C47.8091 13.3164 48.0834 13.6829 48.245 14.0869C48.5928 14.9565 48.7667 16 48.4189 16.8695C48.2773 17.5777 47.9049 18.2859 47.3019 18.8062C48.3957 18.8899 49.5463 19.2067 50.5209 19.9117ZM60.4086 28.234C59.8869 28.305 59.316 28.3116 58.7283 28.2214C58.011 28.2715 57.288 28.3828 56.5929 28.5218C54.8537 28.8696 53.1146 29.3914 51.3755 30.087C47.8972 31.3043 44.5929 32.5217 40.9407 33.3913C39.2016 33.913 37.1146 33.913 35.3755 33.3913C33.4625 32.8695 31.8972 31.1304 31.8972 29.2174L31.8972 28.5218L32.2451 29.0435C33.1146 30.2608 34.6798 30.4348 36.0711 30.2608C37.4625 30.087 38.6798 29.2174 39.0277 28.0001C39.3755 26.7827 39.2016 25.2174 38.5059 24.174C37.8103 22.9566 36.419 22.2609 35.0277 22.087L34.8538 22.087L34.8538 21.7392C35.0277 21.0435 35.0277 20.174 34.8538 19.4783C34.6798 18.7827 34.332 18.087 33.6364 17.7392C32.569 16.9768 31.2343 17.0165 29.9838 17.3895L29.9842 17.3913L29.9818 17.3901C29.8067 17.4424 29.6333 17.5012 29.4625 17.5653L29.2885 17.7392L29.1146 17.3913C28.2451 16 27.2016 14.6088 25.8103 14.087C24.419 13.3914 22.6799 13.3914 21.1147 14.087C19.5494 14.6088 18.332 15.6522 17.6364 17.2174C17.2886 17.9131 17.1146 18.7827 17.2886 19.4783C17.2886 20.3479 17.4625 21.0435 17.8103 21.7392C18.332 23.1305 19.7233 24.174 21.2885 24.6957C22.8538 25.0435 24.5929 24.6957 25.4625 23.4783C26.332 22.2609 25.8103 20.174 24.5929 19.4783C23.8972 19.1305 23.0277 18.9566 22.332 19.3044C21.6364 19.6522 21.1147 20.3479 21.2885 21.2174C20.9407 20.3479 21.4625 19.3044 22.332 18.9566C23.2016 18.6087 24.2451 18.6087 25.1146 19.1305C26.6798 20 27.5494 22.4348 26.332 24.0001C25.8103 24.8696 24.9407 25.3914 24.0712 25.7392C23.2016 26.087 22.1581 26.087 21.2885 25.7392C20.8047 25.6424 20.3208 25.4649 19.8594 25.2215C19.7909 25.8474 19.6296 26.4483 19.3756 26.9565C19.205 27.2977 18.9088 27.6389 18.5488 27.9185C21.0949 31.851 24.2853 35.4071 28.419 37.3913C32.7668 39.4782 37.9842 39.3043 42.6798 37.7391C47.3755 36.1739 51.5494 33.5652 56.0711 31.1304C58.332 30.087 61.1146 29.5653 63.7233 30.4348C65.5115 30.9457 67.206 32.0195 68.531 33.3806C66.9587 30.9741 64.4997 29.2295 61.8103 28.5218C61.367 28.374 60.8958 28.2821 60.4086 28.234ZM56.419 27.4783C54.7207 27.9878 53.0224 28.4973 51.3241 29.0068C51.4689 28.8524 51.6028 28.6904 51.7232 28.5217C52.5928 27.3043 53.1146 25.7391 52.9406 24.1739C52.7762 22.6941 52.1455 21.3698 51.0484 20.3478L51.2017 20.3478C51.3756 19.3044 51.7234 18.4348 52.4191 17.5653C52.9408 16.6957 53.8104 16.1739 54.8538 16C55.7234 15.8261 56.7669 16 57.6365 16.5218C58.506 17.0435 59.3756 17.9131 59.7234 18.7826L59.7234 18.9566L59.8973 18.9566C61.6365 19.1305 63.2017 20 63.7234 21.5653C64.2452 22.9565 63.7234 24.6957 62.506 25.7392C61.6744 26.5708 60.5993 27.0778 59.5579 27.1493C59.4168 27.1483 59.2755 27.15 59.1342 27.1539C58.798 27.1377 58.4694 27.0732 58.1582 26.9566C57.4625 26.7827 56.7669 26.2609 56.4191 25.5652C56.0712 24.8696 56.0712 24 56.4191 23.3044L56.2451 23.1305C55.7234 23.8261 55.5495 25.0435 55.8973 25.9131C56.0008 26.5338 56.3504 27.0315 56.7998 27.4061C56.6712 27.4291 56.5442 27.4533 56.419 27.4783ZM17.6516 28.4197C18.4108 29.6375 19.2406 30.8226 20.1489 31.9435C19.6962 32.5016 19.1486 32.915 18.506 33.0435C17.6364 33.2174 16.5929 32.8696 15.7234 32.3479L15.5495 32.174L15.3755 32.3479C14.8538 33.0435 13.8103 33.3913 12.9408 33.3913C11.8973 33.5653 11.0278 33.2175 10.1583 32.8697L10.1582 32.8696C9.28863 32.5218 8.59298 31.8261 8.24516 30.9566C7.85646 30.4383 7.66081 29.727 7.65823 29.0384C8.4231 29.0767 9.2037 29.0257 9.9843 28.8696C10.9818 28.6479 12.0499 28.285 12.9636 27.6458C13.4301 28.0393 14.0022 28.3861 14.6799 28.5217C15.5495 28.8695 16.419 28.6956 17.2885 28.5217L17.2886 28.5217C17.4101 28.4974 17.5315 28.4629 17.6516 28.4197Z" fill-rule="evenodd"  fill="#D5B270" ></path></svg>