<svg xmlns="http://www.w3.org/2000/svg" xmlns:xlink="http://www.w3.org/1999/xlink" width="68.50079345703125" height="36.3544921875" viewBox="0 0 68.50079345703125 36.3544921875" fill="none"><path d="M24.1739 13.224C24.9618 13.1524 25.7791 13.1692 26.5652 13.311L25.9132 13.0502C26.0871 12.3545 26.4349 11.6589 26.9566 10.9632C27.4784 10.4415 28.174 9.91976 29.0436 9.74585C29.9132 9.57193 30.7827 9.74585 31.4784 9.91976C31.892 10.0232 32.3056 10.2495 32.6826 10.5257C32.3684 8.54546 32.4941 6.47266 33.3914 4.52846C34.0871 3.31107 34.7827 2.4415 35.8262 1.74585C36.8697 1.05019 37.9132 0.702375 39.1306 0.354555C41.3914 -0.341101 44.0001 0.0067204 46.0871 1.22412C47.6767 2.2357 49.1463 3.72761 49.7973 5.60006C49.9409 5.82485 50.0694 6.05465 50.1751 6.2921C50.9511 5.76001 51.8493 5.36988 52.8697 5.22411C54.0871 5.0502 55.3045 5.39802 56.1741 6.09367C57.0436 6.78932 57.7393 7.8328 57.9132 9.05019C58.0202 9.79931 57.9955 10.4826 57.8391 11.1405C57.8238 11.3594 57.7957 11.5819 57.7531 11.8063C60.9616 10.7502 64.8164 11.9904 66.9567 14.7893C69.0436 17.7459 69.0436 22.0937 66.7828 25.0502C65.8831 26.3997 64.4664 27.2321 62.867 27.6588L62.9566 27.6588C63.1306 29.3979 62.261 31.1371 60.5219 32.0066C59.6523 32.3545 58.7827 32.5284 57.9132 32.3545C57.1697 32.2058 56.4262 31.9299 55.9001 31.4182C55.3513 32.8681 54.351 34.146 53.0436 34.9632C51.6523 36.0066 49.9132 36.3545 48.348 36.3545C46.6088 36.3545 45.0435 35.8327 43.6522 34.7893C42.6276 33.911 41.8493 32.7863 41.4212 31.4151C40.2948 31.9141 39.0575 32.2272 37.9131 32.3544C36.3479 32.5283 34.6088 32.5283 33.0436 32.0065C29.7392 31.137 27.3044 28.7022 25.0435 26.6153C24 25.5718 22.7826 24.3544 21.3913 23.8327C20 23.3109 18.4348 23.4849 16.8696 23.6588C15.3044 24.0066 13.7391 24.1805 12.1739 24.3544C10.4348 24.5283 8.86959 24.3544 7.30439 24.0066C5.73909 23.6588 4.17389 22.7892 2.95649 21.7457C1.73909 20.7022 0.695686 19.3109 -7.62939e-06 17.9196L0.173889 17.7457C1.21739 19.137 2.78259 20.0066 4.52169 20.5283C6.26089 20.8762 7.99999 20.8762 9.73909 20.5283C13.2174 19.8327 15.8261 17.224 18.9565 15.3109C20.5217 14.4414 22.2609 13.3979 24.1739 13.224ZM42.2213 31.0176C42.3531 30.9443 42.4824 30.8682 42.6088 30.7891C45.3914 29.0501 47.3044 25.5718 46.9566 22.2674C46.7827 20.5283 45.9131 18.9631 44.3479 17.9196C42.7827 17.0501 41.0436 16.8762 39.4783 17.7457C37.9131 18.6153 37.2175 20.5283 37.9131 22.2674C38.4349 24.0066 41.0436 24.5283 42.087 22.9631L41.7392 22.4414C41.3914 23.137 40.5218 23.3109 39.8262 23.137C39.1305 22.9631 38.6088 22.4414 38.261 21.7457C37.7392 20.3544 38.4349 18.6153 39.6523 18.0936C40.8697 17.5718 42.6088 17.5718 43.8262 18.4414C45.0436 19.3109 45.7392 20.7022 45.9131 22.0936C46.087 25.0501 44.5218 28.0066 41.9131 29.5718C40.6957 30.4414 39.1305 30.963 37.7392 31.137C36.174 31.3109 34.7827 31.3109 33.2175 30.963C30.261 30.0935 27.8261 28.0066 25.5652 25.9196C24.3478 24.8761 23.1304 23.6588 21.5652 23.137C20 22.6153 18.2609 22.7892 16.6957 22.9631C13.5652 23.4849 10.4348 23.8327 7.30439 23.3109C5.73909 22.9631 4.34779 22.2674 3.13039 21.3979C2.37409 20.7496 1.75199 20.0342 1.18069 19.2516C2.14679 20.0943 3.33429 20.6938 4.52169 21.0501C6.26089 21.5718 8.17389 21.5718 10.087 21.3979C12 21.0501 13.5652 20.1805 15.1304 19.3109C16.6957 18.4414 18.087 17.3979 19.6522 16.3544C21.2174 15.4849 22.7826 14.6153 24.3478 14.4414C26.087 14.2675 27.8261 14.4414 29.0435 15.6588C30.261 16.7022 30.9566 18.6153 30.087 20.0066C29.7392 20.7022 29.0435 21.224 28.1739 21.3979C27.3044 21.5718 26.4348 21.224 25.7391 20.7022L25.5652 20.8762C26.2609 21.5718 27.1304 21.9196 28.1739 21.7457C29.2174 21.5718 30.087 21.0501 30.6088 20.1805C31.6523 18.4414 30.9566 16.1805 29.5652 14.7892C29.0301 14.2541 28.392 13.8733 27.7006 13.6172C27.9087 13.1137 28.3758 12.4866 28.6958 12.0067C29.0436 11.485 29.7393 11.1372 30.261 10.9632C31.0807 10.7291 31.9792 10.8102 32.7973 11.1537C32.8201 11.2645 32.8443 11.3749 32.8697 11.485L33.131 11.3108C33.4063 11.4548 33.6692 11.6295 33.9132 11.8328L34.4349 12.1806L34.261 11.485C33.9132 9.39802 34.0871 6.96324 35.1306 5.0502C35.6523 4.18063 36.3479 3.31107 37.2175 2.78933C38.0871 2.26759 39.1306 1.74585 40.174 1.57194C42.261 1.05019 44.5219 1.22412 46.4349 2.26759C47.3045 2.78933 48.174 3.48498 48.8697 4.35454C49.197 4.76368 49.5243 5.17281 49.7973 5.60006C49.8877 5.86012 49.9623 6.12751 50.0193 6.40198C50.0706 6.36473 50.1226 6.32809 50.1751 6.2921C50.2954 6.56256 50.3859 6.84294 50.4349 7.13715L50.4349 7.48498L50.7827 7.31106C51.6523 6.78932 52.6958 6.4415 53.5654 6.4415C54.6089 6.4415 55.4784 6.61541 56.1741 7.31106C57.0436 7.8328 57.5654 8.70237 57.7393 9.57193C57.8352 10.0516 57.8782 10.5842 57.8391 11.1405C57.782 11.3808 57.7073 11.6178 57.6151 11.8533C57.6609 11.8372 57.7069 11.8215 57.7531 11.8063C57.7077 12.0456 57.6459 12.287 57.5654 12.5285L57.3915 12.8763L57.7393 12.7024C60.8697 11.6589 64.6958 12.8763 66.6088 15.485C68.5219 18.2676 68.348 22.0937 66.261 24.7024C65.2175 25.9198 63.8262 26.7894 62.0871 27.1372C60.5219 27.485 58.7827 26.9633 58.0871 25.572C57.3915 24.1807 57.5654 22.0937 59.1306 21.572C59.8262 21.2242 60.6958 21.2242 61.3914 21.7459C62.0871 22.0937 62.261 23.1372 61.9132 23.8329L62.0871 23.8329C62.261 23.485 62.4349 22.9633 62.261 22.4416C62.261 21.9198 61.9132 21.572 61.5654 21.2242C60.8697 20.7024 59.8262 20.5285 58.9567 20.8763C58.0871 21.2242 57.3915 22.0937 57.0436 22.9633C56.8697 23.8329 56.8697 24.8763 57.2176 25.7459C57.5654 26.6155 58.4349 27.3111 59.3045 27.6589C60.1741 28.0068 61.2175 28.0068 62.0871 27.8329C62.1437 27.8226 62.2001 27.8118 62.2563 27.8006C62.2137 28.4482 61.8895 29.0856 61.5653 29.5719C61.2175 30.0936 60.6958 30.6153 60.174 30.9631C59.4784 31.311 58.7827 31.311 58.0871 31.311C57.3915 31.311 56.6958 30.9631 56.174 30.6153L55.8262 30.4414L55.6523 30.7892C54.9567 32.1806 53.9132 33.3979 52.6958 34.0936C51.4784 34.9632 49.9132 35.311 48.5219 35.1371C46.9567 35.1371 45.5653 34.6153 44.3479 33.7458C43.4017 33.0699 42.6656 32.0788 42.2213 31.0176ZM57.6151 11.8533C57.4813 11.9004 57.3487 11.9515 57.2176 12.0067L57.3915 12.3545C57.4749 12.1877 57.5494 12.0209 57.6151 11.8533ZM50.0193 6.40198C49.924 6.47107 49.8307 6.54228 49.7392 6.61541L50.0871 6.78932C50.0684 6.6587 50.0457 6.52958 50.0193 6.40198Z" fill-rule="evenodd"  fill="#D5B270" ></path></svg>