<svg xmlns="http://www.w3.org/2000/svg" xmlns:xlink="http://www.w3.org/1999/xlink" width="89.9130859375" height="35.18450927734375" viewBox="0 0 89.9130859375 35.18450927734375" fill="none"><path d="M55.8467 20.1064C55.8958 20.2191 55.947 20.3287 56.0001 20.4348C56.6835 21.46 57.7028 22.3173 58.8928 22.8419C58.7332 23.6348 58.525 24.4975 57.913 24.9565C57.2174 25.4782 56.1739 25.6521 55.3043 25.6521L54.9565 25.6521L54.9565 26C55.1304 27.5652 54.7826 29.3043 53.913 30.6956C53.2173 32.0869 51.8261 33.1304 50.4348 33.6521C48.8695 34.1739 47.3043 34.3478 45.7391 34C44.1739 33.6521 42.7826 32.7826 41.5652 31.7391L41.3913 31.5652L41.2174 31.7391C40.5218 32.2608 39.8261 32.6086 39.1305 32.7826C38.4348 32.9565 37.5653 32.9565 36.8696 32.6086C36.1739 32.4347 35.3044 32.0869 34.7826 31.5652C34.2609 31.0434 33.7392 30.3478 33.3913 29.6521L32.6957 29.826C33.2174 31.7391 34.7826 32.9565 36.5218 33.4782C37.3913 33.6521 38.4348 33.826 39.3044 33.4782C40.0973 33.3196 40.8903 32.8718 41.5513 32.2666C42.7305 33.5677 44.0757 34.5368 45.7391 34.8695C47.4782 35.3913 49.3913 35.2173 50.9565 34.6956C52.6956 34.1739 54.2608 32.9565 54.9565 31.2173C55.7545 29.7809 55.9666 28.0515 55.7273 26.4324L56.1739 26.5217L57.0434 26.5217C57.5652 26.5217 58.2609 26.3478 58.7826 26C59.3043 25.6521 59.6521 25.1304 59.8261 24.6087C59.9803 24.146 60.1345 23.6834 60.0462 23.0995C62.1517 23.3918 64.3088 22.8377 66.087 21.6522C68.174 20.2609 69.7392 18.5217 71.4783 16.9565C73.2174 15.3913 75.1305 14 77.2175 13.3043C79.3044 12.4348 81.7392 12.087 83.8261 12.6087C85.181 12.9214 86.4109 13.6087 87.4036 14.5211C87.9509 15.2708 88.3904 16.0913 88.6957 16.9565L89.1635 16.8006L89.9131 18L89.5653 16.4348C88.6957 13.1304 85.9131 10.3478 82.6088 9.47826C79.3044 8.43478 75.8261 8.78261 72.5218 9.65217C70.9566 10 69.2174 10.5217 67.6522 10.6957C66.087 10.8696 64.5218 10.6957 63.1305 9.82609C60.3479 8.26087 58.7827 5.13044 56.3479 2.69565C55.1305 1.47826 53.5653 0.608695 51.8261 0.260876C50.087 -0.0869587 48.3479 -0.0869587 46.6087 0.260876C44.8696 0.608695 43.3044 1.30435 41.9131 2.52174C41.502 2.88143 41.1365 3.27148 40.8165 3.68741C40.2867 2.86091 39.513 2.27818 38.6087 1.82606C37.5652 1.30431 36.5218 1.1304 35.3044 1.1304C34.087 1.1304 33.0435 1.47822 32.174 2.17387C31.4041 2.78981 30.6342 3.54207 30.3471 4.43067C29.1706 3.66923 27.704 3.22957 26.087 3.39127C25.2175 3.56518 24.5218 3.91301 23.8261 4.60866C23.3044 5.1304 22.7826 5.65214 22.2609 6.34779C20.3479 8.78257 18.7826 11.2174 16.3479 12.9565C15.1305 13.826 13.7392 14.5217 12.3479 14.8695C10.9566 15.2173 9.39129 15.0434 7.99998 14.6956C6.69269 14.3688 5.34698 13.85 4.14319 13.1393C3.05029 12.1045 2.11609 10.9203 1.39139 9.6522L1.10648 9.82319C1.08508 9.76635 1.06409 9.70933 1.04349 9.65213L0.745384 9.8012L-1.52588e-05 8.60866L0.52179 10.1739C1.91309 14.6956 5.91309 18.3478 10.4348 19.7391C12.6957 20.6087 15.1305 20.7826 17.3913 20.7826C18.6087 20.7826 19.6522 20.7826 20.8696 21.1304C21.9131 21.4782 22.9566 22.1739 23.6522 22.8695C25.2175 24.4347 26.087 26.8695 28.174 28.2608C29.2174 28.9565 30.4348 29.4782 31.6522 29.4782C32.8696 29.4782 34.087 29.3043 35.3044 28.6086C37.5652 27.3913 38.4348 23.913 36.6957 21.826C36.2387 21.2777 35.6378 20.8735 34.9937 20.6637C35.8225 19.9506 36.3702 18.9093 36.5218 18C36.8696 16.7826 36.6956 15.5652 36.1739 14.3478C35.6522 13.3044 34.6087 12.4348 33.5652 11.9131C32.5218 11.3913 31.3044 11.2174 30.087 11.2174C28.8696 11.2174 27.6522 11.7392 26.7826 12.2609C25.7391 12.7826 24.8696 13.4783 24 14C22.087 15.2174 20.1739 16.087 18.0871 16.6087C15.9999 17.1305 13.7393 17.4783 11.6521 16.9565C8.97408 16.5281 6.49409 15.2418 4.49648 13.4636C5.62549 14.1767 6.96539 14.7413 8.17389 15.0434C9.73919 15.3913 11.3044 15.5652 12.8696 15.2173C14.4348 14.8695 15.8261 14.1739 17.0435 13.3043C19.6522 11.5652 21.3913 8.78257 23.3044 6.69561C23.8261 6.17388 24.3479 5.65214 24.8696 5.1304C25.3913 4.60866 25.9131 4.26083 26.6087 4.08692C27.8528 3.77589 29.097 4.02111 30.3411 4.44952C30.3068 4.5585 30.2798 4.66951 30.2609 4.78257L30.6087 4.60866C30.5451 4.5632 30.4805 4.51869 30.415 4.47518C30.5375 4.51809 30.6601 4.5627 30.7827 4.60866L30.9566 4.78257L30.9566 4.60866C31.8261 2.86953 33.7392 1.82606 35.6522 1.82606C37.4717 1.82606 39.4485 2.45532 40.6849 3.86349C39.9952 4.81317 39.5351 5.89008 39.3044 7.04348C39.1305 7.91304 39.1305 8.78261 39.3044 9.82609C39.4783 10.6957 40.0001 11.5652 40.6957 12.2609C41.0742 12.6935 41.5368 13.042 42.0468 13.3012C41.7532 14.7996 41.8245 16.3998 42.2609 17.9999C42.7826 19.913 44.5218 21.3043 46.087 21.9999C47.8262 22.6956 49.7392 22.8695 51.6522 22.5217C53.3123 22.2198 54.7105 21.2632 55.8467 20.1064ZM3.82779 14.2385C5.87128 16.0971 8.37148 17.4694 11.1306 18C13.3913 18.5217 15.6523 18.1739 17.9132 17.6522C20.1739 17.1305 22.2609 16.2609 24.1739 15.0435C26.087 14 27.8261 12.6087 29.9131 12.6087C32 12.6087 34.2609 13.3044 35.1304 15.0435C36 16.7826 35.6522 19.2174 34.0869 20.4348C34.0565 20.4577 34.025 20.4798 33.9926 20.5013C33.7308 20.5016 33.4704 20.5364 33.2174 20.6087C33.024 20.6915 32.8438 20.7964 32.6795 20.919C32.2047 20.9466 31.7156 20.8554 31.3044 20.6087C30.4348 20.2609 29.9131 19.0435 30.087 18L29.9131 18C29.5653 19.0435 29.9131 20.4348 31.1305 21.1304C31.4327 21.332 31.7934 21.4167 32.1448 21.4524C31.6585 22.1016 31.4907 22.9563 31.8261 23.7391L32.0001 23.7391C31.7112 22.8725 32.262 21.8859 32.9551 21.4768C33.2623 21.4661 33.6199 21.3991 33.9635 21.2756C34.806 21.3277 35.606 21.7798 36.174 22.3478C37.3914 24.0869 36.6957 26.6956 34.9565 27.913C34.087 28.4347 32.8696 28.7826 31.8261 28.6086C30.7827 28.6086 29.5653 28.2608 28.6957 27.5652C26.7827 26.3478 25.9131 23.913 24.174 22.3478C23.3044 21.4782 22.2609 20.7826 21.0435 20.4347C19.8261 20.0869 18.6087 20.0869 17.5653 19.913C15.3044 19.7391 12.8696 19.3913 10.7826 18.6956C8.14198 17.8506 5.69389 16.3 3.82779 14.2385ZM62.7827 16.2609C62.7827 17.1218 62.1834 17.7829 61.438 18.0383C60.9878 18.4938 60.2878 18.7336 59.6522 18.5217L60.0001 18C60.4642 18.1989 60.9788 18.1956 61.438 18.0383C61.727 17.7458 61.9131 17.3645 61.9131 16.9565C61.9131 15.7391 61.2174 14.8696 60.174 14.5218C59.3044 14.1739 58.087 14.3478 57.2174 14.8696C56.3479 15.3913 55.8261 16.4348 55.8261 17.4783C55.7739 18.1053 55.8472 18.748 56.032 19.3546L56.3479 19.5652C56.2908 19.6304 56.2329 19.6953 56.1743 19.7598C56.6671 20.9949 57.6384 22.0183 58.9566 22.3478C61.0435 23.0435 63.3044 22.5217 65.2174 21.3043C67.1305 20.087 68.6957 18.3478 70.4348 16.7826C72.174 15.2174 74.2609 13.6522 76.5218 12.9565C78.7827 12.087 81.2174 11.7391 83.6522 12.4348C85.0444 12.7331 86.2659 13.4294 87.2844 14.3611C85.9647 12.6268 84.0618 11.2925 81.9131 10.6957C78.7827 9.82609 75.4783 10 72.3479 10.8696C70.7827 11.2174 69.2174 11.9131 67.4783 12.087C65.7392 12.4348 63.8261 11.9131 62.4348 11.0435C59.3044 9.13044 57.9131 5.82609 55.4783 3.73913C54.2609 2.52174 52.8696 1.82609 51.3044 1.47826C49.9131 1.30435 48.174 1.30435 46.6087 1.65217C45.0435 1.82609 43.6522 2.52174 42.4348 3.56522C41.3914 4.6087 40.5218 6 40.174 7.56522C40.0001 8.26087 40.0001 9.13044 40.174 9.82609C40.3479 10.5217 40.6957 11.2174 41.2174 11.7391C41.5121 12.0338 41.8623 12.2869 42.2444 12.4905C42.2498 12.4719 42.2553 12.4533 42.2609 12.4347L42.9566 12.6086C42.9504 12.6704 42.9444 12.7322 42.9387 12.794C43.7449 13.0752 44.6214 13.149 45.3914 12.9565C46.087 12.7826 46.7827 12.4348 47.1305 11.7391C47.6522 11.2174 47.6522 10.3478 47.4783 9.65217C47.3044 8.95652 46.6087 8.43478 45.9131 8.26087C45.2174 8.08696 44.3479 8.26087 43.8261 8.95652L43.6522 8.78261C44.174 8.08696 45.0435 7.56522 45.9131 7.73913C46.7827 7.91304 47.6522 8.43478 48.0001 9.30435C48.3479 10.1739 48.174 11.0435 47.8261 11.9131C47.4783 12.7826 46.6087 13.3043 45.7392 13.6522C44.8223 13.9272 43.8087 13.9123 42.8768 13.6327C42.8028 15.0247 42.8852 16.3945 43.3044 17.6521C43.8261 19.2173 45.0435 20.4347 46.6087 21.1304C48 21.826 49.7392 21.9999 51.4783 21.6521C52.9461 21.3259 54.4139 20.541 55.5948 19.4406C55.3192 18.5906 55.1815 17.6431 55.3044 16.7826C55.4783 15.3913 56.174 14.1739 57.2174 13.4783C58.2609 12.7826 59.6522 12.7826 60.8696 13.3043C61.9131 13.6522 62.9566 14.8696 62.7827 16.2609Z" fill-rule="evenodd"  fill="#D5B270" ></path></svg>