<svg xmlns="http://www.w3.org/2000/svg" xmlns:xlink="http://www.w3.org/1999/xlink" width="92.5218505859375" height="33.66107177734375" viewBox="0 0 92.5218505859375 33.66107177734375" fill="none"><path d="M45.3913 2.22341C45.4308 2.18391 45.4706 2.14491 45.5105 2.10642C45.1765 1.74408 44.731 1.49327 44.1739 1.35399C43.4782 1.18008 42.7826 1.18008 42.0869 1.18008C40.6993 1.35353 39.4846 2.04598 38.6155 3.25744C38.672 3.31804 38.7277 3.37923 38.7826 3.44096L38.5217 3.44096L38.4347 3.61485L38.2608 3.44095L38.0869 3.26704C36.6956 1.87573 34.7826 1.00617 32.8695 0.832256C30.9565 0.832256 28.8695 1.52791 27.4782 2.74529C25.913 3.96268 25.0434 5.87574 24.8695 7.78878C24.6956 9.7018 25.2174 11.6149 26.6087 13.1801L26.7826 13.5279L26.5739 13.6322L26.4348 14.0496C26.3628 13.9856 26.2923 13.9198 26.2233 13.8522C25.7749 14.1909 25.3442 14.642 25.0434 15.0931C24.6956 15.6148 24.6956 16.3105 24.6956 16.8322C24.8695 18.0496 26.0869 19.0931 27.3043 19.6148L27.6521 19.7887L27.3043 19.9626L27.3043 20.4844C27.1352 20.4421 26.966 20.3895 26.7993 20.3266C25.8364 20.9228 24.682 21.1264 23.6521 20.8322C22.9565 20.6583 22.4348 20.3105 21.913 19.9626L20.3478 18.9191L20.3475 18.919C18.2607 17.7017 16.1738 16.4844 13.7391 16.6583C12.5217 16.8322 11.4783 17.354 10.4348 18.0496L7.30434 20.1365C6.51317 20.664 5.72199 21.0915 4.77919 21.3431C5.67599 21.0482 6.49017 20.5054 7.30434 19.9626L10.2609 17.8757C11.3043 17.1801 12.3478 16.4844 13.7391 16.3105C14.9565 16.1366 16.3478 16.3105 17.5652 16.8322C18.7826 17.354 19.8261 18.0496 20.8695 18.7452C21.913 19.4409 22.7826 20.3105 24 20.4844C24.8266 20.7599 25.7624 20.5989 26.6344 20.2607C26.1763 20.0669 25.744 19.7937 25.3913 19.4409C24.8695 18.9191 24.3478 18.2235 24.1739 17.354C24 16.4844 24.1739 15.6148 24.6956 14.9192C25.0998 14.3803 25.5039 13.9458 26.0698 13.6965C24.7361 12.2936 24.014 10.2151 24.1739 8.13659C24.1758 8.11176 24.1778 8.08696 24.1799 8.06222C23.6024 8.2553 23.0447 8.56991 22.6086 9.00602C22.0869 9.35386 21.5651 9.87558 21.3912 10.5712C20.6956 11.7886 20.6956 13.3539 21.0434 14.7451L21.2173 15.2669L20.6956 14.919C20.668 14.9037 20.6403 14.8886 20.6126 14.8736L20.5217 14.919C20.4936 14.8742 20.4665 14.8289 20.4402 14.7833C18.9252 14.0136 17.1238 13.711 15.4782 13.8756C13.7391 14.0495 11.9999 15.093 10.6086 16.3104C9.21731 17.5277 7.82601 18.9191 6.26081 19.9625C5.56514 20.4843 4.52168 21.006 3.65212 21.1799C2.71734 21.3357 1.92215 21.2124 1.01647 21.06C1.71411 21.3534 2.47168 21.5542 3.24394 21.5718C2.45774 21.5811 1.63555 21.3976 0.904416 21.0636C1.701 21.7836 2.6766 22.258 3.65219 22.3974C5.04349 22.5713 6.26088 22.0496 7.47825 21.5278C8.69564 21.0061 9.91303 20.4844 11.4783 20.1365C12.8696 19.9626 14.4348 20.4844 15.6522 21.3539C17.913 22.9191 19.4782 25.3539 21.5652 26.9191C22.6087 27.7887 23.8261 28.3104 25.0434 27.9626C26.2608 27.7887 27.4782 27.267 28.3478 26.2235L28.6956 25.8757L28.8695 26.3974C29.2174 27.7887 29.913 29.0061 30.9565 30.0496C31.826 31.093 33.2174 31.6148 34.4347 31.7887C35.826 32.1365 37.2174 31.9626 38.4347 31.6148C39.826 31.267 41.0434 30.5713 42.0869 29.5278L42.6086 29.8757C41.5652 31.093 40.3478 31.9626 38.7826 32.4844C37.3913 33.0061 35.6521 33.18 34.2608 32.8322C32.6956 32.6583 31.3043 31.7887 30.2608 30.5713C29.3697 29.5317 28.7323 28.3652 28.4568 27.0718C27.5936 27.9845 26.4055 28.5352 25.2174 28.8322C23.6521 29.18 22.0869 28.4844 21.0435 27.6148C18.7826 25.8757 17.2174 23.6148 15.1304 22.0496C14.087 21.3539 12.8696 20.8322 11.6522 21.0061C10.4348 21.18 9.04347 21.7018 7.82608 22.2235C6.60869 22.7452 5.21739 23.267 3.82608 23.0931C2.4348 22.9191 1.21738 22.0496 0.34782 21.0061L0 20.6583L0.36677 20.7805C0.301295 20.7411 0.236974 20.7003 0.173923 20.6583L0.34782 20.4844C0.458364 20.617 0.574528 20.744 0.6956 20.8651L0.6956 20.8321C1.56516 21.006 2.60862 21.006 3.47819 20.8321C4.34775 20.6582 5.21731 20.1364 5.91298 19.6147C7.30427 18.3973 8.69557 17.006 10.0869 15.7886C11.4782 14.5712 13.2173 13.3539 15.3043 13.1799C16.9244 13.0326 18.794 13.3843 20.1736 14.2349C19.6695 12.982 19.7621 11.5411 20.3477 10.2234C20.6956 9.52775 21.2173 8.83211 21.913 8.31036C22.6086 7.78863 23.4782 7.61472 24.1738 7.4408L24.2409 7.54135C24.539 5.53936 25.5461 3.83886 27.1304 2.57139C28.8695 1.18008 30.9565 0.484422 33.2174 0.658346C35.3048 0.658346 37.0957 1.69609 38.4532 3.08721C38.791 2.51392 39.2486 1.961 39.826 1.52791C40.5217 1.00617 41.3913 0.832256 42.0869 0.658346C42.9565 0.484422 43.826 0.658346 44.5217 0.832256C45.092 1.06038 45.5875 1.28851 46.0082 1.66383C46.2152 1.4943 46.4271 1.33818 46.6428 1.19661C46.4385 1.35166 46.2411 1.5206 46.0499 1.70172C46.2542 1.89108 46.4405 2.11717 46.6086 2.39748L45.7391 2.39748C45.6893 2.32282 45.636 2.25173 45.5791 2.1842C45.5159 2.25396 45.4533 2.32503 45.3913 2.39732C44.6254 3.29093 44.0468 4.27825 43.7933 5.35928C43.7683 5.35383 43.7432 5.34851 43.7182 5.34331C43.9643 4.24694 44.6071 3.16445 45.3913 2.22341ZM43.6522 6.10496L43.6522 5.70167C43.6693 5.58216 43.6914 5.46266 43.7182 5.34331C43.1926 5.23439 42.6488 5.17993 42.087 5.17993C40.5218 5.35384 38.7826 5.70167 37.3913 6.57123C35.8261 7.4408 34.7826 8.8321 34.087 10.3973C32.6957 13.5278 32.5217 17.1799 34.087 20.1365C35.5944 22.984 38.8764 25.0248 42.0685 24.7054C41.9277 26.5571 42.127 28.5511 43.1304 30.2235C44.1739 31.9626 45.9131 33.3539 48 33.5278C49.913 33.8757 52.0001 33.5278 53.7392 32.6583C55.3669 31.6817 56.6899 30.4004 57.4231 28.6719C58.1097 29.244 59.0549 29.5442 60.0001 29.7017C61.0436 29.8757 62.087 29.5278 62.9566 29.0061C63.8262 28.4843 64.5218 27.4409 64.8696 26.5713C65.2175 25.7017 65.5653 24.8322 65.7392 23.7887C65.8945 23.012 65.9805 22.166 66.1055 21.328L66.2608 21.3539C66.4347 20.3104 67.3043 19.093 68.1738 18.5713C69.0434 17.8756 70.4347 17.7017 71.4782 18.0496C73.739 18.7452 75.6521 20.4843 77.739 22.0496C78.7825 22.9191 79.826 23.6148 80.8694 24.3104C81.9129 25.0061 83.3042 25.5278 84.5216 25.5278C87.1303 25.7017 89.739 24.8321 91.8259 23.2669L91.7388 23.1362C91.768 23.1219 91.7971 23.1076 91.8262 23.093L92.5218 22.7452L91.8262 22.7452C91.7137 22.7518 91.6012 22.7572 91.4888 22.7613L91.4781 22.7452C91.4711 22.7509 91.4641 22.7567 91.457 22.7624C91.0171 22.7775 90.5777 22.7731 90.1414 22.7487C90.4302 22.6641 90.7157 22.563 90.9972 22.4446C91.158 22.432 91.3184 22.4162 91.4783 22.3974L91.4783 22.2235C91.3194 22.303 91.1589 22.3766 90.9972 22.4446C89.1551 22.5899 87.2644 22.3309 85.5319 21.6263C84.8669 21.3133 84.2364 20.9337 83.6523 20.4843C82.4349 19.6148 81.5653 18.5713 80.6957 17.3538C79.6523 16.3104 78.7827 15.093 77.7392 14.0495C76.8696 13.006 75.6523 11.9625 74.2609 11.2669C73.1718 10.7223 72.0826 10.3909 70.91 10.1892C70.7532 10.16 70.5956 10.1354 70.4374 10.1154C70.2647 10.091 70.09 10.0692 69.9131 10.0495C69.6985 10.0376 69.4846 10.033 69.2719 10.0356C67.2504 9.81892 65.2354 10.5124 63.5605 11.7158C64.1553 9.96616 64.1227 7.97692 63.3044 6.22341C62.6088 4.8321 61.3914 3.96254 60.0001 3.61471C59.1798 3.38035 58.2016 3.38286 57.2783 3.62224C56.9526 3.65351 56.6287 3.71322 56.3117 3.80183C55.7767 2.62289 54.9582 1.59399 53.7392 0.832106C52.3479 0.136451 50.7827 -0.211369 49.2174 0.136451C48.237 0.245386 47.393 0.627268 46.6428 1.19661C47.3573 0.727686 48.1134 0.418382 48.8696 0.310361C50.087 0.136451 51.4783 0.136451 52.6957 0.832106C53.7392 1.52776 54.7827 2.57123 55.3044 3.78863L55.4783 4.13645L55.8262 3.96254C55.9856 3.9012 56.1477 3.84765 56.3117 3.80183C56.333 3.84889 56.3539 3.89619 56.3744 3.94372C56.2466 4.00276 56.1216 4.06701 56.0001 4.13645L56.5218 4.31037C56.4755 4.18673 56.4263 4.06448 56.3744 3.94372C56.6641 3.80982 56.9681 3.70267 57.2783 3.62224C59.1717 3.44047 61.1216 4.2205 62.087 5.87558C62.7827 6.91906 62.9566 8.13645 62.7827 9.35384C62.7827 10.5712 62.2609 11.7886 61.5653 12.8321L61.9131 13.1799C62.4089 12.6391 62.963 12.145 63.5605 11.7158C63.5044 11.8808 63.4427 12.0436 63.3756 12.2039C62.8406 12.6447 62.3497 13.146 61.9131 13.7017L62.2609 14.0495C62.7208 13.4976 63.0956 12.8728 63.3756 12.2039C65.0239 10.8458 67.0902 10.0626 69.2719 10.0356C69.3118 10.0399 69.3516 10.0445 69.3914 10.0495C69.741 10.0495 70.0906 10.0715 70.4374 10.1154C70.5965 10.1378 70.754 10.1623 70.91 10.1892C71.7775 10.3506 72.6194 10.6518 73.3914 11.093C74.7827 11.7886 75.8262 12.6582 76.8696 13.7017C77.9131 14.7451 78.9566 15.9626 79.8262 17.006C80.8696 18.0496 81.7392 19.267 82.9566 20.1365C83.751 20.7607 84.6195 21.2553 85.5319 21.6263C86.9505 22.2941 88.5258 22.6585 90.1414 22.7487C88.7808 23.1474 87.3469 23.1798 85.9131 22.9191C84.174 22.5713 82.4349 21.5278 80.8696 20.4843C79.4783 19.4409 77.9131 18.0496 76.5218 16.8321C75.1305 15.6147 73.2175 14.3973 71.1305 14.3973C69.2175 14.3973 67.1305 15.6147 66.087 17.3538C65.5653 18.2235 65.3914 19.267 65.2175 20.1365C65.0436 21.0061 64.8696 22.0496 64.6957 22.9191C64.174 24.8322 63.6523 26.7452 62.2609 27.6148C60.8696 28.4843 58.7827 28.4843 57.2175 27.6148L57.0436 27.4409L56.8696 27.6148C56.0001 29.18 54.6088 30.5713 53.0436 31.267C51.4783 31.9626 49.5652 32.1365 47.8261 31.9626C46.087 31.7887 44.6956 30.7452 43.6522 29.18C42.7826 27.6148 42.4348 25.7017 42.6087 23.9626L42.6087 23.6148L42.2609 23.6148C39.3044 23.9626 36.1739 21.8757 34.9565 19.267C34.2609 18.0496 34.087 16.4843 34.087 14.9191C34.087 13.5278 34.2609 11.9625 34.9565 10.5712C35.4783 9.35384 36.5218 8.13645 37.7391 7.26689C39.1304 6.39732 40.5218 6.0495 42.087 6.0495C42.6296 5.9892 43.1513 6.01252 43.6522 6.10496ZM43.6725 6.10876C43.6658 6.10748 43.659 6.10621 43.6522 6.10496L43.6522 6.57123C43.6522 6.41535 43.6591 6.26119 43.6725 6.10876ZM43.6725 6.10876C44.6085 6.2852 45.4713 6.70288 46.2609 7.26689C47.4783 8.13645 48.3478 9.52776 48.5218 10.9191L48.5218 11.4408L48.8696 11.2669C48.9527 11.2431 49.0364 11.2216 49.1206 11.2023L49.2174 11.2669L49.2174 11.1811C51.5791 10.6884 54.3102 11.8953 55.3044 14.0495C55.6523 15.2669 55.8262 16.6582 55.3044 17.7017C54.7827 18.9191 53.9131 19.7887 52.6957 20.1365C51.4783 20.4843 50.087 20.4843 49.0435 19.9626C47.8261 19.4409 47.1304 18.2235 47.1304 17.006C47.1304 16.4843 47.3043 15.7886 47.8261 15.4408C48.3478 15.093 49.0435 14.9191 49.5652 15.093C50.087 15.2669 50.6088 15.7886 50.7827 16.3104C50.9566 17.006 50.6088 17.5278 49.913 17.7017L49.913 17.8757C50.6088 17.8757 51.3044 17.006 51.1305 16.3104C50.9566 15.4408 50.2609 14.9191 49.5652 14.7451C48.8696 14.5712 48.1739 14.5712 47.4783 15.093C46.7826 15.4408 46.4348 16.3104 46.4348 17.006C46.2609 18.3974 47.1304 19.9626 48.5218 20.6583C49.913 21.5278 51.4783 21.5278 52.8696 21.18C54.4349 20.8322 55.6523 19.6148 56.174 18.2235C56.6957 16.8321 56.8696 15.2669 56.174 13.8756C54.8619 11.2514 51.8485 10.0193 49.1757 10.7627C48.9305 9.15644 48.0852 7.72212 46.7826 6.74515C45.8623 6.05489 44.8658 5.59293 43.7933 5.35928C43.7358 5.60429 43.695 5.85412 43.6725 6.10876ZM89.7581 23.8402C88.5516 24.1254 87.2852 24.1805 86.087 23.9626C84.174 23.6148 82.2609 22.7452 80.6957 21.7017C79.1305 20.6583 77.5653 19.267 76.174 18.0496C74.7827 16.8321 73.0436 15.7886 71.3044 15.7886C69.5917 15.7886 67.879 16.8007 66.9968 18.3265C67.2019 18.1589 67.4207 18.0079 67.6521 17.8756C68.8695 17.18 70.4347 17.0061 71.6521 17.3539C74.2608 18.2235 76.1738 20.1365 78.0869 21.5278C80.1738 23.093 82.0868 24.8321 84.5216 24.8321C86.2861 24.9582 88.1419 24.6275 89.7581 23.8402ZM3.24394 21.5718C3.44091 21.5695 3.63563 21.555 3.82608 21.5278C4.16248 21.4858 4.47855 21.4234 4.77919 21.3431C4.52663 21.4262 4.26751 21.4896 4 21.5278C3.74746 21.5639 3.49493 21.5775 3.24394 21.5718Z" fill-rule="evenodd"  fill="#D5B270" ></path></svg>