<svg xmlns="http://www.w3.org/2000/svg" xmlns:xlink="http://www.w3.org/1999/xlink" width="80.00005340576172" height="80.0003662109375" viewBox="0 0 80.00005340576172 80.0003662109375" fill="none"><path d="M39.9998 27.9987C39.8259 26.0856 39.8259 24.1726 39.8259 22.2595C39.8259 20.3465 39.8259 18.4334 39.8259 16.5204C39.8259 14.6073 39.8259 12.6943 39.9998 10.7812C39.9998 8.8682 40.1738 6.95516 40.3477 5.04211C40.5216 6.95516 40.5216 8.8682 40.6955 10.7812C40.6955 12.6943 40.8694 14.6073 40.8694 16.5204C40.8694 18.4334 40.8694 20.3465 40.8694 22.2595C40.8694 24.1726 40.6955 26.0856 40.6955 27.9987C40.1738 27.9987 40.1738 28.1726 39.9998 27.9987C39.9998 28.1726 39.9998 27.9987 39.9998 27.9987Z"   fill="#E4B967" ></path><path d="M36.8694 28.5206C36.1737 26.2597 35.4781 23.9988 34.7824 21.7379C34.0868 19.4771 33.565 17.2162 32.8694 14.9553C32.1737 12.6945 31.652 10.4336 31.1303 8.17272C30.6085 5.91184 30.0868 3.65097 29.565 1.21619C30.2607 3.47706 30.9563 5.73793 31.652 7.9988C32.3476 10.2597 33.0433 12.5205 33.565 14.7814C34.0868 17.0423 34.7824 19.3032 35.3042 21.564C35.8259 23.8249 36.3477 26.0858 36.8694 28.5206C37.2172 28.5206 37.0433 28.5206 36.8694 28.5206L36.8694 28.5206Z"   fill="#E4B967" ></path><path d="M33.0433 30.2602C31.652 28.3472 30.2607 26.4341 28.8694 24.695C27.4781 22.7819 26.0868 20.8689 24.6955 18.9559C23.3042 17.0428 22.0868 15.1298 20.6955 13.0428C19.4781 11.1298 18.0868 9.0428 16.8694 7.12976C18.4346 9.0428 19.8259 10.7819 21.2172 12.695C22.6085 14.608 23.9998 16.5211 25.3911 18.4341C26.7825 20.3472 28.1738 22.2602 29.3911 24.1732C30.7825 26.0863 31.9998 28.1732 33.2172 30.0863L33.2172 30.2602C33.2172 30.2602 33.2172 30.2602 33.0433 30.2602Z"   fill="#E4B967" ></path><path d="M30.2608 33.216C28.3478 31.9986 26.2608 30.6073 24.3478 29.3899C22.4347 28.1725 20.5217 26.7812 18.6086 25.3899C16.6956 23.9986 14.7826 22.6073 12.8695 21.216C10.9565 19.8247 9.04342 18.4334 7.30429 16.8682C9.39125 18.0856 11.3043 19.3029 13.2173 20.6943C15.1304 22.0856 17.0434 23.3029 19.1304 24.6943C21.0434 26.0856 22.9565 27.303 24.8695 28.8682C26.7826 30.2595 28.6956 31.6508 30.4347 33.0421L30.4347 33.216C30.2608 33.216 30.2608 33.216 30.2608 33.216Z"   fill="#E4B967" ></path><path d="M28.5216 37.0423C26.2607 36.5206 23.9999 35.9989 21.5651 35.4771C19.3042 34.9554 17.0433 34.2597 14.7825 33.738C12.5216 33.2163 10.2607 32.5206 7.99984 31.825C5.73897 30.9554 3.4781 30.4337 1.21722 29.5641C3.4781 30.0858 5.91288 30.6076 8.17375 31.1293C10.4346 31.651 12.6955 32.1728 14.9564 32.8684C17.2172 33.5641 19.4781 34.0858 21.739 34.7815C23.9999 35.4771 26.2607 36.1728 28.5216 36.8684C28.6955 36.6945 28.6955 36.8684 28.5216 37.0423L28.5216 37.0423Z"   fill="#E4B967" ></path><path d="M28.174 41.2167C25.9131 41.5646 23.4783 41.9124 21.2174 42.0863C18.9566 42.4341 16.5218 42.608 14.2609 42.782C12 42.9559 9.56523 43.1298 7.30436 43.3037C4.69566 43.3037 2.43479 43.4776 0 43.4776C2.26087 43.1298 4.69566 42.782 6.95653 42.608C9.21741 42.4341 11.6522 42.0863 13.9131 41.9124C16.1739 41.7385 18.6087 41.5646 20.8696 41.3907C23.1305 41.2167 25.5653 41.0428 28 41.0428C28.174 40.8689 28.3479 40.8689 28.174 41.2167C28.3479 41.0428 28.174 41.2167 28.174 41.2167Z"   fill="#E4B967" ></path><path d="M29.2171 45.2164C27.1302 46.2599 25.0432 47.3034 22.9563 48.3469C20.8693 49.3904 18.7824 50.4338 16.5215 51.3034C14.4345 52.3469 12.1736 53.2164 10.0867 54.2599C7.99973 55.1295 5.73885 56.173 3.47798 56.8686C5.56494 55.6512 7.6519 54.6078 9.73886 53.5643C11.8258 52.5208 13.9128 51.4773 16.1737 50.4338C18.2606 49.3904 20.5215 48.5208 22.6084 47.4773C24.6954 46.4338 26.9563 45.5643 29.0432 44.6947L29.2171 44.6947C29.3911 45.0425 29.3911 45.2164 29.2171 45.2164Z"   fill="#E4B967" ></path><path d="M31.6519 48.521C30.0867 50.2601 28.5214 51.9992 26.7823 53.7383C25.2171 55.4775 23.478 57.0427 21.9127 58.7818C20.1736 60.521 18.6084 62.0862 16.8693 63.6514C15.1301 65.2166 13.391 66.7818 11.6519 68.347C13.2171 66.6079 14.7823 64.8688 16.3475 63.1297C17.9127 61.3905 19.6519 59.6514 21.2171 58.0862C22.9562 56.521 24.5214 54.7818 26.2606 53.2166C27.9997 51.6514 29.7388 49.9123 31.478 48.347L31.6519 48.347C31.8258 48.521 31.8258 48.521 31.6519 48.521Z"   fill="#E4B967" ></path><path d="M35.1306 50.9553C34.261 53.2162 33.3915 55.3031 32.348 57.3901C31.4784 59.4771 30.435 61.7379 29.3915 63.8249C28.348 65.9119 27.3045 67.9988 26.261 70.2596C25.2176 72.3466 24.1741 74.4335 22.9567 76.5205C23.8262 74.2596 24.6958 72.1726 25.5654 69.9118C26.6089 67.8249 27.4784 65.564 28.5219 63.4771C29.5654 61.3901 30.435 59.1292 31.4784 57.0423C32.5219 54.9553 33.5654 52.8684 34.6089 50.7814C34.6089 50.7814 34.7828 50.6075 34.7828 50.7814C35.1306 50.7814 35.1306 50.7814 35.1306 50.9553Z"   fill="#E4B967" ></path><path d="M39.1304 51.9986C38.9565 54.4334 38.9565 56.6943 38.7826 59.129C38.6087 61.5638 38.4348 63.8247 38.2609 66.0856C38.087 68.3464 37.7391 70.7812 37.5652 73.0421C37.2174 75.303 37.0435 77.7377 36.6956 79.9986C36.6956 77.5638 36.8696 75.303 37.0435 72.8682C37.2174 70.4334 37.3913 68.1725 37.5652 65.9117C37.7391 63.6508 37.913 61.216 38.2609 58.9551C38.4348 56.6943 38.7826 54.2595 39.1304 51.9986C38.9565 51.8247 38.9565 51.8247 39.1304 51.9986C39.1304 51.8247 39.1304 51.8247 39.1304 51.9986Z"   fill="#E4B967" ></path><path d="M43.3043 51.4766C43.9999 53.7374 44.6956 55.9983 45.3912 58.2592C46.0869 60.5201 46.6086 62.7809 47.3043 65.0418C47.9999 67.3027 48.5217 69.5635 49.0434 71.8244C49.5651 74.0853 50.0869 76.3462 50.6086 78.7809C49.913 76.5201 49.2173 74.2592 48.5217 71.9983C47.826 69.7375 47.1304 67.4766 46.6086 65.2157C46.0869 62.9548 45.3912 60.694 44.8695 58.4331C44.3477 56.1722 43.826 53.9113 43.3043 51.4766C42.9564 51.4766 43.1303 51.4766 43.3043 51.4766L43.3043 51.4766Z"   fill="#E4B967" ></path><path d="M47.1304 49.7374C48.5217 51.6505 49.913 53.5635 51.3043 55.3026C52.6956 57.2157 54.0869 59.1287 55.4782 61.0418C56.8695 62.9548 58.0869 64.8679 59.4782 66.9548C60.6956 68.8679 62.0869 70.9548 63.3043 72.8679C61.7391 70.9548 60.3478 69.2157 58.9565 67.3027C57.5652 65.3896 56.1739 63.4766 54.7826 61.5635C53.3912 59.6505 51.9999 57.7374 50.7826 55.8244C49.3912 53.9113 48.1739 51.8244 46.9565 49.9113L46.9565 49.7374C46.9565 49.7374 46.9565 49.7374 47.1304 49.7374Z"   fill="#E4B967" ></path><path d="M49.913 46.7816C51.8261 47.999 53.913 49.3903 55.8261 50.6077C57.7391 51.8251 59.6522 53.2164 61.5652 54.6077C63.4783 55.999 65.3913 57.3903 67.3043 58.7816C69.2174 60.1729 71.1304 61.5642 72.8696 63.1295C70.7826 61.9121 68.8696 60.6947 66.9565 59.3034C65.0435 57.9121 63.1304 56.6947 61.0435 55.3034C59.1304 53.9121 57.2174 52.6947 55.3043 51.1294C53.3913 49.7381 51.4782 48.3468 49.7391 46.9555L49.7391 46.7816C49.913 46.7816 49.913 46.7816 49.913 46.7816Z"   fill="#E4B967" ></path><path d="M51.6521 42.9554C53.913 43.4772 56.1738 43.9989 58.6086 44.5207C60.8695 45.0424 63.1304 45.7381 65.3912 46.2598C67.6521 46.7815 69.9129 47.4772 72.1738 48.1728C74.4347 48.8685 76.6955 49.5641 78.9564 50.2598C76.6955 49.7381 74.2607 49.2163 71.9999 48.6946C69.739 48.1728 67.4782 47.6511 65.2173 46.9554C62.9565 46.2598 60.6956 45.7381 58.4347 45.0424C56.1738 44.3467 53.913 43.6511 51.6521 42.9554C51.6521 43.1294 51.4782 43.1294 51.6521 42.9554L51.6521 42.9554Z"   fill="#E4B967" ></path><path d="M52 38.7828C54.2609 38.435 56.6956 38.0872 58.9565 37.9132C61.2174 37.5654 63.6522 37.3915 65.9131 37.2176C68.1739 37.0437 70.6086 36.8698 72.8695 36.6958C75.3043 36.5219 77.5652 36.5219 79.9999 36.348C77.7391 36.6958 75.3043 37.0437 73.0434 37.2176C70.7825 37.3915 68.3478 37.7393 66.087 37.9132C63.8261 38.0872 61.3913 38.2611 59.1304 38.435C56.6956 38.6089 54.4348 38.7828 52 38.7828C52 39.1306 51.8261 38.9567 52 38.7828C51.8261 38.9567 52 38.7828 52 38.7828Z"   fill="#E4B967" ></path><path d="M50.9565 34.7815C53.0434 33.738 55.1304 32.6945 57.2173 31.651C59.3043 30.6075 61.3913 29.5641 63.6521 28.6945C65.7391 27.651 68 26.7814 70.0869 25.738C72.1739 24.8684 74.4347 23.8249 76.6956 23.1293C74.6087 24.3467 72.5217 25.3901 70.4347 26.4336C68.3478 27.4771 66.2608 28.5206 64 29.5641C61.913 30.6075 59.6521 31.4771 57.5652 32.5206C55.4782 33.5641 53.2173 34.4336 51.1304 35.3032L50.9565 35.3032C50.7826 34.9554 50.7826 34.7815 50.9565 34.7815Z"   fill="#E4B967" ></path><path d="M48.5217 31.4773C50.0869 29.7382 51.6521 27.9991 53.3913 26.2599C54.9565 24.5208 56.6956 22.9556 58.2608 21.2165C60 19.4773 61.5652 17.9121 63.3043 16.3469C65.0434 14.7817 66.7826 13.2165 68.5217 11.6512C66.9565 13.3904 65.3913 15.1295 63.8261 16.8686C62.2608 18.6078 60.5217 20.3469 58.9565 21.9121C57.2174 23.4773 55.6521 25.2165 53.913 26.7817C52.1739 28.3469 50.4347 30.086 48.6956 31.6512L48.5217 31.6512C48.3478 31.4773 48.3478 31.4773 48.5217 31.4773Z"   fill="#E4B967" ></path><path d="M45.0433 29.0427C45.9129 26.7818 46.7825 24.6948 47.8259 22.6079C48.6955 20.5209 49.739 18.26 50.7825 16.1731C51.826 14.0861 52.8694 11.9992 53.9129 9.73829C54.9564 7.65133 55.9999 5.56438 57.2173 3.47742C56.3477 5.73829 55.4781 7.82525 54.6086 10.0861C53.739 12.1731 52.6955 14.4339 51.652 16.5209C50.6086 18.6079 49.739 20.8687 48.6955 22.9557C47.652 25.0427 46.6086 27.1296 45.5651 29.2166C45.5651 29.2166 45.3912 29.3905 45.3912 29.2166C45.0433 29.2166 45.0433 29.0427 45.0433 29.0427Z"   fill="#E4B967" ></path><path d="M41.0435 28C41.2174 25.5652 41.2174 23.3044 41.3913 20.8696C41.5652 18.4348 41.7391 16.1739 41.913 13.913C42.0869 11.6522 42.4348 9.21739 42.6087 6.95652C42.9565 4.69565 43.1304 2.26087 43.4782 0C43.4782 2.43478 43.3043 4.69565 43.1304 7.13044C42.9565 9.56522 42.7826 11.8261 42.6087 14.087C42.4348 16.3478 42.2608 18.7826 41.913 21.0435C41.7391 23.3044 41.3913 25.7391 41.0435 28C41.2174 28.1739 41.2174 28.1739 41.0435 28C41.0435 28.1739 41.0435 28.1739 41.0435 28Z"   fill="#E4B967" ></path><path d="M37.9131 28.172C37.5653 26.7807 37.2175 25.2155 36.8696 23.8242C36.5218 22.4329 36.3479 20.8677 36.0001 19.4764C35.8261 18.0851 35.4783 16.5199 35.3044 15.1286C35.1305 13.7372 34.9566 12.172 34.7827 10.6068C35.1305 11.9981 35.4783 13.5633 35.8261 14.9546C36.174 16.3459 36.5218 17.9112 36.6957 19.3025C36.8696 20.6938 37.2175 22.259 37.3914 23.6503C37.5653 25.0416 37.7392 26.6068 37.9131 27.9981C38.087 28.172 38.087 28.346 37.9131 28.172C37.9131 28.346 37.9131 28.346 37.9131 28.172Z"   fill="#E4B967" ></path><path d="M33.913 29.7372C33.0435 28.5198 32.3478 27.3024 31.4783 25.9111C30.6087 24.6937 29.913 23.3024 29.2174 22.085C28.5217 20.8676 27.8261 19.4763 27.1304 18.2589C26.4348 16.8676 25.7391 15.6502 25.2174 14.2589C26.0869 15.4763 26.9565 16.6937 27.6522 17.9111C28.3478 19.1285 29.2174 20.5198 29.913 21.7372C30.6087 22.9546 31.4783 24.3459 32.1739 25.5633C32.8696 26.9546 33.5652 28.172 34.2609 29.5633L34.2609 29.7372C34.087 29.7372 34.087 29.7372 33.913 29.7372Z"   fill="#E4B967" ></path><path d="M30.7826 32.3478C29.5652 31.4782 28.3479 30.6086 27.3044 29.7391C26.087 28.8695 25.0435 27.826 23.8261 26.9565C22.6087 26.0869 21.5652 25.0434 20.5218 23.9999C19.4783 22.9565 18.4348 21.913 17.3913 20.8695C18.6087 21.7391 19.8261 22.6086 21.0435 23.4782C22.2609 24.3478 23.3044 25.3912 24.5218 26.2608C25.5652 27.3043 26.7826 28.1739 27.8261 29.2173C28.8696 30.2608 30.087 31.1304 31.1305 32.1739L31.1305 32.3478C30.9566 32.3478 30.7826 32.3478 30.7826 32.3478Z"   fill="#E4B967" ></path><path d="M28.6956 35.9999C27.3043 35.6521 25.913 35.1304 24.3478 34.7825C22.9565 34.2608 21.5652 33.7391 20.1739 33.3912C18.7826 32.8695 17.3913 32.3477 15.9999 31.826C14.6086 31.3043 13.2173 30.6086 11.9999 29.913C13.3912 30.2608 14.9565 30.6086 16.3478 31.1304C17.7391 31.6521 19.1304 31.9999 20.5217 32.5217C21.913 33.0434 23.3043 33.5651 24.6956 34.0869C26.0869 34.6086 27.4782 35.1304 28.8695 35.826C28.8695 35.826 29.0434 35.826 28.6956 35.9999C28.8695 35.9999 28.8695 35.9999 28.6956 35.9999Z"   fill="#E4B967" ></path><path d="M28.1739 40.1728C26.6087 40.3467 25.2174 40.3467 23.6521 40.3467C22.0869 40.3467 20.6956 40.3467 19.1304 40.3467C17.5652 40.3467 16.1739 40.3467 14.6087 40.1728C13.0434 40.1728 11.6521 39.9989 10.0869 39.825C11.6521 39.6511 13.0434 39.6511 14.6087 39.4771C16.1739 39.4771 17.5652 39.3032 19.1304 39.3032C20.6956 39.3032 22.0869 39.3032 23.6521 39.3032C25.2174 39.3032 26.6087 39.4771 28.1739 39.4771C28.1739 39.825 28.1739 39.9989 28.1739 40.1728C28.1739 39.9989 28.1739 40.1728 28.1739 40.1728Z"   fill="#E4B967" ></path><path d="M28.8695 44.1729C27.4782 44.8686 26.0869 45.3903 24.6956 45.9121C23.3043 46.4338 21.913 46.9555 20.5217 47.4773C19.1304 47.999 17.7391 48.5208 16.3478 48.8686C14.9565 49.2164 13.5652 49.7382 11.9999 50.086C13.3912 49.3903 14.7825 48.8686 15.9999 48.1729C17.3912 47.6512 18.7826 47.1295 20.1739 46.6077C21.5652 46.086 22.9565 45.5642 24.3478 45.2164C25.7391 44.6947 27.1304 44.3469 28.6956 43.999C28.8695 43.999 28.8695 43.999 28.8695 44.1729C29.0434 44.1729 28.8695 44.1729 28.8695 44.1729Z"   fill="#E4B967" ></path><path d="M30.9563 47.8252C29.9128 48.8686 28.8693 49.9121 27.6519 50.7817C26.6084 51.8252 25.3911 52.6947 24.3476 53.7382C23.1302 54.6078 22.0867 55.6512 20.8693 56.5208C19.6519 57.3904 18.4345 58.2599 17.2171 59.1295C18.2606 58.086 19.3041 57.0425 20.3476 55.9991C21.391 54.9556 22.6084 54.086 23.6519 53.0425C24.8693 52.173 25.9128 51.1295 27.1302 50.2599C28.3476 49.3904 29.3911 48.3469 30.6084 47.6512L30.7824 47.6512C31.1302 47.6512 30.9563 47.8252 30.9563 47.8252Z"   fill="#E4B967" ></path><path d="M34.2609 50.4336C33.5652 51.8249 32.8696 53.0423 32.1739 54.4336C31.4783 55.8249 30.7826 57.0423 29.913 58.2596C29.2174 59.477 28.3478 60.8683 27.6522 62.0857C26.7826 63.3031 26.0869 64.5205 25.2174 65.7379C25.7391 64.3466 26.4348 62.9553 27.1304 61.7379C27.8261 60.3466 28.5217 59.1292 29.2174 57.9118C29.913 56.6944 30.6087 55.3031 31.4783 54.0857C32.1739 52.8683 33.0435 51.6509 33.913 50.2596L34.087 50.2596C34.2609 50.2596 34.2609 50.4336 34.2609 50.4336Z"   fill="#E4B967" ></path><path d="M38.0869 51.8254C37.913 53.3906 37.7391 54.7819 37.5652 56.1732C37.3913 57.5645 37.0434 59.1298 36.8695 60.5211C36.6956 61.9124 36.3478 63.4776 36 64.8689C35.6521 66.2602 35.3043 67.8254 34.9565 69.2167C34.9565 67.6515 35.3043 66.2602 35.4782 64.695C35.6521 63.3037 35.826 61.7385 36.1739 60.3472C36.5217 58.9558 36.6956 57.3906 37.0434 55.9993C37.3913 54.608 37.7391 53.0428 38.0869 51.6515C37.913 51.6515 37.913 51.6515 38.0869 51.8254C38.0869 51.6515 38.0869 51.8254 38.0869 51.8254Z"   fill="#E4B967" ></path><path d="M42.2609 51.8251C42.6087 53.2164 42.9565 54.7817 43.3044 56.173C43.6522 57.5643 43.8261 59.1295 44.1739 60.5208C44.3478 61.9121 44.6957 63.4773 44.8696 64.8686C45.0435 66.2599 45.2174 67.8251 45.3913 69.3904C45.0435 67.9991 44.6957 66.4338 44.3478 65.0425C44 63.6512 43.6522 62.086 43.4783 60.6947C43.3044 59.3034 42.9565 57.7382 42.7826 56.3469C42.6087 54.9556 42.4348 53.3904 42.2609 51.9991C42.087 51.8251 42.087 51.6512 42.2609 51.8251C42.2609 51.6512 42.2609 51.6512 42.2609 51.8251Z"   fill="#E4B967" ></path><path d="M46.2608 50.2596C47.1304 51.477 47.826 52.6944 48.6956 54.0857C49.5651 55.3031 50.2608 56.6944 50.9564 57.9118C51.6521 59.1292 52.3478 60.5205 53.0434 61.7379C53.7391 63.1292 54.4347 64.3466 54.9564 65.7379C54.0869 64.5205 53.2173 63.3031 52.5217 62.0857C51.826 60.8683 50.9564 59.477 50.2608 58.2596C49.5651 57.0423 48.6956 55.651 47.9999 54.4336C47.3043 53.0423 46.6086 51.8249 45.913 50.4336L45.913 50.2596C46.0869 50.2596 46.0869 50.2596 46.2608 50.2596Z"   fill="#E4B967" ></path><path d="M49.3911 47.6509C50.6085 48.5205 51.8259 49.3901 52.8694 50.2596C54.0868 51.1292 55.1303 52.1727 56.3477 53.0422C57.5651 53.9118 58.6085 54.9553 59.652 55.9988C60.6955 57.0423 61.739 58.0857 62.7825 59.1292C61.5651 58.2596 60.3477 57.3901 59.1303 56.5205C57.9129 55.6509 56.8694 54.6075 55.652 53.7379C54.6085 52.6944 53.3911 51.8249 52.3477 50.7814C51.3042 49.7379 50.0868 48.8683 49.0433 47.8249L49.0433 47.6509C49.2172 47.477 49.3911 47.477 49.3911 47.6509Z"   fill="#E4B967" ></path><path d="M51.4782 43.999C52.8695 44.3469 54.2608 44.8686 55.826 45.2164C57.2173 45.7382 58.6086 46.2599 59.9999 46.6077C61.3912 47.1295 62.7825 47.6512 64.1738 48.1729C65.5651 48.6947 66.9564 49.3903 68.1738 50.086C66.7825 49.7382 65.2173 49.3903 63.826 48.8686C62.4347 48.3469 61.0434 47.999 59.6521 47.4773C58.2608 46.9555 56.8695 46.4338 55.4782 45.9121C54.0869 45.3903 52.6955 44.8686 51.3042 44.1729C51.3042 44.1729 51.1303 44.1729 51.4782 43.999C51.3042 43.999 51.3042 43.999 51.4782 43.999Z"   fill="#E4B967" ></path><path d="M51.9999 39.8243C53.5651 39.6504 54.9564 39.6504 56.5217 39.6504C58.0869 39.6504 59.4782 39.6504 61.0434 39.6504C62.6086 39.6504 63.9999 39.6504 65.5651 39.8243C67.1304 39.8243 68.5217 39.9982 70.0869 40.1721C68.5217 40.346 67.1304 40.346 65.5651 40.52C63.9999 40.52 62.6086 40.6939 61.0434 40.6939C59.4782 40.6939 58.0869 40.6939 56.5217 40.6939C54.9564 40.6939 53.5651 40.52 51.9999 40.52C51.9999 40.1721 51.9999 39.9982 51.9999 39.8243L51.9999 39.8243Z"   fill="#E4B967" ></path><path d="M51.3042 35.826C52.6955 35.1304 54.0868 34.6086 55.4781 34.0869C56.8694 33.5651 58.2607 33.0434 59.652 32.5217C61.0433 31.9999 62.4346 31.4782 63.8259 31.1304C65.2172 30.7825 66.6085 30.2608 68.1738 29.913C66.7825 30.6086 65.3911 31.1304 64.1738 31.826C62.7824 32.3477 61.3911 32.8695 59.9998 33.3912C58.6085 33.913 57.2172 34.4347 55.8259 34.7825C54.4346 35.3043 53.0433 35.6521 51.4781 35.9999C51.3042 35.9999 51.3042 35.9999 51.3042 35.826L51.3042 35.826Z"   fill="#E4B967" ></path><path d="M49.2173 32.1739C50.2608 31.1304 51.3043 30.0869 52.5217 29.2173C53.5652 28.1739 54.7826 27.3043 55.826 26.2608C57.0434 25.3912 58.0869 24.3478 59.3043 23.4782C60.5217 22.6086 61.7391 21.7391 62.9565 20.8695C61.913 21.913 60.8695 22.9565 59.826 23.9999C58.7826 25.0434 57.5652 25.913 56.5217 26.9565C55.3043 27.826 54.2608 28.8695 53.0434 29.7391C51.826 30.6086 50.7825 31.6521 49.5652 32.3478L49.3912 32.3478C49.2173 32.3478 49.2173 32.1739 49.2173 32.1739Z"   fill="#E4B967" ></path><path d="M45.913 29.5633C46.6086 28.172 47.3043 26.9546 47.9999 25.5633C48.6956 24.172 49.3912 22.9546 50.2608 21.7372C50.9564 20.5198 51.826 19.1285 52.5217 17.9111C53.3912 16.6937 54.0869 15.4763 54.9564 14.2589C54.4347 15.6502 53.7391 17.0415 53.0434 18.2589C52.3478 19.6502 51.6521 20.8676 50.9564 22.085C50.2608 23.3024 49.5651 24.6937 48.6956 25.9111C47.9999 27.1285 47.1304 28.3459 46.2608 29.7372L46.0869 29.7372C45.913 29.7372 45.913 29.5633 45.913 29.5633Z"   fill="#E4B967" ></path><path d="M42.087 28.1734C42.2609 26.6082 42.4348 25.2169 42.6087 23.8256C42.7826 22.4343 43.1305 20.8691 43.3044 19.4778C43.4783 18.0865 43.8261 16.5212 44.1739 15.1299C44.5218 13.7386 44.8696 12.1734 45.2174 10.7821C45.2174 12.3473 44.8696 13.7386 44.6957 15.3039C44.5218 16.6952 44.3478 18.2604 44 19.6517C43.6522 21.043 43.4783 22.6082 43.1305 23.9995C42.7826 25.3908 42.4348 26.956 42.087 28.3473C42.2609 28.3473 42.2609 28.3473 42.087 28.1734C42.087 28.3473 42.087 28.1734 42.087 28.1734Z"   fill="#E4B967" ></path><path d="M38.9565 27.9982C38.7825 26.7808 38.6086 25.5635 38.4347 24.3461C38.2608 23.1287 38.2608 21.9113 38.0869 20.6939C37.913 19.4765 37.913 18.2591 37.913 17.0417C37.913 15.8243 37.913 14.6069 37.913 13.3895C38.2608 14.6069 38.4347 15.8243 38.6086 17.0417C38.7825 18.2591 38.9565 19.4765 38.9565 20.6939C38.9565 21.9113 39.1304 23.1287 39.3043 24.3461C39.3043 25.5635 39.4782 26.7808 39.3043 27.9982C39.1304 28.1722 39.1304 28.1722 38.9565 27.9982C38.9565 28.1722 38.9565 28.1722 38.9565 27.9982Z"   fill="#E4B967" ></path><path d="M34.9564 29.2158C34.2608 28.1723 33.7391 27.1289 33.2173 26.0854C32.6956 25.0419 32.1738 23.8245 31.6521 22.781C31.1304 21.7375 30.6086 20.5202 30.2608 19.4767C29.739 18.2593 29.3912 17.2158 29.0434 15.9984C29.739 17.0419 30.2608 18.0854 30.9564 19.1289C31.4782 20.1723 31.9999 21.2158 32.5217 22.4332C33.0434 23.4767 33.5651 24.6941 34.0869 25.7376C34.6086 26.781 34.9564 27.9984 35.4782 29.0419C35.1304 29.2158 35.1304 29.2158 34.9564 29.2158L34.9564 29.2158Z"   fill="#E4B967" ></path><path d="M31.478 31.651C30.6085 30.9553 29.565 30.0858 28.6954 29.2162C27.8259 28.3466 26.9563 27.4771 26.0867 26.6075C25.2172 25.7379 24.3476 24.8684 23.6519 23.9988C22.7824 23.1292 22.0867 22.2597 21.3911 21.2162C22.4345 21.9118 23.3041 22.7814 24.1737 23.4771C25.0432 24.3466 25.9128 25.0423 26.7824 25.9118C27.6519 26.7814 28.5215 27.651 29.3911 28.5205C30.2606 29.3901 30.9563 30.2597 31.8259 31.3031L31.8259 31.4771C31.652 31.651 31.478 31.651 31.478 31.651Z"   fill="#E4B967" ></path><path d="M29.2173 35.1291C28 34.7813 26.9565 34.2596 25.7391 33.7378C24.6956 33.2161 23.4782 32.6943 22.4347 32.1726C21.3913 31.6509 20.3478 31.1291 19.1304 30.6074C18.0869 30.0856 17.0434 29.39 15.9999 28.6943C17.2173 29.0422 18.2608 29.5639 19.4782 29.9117C20.5217 30.4335 21.7391 30.7813 22.7826 31.303C23.826 31.8248 25.0434 32.3465 26.0869 32.8683C27.1304 33.39 28.1739 33.9117 29.2173 34.6074C29.3913 34.7813 29.3913 34.9552 29.2173 35.1291L29.2173 35.1291Z"   fill="#E4B967" ></path><path d="M28.1737 39.1291C26.9563 39.1291 25.7389 39.1291 24.5215 39.1291C23.3041 39.1291 22.0867 38.9552 20.8693 38.7813C19.6519 38.6074 18.4345 38.4334 17.2171 38.4334C15.9998 38.2595 14.7824 38.0856 13.565 37.7378C14.7824 37.7378 15.9998 37.7378 17.2171 37.7378C18.4345 37.7378 19.6519 37.9117 20.8693 37.9117C22.0867 38.0856 23.3041 38.0856 24.5215 38.2595C25.7389 38.4334 26.9563 38.6074 28.1737 38.7813C28.1737 38.7813 28.3476 38.9552 28.1737 39.1291C28.1737 38.9552 28.1737 39.1291 28.1737 39.1291Z"   fill="#E4B967" ></path><path d="M28.5216 43.3032C27.3042 43.825 26.2608 44.1728 25.0434 44.5206C23.826 44.8684 22.7825 45.2163 21.5651 45.5641C20.3477 45.9119 19.1303 46.0858 18.0868 46.4337C16.8694 46.6076 15.6521 46.9554 14.4347 47.1293C15.4781 46.6076 16.6955 46.2598 17.9129 45.9119C19.1303 45.5641 20.1738 45.2163 21.3912 44.8684C22.6086 44.5206 23.6521 44.1728 24.8695 43.9989C26.0868 43.6511 27.3042 43.4771 28.5216 43.3032C28.5216 42.9554 28.6955 42.9554 28.5216 43.3032C28.6955 43.1293 28.5216 43.1293 28.5216 43.3032Z"   fill="#E4B967" ></path><path d="M30.2609 46.9552C29.3913 47.8248 28.3478 48.5205 27.4783 49.2161C26.6087 49.9118 25.5652 50.6074 24.5217 51.3031C23.4783 51.9987 22.4348 52.6944 21.5652 53.39C20.5217 54.0857 19.4783 54.6074 18.4348 55.1292C19.3043 54.2596 20.3478 53.5639 21.2174 52.6944C22.2609 51.9987 23.1304 51.3031 24.1739 50.6074C25.2174 49.9118 26.087 49.2161 27.1304 48.5205C28.1739 47.8248 29.2174 47.3031 30.2609 46.6074L30.4348 46.6074C30.4348 46.9552 30.4348 46.9552 30.2609 46.9552Z"   fill="#E4B967" ></path><path d="M33.3913 49.9121C32.8696 50.9556 32.1739 51.9991 31.4783 53.0426C30.7826 54.086 30.087 55.1295 29.3913 55.9991C28.6957 57.0426 28 57.9121 27.3044 58.9556C26.6087 59.8252 25.7391 60.8686 24.8696 61.7382C25.3913 60.6948 26.087 59.6513 26.6087 58.6078C27.3044 57.5643 28 56.5208 28.6957 55.6513C29.3913 54.6078 30.087 53.7382 30.7826 52.6947C31.4783 51.6513 32.1739 50.7817 33.0435 49.9121L33.2174 49.9121C33.3913 49.7382 33.3913 49.9121 33.3913 49.9121Z"   fill="#E4B967" ></path><path d="M37.0433 51.6513C36.8694 52.8687 36.5216 54.0861 36.3477 55.3035C36.1738 56.5209 35.8259 57.7383 35.4781 58.7818C35.1303 59.9991 34.7824 61.0426 34.4346 62.26C34.0868 63.4774 33.739 64.5209 33.2172 65.7383C33.3911 64.5209 33.565 63.3035 33.9129 62.0861C34.2607 60.8687 34.4346 59.6513 34.7824 58.6078C35.1303 57.3904 35.4781 56.347 35.8259 55.1296C36.1738 53.9122 36.5216 52.8687 37.0433 51.6513C36.8694 51.4774 37.0433 51.4774 37.0433 51.6513C37.0433 51.4774 37.2172 51.4774 37.0433 51.6513Z"   fill="#E4B967" ></path><path d="M41.2173 51.9986C41.3912 53.216 41.5651 54.4334 41.739 55.6508C41.9129 56.8682 41.9129 58.0856 42.0868 59.303C42.2607 60.5203 42.2607 61.7377 42.2607 62.9551C42.2607 64.1725 42.2607 65.3899 42.2607 66.6073C41.9129 65.3899 41.739 64.1725 41.5651 62.9551C41.3912 61.7377 41.2173 60.5203 41.2173 59.303C41.2173 58.0856 41.0434 56.8682 40.8694 55.6508C40.8694 54.4334 40.6955 53.216 40.8694 51.9986C41.0434 51.8247 41.0434 51.8247 41.2173 51.9986C41.2173 51.8247 41.2173 51.8247 41.2173 51.9986Z"   fill="#E4B967" ></path><path d="M45.2175 50.7821C45.9131 51.8256 46.4349 52.8691 46.9566 53.9125C47.4783 54.956 48.0001 56.1734 48.5218 57.2169C49.0436 58.2604 49.5653 59.4778 49.9131 60.5212C50.4349 61.7386 50.7827 62.7821 51.1305 63.9995C50.4349 62.956 49.9131 61.9126 49.2175 60.8691C48.6957 59.8256 48.174 58.7821 47.6522 57.5647C47.1305 56.5212 46.6088 55.3038 46.087 54.2604C45.5653 53.2169 45.2175 51.9995 44.6957 50.7821C45.0435 50.7821 45.0435 50.7821 45.2175 50.7821L45.2175 50.7821Z"   fill="#E4B967" ></path><path d="M48.6956 48.3469C49.5652 49.0426 50.6087 49.9121 51.4782 50.7817C52.3478 51.6513 53.2174 52.5208 54.0869 53.3904C54.9565 54.26 55.8261 55.1295 56.5217 55.9991C57.3913 56.8687 58.0869 57.7382 58.7826 58.7817C57.7391 58.0861 56.8696 57.2165 56 56.5208C55.1304 55.6513 54.2609 54.9556 53.3913 54.0861C52.5217 53.2165 51.6522 52.3469 50.7826 51.4774C49.913 50.6078 49.2174 49.7382 48.3478 48.6948L48.3478 48.5208C48.5217 48.3469 48.6956 48.3469 48.6956 48.3469Z"   fill="#E4B967" ></path><path d="M50.9565 44.8683C52.1739 45.2161 53.2173 45.7379 54.2608 46.2596C55.3043 46.7813 56.5217 47.3031 57.5652 47.8248C58.6087 48.3465 59.6521 48.8683 60.8695 49.39C61.913 49.9118 62.9565 50.6074 64 51.3031C62.7826 50.9552 61.7391 50.4335 60.5217 50.0857C59.4782 49.5639 58.2608 49.2161 57.2174 48.6944C56.1739 48.1726 54.9565 47.6509 53.913 47.1292C52.8695 46.6074 51.826 46.0857 50.7826 45.39C50.7826 45.2161 50.7826 45.0422 50.9565 44.8683L50.9565 44.8683Z"   fill="#E4B967" ></path><path d="M52 40.8696C53.2174 40.8696 54.4348 40.8696 55.6522 40.8696C56.8696 40.8696 58.087 41.0435 59.3043 41.2175C60.5217 41.3914 61.7391 41.5653 62.9565 41.5653C64.1739 41.7392 65.3913 41.9131 66.6087 42.2609C65.3913 42.2609 64.1739 42.2609 62.9565 42.2609C61.7391 42.2609 60.5217 42.087 59.3043 42.087C58.087 41.9131 56.8696 41.9131 55.6522 41.7392C54.4348 41.5653 53.2174 41.3914 52 41.2175C52 41.2175 51.8261 41.0435 52 40.8696L52 40.8696Z"   fill="#E4B967" ></path><path d="M51.6521 36.6947C52.8695 36.173 53.913 35.8252 55.1304 35.4773C56.3478 35.1295 57.3912 34.7817 58.6086 34.4339C59.826 34.086 61.0434 33.9121 62.0869 33.5643C63.3043 33.3904 64.5217 33.0426 65.7391 32.8687C64.6956 33.3904 63.4782 33.7382 62.2608 34.086C61.0434 34.4339 59.9999 34.7817 58.7825 35.1295C57.5651 35.4773 56.5217 35.8252 55.3043 35.9991C54.0869 36.3469 52.8695 36.5208 51.6521 36.6947C51.6521 37.0426 51.4782 37.0426 51.6521 36.6947C51.4782 36.8687 51.6521 36.6947 51.6521 36.6947Z"   fill="#E4B967" ></path><path d="M49.913 33.0424C50.7826 32.1729 51.8261 31.4772 52.6956 30.7816C53.5652 30.0859 54.6087 29.3903 55.6522 28.6946C56.6956 27.999 57.7391 27.3033 58.6087 26.6077C59.6522 25.912 60.6956 25.3903 61.7391 24.8685C60.8696 25.7381 59.8261 26.4338 58.9565 27.3033C57.913 27.999 57.0435 28.6946 56 29.3903C54.9565 30.0859 54.0869 30.7816 53.0435 31.4772C52 32.1729 50.9565 32.6946 49.913 33.3903L49.7391 33.3903C49.7391 33.0424 49.7391 33.0424 49.913 33.0424Z"   fill="#E4B967" ></path><path d="M46.7826 30.0865C47.3043 29.043 48 27.9995 48.6956 26.956C49.3913 25.9126 50.0869 24.8691 50.7826 23.9995C51.4782 22.956 52.1739 22.0865 52.8695 21.043C53.5652 20.1734 54.4348 19.1299 55.3043 18.2604C54.7826 19.3039 54.0869 20.3473 53.5652 21.3908C52.8695 22.4343 52.1739 23.4778 51.4782 24.3473C50.7826 25.3908 50.0869 26.2604 49.3913 27.3039C48.6956 28.3473 48 29.2169 47.1304 30.0865L46.9565 30.0865C46.7826 30.2604 46.7826 30.0865 46.7826 30.0865Z"   fill="#E4B967" ></path><path d="M43.1303 28.3459C43.3042 27.1285 43.652 25.9111 43.826 24.6937C43.9999 23.4763 44.3477 22.2589 44.6955 21.2154C45.0433 19.998 45.3912 18.9546 45.739 17.7372C46.0868 16.5198 46.4346 15.4763 46.9564 14.2589C46.7825 15.4763 46.6086 16.6937 46.2607 17.9111C45.9129 19.1285 45.739 20.3459 45.3912 21.3894C45.0433 22.6067 44.6955 23.6502 44.3477 24.8676C43.9999 26.085 43.652 27.1285 43.1303 28.3459C43.3042 28.5198 43.3042 28.5198 43.1303 28.3459C43.1303 28.5198 43.1303 28.3459 43.1303 28.3459Z"   fill="#E4B967" ></path><path d="M35.8261 28.6946C35.1304 26.9555 34.4348 25.2163 33.7391 23.4772C33.0434 21.7381 32.3478 19.9989 31.8261 18.2598C31.1304 16.5207 30.6087 14.7815 29.913 12.8685C29.3913 11.1294 28.6956 9.21631 28.3478 7.47717C29.2174 9.21631 29.913 10.9554 30.6087 12.6946C31.3043 14.4337 32 16.1728 32.6956 17.912C33.3913 19.6511 33.913 21.3902 34.6087 23.3033C35.1304 25.0424 35.8261 26.9555 36.3478 28.6946C36.1739 28.6946 36.1739 28.8685 35.8261 28.6946C36 28.8685 35.8261 28.8685 35.8261 28.6946Z"   fill="#E4B967" ></path><path d="M32.3477 30.9564C30.9564 29.5651 29.739 28.1738 28.5216 26.7825C27.3042 25.3912 26.0868 23.9999 24.8694 22.4346C23.652 21.0433 22.4346 19.4781 21.3911 18.0868C20.1737 16.5216 19.1303 15.1303 18.0868 13.5651C19.4781 14.9564 20.6955 16.3477 21.9129 17.739C23.1303 19.1303 24.3477 20.5216 25.5651 22.0868C26.7825 23.4781 27.9998 25.0433 29.2172 26.4346C30.4346 27.8259 31.4781 29.3912 32.6955 30.9564L32.6955 31.1303C32.3477 30.9564 32.3477 30.9564 32.3477 30.9564Z"   fill="#E4B967" ></path><path d="M29.5652 34.0865C27.8261 33.217 26.2608 32.3474 24.5217 31.4778C22.7826 30.6083 21.2174 29.5648 19.6521 28.6952C18.0869 27.8257 16.3478 26.7822 14.7826 25.7387C13.2174 24.6952 11.6521 23.6518 10.0869 22.6083C11.826 23.4778 13.5652 24.3474 15.1304 25.217C16.8695 26.0865 18.4347 26.9561 20 27.9996C21.5652 29.0431 23.3043 29.9126 24.8695 30.9561C26.4348 31.9996 28 32.8691 29.7391 33.9126L29.7391 34.0865C29.7391 34.0865 29.7391 34.0865 29.5652 34.0865Z"   fill="#E4B967" ></path><path d="M28.174 38.0859C26.261 37.912 24.3479 37.5642 22.6088 37.3903C20.6958 37.0425 18.9566 36.6946 17.0436 36.5207C15.1305 36.1729 13.3914 35.8251 11.4784 35.4772C9.56532 35.1294 7.82619 34.6077 5.91315 34.0859C7.82619 34.2599 9.73924 34.4338 11.4784 34.7816C13.3914 35.1294 15.1305 35.3033 17.0436 35.6512C18.9566 35.999 20.6958 36.3468 22.6088 36.6946C24.5219 37.0425 26.261 37.3903 28.174 37.912C28.348 37.7381 28.348 37.912 28.174 38.0859C28.348 38.0859 28.348 38.0859 28.174 38.0859Z"   fill="#E4B967" ></path><path d="M28.3477 42.2609C26.4347 42.7827 24.6955 43.1305 22.7825 43.4783C20.8694 43.8262 19.1303 44.174 17.2173 44.5218C15.3042 44.8696 13.5651 45.0435 11.652 45.3914C9.73899 45.5653 7.82594 45.9131 6.08681 46.087C7.99985 45.5653 9.73899 45.2175 11.652 44.6957C13.5651 44.3479 15.3042 44.0001 17.2173 43.6522C19.1303 43.3044 20.8694 42.9566 22.7825 42.7827C24.6955 42.4348 26.4347 42.2609 28.3477 42.087C28.3477 41.9131 28.3477 41.9131 28.3477 42.2609C28.3477 42.087 28.3477 42.2609 28.3477 42.2609Z"   fill="#E4B967" ></path><path d="M29.7391 46.0859C28.1739 47.1294 26.6087 48.1729 24.8695 49.0424C23.3043 50.0859 21.5652 50.9555 20 51.9989C18.4347 52.8685 16.6956 53.912 15.1304 54.7816C13.3913 55.6511 11.826 56.5207 10.0869 57.3902C11.6521 56.3468 13.2174 55.3033 14.7826 54.2598C16.3478 53.2163 18.0869 52.3468 19.6521 51.3033C21.2174 50.4337 22.9565 49.3902 24.5217 48.5207C26.2608 47.6511 27.8261 46.7816 29.5652 45.912L29.7391 45.912C29.913 45.912 29.913 46.0859 29.7391 46.0859Z"   fill="#E4B967" ></path><path d="M32.5216 49.2167C31.4781 50.7819 30.2607 52.1732 29.0433 53.7384C27.8259 55.3036 26.6085 56.6949 25.3911 58.0863C24.1737 59.4776 22.9564 60.8689 21.739 62.4341C20.5216 63.8254 19.1303 65.2167 17.9129 66.608C18.9564 65.0428 20.1737 63.4776 21.2172 62.0863C22.4346 60.6949 23.652 59.1297 24.6955 57.7384C25.9129 56.3471 27.1303 54.7819 28.3477 53.3906C29.5651 51.9993 30.7824 50.608 32.1738 49.2167L32.3477 49.2167C32.5216 49.2167 32.5216 49.2167 32.5216 49.2167Z"   fill="#E4B967" ></path><path d="M36.1739 51.3034C35.6522 53.0425 35.1304 54.9556 34.4348 56.6947C33.913 58.4339 33.2174 60.173 32.5217 62.086C31.8261 63.8252 31.1304 65.5643 30.4348 67.3034C29.7391 69.0426 29.0435 70.7817 28.1739 72.5208C28.6956 70.6078 29.2174 68.8687 29.7391 67.1295C30.2609 65.3904 30.9565 63.4773 31.6522 61.7382C32.3478 59.9991 32.8696 58.2599 33.5652 56.5208C34.2609 54.7817 34.9565 53.0425 35.6522 51.3034C35.8261 51.1295 36 51.1295 36.1739 51.3034C36.1739 51.1295 36.1739 51.3034 36.1739 51.3034Z"   fill="#E4B967" ></path><path d="M40.174 51.9986C40.3479 53.9116 40.3479 55.8247 40.3479 57.7377C40.3479 59.6508 40.3479 61.5638 40.3479 63.4769C40.3479 65.3899 40.3479 67.303 40.174 69.216C40.174 71.1291 40 73.0421 39.8261 74.9552C39.6522 73.0421 39.6522 71.1291 39.4783 69.216C39.4783 67.303 39.3044 65.3899 39.3044 63.4769C39.3044 61.5638 39.3044 59.6508 39.3044 57.7377C39.3044 55.8247 39.4783 53.9116 39.4783 51.9986C40 51.8247 40 51.8247 40.174 51.9986C40.174 51.8247 40.174 51.9986 40.174 51.9986Z"   fill="#E4B967" ></path><path d="M44.3478 51.1294C45.0435 52.8685 45.7391 54.6077 46.4348 56.3468C47.1304 58.0859 47.8261 59.8251 48.3478 61.5642C49.0435 63.3033 49.5652 65.0424 50.2609 66.9555C50.7826 68.6946 51.4782 70.6077 51.8261 72.3468C50.9565 70.6077 50.2609 68.8685 49.5652 67.1294C48.8695 65.3903 48.1739 63.6511 47.4782 61.912C46.7826 60.1729 46.2608 58.4337 45.5652 56.5207C45.0435 54.7816 44.3478 52.8685 43.8261 51.1294C44 51.3033 44 51.1294 44.3478 51.1294C44.1739 51.1294 44.3478 51.1294 44.3478 51.1294Z"   fill="#E4B967" ></path><path d="M47.826 49.042C49.2173 50.4333 50.4347 51.8246 51.6521 53.2159C52.8695 54.6072 54.0869 55.9985 55.3043 57.5637C56.5217 58.955 57.7391 60.5202 58.7826 61.9115C60 63.4767 61.0434 64.8681 62.0869 66.4333C60.6956 65.042 59.4782 63.6507 58.2608 62.2594C57.0434 60.868 55.826 59.4767 54.6087 57.9115C53.3913 56.5202 52.1739 54.955 50.9565 53.5637C49.7391 52.1724 48.6956 50.6072 47.4782 49.042L47.4782 48.868C47.826 49.042 47.826 49.042 47.826 49.042Z"   fill="#E4B967" ></path><path d="M50.6086 45.912C52.3477 46.7816 53.9129 47.6511 55.6521 48.5207C57.3912 49.3902 58.9564 50.4337 60.5216 51.3033C62.0869 52.1729 63.826 53.2163 65.3912 54.2598C66.9564 55.3033 68.5216 56.3468 70.0869 57.3902C68.3477 56.5207 66.6086 55.6511 65.0434 54.7816C63.3042 53.912 61.739 53.0424 60.1738 51.9989C58.6086 50.9555 56.8695 50.0859 55.3042 49.0424C53.739 47.9989 52.1738 47.1294 50.4347 46.0859L50.4347 45.912C50.4347 45.912 50.4347 45.912 50.6086 45.912Z"   fill="#E4B967" ></path><path d="M51.9999 41.9125C53.913 42.0864 55.826 42.4342 57.5652 42.6081C59.4782 42.956 61.2173 43.3038 63.1304 43.4777C65.0434 43.8255 66.7826 44.1733 68.6956 44.5212C70.6087 44.869 72.3478 45.3907 74.2608 45.9125C72.3478 45.7386 70.4347 45.5647 68.6956 45.2168C66.7826 44.869 65.0434 44.6951 63.1304 44.3473C61.2173 43.9994 59.4782 43.6516 57.5652 43.3038C55.6521 42.956 53.913 42.6081 51.9999 42.0864C51.826 42.2603 51.826 42.0864 51.9999 41.9125C51.826 41.9125 51.826 41.9125 51.9999 41.9125Z"   fill="#E4B967" ></path><path d="M51.8259 37.7378C53.7389 37.2161 55.4781 36.8683 57.3911 36.5204C59.3042 36.1726 61.0433 35.8248 62.9563 35.477C64.8694 35.1291 66.6085 34.9552 68.5216 34.6074C70.4346 34.4335 72.3477 34.0857 74.0868 33.9117C72.1738 34.4335 70.4346 34.7813 68.5216 35.303C66.6085 35.6509 64.8694 35.9987 62.9563 36.3465C61.0433 36.6944 59.3042 37.0422 57.3911 37.2161C55.4781 37.5639 53.7389 37.7378 51.8259 37.9117C51.8259 38.0857 51.8259 37.9117 51.8259 37.7378C51.8259 37.9117 51.8259 37.7378 51.8259 37.7378Z"   fill="#E4B967" ></path><path d="M50.4347 33.9126C52 32.8692 53.5652 31.8257 55.3043 30.9561C56.8695 29.9126 58.6087 29.0431 60.1739 27.9996C61.7391 27.13 63.4782 26.0865 65.0435 25.217C66.7826 24.3474 68.3477 23.4778 70.0869 22.6083C68.5216 23.6518 66.9565 24.6952 65.3913 25.7387C63.8261 26.7822 62.0869 27.6518 60.5217 28.6952C58.9565 29.5648 57.2174 30.6083 55.6521 31.4778C53.913 32.3474 52.3478 33.217 50.6087 34.0865L50.4347 34.0865C50.2608 33.9126 50.4347 33.9126 50.4347 33.9126Z"   fill="#E4B967" ></path><path d="M47.6521 30.7808C48.6956 29.2156 49.9129 27.8243 51.1303 26.2591C52.3477 24.6939 53.5651 23.3026 54.7825 21.9113C55.9999 20.52 57.2173 19.1287 58.4347 17.5634C59.6521 16.1721 61.0434 14.7808 62.2608 13.3895C61.2173 14.9547 59.9999 16.52 58.9564 17.9113C57.739 19.3026 56.5217 20.8678 55.4782 22.2591C54.2608 23.6504 53.0434 25.2156 51.826 26.6069C50.6086 27.9982 49.3912 29.3895 47.9999 30.7808L47.826 30.7808C47.6521 30.7808 47.6521 30.7808 47.6521 30.7808Z"   fill="#E4B967" ></path><path d="M43.9998 28.6948C44.5216 26.9557 45.0433 25.0427 45.739 23.3035C46.2607 21.5644 46.9564 19.8253 47.652 17.9122C48.3477 16.1731 49.0433 14.4339 49.739 12.6948C50.4346 10.9557 51.1303 9.21655 51.9998 7.47742C51.4781 9.39046 50.9564 11.1296 50.4346 12.8687C49.9129 14.6079 49.2172 16.5209 48.5216 18.26C47.8259 19.9992 47.3042 21.7383 46.6085 23.4774C45.9129 25.2166 45.2172 26.9557 44.5216 28.6948C44.3477 28.8688 44.1737 28.8688 43.9998 28.6948C43.9998 28.8688 43.9998 28.6948 43.9998 28.6948Z"   fill="#E4B967" ></path><path d="M49.9131 39.9995C49.9131 45.3908 45.5653 49.9125 40 49.9125C34.4348 49.9125 30.087 45.5647 30.087 39.9995C30.087 34.6082 34.4348 30.0864 40 30.0864C45.5653 30.0864 49.9131 34.6082 49.9131 39.9995Z"   fill="#E4B967" ></path></svg>