<svg xmlns="http://www.w3.org/2000/svg" xmlns:xlink="http://www.w3.org/1999/xlink" width="170.00283813476562" height="200" viewBox="0 0 170.00283813476562 200" fill="none"><path d="M156.169 145.703L133.707 132.231L133.685 123.919L156.147 137.391L156.169 145.703L156.169 145.703Z"   fill="#343434" ></path><path d="M156.147 137.39L133.685 123.918L140.678 119.74L163.14 133.212L156.147 137.39L156.147 137.39Z"   fill="#545454" ></path><path d="M163.14 133.211L163.162 141.522L156.169 145.701L156.147 137.389L163.14 133.211L163.14 133.211Z"   fill="#4B4B4B" ></path><path d="M156.147 137.391L133.685 123.919L133.663 115.607L156.103 129.079L156.147 137.391L156.147 137.391Z"   fill="#5D3F22" ></path><path d="M156.103 129.078L133.663 115.607L140.656 111.428L163.118 124.9L156.103 129.078L156.103 129.078Z"   fill="#956636" ></path><path d="M163.118 124.901L163.14 133.212L156.147 137.391L156.103 129.079L163.118 124.901L163.118 124.901Z"   fill="#865B30" ></path><path d="M156.103 129.077L133.663 115.606L133.641 107.294L156.08 120.766L156.103 129.077L156.103 129.077Z"   fill="#5D3F22" ></path><path d="M156.08 120.769L133.641 107.297L140.634 103.118L163.095 116.59L156.08 120.769L156.08 120.769Z"   fill="#956636" ></path><path d="M163.096 116.589L163.118 124.9L156.103 129.079L156.08 120.767L163.096 116.589L163.096 116.589Z"   fill="#865B30" ></path><path d="M149.065 125.13L126.604 111.658L126.582 103.347L149.043 116.819L149.065 125.13L149.065 125.13Z"   fill="#5D3F22" ></path><path d="M149.043 116.818L126.582 103.346L133.619 99.1672L156.058 112.639L149.043 116.818L149.043 116.818Z"   fill="#956636" ></path><path d="M156.058 112.64L156.081 120.951L149.065 125.13L149.043 116.818L156.058 112.64L156.058 112.64Z"   fill="#865B30" ></path><path d="M149.043 116.817L126.582 103.345L126.559 95.0334L149.021 108.505L149.043 116.817L149.043 116.817Z"   fill="#5D3F22" ></path><path d="M149.021 108.506L126.559 95.034L133.597 90.8555L156.036 104.327L149.021 108.506L149.021 108.506Z"   fill="#956636" ></path><path d="M156.036 104.328L156.058 112.639L149.043 116.818L149.021 108.506L156.036 104.328L156.036 104.328Z"   fill="#865B30" ></path><path d="M149.021 108.505L126.56 95.0329L126.537 86.7214L148.999 100.193L149.021 108.505L149.021 108.505Z"   fill="#5D3F22" ></path><path d="M148.999 100.193L126.537 86.721L133.553 82.5425L156.014 96.0143L148.999 100.193L148.999 100.193Z"   fill="#956636" ></path><path d="M156.014 96.0146L156.036 104.326L149.021 108.505L148.999 100.193L156.014 96.0146L156.014 96.0146Z"   fill="#865B30" ></path><path d="M121.093 166.595L98.6318 153.123L98.6097 144.812L121.071 158.283L121.093 166.595L121.093 166.595Z"   fill="#1A1A1A" ></path><path d="M128.064 154.104L128.087 162.415L121.094 166.594L121.071 158.282L128.064 154.104L128.064 154.104Z"   fill="#252525" ></path><path d="M121.071 158.282L98.6097 144.81L105.603 140.632L128.064 154.103L121.071 158.282L121.071 158.282Z"   fill="#2A2A2A" ></path><path d="M121.049 149.972L98.5875 136.5L105.58 132.322L128.042 145.793L121.049 149.972L121.049 149.972Z"   fill="#4E4035" ></path><path d="M121.071 158.284L98.6097 144.812L98.5875 136.501L121.049 149.973L121.071 158.284L121.071 158.284Z"   fill="#312821" ></path><path d="M128.042 145.794L128.064 154.106L121.071 158.284L121.049 149.973L128.042 145.794L128.042 145.794Z"   fill="#463A2F" ></path><path d="M121.049 149.971L98.5877 136.499L98.5655 128.37L121.027 141.842L121.049 149.971L121.049 149.971Z"   fill="#312821" ></path><path d="M121.027 141.843L98.5655 128.371L98.5655 128.188L121.027 141.637L121.027 141.843L121.027 141.843Z"   fill="#312821" ></path><path d="M121.027 141.637L98.5655 128.188L105.581 124.01L128.02 137.482L121.027 141.637L121.027 141.637Z"   fill="#4E4035" ></path><path d="M128.02 137.482L128.042 145.794L121.049 149.972L121.027 141.844L121.027 141.638L128.02 137.482L128.02 137.482Z"   fill="#463A2F" ></path><path d="M148.977 91.8826L126.515 78.4107L133.53 74.2322L155.992 87.6812L148.977 91.8826L148.977 91.8826Z"   fill="#956636" ></path><path d="M148.999 100.195L126.537 86.7231L126.515 78.4116L148.977 91.8835L148.999 100.195L148.999 100.195Z"   fill="#5D3F22" ></path><path d="M155.992 87.6819L156.014 96.0162L148.999 100.195L148.977 91.8833L155.992 87.6819L155.992 87.6819Z"   fill="#865B30" ></path><path d="M155.992 87.6804L133.53 74.2314L133.508 65.9199L155.97 79.3689L155.992 87.6804L155.992 87.6804Z"   fill="#312821" ></path><path d="M155.97 79.3681L133.508 65.919L140.523 61.7405L162.985 75.2123L155.97 79.3681L155.97 79.3681Z"   fill="#4E4035" ></path><path d="M162.985 75.2136L163.007 83.5251L155.992 87.6808L155.97 79.3693L162.985 75.2136L162.985 75.2136Z"   fill="#463A2F" ></path><path d="M162.963 66.9024L140.501 53.4305L147.516 49.252L169.978 62.701L162.963 66.9024L162.963 66.9024Z"   fill="#4E4035" ></path><path d="M169.978 62.7007L170 71.035L162.985 75.2135L162.963 66.9021L169.978 62.7007L169.978 62.7007Z"   fill="#463A2F" ></path><path d="M162.985 75.2142L140.523 61.7424L140.501 53.4309L162.963 66.9028L162.985 75.2142L162.985 75.2142Z"   fill="#312821" ></path><path d="M121.005 133.53L98.5433 120.058L105.558 115.879L127.998 129.351L121.005 133.53L121.005 133.53Z"   fill="#4E4035" ></path><path d="M127.998 129.352L128.02 137.481L121.027 141.637L121.027 141.842L121.005 133.531L127.998 129.352L127.998 129.352Z"   fill="#463A2F" ></path><path d="M121.027 141.844L98.5655 128.372L98.5433 120.061L121.005 133.532L121.027 141.844L121.027 141.844Z"   fill="#312821" ></path><path d="M127.998 129.352L105.558 115.88L105.514 107.569L127.976 121.041L127.998 129.352L127.998 129.352Z"   fill="#312821" ></path><path d="M134.991 116.862L135.013 125.174L127.998 129.352L127.976 121.041L134.991 116.862L134.991 116.862Z"   fill="#463A2F" ></path><path d="M127.976 121.04L105.514 107.568L112.529 103.39L134.991 116.862L127.976 121.04L127.976 121.04Z"   fill="#4E4035" ></path><path d="M148.977 91.8843L148.999 100.196L141.984 104.374L141.962 96.0628L148.977 91.8843L148.977 91.8843Z"   fill="#865B30" ></path><path d="M141.984 104.372L119.522 90.8998L119.5 82.5884L141.962 96.0602L141.984 104.372L141.984 104.372Z"   fill="#5D3F22" ></path><path d="M141.962 96.062L119.5 82.5902L126.515 78.4116L148.977 91.8835L141.962 96.062L141.962 96.062Z"   fill="#956636" ></path><path d="M148.955 83.5703L126.493 70.0985L133.508 65.9199L155.97 79.3689L148.955 83.5703L148.955 83.5703Z"   fill="#956636" ></path><path d="M155.97 79.3701L155.992 87.6816L148.977 91.883L148.955 83.5715L155.97 79.3701L155.97 79.3701Z"   fill="#865B30" ></path><path d="M148.977 91.8834L126.515 78.4116L126.493 70.1001L148.955 83.572L148.977 91.8834L148.977 91.8834Z"   fill="#5D3F22" ></path><path d="M155.97 79.3692L133.508 65.9202L133.486 57.5859L155.948 71.0578L155.97 79.3692L155.97 79.3692Z"   fill="#312821" ></path><path d="M162.963 66.9016L162.985 75.2131L155.97 79.3688L155.948 71.0573L162.963 66.9016L162.963 66.9016Z"   fill="#463A2F" ></path><path d="M155.948 71.0585L133.486 57.5866L140.501 53.4309L162.963 66.9028L155.948 71.0585L155.948 71.0585Z"   fill="#4E4035" ></path><path d="M169.956 54.3909L169.978 62.7023L162.963 66.9037L162.941 58.5694L169.956 54.3909L169.956 54.3909Z"   fill="#463A2F" ></path><path d="M162.963 66.9038L140.501 53.4319L140.479 45.0977L162.941 58.5695L162.963 66.9038L162.963 66.9038Z"   fill="#312821" ></path><path d="M162.941 58.5684L140.479 45.0965L147.494 40.918L169.956 54.3898L162.941 58.5684L162.941 58.5684Z"   fill="#4E4035" ></path><path d="M134.969 108.55L134.991 116.862L127.976 121.04L127.954 112.729L134.969 108.55L134.969 108.55Z"   fill="#463A2F" ></path><path d="M127.954 112.728L105.514 99.2564L112.507 95.0779L134.969 108.55L127.954 112.728L127.954 112.728Z"   fill="#4E4035" ></path><path d="M127.976 121.042L105.514 107.57L105.514 99.2588L127.954 112.731L127.976 121.042L127.976 121.042Z"   fill="#312821" ></path><path d="M148.955 83.5728L148.977 91.8842L141.962 96.0628L141.94 87.7513L148.955 83.5728L148.955 83.5728Z"   fill="#865B30" ></path><path d="M141.962 96.0604L119.5 82.5886L119.478 74.2771L141.94 87.749L141.962 96.0604L141.962 96.0604Z"   fill="#5D3F22" ></path><path d="M141.94 87.7505L119.478 74.2787L126.493 70.1001L148.955 83.572L141.94 87.7505L141.94 87.7505Z"   fill="#956636" ></path><path d="M148.955 83.5704L126.493 70.0986L126.471 61.7871L148.933 75.259L148.955 83.5704L148.955 83.5704Z"   fill="#5D3F22" ></path><path d="M148.933 75.2592L126.471 61.7873L133.486 57.5859L155.948 71.0578L148.933 75.2592L148.933 75.2592Z"   fill="#956636" ></path><path d="M155.948 71.0583L155.97 79.3698L148.955 83.5712L148.933 75.2597L155.948 71.0583L155.948 71.0583Z"   fill="#865B30" ></path><path d="M162.941 58.5664L162.963 66.9007L155.948 71.0564L155.926 62.7221L162.941 58.5664L162.941 58.5664Z"   fill="#463A2F" ></path><path d="M155.948 71.0575L133.486 57.5856L133.464 49.2742L155.926 62.7232L155.948 71.0575L155.948 71.0575Z"   fill="#312821" ></path><path d="M155.926 62.7252L133.464 49.2762L140.479 45.0977L162.941 58.5695L155.926 62.7252L155.926 62.7252Z"   fill="#4E4035" ></path><path d="M169.934 46.0781L169.956 54.3896L162.941 58.5681L162.919 50.2795L169.934 46.0781L169.934 46.0781Z"   fill="#463A2F" ></path><path d="M162.941 58.5698L140.479 45.0979L140.457 36.8093L162.919 50.2812L162.941 58.5698L162.941 58.5698Z"   fill="#312821" ></path><path d="M162.919 50.2812L140.457 36.8093L147.472 32.6079L169.934 46.0798L162.919 50.2812L162.919 50.2812Z"   fill="#4E4035" ></path><path d="M127.932 104.418L105.47 90.9464L112.485 86.7678L134.947 100.24L127.932 104.418L127.932 104.418Z"   fill="#4E4035" ></path><path d="M127.954 112.731L105.514 99.259L105.47 90.9475L127.932 104.419L127.954 112.731L127.954 112.731Z"   fill="#312821" ></path><path d="M134.947 100.241L134.969 108.552L127.954 112.731L127.931 104.42L134.947 100.241L134.947 100.241Z"   fill="#463A2F" ></path><path d="M141.939 87.7485L141.962 96.06L134.947 100.239L134.924 91.9271L141.939 87.7485L141.939 87.7485Z"   fill="#865B30" ></path><path d="M134.947 100.241L112.485 86.7692L112.463 78.4578L134.924 91.9296L134.947 100.241L134.947 100.241Z"   fill="#5D3F22" ></path><path d="M134.924 91.9275L112.463 78.4557L119.478 74.2771L141.94 87.749L134.924 91.9275L134.924 91.9275Z"   fill="#956636" ></path><path d="M148.933 75.2603L148.955 83.5717L141.94 87.7503L141.917 79.416L148.933 75.2603L148.933 75.2603Z"   fill="#865B30" ></path><path d="M141.918 79.4147L119.456 65.9657L126.471 61.7871L148.933 75.259L141.918 79.4147L141.918 79.4147Z"   fill="#956636" ></path><path d="M141.94 87.7499L119.478 74.278L119.456 65.9666L141.918 79.4156L141.94 87.7499L141.94 87.7499Z"   fill="#5D3F22" ></path><path d="M155.926 62.7249L155.948 71.0591L148.933 75.2605L148.91 66.9262L155.926 62.7249L155.926 62.7249Z"   fill="#865B30" ></path><path d="M148.91 66.9246L126.449 53.4527L133.464 49.2742L155.926 62.7232L148.91 66.9246L148.91 66.9246Z"   fill="#956636" ></path><path d="M148.933 75.2598L126.471 61.7879L126.449 53.4536L148.91 66.9255L148.933 75.2598L148.933 75.2598Z"   fill="#5D3F22" ></path><path d="M162.919 50.2795L162.941 58.5682L155.926 62.7239L155.903 54.4353L162.919 50.2795L162.919 50.2795Z"   fill="#463A2F" ></path><path d="M155.903 54.4369L133.442 40.9651L140.457 36.8093L162.919 50.2812L155.903 54.4369L155.903 54.4369Z"   fill="#4E4035" ></path><path d="M155.926 62.7251L133.464 49.2761L133.442 40.9646L155.903 54.4365L155.926 62.7251L155.926 62.7251Z"   fill="#312821" ></path><path d="M127.909 96.1082L105.448 82.6363L112.463 78.4578L134.924 91.9296L127.909 96.1082L127.909 96.1082Z"   fill="#4E4035" ></path><path d="M134.925 91.9285L134.947 100.24L127.932 104.418L127.909 96.107L134.925 91.9285L134.925 91.9285Z"   fill="#463A2F" ></path><path d="M127.931 104.418L105.47 90.9462L105.448 82.6348L127.909 96.1066L127.931 104.418L127.931 104.418Z"   fill="#312821" ></path><path d="M134.902 83.5941L112.441 70.1451L119.456 65.9666L141.917 79.4156L134.902 83.5941L134.902 83.5941Z"   fill="#956636" ></path><path d="M134.924 91.9296L112.463 78.4577L112.441 70.1462L134.902 83.5953L134.924 91.9296L134.924 91.9296Z"   fill="#5D3F22" ></path><path d="M141.917 79.4141L141.94 87.7484L134.924 91.9269L134.902 83.5926L141.917 79.4141L141.917 79.4141Z"   fill="#865B30" ></path><path d="M141.895 71.104L119.434 57.6322L126.449 53.4536L148.91 66.9255L141.895 71.104L141.895 71.104Z"   fill="#956636" ></path><path d="M141.917 79.4154L119.456 65.9664L119.434 57.6321L141.895 71.1039L141.917 79.4154L141.917 79.4154Z"   fill="#5D3F22" ></path><path d="M148.91 66.926L148.933 75.2603L141.917 79.416L141.895 71.1046L148.91 66.926L148.91 66.926Z"   fill="#865B30" ></path><path d="M148.888 58.615L126.427 45.166L133.442 40.9646L155.903 54.4365L148.888 58.615L148.888 58.615Z"   fill="#956636" ></path><path d="M148.91 66.9258L126.449 53.4539L126.427 45.1653L148.888 58.6143L148.91 66.9258L148.91 66.9258Z"   fill="#5D3F22" ></path><path d="M155.903 54.437L155.926 62.7256L148.91 66.927L148.888 58.6156L155.903 54.437L155.903 54.437Z"   fill="#865B30" ></path><path d="M155.881 46.1L133.42 32.651L140.435 28.4724L162.874 41.9443L155.881 46.1L155.881 46.1Z"   fill="#4E4035" ></path><path d="M162.874 41.9448L162.919 50.2791L155.903 54.4348L155.881 46.1006L162.874 41.9448L162.874 41.9448Z"   fill="#463A2F" ></path><path d="M155.903 54.4359L133.442 40.964L133.42 32.6526L155.881 46.1016L155.903 54.4359L155.903 54.4359Z"   fill="#312821" ></path><path d="M127.887 87.7738L105.426 74.3248L112.441 70.1462L134.902 83.5953L127.887 87.7738L127.887 87.7738Z"   fill="#956636" ></path><path d="M127.909 96.1058L105.448 82.634L105.426 74.3225L127.887 87.7715L127.909 96.1058L127.909 96.1058Z"   fill="#5D3F22" ></path><path d="M134.902 83.594L134.925 91.9283L127.909 96.1068L127.887 87.7726L134.902 83.594L134.902 83.594Z"   fill="#865B30" ></path><path d="M134.88 75.2825L112.419 61.8106L119.434 57.6321L141.895 71.1039L134.88 75.2825L134.88 75.2825Z"   fill="#956636" ></path><path d="M141.895 71.1028L141.917 79.4142L134.902 83.5928L134.88 75.2813L141.895 71.1028L141.895 71.1028Z"   fill="#865B30" ></path><path d="M134.902 83.5953L112.441 70.1463L112.419 61.812L134.88 75.2839L134.902 83.5953L134.902 83.5953Z"   fill="#5D3F22" ></path><path d="M141.895 71.1031L119.434 57.6313L119.412 49.3198L141.873 62.7917L141.895 71.1031L141.895 71.1031Z"   fill="#5D3F22" ></path><path d="M148.888 58.613L148.91 66.9245L141.895 71.1031L141.873 62.7916L148.888 58.613L148.888 58.613Z"   fill="#865B30" ></path><path d="M141.873 62.7929L119.412 49.321L126.427 45.1653L148.888 58.6143L141.873 62.7929L141.873 62.7929Z"   fill="#956636" ></path><path d="M148.888 58.6136L126.427 45.1646L126.405 36.8303L148.866 50.3022L148.888 58.6136L148.888 58.6136Z"   fill="#5D3F22" ></path><path d="M155.881 46.1003L155.903 54.4346L148.888 58.6132L148.866 50.3017L155.881 46.1003L155.881 46.1003Z"   fill="#865B30" ></path><path d="M148.866 50.303L126.405 36.8312L133.42 32.6526L155.881 46.1016L148.866 50.303L148.866 50.303Z"   fill="#956636" ></path><path d="M127.865 79.4396L105.404 65.9906L112.419 61.812L134.88 75.2839L127.865 79.4396L127.865 79.4396Z"   fill="#956636" ></path><path d="M127.887 87.7711L105.426 74.3221L105.404 65.9878L127.865 79.4368L127.887 87.7711L127.887 87.7711Z"   fill="#5D3F22" ></path><path d="M134.88 75.2839L134.902 83.5954L127.887 87.7739L127.865 79.4397L134.88 75.2839L134.88 75.2839Z"   fill="#865B30" ></path><path d="M134.88 75.2817L112.419 61.8099L112.396 53.5212L134.858 66.9703L134.88 75.2817L134.88 75.2817Z"   fill="#5D3F22" ></path><path d="M134.858 66.9702L112.396 53.5212L119.412 49.3198L141.873 62.7917L134.858 66.9702L134.858 66.9702Z"   fill="#956636" ></path><path d="M141.873 62.7927L141.895 71.1042L134.88 75.2827L134.858 66.9713L141.873 62.7927L141.873 62.7927Z"   fill="#865B30" ></path><path d="M141.873 62.7938L119.412 49.3219L119.389 41.0105L141.851 54.4595L141.873 62.7938L141.873 62.7938Z"   fill="#5D3F22" ></path><path d="M148.866 50.3015L148.888 58.613L141.873 62.7915L141.851 54.4572L148.866 50.3015L148.866 50.3015Z"   fill="#865B30" ></path><path d="M141.851 54.4579L119.389 41.0089L126.405 36.8303L148.866 50.3022L141.851 54.4579L141.851 54.4579Z"   fill="#956636" ></path><path d="M148.844 41.9678L126.383 28.5188L133.398 24.3174L155.859 37.7892L148.844 41.9678L148.844 41.9678Z"   fill="#A27346" ></path><path d="M155.859 37.7903L155.881 46.1017L148.866 50.3031L148.844 41.9688L155.859 37.7903L155.859 37.7903Z"   fill="#93673E" ></path><path d="M148.866 50.3019L126.405 36.83L126.383 28.5186L148.844 41.9676L148.866 50.3019L148.866 50.3019Z"   fill="#65472B" ></path><path d="M141.851 54.4583L141.873 62.7925L134.858 66.9711L134.836 58.6368L141.851 54.4583L141.851 54.4583Z"   fill="#865B30" ></path><path d="M134.858 66.9698L112.397 53.5208L112.374 45.1865L134.836 58.6355L134.858 66.9698L134.858 66.9698Z"   fill="#5D3F22" ></path><path d="M134.836 58.6381L112.374 45.1891L119.39 41.0105L141.851 54.4595L134.836 58.6381L134.836 58.6381Z"   fill="#956636" ></path><path d="M148.844 41.9702L148.866 50.3045L141.851 54.4602L141.829 46.1488L148.844 41.9702L148.844 41.9702Z"   fill="#93673E" ></path><path d="M141.851 54.459L119.39 41.0099L119.367 32.6985L141.829 46.1475L141.851 54.459L141.851 54.459Z"   fill="#65472B" ></path><path d="M141.829 46.1461L119.367 32.6971L126.382 28.5186L148.844 41.9676L141.829 46.1461L141.829 46.1461Z"   fill="#A27346" ></path><path d="M127.865 79.4392L127.887 87.7735L120.872 91.9521L120.85 83.6406L127.865 79.4392L127.865 79.4392Z"   fill="#93673E" ></path><path d="M120.85 83.6382L98.3884 70.1664L105.404 65.9878L127.865 79.4368L120.85 83.6382L120.85 83.6382Z"   fill="#A27346" ></path><path d="M120.872 91.9505L98.4105 78.5015L98.3884 70.1672L120.85 83.6391L120.872 91.9505L120.872 91.9505Z"   fill="#65472B" ></path><path d="M134.858 66.9724L134.88 75.2839L127.865 79.4396L127.843 71.151L134.858 66.9724L134.858 66.9724Z"   fill="#93673E" ></path><path d="M127.865 79.437L105.403 65.988L105.381 57.6765L127.843 71.1484L127.865 79.437L127.865 79.437Z"   fill="#65472B" ></path><path d="M127.843 71.1488L105.381 57.677L112.396 53.5212L134.858 66.9703L127.843 71.1488L127.843 71.1488Z"   fill="#A27346" ></path><path d="M127.843 71.1489L127.865 79.4375L120.85 83.6389L120.828 75.3275L127.843 71.1489L127.843 71.1489Z"   fill="#93673E" ></path><path d="M120.85 83.6407L98.3885 70.1689L98.3664 61.8574L120.828 75.3293L120.85 83.6407L120.85 83.6407Z"   fill="#65472B" ></path><path d="M120.828 75.3269L98.3664 61.8551L105.381 57.6765L127.843 71.1484L120.828 75.3269L120.828 75.3269Z"   fill="#A27346" ></path><path d="M127.843 71.1493L105.381 57.6774L105.359 49.366L127.821 62.815L127.843 71.1493L127.843 71.1493Z"   fill="#5D3F22" ></path><path d="M134.836 58.6379L134.858 66.9722L127.843 71.1508L127.821 62.8165L134.836 58.6379L134.836 58.6379Z"   fill="#865B30" ></path><path d="M127.821 62.8141L105.359 49.3651L112.374 45.1865L134.836 58.6356L127.821 62.8141L127.821 62.8141Z"   fill="#956636" ></path><path d="M134.814 50.3261L112.352 36.877L119.367 32.6985L141.829 46.1475L134.814 50.3261L134.814 50.3261Z"   fill="#A27346" ></path><path d="M134.836 58.6352L112.374 45.1862L112.352 36.8748L134.814 50.3238L134.836 58.6352L134.836 58.6352Z"   fill="#65472B" ></path><path d="M141.829 46.1458L141.851 54.4572L134.836 58.6358L134.814 50.3243L141.829 46.1458L141.829 46.1458Z"   fill="#93673E" ></path><path d="M113.879 104.44L91.4397 90.9914L91.4176 82.6799L113.857 96.129L113.879 104.44L113.879 104.44Z"   fill="#5D3F22" ></path><path d="M113.857 96.13L91.4176 82.681L98.4106 78.5024L120.872 91.9515L113.857 96.13L113.857 96.13Z"   fill="#956636" ></path><path d="M120.872 91.9504L120.894 100.262L113.879 104.44L113.857 96.129L120.872 91.9504L120.872 91.9504Z"   fill="#865B30" ></path><path d="M127.821 62.8153L105.359 49.3663L105.337 41.032L127.799 54.5038L127.821 62.8153L127.821 62.8153Z"   fill="#65472B" ></path><path d="M127.799 54.5023L105.337 41.0305L112.352 36.8748L134.814 50.3238L127.799 54.5023L127.799 54.5023Z"   fill="#A27346" ></path><path d="M134.814 50.3254L134.836 58.6369L127.821 62.8155L127.799 54.504L134.814 50.3254L134.814 50.3254Z"   fill="#93673E" ></path><path d="M113.879 104.441L113.901 112.753L106.908 116.931L106.886 108.62L113.879 104.441L113.879 104.441Z"   fill="#865B30" ></path><path d="M106.908 116.93L84.4468 103.481L84.4246 95.1697L106.886 108.619L106.908 116.93L106.908 116.93Z"   fill="#5D3F22" ></path><path d="M106.886 108.621L84.4246 95.1725L91.4397 90.9939L113.879 104.443L106.886 108.621L106.886 108.621Z"   fill="#956636" ></path><path d="M106.886 108.619L84.4247 95.1695L84.4026 86.8352L106.864 100.307L106.886 108.619L106.886 108.619Z"   fill="#5D3F22" ></path><path d="M106.864 100.308L84.4026 86.8357L91.4177 82.6799L113.857 96.129L106.864 100.308L106.864 100.308Z"   fill="#956636" ></path><path d="M113.857 96.1294L113.879 104.441L106.886 108.619L106.864 100.308L113.857 96.1294L113.857 96.1294Z"   fill="#865B30" ></path><path d="M113.835 87.7948L91.3955 74.3458L98.3885 70.1672L120.85 83.6391L113.835 87.7948L113.835 87.7948Z"   fill="#956636" ></path><path d="M113.857 96.1305L91.4176 82.6815L91.3955 74.3472L113.835 87.7962L113.857 96.1305L113.857 96.1305Z"   fill="#5D3F22" ></path><path d="M120.85 83.6406L120.872 91.9521L113.857 96.1306L113.835 87.7964L120.85 83.6406L120.85 83.6406Z"   fill="#865B30" ></path><path d="M113.835 87.7947L91.3955 74.3456L91.3512 66.0342L113.813 79.506L113.835 87.7947L113.835 87.7947Z"   fill="#5D3F22" ></path><path d="M120.828 75.3284L120.85 83.6398L113.835 87.7955L113.813 79.5069L120.828 75.3284L120.828 75.3284Z"   fill="#865B30" ></path><path d="M113.813 79.5078L91.3512 66.036L98.3663 61.8574L120.828 75.3293L113.813 79.5078L113.813 79.5078Z"   fill="#956636" ></path><path d="M120.828 75.329L98.3663 61.8571L98.3441 53.5457L120.806 66.9947L120.828 75.329L120.828 75.329Z"   fill="#5D3F22" ></path><path d="M127.821 62.8142L127.843 71.1485L120.828 75.3271L120.806 66.9928L127.821 62.8142L127.821 62.8142Z"   fill="#865B30" ></path><path d="M120.806 66.9936L98.3441 53.5445L105.359 49.366L127.821 62.815L120.806 66.9936L120.806 66.9936Z"   fill="#956636" ></path><path d="M120.784 58.6824L98.3221 45.2105L105.337 41.032L127.799 54.5038L120.784 58.6824L120.784 58.6824Z"   fill="#A27346" ></path><path d="M120.806 66.995L98.3443 53.546L98.3221 45.2117L120.784 58.6835L120.806 66.995L120.806 66.995Z"   fill="#65472B" ></path><path d="M127.799 54.5027L127.821 62.8141L120.806 66.9927L120.784 58.6812L127.799 54.5027L127.799 54.5027Z"   fill="#93673E" ></path><path d="M106.864 100.307L84.4024 86.8356L84.3803 78.5242L106.82 91.9732L106.864 100.307L106.864 100.307Z"   fill="#5D3F22" ></path><path d="M106.82 91.9748L84.3803 78.5257L91.3954 74.3472L113.835 87.7962L106.82 91.9748L106.82 91.9748Z"   fill="#956636" ></path><path d="M113.835 87.7949L113.857 96.1292L106.864 100.308L106.82 91.9735L113.835 87.7949L113.835 87.7949Z"   fill="#865B30" ></path><path d="M99.8934 121.11L77.4318 107.661L77.4097 99.3494L99.8713 112.798L99.8934 121.11L99.8934 121.11Z"   fill="#5D3F22" ></path><path d="M99.8713 112.797L77.4097 99.3482L84.4248 95.1697L106.886 108.619L99.8713 112.797L99.8713 112.797Z"   fill="#956636" ></path><path d="M106.886 108.621L106.908 116.933L99.8933 121.111L99.8712 112.8L106.886 108.621L106.886 108.621Z"   fill="#865B30" ></path><path d="M92.8782 125.29L70.4166 111.818L70.3945 103.506L92.8561 116.978L92.8782 125.29L92.8782 125.29Z"   fill="#5D3F22" ></path><path d="M92.8561 116.977L70.3945 103.505L77.4096 99.3494L99.8712 112.798L92.8561 116.977L92.8561 116.977Z"   fill="#956636" ></path><path d="M99.871 112.798L99.8932 121.109L92.8781 125.288L92.8559 116.976L99.871 112.798L99.871 112.798Z"   fill="#865B30" ></path><path d="M113.813 79.5071L91.3513 66.0352L91.3292 57.7009L113.791 71.1728L113.813 79.5071L113.813 79.5071Z"   fill="#5D3F22" ></path><path d="M113.791 71.1732L91.3292 57.7014L98.3443 53.5457L120.806 66.9947L113.791 71.1732L113.791 71.1732Z"   fill="#956636" ></path><path d="M120.806 66.9932L120.828 75.3275L113.813 79.506L113.791 71.1717L120.806 66.9932L120.806 66.9932Z"   fill="#865B30" ></path><path d="M113.791 71.1708L91.329 57.6989L91.3069 49.3875L113.769 62.8593L113.791 71.1708L113.791 71.1708Z"   fill="#65472B" ></path><path d="M113.769 62.8621L91.3069 49.3902L98.322 45.2117L120.784 58.6835L113.769 62.8621L113.769 62.8621Z"   fill="#A27346" ></path><path d="M120.784 58.6838L120.806 66.9953L113.791 71.1739L113.769 62.8624L120.784 58.6838L120.784 58.6838Z"   fill="#93673E" ></path><path d="M106.82 91.9746L84.3803 78.5256L84.3581 70.2141L106.82 83.686L106.82 91.9746L106.82 91.9746Z"   fill="#65472B" ></path><path d="M106.82 83.6846L84.3581 70.2127L91.3511 66.0342L113.813 79.506L106.82 83.6846L106.82 83.6846Z"   fill="#A27346" ></path><path d="M113.813 79.5068L113.835 87.7955L106.82 91.974L106.82 83.6854L113.813 79.5068L113.813 79.5068Z"   fill="#93673E" ></path><path d="M99.8711 112.799L77.4095 99.3497L77.3874 91.0154L99.8489 104.487L99.8711 112.799L99.8711 112.799Z"   fill="#5D3F22" ></path><path d="M99.8489 104.486L77.3874 91.0138L84.4025 86.8352L106.864 100.307L99.8489 104.486L99.8489 104.486Z"   fill="#956636" ></path><path d="M106.864 100.309L106.886 108.62L99.8711 112.799L99.8489 104.487L106.864 100.309L106.864 100.309Z"   fill="#865B30" ></path><path d="M106.82 83.6848L84.3583 70.213L84.3361 61.8787L106.798 75.3505L106.82 83.6848L106.82 83.6848Z"   fill="#5D3F22" ></path><path d="M106.798 75.3513L84.3361 61.8795L91.3291 57.7009L113.791 71.1728L106.798 75.3513L106.798 75.3513Z"   fill="#956636" ></path><path d="M113.791 71.1733L113.813 79.5076L106.82 83.6862L106.798 75.3519L113.791 71.1733L113.791 71.1733Z"   fill="#865B30" ></path><path d="M99.849 104.488L77.3874 91.0163L77.3652 82.7048L99.8268 96.1539L99.849 104.488L99.849 104.488Z"   fill="#5D3F22" ></path><path d="M99.8268 96.1518L77.3652 82.7027L84.3803 78.5242L106.82 91.9732L99.8268 96.1518L99.8268 96.1518Z"   fill="#956636" ></path><path d="M106.82 91.9751L106.864 100.309L99.8491 104.488L99.8269 96.1537L106.82 91.9751L106.82 91.9751Z"   fill="#865B30" ></path><path d="M106.798 75.35L84.3362 61.8781L84.314 53.5667L106.776 67.0385L106.798 75.35L106.798 75.35Z"   fill="#65472B" ></path><path d="M106.776 67.0379L84.314 53.566L91.307 49.3875L113.769 62.8593L106.776 67.0379L106.776 67.0379Z"   fill="#A27346" ></path><path d="M113.769 62.8604L113.791 71.1718L106.798 75.3504L106.776 67.0389L113.769 62.8604L113.769 62.8604Z"   fill="#93673E" ></path><path d="M99.8268 96.1535L77.3653 82.7045L77.3431 74.3931L99.8047 87.8649L99.8268 96.1535L99.8268 96.1535Z"   fill="#5D3F22" ></path><path d="M99.8047 87.8645L77.3431 74.3927L84.3582 70.2141L106.82 83.686L99.8047 87.8645L99.8047 87.8645Z"   fill="#956636" ></path><path d="M106.82 83.6863L106.82 91.9749L99.8268 96.1535L99.8047 87.8648L106.82 83.6863L106.82 83.6863Z"   fill="#865B30" ></path><path d="M92.856 116.978L70.3945 103.506L70.3723 95.1946L92.8339 108.666L92.856 116.978L92.856 116.978Z"   fill="#5D3F22" ></path><path d="M92.8339 108.666L70.3723 95.1939L77.3874 91.0154L99.849 104.487L92.8339 108.666L92.8339 108.666Z"   fill="#956636" ></path><path d="M99.849 104.488L99.8712 112.8L92.8561 116.978L92.8339 108.667L99.849 104.488L99.849 104.488Z"   fill="#865B30" ></path><path d="M92.8339 108.667L70.3723 95.1946L70.3502 86.8604L92.8117 100.332L92.8339 108.667L92.8339 108.667Z"   fill="#5D3F22" ></path><path d="M92.8117 100.332L70.3502 86.8606L77.3653 82.7048L99.8268 96.1539L92.8117 100.332L92.8117 100.332Z"   fill="#956636" ></path><path d="M99.8269 96.1514L99.849 104.486L92.8339 108.664L92.8118 100.33L99.8269 96.1514L99.8269 96.1514Z"   fill="#865B30" ></path><path d="M82.4994 189.564L60.0599 176.092L60.0378 167.781L82.4772 181.253L82.4994 189.564L82.4994 189.564Z"   fill="#1A1A1A" ></path><path d="M82.4772 181.255L60.0378 167.783L67.0308 163.604L89.4923 177.076L82.4772 181.255L82.4772 181.255Z"   fill="#2A2A2A" ></path><path d="M89.4924 177.077L89.5145 185.388L82.4994 189.567L82.4773 181.255L89.4924 177.077L89.4924 177.077Z"   fill="#252525" ></path><path d="M82.4771 181.255L60.0377 167.783L60.0155 159.471L82.455 172.943L82.4771 181.255L82.4771 181.255Z"   fill="#312821" ></path><path d="M82.455 172.942L60.0155 159.47L67.0085 155.291L89.4701 168.763L82.455 172.942L82.455 172.942Z"   fill="#4E4035" ></path><path d="M89.4702 168.764L89.4923 177.075L82.4772 181.254L82.4551 172.942L89.4702 168.764L89.4702 168.764Z"   fill="#463A2F" ></path><path d="M82.4552 172.942L60.0158 159.47L59.9936 151.365L82.4331 164.814L82.4552 172.942L82.4552 172.942Z"   fill="#312821" ></path><path d="M82.4329 164.814L59.9934 151.365L59.9713 151.159L82.4329 164.631L82.4329 164.814L82.4329 164.814Z"   fill="#312821" ></path><path d="M89.448 160.451L89.4702 168.763L82.4551 172.941L82.4329 164.813L82.4329 164.63L89.448 160.451L89.448 160.451Z"   fill="#463A2F" ></path><path d="M82.4329 164.63L59.9713 151.158L66.9864 146.979L89.448 160.451L82.4329 164.63L82.4329 164.63Z"   fill="#4E4035" ></path><path d="M82.4109 156.501L59.9493 143.052L66.9644 138.874L89.426 152.323L82.4109 156.501L82.4109 156.501Z"   fill="#4E4035" ></path><path d="M82.433 164.813L59.9936 151.364L59.9493 143.053L82.4109 156.502L82.433 164.813L82.433 164.813Z"   fill="#312821" ></path><path d="M89.426 152.325L89.4482 160.454L82.4331 164.632L82.4331 164.815L82.4109 156.504L89.426 152.325L89.426 152.325Z"   fill="#463A2F" ></path><path d="M82.4108 156.501L59.9492 143.052L59.927 134.718L82.3886 148.19L82.4108 156.501L82.4108 156.501Z"   fill="#312821" ></path><path d="M82.3886 148.189L59.927 134.717L66.9421 130.539L89.4037 144.01L82.3886 148.189L82.3886 148.189Z"   fill="#4E4035" ></path><path d="M89.4038 144.011L89.4259 152.323L82.4108 156.501L82.3887 148.19L89.4038 144.011L89.4038 144.011Z"   fill="#463A2F" ></path><path d="M82.3886 148.192L59.927 134.72L59.927 126.408L82.3665 139.88L82.3886 148.192L82.3886 148.192Z"   fill="#312821" ></path><path d="M82.3665 139.877L59.927 126.405L66.92 122.227L89.3816 135.699L82.3665 139.877L82.3665 139.877Z"   fill="#4E4035" ></path><path d="M89.3818 135.699L89.4039 144.011L82.3888 148.189L82.3667 139.878L89.3818 135.699L89.3818 135.699Z"   fill="#463A2F" ></path><path d="M82.3666 139.88L59.9272 126.408L59.9051 118.097L82.3445 131.569L82.3666 139.88L82.3666 139.88Z"   fill="#312821" ></path><path d="M82.3445 131.567L59.9051 118.095L66.898 113.917L89.3596 127.389L82.3445 131.567L82.3445 131.567Z"   fill="#4E4035" ></path><path d="M89.3595 127.39L89.3816 135.701L82.3665 139.88L82.3444 131.568L89.3595 127.39L89.3595 127.39Z"   fill="#463A2F" ></path><path d="M85.863 129.466L63.4015 115.995L63.3793 107.683L85.8409 121.155L85.863 129.466L85.863 129.466Z"   fill="#5D3F22" ></path><path d="M85.8409 121.157L63.3793 107.685L70.3944 103.506L92.856 116.978L85.8409 121.157L85.8409 121.157Z"   fill="#956636" ></path><path d="M92.8559 116.977L92.8781 125.288L85.863 129.467L85.8409 121.155L92.8559 116.977L92.8559 116.977Z"   fill="#865B30" ></path><path d="M85.8409 121.155L63.3793 107.683L63.3572 99.3716L85.8188 112.843L85.8409 121.155L85.8409 121.155Z"   fill="#5D3F22" ></path><path d="M85.8188 112.845L63.3572 99.3731L70.3723 95.1946L92.8339 108.666L85.8188 112.845L85.8188 112.845Z"   fill="#956636" ></path><path d="M92.834 108.664L92.8561 116.975L85.841 121.154L85.8189 112.842L92.834 108.664L92.834 108.664Z"   fill="#865B30" ></path><path d="M99.8047 87.8652L77.3432 74.3934L77.321 66.0591L99.7605 79.5309L99.8047 87.8652L99.8047 87.8652Z"   fill="#5D3F22" ></path><path d="M99.7605 79.5291L77.321 66.0572L84.3361 61.8787L106.798 75.3505L99.7605 79.5291L99.7605 79.5291Z"   fill="#956636" ></path><path d="M106.798 75.3501L106.82 83.6844L99.8047 87.8629L99.7604 79.5287L106.798 75.3501L106.798 75.3501Z"   fill="#865B30" ></path><path d="M99.7605 79.5301L77.321 66.0583L77.2989 57.7468L99.7605 71.2187L99.7605 79.5301L99.7605 79.5301Z"   fill="#65472B" ></path><path d="M99.7605 71.2171L77.2989 57.7452L84.314 53.5667L106.776 67.0385L99.7605 71.2171L99.7605 71.2171Z"   fill="#A27346" ></path><path d="M106.776 67.04L106.798 75.3515L99.7604 79.5301L99.7604 71.2186L106.776 67.04L106.776 67.04Z"   fill="#93673E" ></path><path d="M78.848 133.646L56.3864 120.174L56.3642 111.863L78.8258 125.334L78.848 133.646L78.848 133.646Z"   fill="#5D3F22" ></path><path d="M85.8411 121.155L85.8632 129.467L78.8481 133.645L78.826 125.334L85.8411 121.155L85.8411 121.155Z"   fill="#865B30" ></path><path d="M78.8258 125.334L56.3642 111.862L63.3793 107.683L85.8409 121.155L78.8258 125.334L78.8258 125.334Z"   fill="#956636" ></path><path d="M78.8257 125.334L56.3641 111.862L56.342 103.551L78.8036 117.023L78.8257 125.334L78.8257 125.334Z"   fill="#5D3F22" ></path><path d="M78.8036 117.022L56.342 103.55L63.3571 99.3716L85.8187 112.843L78.8036 117.022L78.8036 117.022Z"   fill="#956636" ></path><path d="M85.8188 112.843L85.841 121.154L78.8259 125.333L78.8037 117.022L85.8188 112.843L85.8188 112.843Z"   fill="#865B30" ></path><path d="M92.8117 100.333L92.8339 108.667L85.8188 112.845L85.7966 104.511L92.8117 100.333L92.8117 100.333Z"   fill="#865B30" ></path><path d="M85.8187 112.845L63.3571 99.373L63.335 91.0615L85.7966 104.511L85.8187 112.845L85.8187 112.845Z"   fill="#5D3F22" ></path><path d="M85.7966 104.511L63.335 91.0617L70.3501 86.8604L92.8117 100.332L85.7966 104.511L85.7966 104.511Z"   fill="#956636" ></path><path d="M92.8118 100.33L70.3503 86.8584L70.3281 78.5698L92.7897 92.0417L92.8118 100.33L92.8118 100.33Z"   fill="#5D3F22" ></path><path d="M99.8047 87.8625L99.8269 96.1512L92.8118 100.33L92.7896 92.0411L99.8047 87.8625L99.8047 87.8625Z"   fill="#865B30" ></path><path d="M92.7897 92.0435L70.3281 78.5716L77.3432 74.3931L99.8048 87.8649L92.7897 92.0435L92.7897 92.0435Z"   fill="#956636" ></path><path d="M85.7967 104.51L63.3351 91.0612L63.313 82.7498L85.7746 96.2216L85.7967 104.51L85.7967 104.51Z"   fill="#5D3F22" ></path><path d="M92.7895 92.0422L92.8117 100.331L85.7966 104.509L85.7744 96.2208L92.7895 92.0422L92.7895 92.0422Z"   fill="#865B30" ></path><path d="M85.7746 96.2202L63.313 82.7484L70.3281 78.5698L92.7897 92.0417L85.7746 96.2202L85.7746 96.2202Z"   fill="#956636" ></path><path d="M92.7897 92.0417L70.3281 78.5699L70.306 70.2356L92.7676 83.7075L92.7897 92.0417L92.7897 92.0417Z"   fill="#5D3F22" ></path><path d="M92.7676 83.7095L70.306 70.2376L77.3211 66.0591L99.7605 79.5309L92.7676 83.7095L92.7676 83.7095Z"   fill="#956636" ></path><path d="M99.7605 79.5315L99.8047 87.8658L92.7896 92.0443L92.7675 83.7101L99.7605 79.5315L99.7605 79.5315Z"   fill="#865B30" ></path><path d="M85.7745 96.2207L63.313 82.7488L63.2908 74.4146L85.7524 87.8864L85.7745 96.2207L85.7745 96.2207Z"   fill="#5D3F22" ></path><path d="M85.7524 87.886L63.2908 74.4142L70.3059 70.2356L92.7675 83.7075L85.7524 87.886L85.7524 87.886Z"   fill="#956636" ></path><path d="M92.7675 83.7078L92.7896 92.0421L85.7745 96.2206L85.7524 87.8863L92.7675 83.7078L92.7675 83.7078Z"   fill="#865B30" ></path><path d="M78.8036 117.021L56.342 103.549L56.3199 95.2378L78.7815 108.687L78.8036 117.021L78.8036 117.021Z"   fill="#65472B" ></path><path d="M78.7815 108.689L56.3199 95.2401L63.335 91.0615L85.7966 104.511L78.7815 108.689L78.7815 108.689Z"   fill="#A27346" ></path><path d="M85.7967 104.509L85.8188 112.844L78.8037 117.022L78.7816 108.688L85.7967 104.509L85.7967 104.509Z"   fill="#93673E" ></path><path d="M64.9948 200.001L42.5332 186.552L42.511 178.218L64.9726 191.689L64.9948 200.001L64.9948 200.001Z"   fill="#343434" ></path><path d="M64.9726 191.689L42.511 178.217L49.5261 174.038L71.9656 187.51L64.9726 191.689L64.9726 191.689Z"   fill="#545454" ></path><path d="M71.9656 187.509L71.9877 195.82L64.9948 199.999L64.9726 191.687L71.9656 187.509L71.9656 187.509Z"   fill="#4B4B4B" ></path><path d="M64.9727 191.689L42.5111 178.217L42.489 169.906L64.9285 183.377L64.9727 191.689L64.9727 191.689Z"   fill="#5D3F22" ></path><path d="M64.9285 183.376L42.489 169.905L49.5041 165.726L71.9436 179.198L64.9285 183.376L64.9285 183.376Z"   fill="#956636" ></path><path d="M71.9434 179.199L71.9656 187.51L64.9726 191.689L64.9283 183.377L71.9434 179.199L71.9434 179.199Z"   fill="#865B30" ></path><path d="M64.9283 183.377L42.4888 169.906L42.4667 161.8L64.9062 175.271L64.9283 183.377L64.9283 183.377Z"   fill="#5D3F22" ></path><path d="M64.9062 175.27L42.4667 161.798L42.4667 161.593L64.9062 175.065L64.9062 175.27L64.9062 175.27Z"   fill="#5D3F22" ></path><path d="M64.9062 175.067L42.4667 161.595L49.4818 157.417L71.9434 170.888L64.9062 175.067L64.9062 175.067Z"   fill="#956636" ></path><path d="M64.9062 175.27L42.4668 161.798L42.4446 153.487L64.9062 166.936L64.9062 175.27L64.9062 175.27Z"   fill="#5D3F22" ></path><path d="M71.8993 162.759L71.9436 170.887L64.9063 175.066L64.9063 175.271L64.9063 166.937L71.8993 162.759L71.8993 162.759Z"   fill="#865B30" ></path><path d="M71.9436 170.888L71.9436 179.199L64.9285 183.378L64.9063 175.272L64.9063 175.066L71.9436 170.888L71.9436 170.888Z"   fill="#865B30" ></path><path d="M64.9062 166.938L42.4446 153.489L49.4376 149.31L71.8992 162.759L64.9062 166.938L64.9062 166.938Z"   fill="#956636" ></path><path d="M64.9063 166.936L42.4447 153.487L42.4225 145.175L64.862 158.624L64.9063 166.936L64.9063 166.936Z"   fill="#5D3F22" ></path><path d="M64.862 158.626L42.4225 145.177L49.4155 140.998L71.8771 154.447L64.862 158.626L64.862 158.626Z"   fill="#956636" ></path><path d="M71.8771 154.446L71.8993 162.758L64.9063 166.936L64.862 158.625L71.8771 154.446L71.8771 154.446Z"   fill="#865B30" ></path><path d="M64.8621 158.627L42.4226 145.178L42.4005 136.844L64.8399 150.316L64.8621 158.627L64.8621 158.627Z"   fill="#5D3F22" ></path><path d="M64.8399 150.314L42.4005 136.843L49.4155 132.664L71.855 146.136L64.8399 150.314L64.8399 150.314Z"   fill="#956636" ></path><path d="M71.8549 146.136L71.8771 154.448L64.862 158.626L64.8398 150.315L71.8549 146.136L71.8549 146.136Z"   fill="#865B30" ></path><path d="M71.8329 137.826L49.3713 124.354L49.3492 116.042L71.8107 129.514L71.8329 137.826L71.8329 137.826Z"   fill="#5D3F22" ></path><path d="M71.8107 129.513L49.3492 116.041L56.3642 111.863L78.8258 125.334L71.8107 129.513L71.8107 129.513Z"   fill="#956636" ></path><path d="M78.8259 125.335L78.848 133.647L71.8329 137.825L71.8108 129.514L78.8259 125.335L78.8259 125.335Z"   fill="#865B30" ></path><path d="M64.8398 150.314L42.4004 136.842L42.3782 128.531L64.8177 142.002L64.8398 150.314L64.8398 150.314Z"   fill="#5D3F22" ></path><path d="M64.8177 142.003L42.3782 128.531L49.3712 124.352L71.8328 137.824L64.8177 142.003L64.8177 142.003Z"   fill="#956636" ></path><path d="M71.8328 137.825L71.855 146.136L64.8399 150.315L64.8177 142.003L71.8328 137.825L71.8328 137.825Z"   fill="#865B30" ></path><path d="M71.8108 129.513L49.3492 116.041L49.3271 107.729L71.7886 121.201L71.8108 129.513L71.8108 129.513Z"   fill="#5D3F22" ></path><path d="M71.7886 121.201L49.3271 107.729L56.3422 103.551L78.8037 117.023L71.7886 121.201L71.7886 121.201Z"   fill="#956636" ></path><path d="M78.8037 117.023L78.8259 125.335L71.8108 129.513L71.7886 121.202L78.8037 117.023L78.8037 117.023Z"   fill="#865B30" ></path><path d="M92.7675 83.7072L70.3059 70.2353L70.2838 62.312L92.7454 75.7839L92.7675 83.7072L92.7675 83.7072Z"   fill="#65472B" ></path><path d="M92.7454 75.7836L70.2838 62.3118L70.2838 61.9236L92.7454 75.3954L92.7454 75.7836L92.7454 75.7836Z"   fill="#65472B" ></path><path d="M92.7454 75.3972L70.2838 61.9254L77.2989 57.7468L99.7605 71.2187L92.7454 75.3972L92.7454 75.3972Z"   fill="#A27346" ></path><path d="M99.7605 71.2197L99.7605 79.5312L92.7676 83.7097L92.7454 75.7865L92.7454 75.3983L99.7605 71.2197L99.7605 71.2197Z"   fill="#93673E" ></path><path d="M85.7302 79.9624L63.2686 66.4906L70.2837 62.312L92.7453 75.7839L85.7302 79.9624L85.7302 79.9624Z"   fill="#956636" ></path><path d="M85.7524 87.8864L63.2908 74.4145L63.2686 66.4912L85.7302 79.9631L85.7524 87.8864L85.7524 87.8864Z"   fill="#5D3F22" ></path><path d="M85.7302 79.9648L63.2686 66.4929L63.2686 66.1047L85.7302 79.5766L85.7302 79.9648L85.7302 79.9648Z"   fill="#5D3F22" ></path><path d="M85.7302 79.9648L63.2686 66.4929L63.2686 66.1047L85.7302 79.5766L85.7302 79.9648L85.7302 79.9648Z"   fill="#312821" ></path><path d="M85.7303 79.5746L85.7303 79.9627L92.7454 75.7842L92.7675 83.7075L85.7524 87.886L85.7303 79.9627L85.7303 79.5746L85.7303 79.5746Z"   fill="#865B30" ></path><path d="M85.7304 79.577L63.2688 66.1052L63.2466 58.1819L85.7082 71.6537L85.7304 79.577L85.7304 79.577Z"   fill="#312821" ></path><path d="M85.7082 71.6529L63.2466 58.181L70.2617 54.0024L92.7233 67.4743L85.7082 71.6529L85.7082 71.6529Z"   fill="#4E4035" ></path><path d="M92.7232 67.4751L92.7453 75.3984L92.7453 75.7866L85.7302 79.9651L85.7302 79.5769L85.7081 71.6537L92.7232 67.4751L92.7232 67.4751Z"   fill="#463A2F" ></path><path d="M78.7815 108.688L56.3199 95.2392L56.2978 86.9277L78.7594 100.4L78.7815 108.688L78.7815 108.688Z"   fill="#5D3F22" ></path><path d="M78.7594 100.4L56.2978 86.9283L63.3129 82.7498L85.7745 96.2216L78.7594 100.4L78.7594 100.4Z"   fill="#956636" ></path><path d="M85.7745 96.2219L85.7967 104.511L78.7816 108.689L78.7594 100.4L85.7745 96.2219L85.7745 96.2219Z"   fill="#865B30" ></path><path d="M71.7665 112.865L49.305 99.3935L56.3201 95.2378L78.7816 108.687L71.7665 112.865L71.7665 112.865Z"   fill="#956636" ></path><path d="M78.7815 108.689L78.8036 117.023L71.7885 121.202L71.7664 112.868L78.7815 108.689L78.7815 108.689Z"   fill="#865B30" ></path><path d="M71.7887 121.202L49.3271 107.73L49.305 99.3958L71.7665 112.868L71.7887 121.202L71.7887 121.202Z"   fill="#5D3F22" ></path><path d="M78.7595 100.399L78.7817 108.687L71.7666 112.866L71.7444 104.577L78.7595 100.399L78.7595 100.399Z"   fill="#865B30" ></path><path d="M71.7444 104.578L49.2828 91.1063L56.2979 86.9277L78.7595 100.4L71.7444 104.578L71.7444 104.578Z"   fill="#956636" ></path><path d="M71.7665 112.867L49.305 99.3956L49.2828 91.1069L71.7444 104.579L71.7665 112.867L71.7665 112.867Z"   fill="#5D3F22" ></path><path d="M78.7594 100.401L56.2979 86.9288L56.2757 78.5945L78.7373 92.0663L78.7594 100.401L78.7594 100.401Z"   fill="#65472B" ></path><path d="M78.7373 92.065L56.2757 78.5931L63.2908 74.4146L85.7524 87.8864L78.7373 92.065L78.7373 92.065Z"   fill="#A27346" ></path><path d="M85.7524 87.8877L85.7746 96.222L78.7595 100.401L78.7374 92.0663L85.7524 87.8877L85.7524 87.8877Z"   fill="#93673E" ></path><path d="M64.8177 142.001L42.3783 128.529L42.3561 120.218L64.7956 133.69L64.8177 142.001L64.8177 142.001Z"   fill="#5D3F22" ></path><path d="M64.7956 133.693L42.3561 120.221L49.3491 116.042L71.8107 129.514L64.7956 133.693L64.7956 133.693Z"   fill="#956636" ></path><path d="M71.8107 129.512L71.8328 137.823L64.8177 142.002L64.7956 133.691L71.8107 129.512L71.8107 129.512Z"   fill="#865B30" ></path><path d="M64.7956 133.692L42.3561 120.22L42.334 111.909L64.7735 125.381L64.7956 133.692L64.7956 133.692Z"   fill="#5D3F22" ></path><path d="M64.7735 125.38L42.334 111.908L49.327 107.729L71.7886 121.201L64.7735 125.38L64.7735 125.38Z"   fill="#956636" ></path><path d="M71.7886 121.2L71.8107 129.512L64.7956 133.69L64.7735 125.379L71.7886 121.2L71.7886 121.2Z"   fill="#865B30" ></path><path d="M85.7082 71.6517L63.2466 58.1799L63.2245 49.8684L85.686 63.3403L85.7082 71.6517L85.7082 71.6517Z"   fill="#312821" ></path><path d="M85.686 63.3406L63.2245 49.8687L70.2396 45.6902L92.7011 59.162L85.686 63.3406L85.686 63.3406Z"   fill="#4E4035" ></path><path d="M92.7011 59.1626L92.7232 67.4741L85.7081 71.6526L85.686 63.3412L92.7011 59.1626L92.7011 59.1626Z"   fill="#463A2F" ></path><path d="M57.8026 137.869L35.341 124.397L35.3189 116.085L57.7584 129.557L57.8026 137.869L57.8026 137.869Z"   fill="#65472B" ></path><path d="M57.7584 129.559L35.3189 116.087L42.334 111.909L64.7735 125.381L57.7584 129.559L57.7584 129.559Z"   fill="#A27346" ></path><path d="M64.7734 125.381L64.7955 133.693L57.8026 137.871L57.7583 129.56L64.7734 125.381L64.7734 125.381Z"   fill="#93673E" ></path><path d="M64.7735 125.379L42.334 111.907L42.3119 103.573L64.7514 117.045L64.7735 125.379L64.7735 125.379Z"   fill="#5D3F22" ></path><path d="M71.7664 112.868L71.7885 121.202L64.7734 125.381L64.7513 117.046L71.7664 112.868L71.7664 112.868Z"   fill="#865B30" ></path><path d="M64.7514 117.046L42.3119 103.574L49.3049 99.3958L71.7665 112.868L64.7514 117.046L64.7514 117.046Z"   fill="#956636" ></path><path d="M78.7151 84.1416L56.2535 70.6698L63.2686 66.4912L85.7302 79.9631L78.7151 84.1416L78.7151 84.1416Z"   fill="#956636" ></path><path d="M78.7372 92.0653L56.2756 78.5935L56.2535 70.6702L78.7151 84.142L78.7372 92.0653L78.7372 92.0653Z"   fill="#5D3F22" ></path><path d="M57.7583 129.56L35.3189 116.088L35.2967 107.754L57.7362 121.226L57.7583 129.56L57.7583 129.56Z"   fill="#65472B" ></path><path d="M64.7513 117.044L64.7735 125.379L57.7584 129.557L57.7362 121.223L64.7513 117.044L64.7513 117.044Z"   fill="#93673E" ></path><path d="M57.7362 121.223L35.2967 107.751L42.3118 103.573L64.7513 117.045L57.7362 121.223L57.7362 121.223Z"   fill="#A27346" ></path><path d="M64.7292 108.757L42.2676 95.2855L49.2827 91.1069L71.7443 104.579L64.7292 108.757L64.7292 108.757Z"   fill="#956636" ></path><path d="M71.7444 104.58L71.7665 112.868L64.7514 117.047L64.7293 108.758L71.7444 104.58L71.7444 104.58Z"   fill="#865B30" ></path><path d="M64.7514 117.044L42.3119 103.572L42.2676 95.2837L64.7292 108.756L64.7514 117.044L64.7514 117.044Z"   fill="#5D3F22" ></path><path d="M71.7442 104.577L49.2826 91.1053L49.2605 82.771L71.7221 96.2429L71.7442 104.577L71.7442 104.577Z"   fill="#5D3F22" ></path><path d="M78.7373 92.0654L78.7594 100.4L71.7443 104.578L71.7222 96.244L78.7373 92.0654L78.7373 92.0654Z"   fill="#865B30" ></path><path d="M71.7221 96.2449L49.2605 82.773L56.2756 78.5945L78.7372 92.0663L71.7221 96.2449L71.7221 96.2449Z"   fill="#956636" ></path><path d="M78.7151 84.1413L56.2535 70.6694L56.2535 70.2812L78.7151 83.7531L78.7151 84.1413L78.7151 84.1413Z"   fill="#5D3F22" ></path><path d="M78.7152 83.7543L78.7152 84.1424L85.7303 79.9639L85.7524 87.8871L78.7373 92.0657L78.7152 84.1424L78.7152 83.7543L78.7152 83.7543Z"   fill="#865B30" ></path><path d="M78.7151 84.1413L56.2535 70.6694L56.2535 70.2812L78.7151 83.7531L78.7151 84.1413L78.7151 84.1413Z"   fill="#5D3F22" ></path><path d="M78.7151 84.1409L78.7373 92.0641L71.7222 96.2427L71.7 88.3194L78.7151 84.1409L78.7151 84.1409Z"   fill="#865B30" ></path><path d="M71.7 88.3206L49.2384 74.8487L56.2535 70.6702L78.7151 84.142L71.7 88.3206L71.7 88.3206Z"   fill="#956636" ></path><path d="M71.7221 96.2452L49.2605 82.7734L49.2384 74.8501L71.7 88.322L71.7221 96.2452L71.7221 96.2452Z"   fill="#5D3F22" ></path><path d="M78.6931 75.8323L56.2315 62.3604L63.2466 58.1819L85.7082 71.6537L78.6931 75.8323L78.6931 75.8323Z"   fill="#956636" ></path><path d="M78.7152 83.7528L56.2537 70.281L56.2315 62.3577L78.6931 75.8295L78.7152 83.7528L78.7152 83.7528Z"   fill="#5D3F22" ></path><path d="M85.708 71.6506L85.7302 79.5739L85.7302 79.9621L78.7151 84.1406L78.7151 83.7525L78.6929 75.8292L85.708 71.6506L85.708 71.6506Z"   fill="#865B30" ></path><path d="M71.7222 96.2432L71.7444 104.577L64.7293 108.756L64.7071 100.422L71.7222 96.2432L71.7222 96.2432Z"   fill="#865B30" ></path><path d="M64.7293 108.758L42.2677 95.2864L42.2455 86.9521L64.7071 100.424L64.7293 108.758L64.7293 108.758Z"   fill="#5D3F22" ></path><path d="M64.7071 100.421L42.2455 86.9496L49.2606 82.771L71.7222 96.2429L64.7071 100.421L64.7071 100.421Z"   fill="#956636" ></path><path d="M64.685 92.5005L42.2234 79.0287L49.2385 74.8501L71.7001 88.322L64.685 92.5005L64.685 92.5005Z"   fill="#956636" ></path><path d="M64.7072 100.421L42.2456 86.9492L42.2234 79.0259L64.685 92.4977L64.7072 100.421L64.7072 100.421Z"   fill="#5D3F22" ></path><path d="M71.6779 79.9853L49.2163 66.5362L56.2314 62.3577L78.693 75.8295L71.6779 79.9853L71.6779 79.9853Z"   fill="#956636" ></path><path d="M78.693 75.8306L78.7152 83.7538L78.7152 84.142L71.7001 88.3206L71.6779 79.9863L78.693 75.8306L78.693 75.8306Z"   fill="#865B30" ></path><path d="M71.7 88.3212L49.2384 74.8493L49.2163 66.5378L71.6779 79.9869L71.7 88.3212L71.7 88.3212Z"   fill="#5D3F22" ></path><path d="M85.686 63.3391L85.7081 71.6506L78.693 75.8291L78.6709 67.5177L85.686 63.3391L85.686 63.3391Z"   fill="#865B30" ></path><path d="M78.693 75.8319L56.2314 62.36L56.2093 54.0486L78.6709 67.5204L78.693 75.8319L78.693 75.8319Z"   fill="#5D3F22" ></path><path d="M78.6709 67.5188L56.2093 54.047L63.2244 49.8684L85.686 63.3403L78.6709 67.5188L78.6709 67.5188Z"   fill="#956636" ></path><path d="M85.6861 63.3395L63.2245 49.8676L63.2024 41.5562L85.6639 55.0052L85.6861 63.3395L85.6861 63.3395Z"   fill="#312821" ></path><path d="M85.6639 55.0082L63.2024 41.5592L70.2175 37.3806L92.679 50.8525L85.6639 55.0082L85.6639 55.0082Z"   fill="#4E4035" ></path><path d="M92.679 50.8494L92.7012 59.1608L85.6861 63.3394L85.6639 55.0051L92.679 50.8494L92.679 50.8494Z"   fill="#463A2F" ></path><path d="M64.685 92.5009L42.2234 79.029L42.2234 78.6409L64.685 92.1127L64.685 92.5009L64.685 92.5009Z"   fill="#5D3F22" ></path><path d="M64.6849 92.1122L64.6849 92.5003L71.7 88.3218L71.7221 96.2451L64.707 100.424L64.6849 92.5003L64.6849 92.1122L64.6849 92.1122Z"   fill="#865B30" ></path><path d="M64.685 92.5009L42.2234 79.029L42.2234 78.6409L64.685 92.1127L64.685 92.5009L64.685 92.5009Z"   fill="#5D3F22" ></path><path d="M64.6851 92.1112L42.2235 78.6394L42.2013 70.7161L64.6629 84.1651L64.6851 92.1112L64.6851 92.1112Z"   fill="#5D3F22" ></path><path d="M71.678 79.9854L71.7001 88.3196L64.685 92.4982L64.685 92.11L64.6629 84.1639L71.678 79.9854L71.678 79.9854Z"   fill="#865B30" ></path><path d="M64.6629 84.1654L42.2013 70.7164L49.2164 66.5378L71.678 79.9869L64.6629 84.1654L64.6629 84.1654Z"   fill="#956636" ></path><path d="M71.6558 71.699L49.1942 58.2271L56.2093 54.0486L78.6709 67.5204L71.6558 71.699L71.6558 71.699Z"   fill="#956636" ></path><path d="M71.6779 79.9846L49.2163 66.5356L49.1942 58.2241L71.6558 71.696L71.6779 79.9846L71.6779 79.9846Z"   fill="#5D3F22" ></path><path d="M78.671 67.5205L78.6932 75.832L71.6781 79.9877L71.6559 71.6991L78.671 67.5205L78.671 67.5205Z"   fill="#865B30" ></path><path d="M85.6639 55.0081L85.686 63.3423L78.6709 67.5209L78.6488 59.1866L85.6639 55.0081L85.6639 55.0081Z"   fill="#865B30" ></path><path d="M78.6708 67.5194L56.2093 54.0475L56.1871 45.7361L78.6487 59.1851L78.6708 67.5194L78.6708 67.5194Z"   fill="#5D3F22" ></path><path d="M78.6487 59.1837L56.1871 45.7347L63.2022 41.5562L85.6638 55.0052L78.6487 59.1837L78.6487 59.1837Z"   fill="#956636" ></path><path d="M92.6569 42.5161L92.679 50.8504L85.6639 55.0061L85.6418 46.6947L92.6569 42.5161L92.6569 42.5161Z"   fill="#463A2F" ></path><path d="M85.6417 46.6942L63.1801 33.2452L70.1952 29.0667L92.6568 42.5157L85.6417 46.6942L85.6417 46.6942Z"   fill="#4E4035" ></path><path d="M85.6638 55.0073L63.2023 41.5583L63.1801 33.2468L85.6417 46.6959L85.6638 55.0073L85.6638 55.0073Z"   fill="#312821" ></path><path d="M78.6488 59.1841L78.6709 67.5184L71.6558 71.6969L71.6337 63.3626L78.6488 59.1841L78.6488 59.1841Z"   fill="#865B30" ></path><path d="M71.6336 63.3637L49.172 49.9146L56.1871 45.7361L78.6487 59.1851L71.6336 63.3637L71.6336 63.3637Z"   fill="#956636" ></path><path d="M71.6557 71.6959L49.1941 58.224L49.172 49.9126L71.6336 63.3616L71.6557 71.6959L71.6557 71.6959Z"   fill="#5D3F22" ></path><path d="M85.6417 46.6953L85.6639 55.0068L78.6488 59.1853L78.6266 50.8739L85.6417 46.6953L85.6417 46.6953Z"   fill="#463A2F" ></path><path d="M78.6267 50.8744L56.1651 37.4254L63.1802 33.2468L85.6418 46.6959L78.6267 50.8744L78.6267 50.8744Z"   fill="#4E4035" ></path><path d="M78.6488 59.1838L56.1872 45.7348L56.1651 37.4233L78.6267 50.8724L78.6488 59.1838L78.6488 59.1838Z"   fill="#312821" ></path><path d="M78.6267 50.8746L56.1651 37.4256L56.143 29.0913L78.6046 42.5632L78.6267 50.8746L78.6267 50.8746Z"   fill="#312821" ></path><path d="M85.6196 38.3826L85.6418 46.694L78.6267 50.8726L78.6045 42.5611L85.6196 38.3826L85.6196 38.3826Z"   fill="#463A2F" ></path><path d="M78.6046 42.5613L56.143 29.0895L63.1581 24.9109L85.6197 38.3828L78.6046 42.5613L78.6046 42.5613Z"   fill="#4E4035" ></path><path d="M57.7363 121.224L35.2968 107.752L35.2747 99.4634L57.7141 112.935L57.7363 121.224L57.7363 121.224Z"   fill="#65472B" ></path><path d="M57.7141 112.934L35.2747 99.4622L42.2677 95.2837L64.7292 108.756L57.7141 112.934L57.7141 112.934Z"   fill="#A27346" ></path><path d="M64.7292 108.757L64.7513 117.045L57.7362 121.224L57.7141 112.935L64.7292 108.757L64.7292 108.757Z"   fill="#93673E" ></path><path d="M57.7141 112.935L35.2746 99.4634L35.2525 91.1292L57.692 104.601L57.7141 112.935L57.7141 112.935Z"   fill="#65472B" ></path><path d="M57.692 104.603L35.2525 91.1307L42.2455 86.9521L64.7071 100.424L57.692 104.603L57.692 104.603Z"   fill="#A27346" ></path><path d="M64.7071 100.423L64.7292 108.757L57.7141 112.935L57.692 104.601L64.7071 100.423L64.7071 100.423Z"   fill="#93673E" ></path><path d="M57.6699 96.6763L35.2083 83.2044L42.2234 79.0259L64.685 92.4977L57.6699 96.6763L57.6699 96.6763Z"   fill="#A27346" ></path><path d="M57.6699 96.6764L35.2083 83.2046L35.2083 82.8164L57.6699 96.2883L57.6699 96.6764L57.6699 96.6764Z"   fill="#65472B" ></path><path d="M57.692 104.6L35.2526 91.1279L35.2083 82.8164L57.6699 96.2883L57.692 104.6L57.692 104.6Z"   fill="#65472B" ></path><path d="M64.6629 84.165L64.6851 92.1112L64.6851 92.4993L57.67 96.6779L57.67 96.2897L57.6478 88.3436L64.6629 84.165L64.6629 84.165Z"   fill="#93673E" ></path><path d="M57.6698 96.2889L57.6698 96.6771L64.6849 92.4985L64.7071 100.422L57.692 104.6L57.6698 96.2889L57.6698 96.2889Z" fill-rule="evenodd"  fill="#93673E" ></path><path d="M57.6698 96.2907L35.2083 82.8188L35.1861 74.8955L57.6477 88.3445L57.6698 96.2907L57.6698 96.2907Z"   fill="#65472B" ></path><path d="M57.6477 88.3437L35.1861 74.8946L42.2012 70.7161L64.6628 84.1651L57.6477 88.3437L57.6477 88.3437Z"   fill="#A27346" ></path><path d="M64.6627 84.1643L42.2011 70.7153L42.179 62.4038L64.6406 75.8528L64.6627 84.1643L64.6627 84.1643Z"   fill="#5D3F22" ></path><path d="M64.6406 75.8517L42.179 62.4027L49.1941 58.2241L71.6557 71.696L64.6406 75.8517L64.6406 75.8517Z"   fill="#956636" ></path><path d="M71.6559 71.6973L71.678 79.9859L64.6629 84.1644L64.6408 75.853L71.6559 71.6973L71.6559 71.6973Z"   fill="#865B30" ></path><path d="M64.6408 75.855L42.1792 62.4059L42.1571 54.0945L64.6187 67.5435L64.6408 75.855L64.6408 75.855Z"   fill="#5D3F22" ></path><path d="M64.6187 67.5402L42.1571 54.0912L49.1722 49.9126L71.6338 63.3616L64.6187 67.5402L64.6187 67.5402Z"   fill="#956636" ></path><path d="M71.6338 63.363L71.6559 71.6973L64.6408 75.8531L64.6187 67.5416L71.6338 63.363L71.6338 63.363Z"   fill="#865B30" ></path><path d="M71.6116 55.0509L49.15 41.5791L56.1651 37.4233L78.6267 50.8724L71.6116 55.0509L71.6116 55.0509Z"   fill="#956636" ></path><path d="M71.6337 63.3649L49.1722 49.9158L49.15 41.5815L71.6116 55.0534L71.6337 63.3649L71.6337 63.3649Z"   fill="#5D3F22" ></path><path d="M78.6266 50.8745L78.6488 59.186L71.6337 63.3645L71.6115 55.0531L78.6266 50.8745L78.6266 50.8745Z"   fill="#865B30" ></path><path d="M71.5894 46.7417L49.1278 33.2699L56.1429 29.0913L78.6045 42.5632L71.5894 46.7417L71.5894 46.7417Z"   fill="#956636" ></path><path d="M71.6115 55.0519L49.15 41.58L49.1278 33.2686L71.5894 46.7404L71.6115 55.0519L71.6115 55.0519Z"   fill="#5D3F22" ></path><path d="M78.6045 42.562L78.6266 50.8735L71.6115 55.052L71.5894 46.7406L78.6045 42.562L78.6045 42.562Z"   fill="#865B30" ></path><path d="M85.5975 30.0486L85.6196 38.3829L78.6045 42.5614L78.5824 34.2271L85.5975 30.0486L85.5975 30.0486Z"   fill="#463A2F" ></path><path d="M78.6045 42.5631L56.143 29.0912L56.1208 20.7798L78.5824 34.2288L78.6045 42.5631L78.6045 42.5631Z"   fill="#312821" ></path><path d="M78.5824 34.2284L56.1208 20.7794L63.1359 16.6008L85.5975 30.0499L78.5824 34.2284L78.5824 34.2284Z"   fill="#4E4035" ></path><path d="M71.5893 46.7396L49.1278 33.2677L49.1056 24.9563L71.5672 38.4053L71.5893 46.7396L71.5893 46.7396Z"   fill="#312821" ></path><path d="M71.5672 38.4074L49.1056 24.9583L56.1207 20.7798L78.5823 34.2288L71.5672 38.4074L71.5672 38.4074Z"   fill="#4E4035" ></path><path d="M78.5824 34.2278L78.6045 42.5621L71.5894 46.7406L71.5673 38.4063L78.5824 34.2278L78.5824 34.2278Z"   fill="#463A2F" ></path><path d="M71.5673 38.4077L49.1057 24.9587L49.0836 16.6472L71.5452 30.1191L71.5673 38.4077L71.5673 38.4077Z"   fill="#312821" ></path><path d="M71.5452 30.1177L49.0836 16.6458L56.0987 12.4673L78.5603 25.9391L71.5452 30.1177L71.5452 30.1177Z"   fill="#4E4035" ></path><path d="M78.5602 25.9377L78.5824 34.2264L71.5673 38.4049L71.5451 30.1163L78.5602 25.9377L78.5602 25.9377Z"   fill="#463A2F" ></path><path d="M57.6478 88.344L35.1862 74.895L35.164 66.5835L57.6256 80.0325L57.6478 88.344L57.6478 88.344Z"   fill="#5D3F22" ></path><path d="M57.6256 80.0314L35.164 66.5824L42.1791 62.4038L64.6407 75.8528L57.6256 80.0314L57.6256 80.0314Z"   fill="#956636" ></path><path d="M64.6407 75.8518L64.6628 84.1633L57.6477 88.3418L57.6256 80.0304L64.6407 75.8518L64.6407 75.8518Z"   fill="#865B30" ></path><path d="M57.6036 71.7221L35.142 58.273L42.1571 54.0945L64.6187 67.5435L57.6036 71.7221L57.6036 71.7221Z"   fill="#956636" ></path><path d="M57.6257 80.031L35.1641 66.582L35.142 58.2705L57.6036 71.7195L57.6257 80.031L57.6257 80.031Z"   fill="#5D3F22" ></path><path d="M64.6185 67.5422L64.6407 75.8537L57.6256 80.0322L57.6034 71.7208L64.6185 67.5422L64.6185 67.5422Z"   fill="#865B30" ></path><path d="M64.6186 67.5414L42.157 54.0923L42.1348 45.7581L64.5964 59.2299L64.6186 67.5414L64.6186 67.5414Z"   fill="#5D3F22" ></path><path d="M71.6115 55.0503L71.6337 63.3617L64.6186 67.5403L64.5965 59.2289L71.6115 55.0503L71.6115 55.0503Z"   fill="#865B30" ></path><path d="M64.5964 59.232L42.1348 45.7601L49.1499 41.5815L71.6115 55.0534L64.5964 59.232L64.5964 59.232Z"   fill="#956636" ></path><path d="M64.5964 59.2313L42.1348 45.7594L42.1127 37.448L64.5743 50.9199L64.5964 59.2313L64.5964 59.2313Z"   fill="#5D3F22" ></path><path d="M64.5743 50.919L42.1127 37.4471L49.1278 33.2686L71.5894 46.7404L64.5743 50.919L64.5743 50.919Z"   fill="#956636" ></path><path d="M71.5895 46.739L71.6117 55.0505L64.5966 59.229L64.5744 50.9176L71.5895 46.739L71.5895 46.739Z"   fill="#865B30" ></path><path d="M50.6326 84.2125L28.171 70.7635L28.1489 62.4292L50.6105 75.9011L50.6326 84.2125L50.6326 84.2125Z"   fill="#5D3F22" ></path><path d="M50.6105 75.8981L28.1489 62.4262L35.1418 58.2705L57.6034 71.7195L50.6105 75.8981L50.6105 75.8981Z"   fill="#956636" ></path><path d="M57.6035 71.7219L57.6256 80.0334L50.6327 84.2119L50.6105 75.9005L57.6035 71.7219L57.6035 71.7219Z"   fill="#865B30" ></path><path d="M57.6035 71.7208L35.1419 58.2718L35.1198 49.9375L57.5814 63.4094L57.6035 71.7208L57.6035 71.7208Z"   fill="#5D3F22" ></path><path d="M64.5965 59.2297L64.6187 67.5412L57.6035 71.7197L57.5814 63.4083L64.5965 59.2297L64.5965 59.2297Z"   fill="#865B30" ></path><path d="M57.5814 63.4085L35.1198 49.9366L42.1349 45.7581L64.5965 59.2299L57.5814 63.4085L57.5814 63.4085Z"   fill="#956636" ></path><path d="M50.6104 75.8984L50.6325 84.2099L43.6175 88.3885L43.5953 80.077L50.6104 75.8984L50.6104 75.8984Z"   fill="#865B30" ></path><path d="M43.6176 88.388L21.156 74.939L21.1339 66.6047L43.5955 80.0766L43.6176 88.388L43.6176 88.388Z"   fill="#5D3F22" ></path><path d="M43.5955 80.0796L21.1339 66.6078L28.149 62.4292L50.6106 75.9011L43.5955 80.0796L43.5955 80.0796Z"   fill="#956636" ></path><path d="M50.6105 75.8988L28.1489 62.4269L28.1268 54.1155L50.5663 67.5873L50.6105 75.8988L50.6105 75.8988Z"   fill="#5D3F22" ></path><path d="M57.5814 63.4102L57.6035 71.7216L50.6106 75.9002L50.5663 67.5887L57.5814 63.4102L57.5814 63.4102Z"   fill="#865B30" ></path><path d="M50.5663 67.5879L28.1268 54.1161L35.1198 49.9375L57.5814 63.4094L50.5663 67.5879L50.5663 67.5879Z"   fill="#956636" ></path><path d="M64.5744 50.9199L64.5965 59.2314L57.5814 63.4099L57.5593 55.0985L64.5744 50.9199L64.5744 50.9199Z"   fill="#865B30" ></path><path d="M57.5813 63.4115L35.1197 49.9396L35.0976 41.6282L57.5592 55.1L57.5813 63.4115L57.5813 63.4115Z"   fill="#5D3F22" ></path><path d="M57.5592 55.0984L35.0976 41.6266L42.1127 37.448L64.5743 50.9199L57.5592 55.0984L57.5592 55.0984Z"   fill="#956636" ></path><path d="M64.5742 50.9193L42.1126 37.4474L42.0905 29.136L64.5521 42.585L64.5742 50.9193L64.5742 50.9193Z"   fill="#5D3F22" ></path><path d="M71.5673 38.4077L71.5894 46.742L64.5743 50.9206L64.5522 42.5863L71.5673 38.4077L71.5673 38.4077Z"   fill="#865B30" ></path><path d="M64.5521 42.5839L42.0905 29.1349L49.1056 24.9563L71.5672 38.4053L64.5521 42.5839L64.5521 42.5839Z"   fill="#956636" ></path><path d="M43.5954 80.079L21.1339 66.6071L21.1117 58.2957L43.5733 71.7675L43.5954 80.079L43.5954 80.079Z"   fill="#5D3F22" ></path><path d="M43.5733 71.7659L21.1117 58.294L28.1268 54.1155L50.5663 67.5873L43.5733 71.7659L43.5733 71.7659Z"   fill="#956636" ></path><path d="M50.5664 67.5867L50.6106 75.8981L43.5955 80.0767L43.5734 71.7652L50.5664 67.5867L50.5664 67.5867Z"   fill="#865B30" ></path><path d="M57.5592 55.0967L57.5813 63.4081L50.5662 67.5867L50.5441 59.2752L57.5592 55.0967L57.5592 55.0967Z"   fill="#865B30" ></path><path d="M50.5662 67.5868L28.1268 54.1149L28.1047 45.8035L50.5441 59.2753L50.5662 67.5868L50.5662 67.5868Z"   fill="#5D3F22" ></path><path d="M50.5441 59.2786L28.1047 45.8067L35.0976 41.6282L57.5592 55.1L50.5441 59.2786L50.5441 59.2786Z"   fill="#956636" ></path><path d="M57.5372 46.7636L35.0756 33.3145L42.0907 29.136L64.5523 42.585L57.5372 46.7636L57.5372 46.7636Z"   fill="#956636" ></path><path d="M64.5522 42.5837L64.5744 50.918L57.5593 55.0966L57.5371 46.7623L64.5522 42.5837L64.5522 42.5837Z"   fill="#865B30" ></path><path d="M57.5593 55.0975L35.0977 41.6257L35.0756 33.3142L57.5372 46.7632L57.5593 55.0975L57.5593 55.0975Z"   fill="#5D3F22" ></path><path d="M64.5522 42.583L42.0906 29.134L42.0685 20.8225L64.5301 34.2944L64.5522 42.583L64.5522 42.583Z"   fill="#5D3F22" ></path><path d="M64.5301 34.2976L42.0685 20.8258L49.0836 16.6472L71.5452 30.1191L64.5301 34.2976L64.5301 34.2976Z"   fill="#956636" ></path><path d="M71.5451 30.1184L71.5672 38.407L64.5521 42.5856L64.53 34.297L71.5451 30.1184L71.5451 30.1184Z"   fill="#865B30" ></path><path d="M50.522 50.9418L28.0605 37.4699L35.0756 33.3142L57.5371 46.7632L50.522 50.9418L50.522 50.9418Z"   fill="#2A2A2A" ></path><path d="M50.5442 59.2756L28.1047 45.8038L28.0605 37.4695L50.522 50.9413L50.5442 59.2756L50.5442 59.2756Z"   fill="#1A1A1A" ></path><path d="M57.537 46.7639L57.5591 55.0982L50.544 59.2768L50.5219 50.9425L57.537 46.7639L57.537 46.7639Z"   fill="#252525" ></path><path d="M57.5149 38.4729L35.0534 25.0011L42.0685 20.8225L64.53 34.2944L57.5149 38.4729L57.5149 38.4729Z"   fill="#956636" ></path><path d="M64.5301 34.2957L64.5522 42.5843L57.5371 46.7628L57.515 38.4742L64.5301 34.2957L64.5301 34.2957Z"   fill="#865B30" ></path><path d="M57.5371 46.7627L35.0755 33.3137L35.0534 25.0022L57.5149 38.4741L57.5371 46.7627L57.5371 46.7627Z"   fill="#5D3F22" ></path><path d="M64.5079 25.9605L42.0463 12.4886L49.0614 8.31006L71.523 21.7819L64.5079 25.9605L64.5079 25.9605Z"   fill="#956636" ></path><path d="M64.53 34.2971L42.0684 20.8253L42.0463 12.491L64.5079 25.9628L64.53 34.2971L64.53 34.2971Z"   fill="#5D3F22" ></path><path d="M71.523 21.7825L71.5451 30.1168L64.53 34.2953L64.5079 25.961L71.523 21.7825L71.523 21.7825Z"   fill="#865B30" ></path><path d="M57.4928 30.1414L35.0312 16.6695L42.0463 12.491L64.5079 25.9628L57.4928 30.1414L57.4928 30.1414Z"   fill="#4E4035" ></path><path d="M64.508 25.9619L64.5302 34.2962L57.5151 38.4748L57.493 30.1405L64.508 25.9619L64.508 25.9619Z"   fill="#463A2F" ></path><path d="M57.515 38.4739L35.0534 25.002L35.0312 16.6677L57.4928 30.1396L57.515 38.4739L57.515 38.4739Z"   fill="#312821" ></path><path d="M64.4858 17.6504L42.0242 4.17856L49.0393 0L71.5009 13.4719L64.4858 17.6504L64.4858 17.6504Z"   fill="#A27346" ></path><path d="M64.5079 25.963L42.0463 12.4911L42.0242 4.17969L64.4858 17.6515L64.5079 25.963L64.5079 25.963Z"   fill="#65472B" ></path><path d="M71.5009 13.4731L71.523 21.7846L64.5079 25.9632L64.4858 17.6517L71.5009 13.4731L71.5009 13.4731Z"   fill="#93673E" ></path><path d="M50.522 50.9426L28.0604 37.4707L28.0383 29.1821L50.4999 42.654L50.522 50.9426L50.522 50.9426Z"   fill="#65472B" ></path><path d="M50.4999 42.6526L28.0383 29.1808L35.0534 25.0022L57.515 38.4741L50.4999 42.6526L50.4999 42.6526Z"   fill="#A27346" ></path><path d="M57.515 38.4753L57.5371 46.764L50.522 50.9425L50.4999 42.6539L57.515 38.4753L57.515 38.4753Z"   fill="#93673E" ></path><path d="M43.5732 71.7667L21.1116 58.2948L21.0895 49.9834L43.5511 63.4553L43.5732 71.7667L43.5732 71.7667Z"   fill="#5D3F22" ></path><path d="M43.5511 63.4539L21.0895 49.982L28.1046 45.8035L50.5441 59.2753L43.5511 63.4539L43.5511 63.4539Z"   fill="#956636" ></path><path d="M50.5441 59.2766L50.5662 67.5881L43.5733 71.7666L43.5511 63.4552L50.5441 59.2766L50.5441 59.2766Z"   fill="#865B30" ></path><path d="M36.5803 84.255L14.1188 70.7831L14.0966 62.4717L36.5582 75.9435L36.5803 84.255L36.5803 84.255Z"   fill="#5D3F22" ></path><path d="M36.5582 75.9461L14.0966 62.4742L21.1117 58.2957L43.5733 71.7675L36.5582 75.9461L36.5582 75.9461Z"   fill="#956636" ></path><path d="M43.5734 71.7673L43.5955 80.0788L36.5804 84.2573L36.5583 75.9459L43.5734 71.7673L43.5734 71.7673Z"   fill="#865B30" ></path><path d="M43.5511 63.4553L21.0895 49.9835L21.0674 41.6492L43.5068 55.121L43.5511 63.4553L43.5511 63.4553Z"   fill="#5D3F22" ></path><path d="M43.5068 55.1199L21.0674 41.648L28.0603 37.4695L50.5219 50.9413L43.5068 55.1199L43.5068 55.1199Z"   fill="#956636" ></path><path d="M50.5219 50.9414L50.544 59.2757L43.5511 63.4543L43.5068 55.12L50.5219 50.9414L50.5219 50.9414Z"   fill="#865B30" ></path><path d="M43.5069 55.1194L21.0674 41.6475L21.0453 33.3589L43.4848 46.8307L43.5069 55.1194L43.5069 55.1194Z"   fill="#65472B" ></path><path d="M43.4847 46.8326L21.0453 33.3607L28.0383 29.1821L50.4998 42.654L43.4847 46.8326L43.4847 46.8326Z"   fill="#A27346" ></path><path d="M50.4999 42.6548L50.522 50.9434L43.5069 55.122L43.4848 46.8333L50.4999 42.6548L50.4999 42.6548Z"   fill="#93673E" ></path><path d="M36.5582 75.9437L14.0966 62.4719L14.0744 54.1604L36.536 67.6323L36.5582 75.9437L36.5582 75.9437Z"   fill="#5D3F22" ></path><path d="M36.536 67.6338L14.0744 54.162L21.0895 49.9834L43.5511 63.4553L36.536 67.6338L36.536 67.6338Z"   fill="#956636" ></path><path d="M43.5512 63.4561L43.5734 71.7675L36.5583 75.9461L36.5361 67.6346L43.5512 63.4561L43.5512 63.4561Z"   fill="#865B30" ></path><path d="M36.5361 67.6345L14.0745 54.1627L14.0524 45.8284L36.514 59.3002L36.5361 67.6345L36.5361 67.6345Z"   fill="#65472B" ></path><path d="M36.514 59.2996L14.0524 45.8277L21.0675 41.6492L43.5069 55.121L36.514 59.2996L36.514 59.2996Z"   fill="#A27346" ></path><path d="M43.5069 55.1218L43.5511 63.4561L36.536 67.6347L36.5139 59.3004L43.5069 55.1218L43.5069 55.1218Z"   fill="#93673E" ></path><path d="M29.521 80.1241L7.05942 66.6751L7.03729 58.3408L29.4989 71.8127L29.521 80.1241L29.521 80.1241Z"   fill="#5D3F22" ></path><path d="M29.4989 71.8108L7.03729 58.339L14.0745 54.1604L36.5361 67.6323L29.4989 71.8108L29.4989 71.8108Z"   fill="#956636" ></path><path d="M36.536 67.6323L36.5582 75.9438L29.5209 80.1223L29.4988 71.8109L36.536 67.6323L36.536 67.6323Z"   fill="#865B30" ></path><path d="M29.4988 71.8126L7.03724 58.3407L7.01511 50.0293L29.4767 63.4783L29.4988 71.8126L29.4988 71.8126Z"   fill="#65472B" ></path><path d="M29.4767 63.4788L7.01511 50.0298L14.0523 45.8284L36.5139 59.3002L29.4767 63.4788L29.4767 63.4788Z"   fill="#A27346" ></path><path d="M36.514 59.2979L36.5361 67.6321L29.4989 71.8107L29.4768 63.4764L36.514 59.2979L36.514 59.2979Z"   fill="#93673E" ></path><path d="M22.5059 84.3014L0.0442701 70.8295L0.0221405 62.5181L22.4837 75.9899L22.5059 84.3014L22.5059 84.3014Z"   fill="#5D3F22" ></path><path d="M22.4837 75.9912L0.0221405 62.5194L7.03724 58.3408L29.4988 71.8127L22.4837 75.9912L22.4837 75.9912Z"   fill="#956636" ></path><path d="M29.4988 71.8123L29.5209 80.1237L22.5058 84.3023L22.4837 75.9908L29.4988 71.8123L29.4988 71.8123Z"   fill="#865B30" ></path><path d="M22.4837 75.9905L0.0221296 62.5186L0 54.1843L22.4616 67.6562L22.4837 75.9905L22.4837 75.9905Z"   fill="#5D3F22" ></path><path d="M22.4616 67.6569L0 54.185L7.0151 50.0293L29.4767 63.4783L22.4616 67.6569L22.4616 67.6569Z"   fill="#956636" ></path><path d="M29.4767 63.4773L29.4988 71.8116L22.4837 75.9901L22.4616 67.6559L29.4767 63.4773L29.4767 63.4773Z"   fill="#865B30" ></path></svg>