<svg xmlns="http://www.w3.org/2000/svg" xmlns:xlink="http://www.w3.org/1999/xlink" width="65" height="65" viewBox="0 0 65 65" fill="none"><g  clip-path="url(#clip-path-ZgGeQn9sgs76ZPgqV4DpU)"><path d="M49.5238 61.9046L52.6189 61.9046L52.6189 65L49.5238 65L49.5238 61.9046ZM61.9047 27.8572L65 27.8572L65 30.9523L61.9047 30.9523L61.9047 27.8572ZM61.9047 24.762L65 24.762L65 27.8572L61.9047 27.8572L61.9047 24.762ZM61.9047 21.6666L65 21.6666L65 24.762L61.9047 24.762L61.9047 21.6666ZM58.8095 34.0475L61.9047 34.0475L61.9047 37.1429L58.8095 37.1429L58.8095 34.0475ZM58.8095 30.9523L61.9047 30.9523L61.9047 34.0475L58.8095 34.0475L58.8095 30.9523ZM58.8095 27.8572L61.9047 27.8572L61.9047 30.9523L58.8095 30.9523L58.8095 27.8572Z"   fill="#000000" ></path><path d="M58.8094 24.762L61.9046 24.762L61.9046 27.8571L58.8094 27.8571L58.8094 24.762Z"   fill="#FFB62D" ></path><path d="M58.8095 21.6666L61.9046 21.6666L61.9046 24.762L58.8095 24.762L58.8095 21.6666ZM55.7143 52.6189L58.8095 52.6189L58.8095 55.7143L55.7143 55.7143L55.7143 52.6189ZM55.7143 49.5237L58.8095 49.5237L58.8095 52.6189L55.7143 52.6189L55.7143 49.5237ZM55.7143 37.1429L58.8095 37.1429L58.8095 40.2381L55.7143 40.2381L55.7143 37.1429ZM55.7143 34.0475L58.8095 34.0475L58.8095 37.1429L55.7143 37.1429L55.7143 34.0475Z"   fill="#000000" ></path><path d="M55.7143 30.9524L58.8095 30.9524L58.8095 34.0475L55.7143 34.0475L55.7143 30.9524ZM55.7143 27.8572L58.8095 27.8572L58.8095 30.9524L55.7143 30.9524L55.7143 27.8572ZM55.7143 24.762L58.8095 24.762L58.8095 27.8572L55.7143 27.8572L55.7143 24.762ZM55.7143 21.6666L58.8095 21.6666L58.8095 24.762L55.7143 24.762L55.7143 21.6666Z"   fill="#FFB62D" ></path><path d="M55.7143 18.5714L58.8095 18.5714L58.8095 21.6666L55.7143 21.6666L55.7143 18.5714ZM52.6189 55.7142L55.7143 55.7142L55.7143 58.8094L52.6189 58.8094L52.6189 55.7142Z"   fill="#000000" ></path><path d="M52.6189 52.619L55.7143 52.619L55.7143 55.7144L52.6189 55.7144L52.6189 52.619ZM52.6189 49.5238L55.7143 49.5238L55.7143 52.619L52.6189 52.619L52.6189 49.5238Z"   fill="#FFB62D" ></path><path d="M52.6189 46.4286L55.7143 46.4286L55.7143 49.5237L52.6189 49.5237L52.6189 46.4286ZM52.6189 40.238L55.7143 40.238L55.7143 43.3331L52.6189 43.3331L52.6189 40.238ZM52.6189 37.1428L55.7143 37.1428L55.7143 40.238L52.6189 40.238L52.6189 37.1428Z"   fill="#000000" ></path><path d="M52.6189 34.0475L55.7143 34.0475L55.7143 37.1428L52.6189 37.1428L52.6189 34.0475ZM52.6189 30.9523L55.7143 30.9523L55.7143 34.0475L52.6189 34.0475L52.6189 30.9523Z"   fill="#FFB62D" ></path><path d="M52.6189 27.8572L55.7143 27.8572L55.7143 30.9524L52.6189 30.9524L52.6189 27.8572Z"   fill="#FECF48" ></path><path d="M52.6189 24.762L55.7143 24.762L55.7143 27.8572L52.6189 27.8572L52.6189 24.762ZM52.6189 21.6666L55.7143 21.6666L55.7143 24.762L52.6189 24.762L52.6189 21.6666Z"   fill="#FFB62D" ></path><path d="M52.6189 18.5714L55.7143 18.5714L55.7143 21.6666L52.6189 21.6666L52.6189 18.5714ZM49.5238 58.8094L52.6189 58.8094L52.6189 61.9046L49.5238 61.9046L49.5238 58.8094Z"   fill="#000000" ></path><path d="M49.5238 55.7143L52.6189 55.7143L52.6189 58.8094L49.5238 58.8094L49.5238 55.7143ZM49.5238 52.6189L52.6189 52.6189L52.6189 55.7143L49.5238 55.7143L49.5238 52.6189ZM49.5238 49.5237L52.6189 49.5237L52.6189 52.6189L49.5238 52.6189L49.5238 49.5237ZM49.5238 46.4286L52.6189 46.4286L52.6189 49.5237L49.5238 49.5237L49.5238 46.4286Z"   fill="#FFB62D" ></path><path d="M49.5238 43.3332L52.6189 43.3332L52.6189 46.4286L49.5238 46.4286L49.5238 43.3332ZM49.5238 40.238L52.6189 40.238L52.6189 43.3332L49.5238 43.3332L49.5238 40.238Z"   fill="#000000" ></path><path d="M49.5238 37.1428L52.6189 37.1428L52.6189 40.238L49.5238 40.238L49.5238 37.1428ZM49.5238 34.0475L52.6189 34.0475L52.6189 37.1428L49.5238 37.1428L49.5238 34.0475ZM49.5238 30.9523L52.6189 30.9523L52.6189 34.0475L49.5238 34.0475L49.5238 30.9523Z"   fill="#FFB62D" ></path><path d="M49.5238 27.8572L52.6189 27.8572L52.6189 30.9524L49.5238 30.9524L49.5238 27.8572Z"   fill="#FECF48" ></path><path d="M49.5238 24.762L52.6189 24.762L52.6189 27.8572L49.5238 27.8572L49.5238 24.762ZM49.5238 21.6666L52.6189 21.6666L52.6189 24.762L49.5238 24.762L49.5238 21.6666Z"   fill="#FFB62D" ></path><path d="M49.5237 18.5714L52.6189 18.5714L52.6189 21.6666L49.5237 21.6666L49.5237 18.5714ZM46.4286 61.9046L49.5237 61.9046L49.5237 65L46.4286 65L46.4286 61.9046Z"   fill="#000000" ></path><path d="M46.4286 58.8094L49.5237 58.8094L49.5237 61.9046L46.4286 61.9046L46.4286 58.8094ZM46.4286 55.7142L49.5237 55.7142L49.5237 58.8094L46.4286 58.8094L46.4286 55.7142Z"   fill="#FFB62D" ></path><path d="M46.4286 52.6189L49.5237 52.6189L49.5237 55.7143L46.4286 55.7143L46.4286 52.6189Z"   fill="#FECF48" ></path><path d="M46.4286 49.5237L49.5237 49.5237L49.5237 52.6189L46.4286 52.6189L46.4286 49.5237ZM46.4286 46.4286L49.5237 46.4286L49.5237 49.5237L46.4286 49.5237L46.4286 46.4286ZM46.4286 43.3331L49.5237 43.3331L49.5237 46.4286L46.4286 46.4286L46.4286 43.3331ZM46.4286 40.238L49.5237 40.238L49.5237 43.3331L46.4286 43.3331L46.4286 40.238ZM46.4286 37.1429L49.5237 37.1429L49.5237 40.238L46.4286 40.238L46.4286 37.1429ZM46.4286 34.0475L49.5237 34.0475L49.5237 37.1429L46.4286 37.1429L46.4286 34.0475Z"   fill="#FFB62D" ></path><path d="M46.4286 30.9523L49.5237 30.9523L49.5237 34.0475L46.4286 34.0475L46.4286 30.9523ZM46.4286 27.8571L49.5237 27.8571L49.5237 30.9523L46.4286 30.9523L46.4286 27.8571ZM46.4286 24.762L49.5237 24.762L49.5237 27.8571L46.4286 27.8571L46.4286 24.762Z"   fill="#FECF48" ></path><path d="M46.4286 21.6666L49.5237 21.6666L49.5237 24.762L46.4286 24.762L46.4286 21.6666ZM46.4286 18.5714L49.5237 18.5714L49.5237 21.6666L46.4286 21.6666L46.4286 18.5714Z"   fill="#FFB62D" ></path><path d="M46.4286 15.4763L49.5238 15.4763L49.5238 18.5714L46.4286 18.5714L46.4286 15.4763ZM43.3332 61.9046L46.4286 61.9046L46.4286 65L43.3332 65L43.3332 61.9046Z"   fill="#000000" ></path><path d="M43.3332 58.8094L46.4286 58.8094L46.4286 61.9046L43.3332 61.9046L43.3332 58.8094ZM43.3332 55.7143L46.4286 55.7143L46.4286 58.8094L43.3332 58.8094L43.3332 55.7143ZM43.3332 52.6189L46.4286 52.6189L46.4286 55.7143L43.3332 55.7143L43.3332 52.6189Z"   fill="#FFB62D" ></path><path d="M43.3332 49.5237L46.4286 49.5237L46.4286 52.6189L43.3332 52.6189L43.3332 49.5237ZM43.3332 46.4286L46.4286 46.4286L46.4286 49.5237L43.3332 49.5237L43.3332 46.4286ZM43.3332 43.3332L46.4286 43.3332L46.4286 46.4286L43.3332 46.4286L43.3332 43.3332ZM43.3332 40.238L46.4286 40.238L46.4286 43.3332L43.3332 43.3332L43.3332 40.238Z"   fill="#FECF48" ></path><path d="M43.3332 37.1428L46.4286 37.1428L46.4286 40.238L43.3332 40.238L43.3332 37.1428Z"   fill="#FFB62D" ></path><path d="M43.3332 34.0475L46.4286 34.0475L46.4286 37.1429L43.3332 37.1429L43.3332 34.0475ZM43.3332 30.9523L46.4286 30.9523L46.4286 34.0475L43.3332 34.0475L43.3332 30.9523ZM43.3332 27.8571L46.4286 27.8571L46.4286 30.9523L43.3332 30.9523L43.3332 27.8571ZM43.3332 24.762L46.4286 24.762L46.4286 27.8571L43.3332 27.8571L43.3332 24.762Z"   fill="#FECF48" ></path><path d="M43.3332 21.6666L46.4286 21.6666L46.4286 24.762L43.3332 24.762L43.3332 21.6666ZM43.3332 18.5714L46.4286 18.5714L46.4286 21.6666L43.3332 21.6666L43.3332 18.5714Z"   fill="#FFB62D" ></path><path d="M43.3331 15.4763L46.4286 15.4763L46.4286 18.5714L43.3331 18.5714L43.3331 15.4763ZM40.238 58.8095L43.3331 58.8095L43.3331 61.9047L40.238 61.9047L40.238 58.8095Z"   fill="#000000" ></path><path d="M40.238 55.7144L43.3331 55.7144L43.3331 58.8095L40.238 58.8095L40.238 55.7144ZM40.238 52.619L43.3331 52.619L43.3331 55.7144L40.238 55.7144L40.238 52.619ZM40.238 49.5238L43.3331 49.5238L43.3331 52.619L40.238 52.619L40.238 49.5238Z"   fill="#FFB62D" ></path><path d="M40.238 46.4286L43.3331 46.4286L43.3331 49.5237L40.238 49.5237L40.238 46.4286ZM40.238 43.3332L43.3331 43.3332L43.3331 46.4286L40.238 46.4286L40.238 43.3332ZM40.238 40.2381L43.3331 40.2381L43.3331 43.3332L40.238 43.3332L40.238 40.2381ZM40.238 37.1429L43.3331 37.1429L43.3331 40.2381L40.238 40.2381L40.238 37.1429ZM40.238 34.0475L43.3331 34.0475L43.3331 37.1429L40.238 37.1429L40.238 34.0475ZM40.238 30.9524L43.3331 30.9524L43.3331 34.0475L40.238 34.0475L40.238 30.9524ZM40.238 27.8572L43.3331 27.8572L43.3331 30.9524L40.238 30.9524L40.238 27.8572ZM40.238 24.762L43.3331 24.762L43.3331 27.8572L40.238 27.8572L40.238 24.762ZM40.238 21.6666L43.3331 21.6666L43.3331 24.762L40.238 24.762L40.238 21.6666Z"   fill="#FECF48" ></path><path d="M40.238 18.5714L43.3331 18.5714L43.3331 21.6666L40.238 21.6666L40.238 18.5714ZM40.238 15.4763L43.3331 15.4763L43.3331 18.5714L40.238 18.5714L40.238 15.4763Z"   fill="#FFB62D" ></path><path d="M40.238 12.3809L43.3332 12.3809L43.3332 15.4763L40.238 15.4763L40.238 12.3809ZM40.238 9.28577L43.3332 9.28577L43.3332 12.3809L40.238 12.3809L40.238 9.28577ZM37.1429 58.8095L40.238 58.8095L40.238 61.9046L37.1429 61.9046L37.1429 58.8095Z"   fill="#000000" ></path><path d="M37.1429 55.7144L40.238 55.7144L40.238 58.8095L37.1429 58.8095L37.1429 55.7144ZM37.1429 52.619L40.238 52.619L40.238 55.7144L37.1429 55.7144L37.1429 52.619ZM37.1429 49.5238L40.238 49.5238L40.238 52.619L37.1429 52.619L37.1429 49.5238Z"   fill="#FFB62D" ></path><path d="M37.1429 46.4286L40.238 46.4286L40.238 49.5237L37.1429 49.5237L37.1429 46.4286ZM37.1429 43.3332L40.238 43.3332L40.238 46.4286L37.1429 46.4286L37.1429 43.3332ZM37.1429 40.2381L40.238 40.2381L40.238 43.3332L37.1429 43.3332L37.1429 40.2381ZM37.1429 37.1429L40.238 37.1429L40.238 40.2381L37.1429 40.2381L37.1429 37.1429ZM37.1429 34.0475L40.238 34.0475L40.238 37.1429L37.1429 37.1429L37.1429 34.0475ZM37.1429 30.9524L40.238 30.9524L40.238 34.0475L37.1429 34.0475L37.1429 30.9524ZM37.1429 27.8572L40.238 27.8572L40.238 30.9524L37.1429 30.9524L37.1429 27.8572Z"   fill="#FECF48" ></path><path d="M37.1429 24.762L40.238 24.762L40.238 27.8571L37.1429 27.8571L37.1429 24.762Z"   fill="#FFFFFF" ></path><path d="M37.1429 21.6666L40.238 21.6666L40.238 24.762L37.1429 24.762L37.1429 21.6666ZM37.1429 18.5714L40.238 18.5714L40.238 21.6666L37.1429 21.6666L37.1429 18.5714Z"   fill="#FECF48" ></path><path d="M37.1429 15.4763L40.238 15.4763L40.238 18.5714L37.1429 18.5714L37.1429 15.4763ZM37.1429 12.3809L40.238 12.3809L40.238 15.4763L37.1429 15.4763L37.1429 12.3809ZM37.1429 9.28577L40.238 9.28577L40.238 12.3809L37.1429 12.3809L37.1429 9.28577Z"   fill="#FFB62D" ></path><path d="M37.1428 6.1906L40.238 6.1906L40.238 9.28578L37.1428 9.28578L37.1428 6.1906ZM37.1428 3.09521L40.238 3.09521L40.238 6.1906L37.1428 6.1906L37.1428 3.09521ZM34.0475 58.8095L37.1428 58.8095L37.1428 61.9046L34.0475 61.9046L34.0475 58.8095ZM34.0475 55.7143L37.1428 55.7143L37.1428 58.8095L34.0475 58.8095L34.0475 55.7143Z"   fill="#000000" ></path><path d="M34.0475 52.6189L37.1428 52.6189L37.1428 55.7143L34.0475 55.7143L34.0475 52.6189ZM34.0475 49.5237L37.1428 49.5237L37.1428 52.6189L34.0475 52.6189L34.0475 49.5237ZM34.0475 46.4286L37.1428 46.4286L37.1428 49.5237L34.0475 49.5237L34.0475 46.4286Z"   fill="#FFB62D" ></path><path d="M34.0475 43.3332L37.1428 43.3332L37.1428 46.4286L34.0475 46.4286L34.0475 43.3332ZM34.0475 40.2381L37.1428 40.2381L37.1428 43.3332L34.0475 43.3332L34.0475 40.2381ZM34.0475 37.1429L37.1428 37.1429L37.1428 40.2381L34.0475 40.2381L34.0475 37.1429ZM34.0475 34.0475L37.1428 34.0475L37.1428 37.1429L34.0475 37.1429L34.0475 34.0475ZM34.0475 30.9523L37.1428 30.9523L37.1428 34.0475L34.0475 34.0475L34.0475 30.9523ZM34.0475 27.8571L37.1428 27.8571L37.1428 30.9523L34.0475 30.9523L34.0475 27.8571ZM34.0475 24.762L37.1428 24.762L37.1428 27.8571L34.0475 27.8571L34.0475 24.762Z"   fill="#FECF48" ></path><path d="M34.0475 21.6666L37.1428 21.6666L37.1428 24.762L34.0475 24.762L34.0475 21.6666Z"   fill="#FFFFFF" ></path><path d="M34.0475 18.5714L37.1428 18.5714L37.1428 21.6666L34.0475 21.6666L34.0475 18.5714ZM34.0475 15.4763L37.1428 15.4763L37.1428 18.5714L34.0475 18.5714L34.0475 15.4763Z"   fill="#FECF48" ></path><path d="M34.0475 12.3809L37.1428 12.3809L37.1428 15.4763L34.0475 15.4763L34.0475 12.3809ZM34.0475 9.28577L37.1428 9.28577L37.1428 12.3809L34.0475 12.3809L34.0475 9.28577Z"   fill="#FFB62D" ></path><path d="M34.0475 6.19055L37.1428 6.19055L37.1428 9.28573L34.0475 9.28573L34.0475 6.19055Z"   fill="#FFB62D" ></path><path d="M34.0475 3.09516L37.1428 3.09516L37.1428 6.19055L34.0475 6.19055L34.0475 3.09516ZM34.0475 0L37.1428 0L37.1428 3.09516L34.0475 3.09516L34.0475 0ZM30.9523 55.7142L34.0475 55.7142L34.0475 58.8094L30.9523 58.8094L30.9523 55.7142Z"   fill="#000000" ></path><path d="M30.9523 52.619L34.0475 52.619L34.0475 55.7144L30.9523 55.7144L30.9523 52.619ZM30.9523 49.5238L34.0475 49.5238L34.0475 52.619L30.9523 52.619L30.9523 49.5238ZM30.9523 46.4287L34.0475 46.4287L34.0475 49.5238L30.9523 49.5238L30.9523 46.4287ZM30.9523 43.3333L34.0475 43.3333L34.0475 46.4287L30.9523 46.4287L30.9523 43.3333Z"   fill="#FFB62D" ></path><path d="M30.9523 40.238L34.0475 40.238L34.0475 43.3332L30.9523 43.3332L30.9523 40.238ZM30.9523 37.1429L34.0475 37.1429L34.0475 40.238L30.9523 40.238L30.9523 37.1429ZM30.9523 34.0475L34.0475 34.0475L34.0475 37.1429L30.9523 37.1429L30.9523 34.0475ZM30.9523 30.9523L34.0475 30.9523L34.0475 34.0475L30.9523 34.0475L30.9523 30.9523ZM30.9523 27.8571L34.0475 27.8571L34.0475 30.9523L30.9523 30.9523L30.9523 27.8571ZM30.9523 24.762L34.0475 24.762L34.0475 27.8571L30.9523 27.8571L30.9523 24.762ZM30.9523 21.6666L34.0475 21.6666L34.0475 24.762L30.9523 24.762L30.9523 21.6666ZM30.9523 18.5714L34.0475 18.5714L34.0475 21.6666L30.9523 21.6666L30.9523 18.5714ZM30.9523 15.4763L34.0475 15.4763L34.0475 18.5714L30.9523 18.5714L30.9523 15.4763ZM30.9523 12.3809L34.0475 12.3809L34.0475 15.4763L30.9523 15.4763L30.9523 12.3809Z"   fill="#FECF48" ></path><path d="M30.9523 9.28577L34.0475 9.28577L34.0475 12.3809L30.9523 12.3809L30.9523 9.28577Z"   fill="#FFB62D" ></path><path d="M30.9523 6.1906L34.0475 6.1906L34.0475 9.28578L30.9523 9.28578L30.9523 6.1906ZM30.9523 3.09521L34.0475 3.09521L34.0475 6.1906L30.9523 6.1906L30.9523 3.09521Z"   fill="#FFB62D" ></path><path d="M30.9523 0L34.0475 0L34.0475 3.09516L30.9523 3.09516L30.9523 0ZM27.8571 55.7142L30.9523 55.7142L30.9523 58.8094L27.8571 58.8094L27.8571 55.7142Z"   fill="#000000" ></path><path d="M27.8571 52.6189L30.9523 52.6189L30.9523 55.7143L27.8571 55.7143L27.8571 52.6189ZM27.8571 49.5237L30.9523 49.5237L30.9523 52.6189L27.8571 52.6189L27.8571 49.5237ZM27.8571 46.4286L30.9523 46.4286L30.9523 49.5237L27.8571 49.5237L27.8571 46.4286Z"   fill="#FFB62D" ></path><path d="M27.8571 43.3332L30.9523 43.3332L30.9523 46.4286L27.8571 46.4286L27.8571 43.3332ZM27.8571 40.2381L30.9523 40.2381L30.9523 43.3332L27.8571 43.3332L27.8571 40.2381ZM27.8571 37.1429L30.9523 37.1429L30.9523 40.2381L27.8571 40.2381L27.8571 37.1429ZM27.8571 34.0475L30.9523 34.0475L30.9523 37.1429L27.8571 37.1429L27.8571 34.0475ZM27.8571 30.9523L30.9523 30.9523L30.9523 34.0475L27.8571 34.0475L27.8571 30.9523ZM27.8571 27.8572L30.9523 27.8572L30.9523 30.9523L27.8571 30.9523L27.8571 27.8572ZM27.8571 24.762L30.9523 24.762L30.9523 27.8572L27.8571 27.8572L27.8571 24.762ZM27.8571 21.6666L30.9523 21.6666L30.9523 24.762L27.8571 24.762L27.8571 21.6666ZM27.8571 18.5714L30.9523 18.5714L30.9523 21.6666L27.8571 21.6666L27.8571 18.5714ZM27.8571 15.4763L30.9523 15.4763L30.9523 18.5714L27.8571 18.5714L27.8571 15.4763Z"   fill="#FECF48" ></path><path d="M27.8571 12.3809L30.9523 12.3809L30.9523 15.4763L27.8571 15.4763L27.8571 12.3809ZM27.8571 9.28577L30.9523 9.28577L30.9523 12.3809L27.8571 12.3809L27.8571 9.28577Z"   fill="#FFB62D" ></path><path d="M27.8571 6.19055L30.9523 6.19055L30.9523 9.28573L27.8571 9.28573L27.8571 6.19055Z"   fill="#FFB62D" ></path><path d="M27.8572 3.09516L30.9523 3.09516L30.9523 6.19055L27.8572 6.19055L27.8572 3.09516ZM27.8572 0L30.9523 0L30.9523 3.09516L27.8572 3.09516L27.8572 0ZM24.762 58.8094L27.8572 58.8094L27.8572 61.9046L24.762 61.9046L24.762 58.8094ZM24.762 55.7142L27.8572 55.7142L27.8572 58.8094L24.762 58.8094L24.762 55.7142Z"   fill="#000000" ></path><path d="M24.762 52.6189L27.8572 52.6189L27.8572 55.7143L24.762 55.7143L24.762 52.6189ZM24.762 49.5237L27.8572 49.5237L27.8572 52.6189L24.762 52.6189L24.762 49.5237ZM24.762 46.4286L27.8572 46.4286L27.8572 49.5237L24.762 49.5237L24.762 46.4286Z"   fill="#FFB62D" ></path><path d="M24.762 43.3332L27.8572 43.3332L27.8572 46.4286L24.762 46.4286L24.762 43.3332ZM24.762 40.238L27.8572 40.238L27.8572 43.3332L24.762 43.3332L24.762 40.238ZM24.762 37.1429L27.8572 37.1429L27.8572 40.238L24.762 40.238L24.762 37.1429ZM24.762 34.0475L27.8572 34.0475L27.8572 37.1429L24.762 37.1429L24.762 34.0475ZM24.762 30.9523L27.8572 30.9523L27.8572 34.0475L24.762 34.0475L24.762 30.9523ZM24.762 27.8571L27.8572 27.8571L27.8572 30.9523L24.762 30.9523L24.762 27.8571ZM24.762 24.762L27.8572 24.762L27.8572 27.8571L24.762 27.8571L24.762 24.762ZM24.762 21.6666L27.8572 21.6666L27.8572 24.762L24.762 24.762L24.762 21.6666ZM24.762 18.5714L27.8572 18.5714L27.8572 21.6666L24.762 21.6666L24.762 18.5714Z"   fill="#FECF48" ></path><path d="M24.762 15.4763L27.8572 15.4763L27.8572 18.5714L24.762 18.5714L24.762 15.4763ZM24.762 12.3809L27.8572 12.3809L27.8572 15.4763L24.762 15.4763L24.762 12.3809ZM24.762 9.28577L27.8572 9.28577L27.8572 12.3809L24.762 12.3809L24.762 9.28577Z"   fill="#FFB62D" ></path><path d="M24.762 6.1906L27.8572 6.1906L27.8572 9.28578L24.762 9.28578L24.762 6.1906ZM24.762 3.09521L27.8572 3.09521L27.8572 6.1906L24.762 6.1906L24.762 3.09521ZM21.6666 58.8095L24.762 58.8095L24.762 61.9046L21.6666 61.9046L21.6666 58.8095Z"   fill="#000000" ></path><path d="M21.6666 55.7144L24.762 55.7144L24.762 58.8095L21.6666 58.8095L21.6666 55.7144ZM21.6666 52.619L24.762 52.619L24.762 55.7144L21.6666 55.7144L21.6666 52.619ZM21.6666 49.5238L24.762 49.5238L24.762 52.619L21.6666 52.619L21.6666 49.5238Z"   fill="#FFB62D" ></path><path d="M21.6666 46.4286L24.762 46.4286L24.762 49.5237L21.6666 49.5237L21.6666 46.4286Z"   fill="#FECF48" ></path><path d="M21.6666 43.3333L24.762 43.3333L24.762 46.4287L21.6666 46.4287L21.6666 43.3333Z"   fill="#FFFFFF" ></path><path d="M21.6666 40.2381L24.762 40.2381L24.762 43.3332L21.6666 43.3332L21.6666 40.2381ZM21.6666 37.1429L24.762 37.1429L24.762 40.2381L21.6666 40.2381L21.6666 37.1429ZM21.6666 34.0475L24.762 34.0475L24.762 37.1429L21.6666 37.1429L21.6666 34.0475ZM21.6666 30.9524L24.762 30.9524L24.762 34.0475L21.6666 34.0475L21.6666 30.9524ZM21.6666 27.8572L24.762 27.8572L24.762 30.9524L21.6666 30.9524L21.6666 27.8572ZM21.6666 24.762L24.762 24.762L24.762 27.8572L21.6666 27.8572L21.6666 24.762ZM21.6666 21.6666L24.762 21.6666L24.762 24.762L21.6666 24.762L21.6666 21.6666Z"   fill="#FECF48" ></path><path d="M21.6666 18.5714L24.762 18.5714L24.762 21.6666L21.6666 21.6666L21.6666 18.5714ZM21.6666 15.4763L24.762 15.4763L24.762 18.5714L21.6666 18.5714L21.6666 15.4763Z"   fill="#FFB62D" ></path><path d="M21.6666 12.3809L24.762 12.3809L24.762 15.4763L21.6666 15.4763L21.6666 12.3809ZM21.6666 9.28577L24.762 9.28577L24.762 12.3809L21.6666 12.3809L21.6666 9.28577ZM18.5714 58.8095L21.6666 58.8095L21.6666 61.9046L18.5714 61.9046L18.5714 58.8095Z"   fill="#000000" ></path><path d="M18.5714 55.7143L21.6666 55.7143L21.6666 58.8094L18.5714 58.8094L18.5714 55.7143ZM18.5714 52.6189L21.6666 52.6189L21.6666 55.7143L18.5714 55.7143L18.5714 52.6189Z"   fill="#FFB62D" ></path><path d="M18.5714 49.5238L21.6666 49.5238L21.6666 52.619L18.5714 52.619L18.5714 49.5238Z"   fill="#FECF48" ></path><path d="M18.5714 46.4286L21.6666 46.4286L21.6666 49.5237L18.5714 49.5237L18.5714 46.4286Z"   fill="#FFFFFF" ></path><path d="M18.5714 43.3332L21.6666 43.3332L21.6666 46.4286L18.5714 46.4286L18.5714 43.3332ZM18.5714 40.238L21.6666 40.238L21.6666 43.3332L18.5714 43.3332L18.5714 40.238Z"   fill="#FECF48" ></path><path d="M18.5714 37.1428L21.6666 37.1428L21.6666 40.238L18.5714 40.238L18.5714 37.1428Z"   fill="#FFB62D" ></path><path d="M18.5714 34.0475L21.6666 34.0475L21.6666 37.1429L18.5714 37.1429L18.5714 34.0475ZM18.5714 30.9524L21.6666 30.9524L21.6666 34.0475L18.5714 34.0475L18.5714 30.9524ZM18.5714 27.8572L21.6666 27.8572L21.6666 30.9524L18.5714 30.9524L18.5714 27.8572ZM18.5714 24.762L21.6666 24.762L21.6666 27.8572L18.5714 27.8572L18.5714 24.762ZM18.5714 21.6666L21.6666 21.6666L21.6666 24.762L18.5714 24.762L18.5714 21.6666Z"   fill="#FECF48" ></path><path d="M18.5714 18.5714L21.6666 18.5714L21.6666 21.6666L18.5714 21.6666L18.5714 18.5714Z"   fill="#FFB62D" ></path><path d="M18.5714 15.4763L21.6666 15.4763L21.6666 18.5714L18.5714 18.5714L18.5714 15.4763ZM15.4763 61.9046L18.5714 61.9046L18.5714 65L15.4763 65L15.4763 61.9046Z"   fill="#000000" ></path><path d="M15.4763 58.8094L18.5714 58.8094L18.5714 61.9046L15.4763 61.9046L15.4763 58.8094ZM15.4763 55.7142L18.5714 55.7142L18.5714 58.8094L15.4763 58.8094L15.4763 55.7142Z"   fill="#FFB62D" ></path><path d="M15.4763 52.6189L18.5714 52.6189L18.5714 55.7143L15.4763 55.7143L15.4763 52.6189Z"   fill="#FECF48" ></path><path d="M15.4763 49.5237L18.5714 49.5237L18.5714 52.6189L15.4763 52.6189L15.4763 49.5237ZM15.4763 46.4286L18.5714 46.4286L18.5714 49.5237L15.4763 49.5237L15.4763 46.4286ZM15.4763 43.3331L18.5714 43.3331L18.5714 46.4286L15.4763 46.4286L15.4763 43.3331ZM15.4763 40.238L18.5714 40.238L18.5714 43.3331L15.4763 43.3331L15.4763 40.238ZM15.4763 37.1429L18.5714 37.1429L18.5714 40.238L15.4763 40.238L15.4763 37.1429ZM15.4763 34.0475L18.5714 34.0475L18.5714 37.1429L15.4763 37.1429L15.4763 34.0475Z"   fill="#FFB62D" ></path><path d="M15.4763 30.9523L18.5714 30.9523L18.5714 34.0475L15.4763 34.0475L15.4763 30.9523ZM15.4763 27.8571L18.5714 27.8571L18.5714 30.9523L15.4763 30.9523L15.4763 27.8571ZM15.4763 24.762L18.5714 24.762L18.5714 27.8571L15.4763 27.8571L15.4763 24.762Z"   fill="#FECF48" ></path><path d="M15.4763 21.6666L18.5714 21.6666L18.5714 24.762L15.4763 24.762L15.4763 21.6666ZM15.4763 18.5714L18.5714 18.5714L18.5714 21.6666L15.4763 21.6666L15.4763 18.5714Z"   fill="#FFB62D" ></path><path d="M15.4763 15.4763L18.5714 15.4763L18.5714 18.5714L15.4763 18.5714L15.4763 15.4763ZM12.3809 61.9046L15.4763 61.9046L15.4763 65L12.3809 65L12.3809 61.9046ZM12.3809 58.8095L15.4763 58.8095L15.4763 61.9046L12.3809 61.9046L12.3809 58.8095Z"   fill="#000000" ></path><path d="M12.3809 55.7144L15.4763 55.7144L15.4763 58.8095L12.3809 58.8095L12.3809 55.7144ZM12.3809 52.619L15.4763 52.619L15.4763 55.7144L12.3809 55.7144L12.3809 52.619ZM12.3809 49.5238L15.4763 49.5238L15.4763 52.619L12.3809 52.619L12.3809 49.5238ZM12.3809 46.4287L15.4763 46.4287L15.4763 49.5238L12.3809 49.5238L12.3809 46.4287ZM12.3809 43.3333L15.4763 43.3333L15.4763 46.4287L12.3809 46.4287L12.3809 43.3333Z"   fill="#FFB62D" ></path><path d="M12.3809 40.238L15.4763 40.238L15.4763 43.3331L12.3809 43.3331L12.3809 40.238ZM12.3809 37.1428L15.4763 37.1428L15.4763 40.238L12.3809 40.238L12.3809 37.1428Z"   fill="#000000" ></path><path d="M12.3809 34.0475L15.4763 34.0475L15.4763 37.1428L12.3809 37.1428L12.3809 34.0475ZM12.3809 30.9523L15.4763 30.9523L15.4763 34.0475L12.3809 34.0475L12.3809 30.9523Z"   fill="#FFB62D" ></path><path d="M12.3809 27.8572L15.4763 27.8572L15.4763 30.9524L12.3809 30.9524L12.3809 27.8572Z"   fill="#FECF48" ></path><path d="M12.3809 24.762L15.4763 24.762L15.4763 27.8572L12.3809 27.8572L12.3809 24.762ZM12.3809 21.6666L15.4763 21.6666L15.4763 24.762L12.3809 24.762L12.3809 21.6666Z"   fill="#FFB62D" ></path><path d="M12.3808 18.5714L15.4763 18.5714L15.4763 21.6666L12.3808 21.6666L12.3808 18.5714ZM9.28572 55.7142L12.3808 55.7142L12.3808 58.8094L9.28572 58.8094L9.28572 55.7142Z"   fill="#000000" ></path><path d="M9.28572 52.619L12.3808 52.619L12.3808 55.7144L9.28572 55.7144L9.28572 52.619ZM9.28572 49.5238L12.3808 49.5238L12.3808 52.619L9.28572 52.619L9.28572 49.5238Z"   fill="#FFB62D" ></path><path d="M9.28572 46.4286L12.3808 46.4286L12.3808 49.5237L9.28572 49.5237L9.28572 46.4286ZM9.28572 43.3331L12.3808 43.3331L12.3808 46.4286L9.28572 46.4286L9.28572 43.3331ZM9.28572 37.1429L12.3808 37.1429L12.3808 40.238L9.28572 40.238L9.28572 37.1429ZM9.28572 34.0475L12.3808 34.0475L12.3808 37.1429L9.28572 37.1429L9.28572 34.0475Z"   fill="#000000" ></path><path d="M9.28572 30.9523L12.3808 30.9523L12.3808 34.0475L9.28572 34.0475L9.28572 30.9523Z"   fill="#FFB62D" ></path><path d="M9.28572 27.8572L12.3808 27.8572L12.3808 30.9524L9.28572 30.9524L9.28572 27.8572Z"   fill="#FECF48" ></path><path d="M9.28572 24.762L12.3808 24.762L12.3808 27.8572L9.28572 27.8572L9.28572 24.762ZM9.28572 21.6666L12.3808 21.6666L12.3808 24.762L9.28572 24.762L9.28572 21.6666Z"   fill="#FFB62D" ></path><path d="M9.28573 18.5714L12.3808 18.5714L12.3808 21.6666L9.28573 21.6666L9.28573 18.5714ZM6.19055 52.6189L9.28573 52.6189L9.28573 55.7143L6.19055 55.7143L6.19055 52.6189ZM6.19055 49.5237L9.28573 49.5237L9.28573 52.6189L6.19055 52.6189L6.19055 49.5237ZM6.19055 34.0475L9.28573 34.0475L9.28573 37.1429L6.19055 37.1429L6.19055 34.0475Z"   fill="#000000" ></path><path d="M6.19055 30.9524L9.28573 30.9524L9.28573 34.0475L6.19055 34.0475L6.19055 30.9524ZM6.19055 27.8572L9.28573 27.8572L9.28573 30.9524L6.19055 30.9524L6.19055 27.8572ZM6.19055 24.762L9.28573 24.762L9.28573 27.8572L6.19055 27.8572L6.19055 24.762ZM6.19055 21.6666L9.28573 21.6666L9.28573 24.762L6.19055 24.762L6.19055 21.6666Z"   fill="#FFB62D" ></path><path d="M6.19055 18.5714L9.28573 18.5714L9.28573 21.6666L6.19055 21.6666L6.19055 18.5714ZM3.09516 30.9523L6.19055 30.9523L6.19055 34.0475L3.09516 34.0475L3.09516 30.9523ZM3.09516 27.8571L6.19055 27.8571L6.19055 30.9523L3.09516 30.9523L3.09516 27.8571Z"   fill="#000000" ></path><path d="M3.09516 24.762L6.19055 24.762L6.19055 27.8572L3.09516 27.8572L3.09516 24.762ZM3.09516 21.6666L6.19055 21.6666L6.19055 24.762L3.09516 24.762L3.09516 21.6666Z"   fill="#FFB62D" ></path><path d="M3.09516 18.5714L6.19055 18.5714L6.19055 21.6666L3.09516 21.6666L3.09516 18.5714ZM0 27.8571L3.09516 27.8571L3.09516 30.9523L0 30.9523L0 27.8571ZM0 24.762L3.09516 24.762L3.09516 27.8571L0 27.8571L0 24.762ZM0 21.6666L3.09516 21.6666L3.09516 24.762L0 24.762L0 21.6666Z"   fill="#000000" ></path></g><defs><clipPath id="clip-path-ZgGeQn9sgs76ZPgqV4DpU"><path d="M0 65L65 65L65 0L0 0L0 65Z" fill="white"/></clipPath></defs></svg>