<svg xmlns="http://www.w3.org/2000/svg" xmlns:xlink="http://www.w3.org/1999/xlink" width="63.40061950683594" height="29.369415283203125" viewBox="0 0 63.40061950683594 29.369415283203125" fill="none"><path d="M63.4006 14.4516C60.3704 9.55671 55.0094 6.75962 49.4152 6.75962C48.2497 6.75962 46.8512 6.99272 45.6857 7.22581C42.6556 2.79709 37.5276 0 31.9334 0C26.3392 0 21.4443 2.79709 18.181 7.22581C17.0156 6.99272 15.8501 6.75962 14.4516 6.75962C8.85742 6.75962 3.49636 9.55671 0.466139 14.4516L0 15.384L0.932348 15.6171C4.66181 16.5494 7.69196 18.8803 9.78975 22.1436L10.0229 22.6098L10.4891 22.3767C13.053 21.6774 15.617 21.6774 18.181 22.3767C21.9105 23.3091 24.9407 25.64 27.0385 28.9032L27.2716 29.3694L27.7378 29.1363C30.3018 28.437 32.8658 28.437 35.4298 29.1363L35.8959 29.3694L36.129 28.9032C38.2268 25.64 41.257 23.3091 44.9865 22.3767C47.5505 21.6774 50.1145 21.6774 52.6785 22.3767L53.1446 22.6098L53.3777 22.1436C55.4755 18.8803 58.5057 16.5494 62.2352 15.6171L63.1675 15.384L63.4006 14.4516ZM19.8127 7.69199C22.6097 3.72945 27.0385 1.63164 31.9334 1.63164C36.8283 1.63164 41.257 3.96254 44.0541 7.69199C43.821 7.69199 43.821 7.92508 43.5879 7.92508C43.3548 7.92508 42.8887 8.15817 42.6556 8.39126C42.4225 8.39126 42.4225 8.39126 42.1894 8.62435C39.8585 5.59417 36.129 3.72945 31.9334 3.72945C27.7378 3.72945 24.0083 5.59417 21.6774 8.62435L21.6774 8.62435C21.4443 8.62435 21.4443 8.62435 21.2112 8.39126C20.9781 8.15817 20.5119 8.15817 20.2788 7.92508C20.0457 7.69199 20.0457 7.69199 19.8127 7.69199ZM39.6254 10.0229C39.3923 10.0229 39.3923 10.0229 39.6254 10.0229C39.3923 10.0229 39.3923 10.0229 39.6254 10.0229C37.7607 7.92508 34.9636 6.75962 32.1665 6.75962C29.1363 6.75962 26.5723 8.15817 24.7076 10.0229L24.7076 10.0229C24.4745 9.7898 24.2414 9.7898 24.0083 9.55671C23.7752 9.32362 23.5421 9.32362 23.3091 9.09053L23.3091 9.09053C25.4069 6.52653 28.6701 4.8949 32.3996 4.8949C35.8959 4.8949 39.1592 6.52653 41.4901 9.09053C41.257 9.32362 41.0239 9.32362 40.7908 9.55671C40.0916 9.7898 39.8585 9.7898 39.6254 10.0229ZM37.5276 11.6545C37.2945 11.8876 37.0614 12.1207 36.8283 12.3538C35.6628 10.9553 33.7981 10.0229 31.9334 10.0229C29.8356 10.0229 28.204 10.9553 27.0385 12.3538L27.0385 12.3538C26.8054 12.1207 26.5723 11.8876 26.3392 11.6545C26.1061 11.4214 26.1061 11.1883 25.873 11.1883L25.873 11.1883L25.873 11.1883C27.5047 9.55671 29.6025 8.39126 32.1665 8.39126C34.7305 8.39126 36.8283 9.55671 38.4599 11.1883L38.4599 11.1883L38.4599 11.1883C37.9938 11.4214 37.7607 11.4214 37.5276 11.6545ZM4.19561 15.1509L4.19561 15.1509C3.7294 14.9178 3.03015 14.6847 2.33091 14.4516C5.12794 10.4891 9.55666 8.39126 14.4516 8.39126C16.3163 8.39126 17.9479 8.62435 19.5796 9.32362C19.5796 9.32362 19.8127 9.32362 19.8127 9.55671C20.2788 9.7898 20.5119 9.7898 20.9781 10.0229C21.2112 10.0229 21.2112 10.256 21.4443 10.256C21.6774 10.4891 22.1436 10.4891 22.3766 10.7222C22.6097 10.7222 22.6097 10.9553 22.8428 10.9553C23.0759 11.1883 23.3091 11.4214 23.7752 11.6545C24.0083 11.6545 24.0083 11.8876 24.2414 11.8876C24.7076 12.1207 24.9407 12.5869 25.4069 13.0531C25.4069 13.0531 25.4069 13.0531 25.4069 13.2862C25.64 13.7523 26.1061 13.9854 26.3392 14.4516C26.3392 14.4516 26.3392 14.4516 26.3392 14.6847C26.1061 14.6847 26.1061 14.6847 25.873 14.9178C25.64 14.9178 25.1738 15.1509 24.9407 15.384C24.7076 15.384 24.7076 15.384 24.4745 15.6171C22.1436 12.5869 18.4141 10.7222 14.2185 10.7222C10.4891 10.256 6.7596 12.1207 4.19561 15.1509ZM7.22576 17.0156C6.7596 16.5494 6.2934 16.3163 5.59415 16.0832L5.59415 16.0832C7.69196 13.5192 10.9552 11.8876 14.6847 11.8876C18.181 11.8876 21.4443 13.5192 23.7752 16.0832C23.5421 16.3163 23.3091 16.3163 23.0759 16.5494C22.8428 16.7825 22.6097 16.7825 22.3766 17.0156L22.3766 17.0156L22.3766 17.0156C20.5119 14.9178 17.9479 13.7523 14.9178 13.7523C11.6545 13.5192 9.09051 14.9178 7.22576 17.0156ZM9.55666 19.1134L9.55666 19.1134C9.09051 18.6472 8.6243 18.1811 8.15817 17.7149L8.15817 17.7149C9.78975 16.0832 11.8876 14.9178 14.4516 14.9178C17.0156 14.9178 19.1134 16.0832 20.745 17.7149L20.745 17.7149L20.745 17.7149C20.5119 17.948 20.2788 18.1811 20.2788 18.1811C20.0457 18.4142 19.8127 18.6472 19.5796 18.8803C18.4141 17.4818 16.5494 16.5494 14.6847 16.5494C12.5869 17.0156 10.9552 17.7149 9.55666 19.1134ZM36.8283 26.1061C35.6628 24.7076 33.7981 23.7752 31.9334 23.7752C29.8356 23.7752 28.204 24.7076 27.0385 26.1061L27.0385 26.1061C26.5723 25.64 26.1061 25.1738 25.64 24.7076L25.64 24.7076C27.2716 23.076 29.3694 21.9105 31.9334 21.9105C34.4974 21.9105 36.5952 23.076 38.2268 24.7076L38.2268 24.7076C37.7607 25.1738 37.2945 25.64 36.8283 26.1061ZM39.3923 23.7752L39.3923 23.7752C37.5276 21.6774 34.9636 20.512 31.9334 20.512C28.9032 20.512 26.3392 21.9105 24.4745 23.7752C24.0083 23.3091 23.5421 23.076 22.8428 22.8429L22.8428 22.8429C24.9407 20.2789 28.204 18.6472 31.9334 18.6472C35.4298 18.6472 38.693 20.2789 41.0239 22.8429C40.3247 23.076 39.8585 23.3091 39.3923 23.7752ZM31.9334 17.0156C27.7378 17.0156 24.0083 18.8803 21.6774 21.9105L21.6774 21.9105C21.2112 21.6774 20.5119 21.4443 19.8127 21.2112C19.8127 21.2112 19.8127 21.2112 19.8127 20.9781C20.0457 20.512 20.5119 20.2789 20.745 19.8127C20.745 19.8127 20.745 19.5796 20.9781 19.5796C21.4443 19.1134 21.6774 18.8803 22.1436 18.4142C22.3766 18.1811 22.3766 18.1811 22.6097 18.1811C22.8428 17.948 23.0759 17.7149 23.5421 17.4818C23.7752 17.2487 23.7752 17.2487 24.0083 17.2487C24.2414 17.0156 24.4745 17.0156 24.9407 16.7825C25.1738 16.7825 25.1738 16.5494 25.4069 16.5494C25.873 16.3163 26.1061 16.0832 26.5723 16.0832C26.5723 16.0832 26.8054 16.0832 26.8054 15.8502C27.2716 15.6171 27.7378 15.6171 28.204 15.384C28.6701 15.384 29.1363 15.1509 29.6025 15.1509C29.8356 15.1509 29.8356 15.1509 30.0687 15.1509C31.2341 14.9178 32.6327 14.9178 33.7981 15.1509C34.0312 15.1509 34.0312 15.1509 34.2643 15.1509C34.7305 15.1509 35.1967 15.384 35.6628 15.384C36.129 15.6171 36.5952 15.6171 37.0614 15.8502C37.0614 15.8502 37.2945 15.8502 37.2945 16.0832C37.7607 16.3163 37.9938 16.3163 38.4599 16.5494C38.693 16.5494 38.693 16.7825 38.9261 16.7825C39.1592 17.0156 39.6254 17.0156 39.8585 17.2487C40.0916 17.2487 40.0916 17.4818 40.3247 17.4818C40.5578 17.7149 40.7908 17.948 41.257 18.1811C41.4901 18.1811 41.4901 18.4142 41.7232 18.4142C42.1894 18.6472 42.4225 19.1134 42.8887 19.5796C42.8887 19.5796 42.8887 19.5796 42.8887 19.8127C43.1217 20.2789 43.5879 20.512 43.821 20.9781C43.821 20.9781 43.821 20.9781 43.821 21.2112C43.1217 21.4443 42.6556 21.6774 41.9563 21.9105C39.8585 18.8803 36.129 17.0156 31.9334 17.0156ZM54.3101 19.1134C53.1446 17.7149 51.2799 16.7825 49.4152 16.7825C47.3174 16.7825 45.6857 17.7149 44.5203 19.1134L44.5203 19.1134C44.2872 18.8803 44.0541 18.6472 43.821 18.4142C43.5879 18.1811 43.5879 17.948 43.3548 17.948L43.3548 17.948L43.3548 17.948C44.9865 16.3163 47.0843 15.1509 49.6483 15.1509C52.2123 15.1509 54.3101 16.3163 55.9417 17.948L55.9417 17.948C55.2425 18.1811 54.7763 18.6472 54.3101 19.1134ZM56.8741 17.0156L56.8741 17.0156C55.0094 14.9178 52.4454 13.7523 49.4152 13.7523C46.385 13.7523 43.821 15.1509 41.9563 17.0156L41.9563 17.0156C41.7232 16.7825 41.4901 16.7825 41.257 16.5494C41.0239 16.3163 40.7908 16.3163 40.5578 16.0832L40.5578 16.0832C42.6556 13.5192 45.9188 11.8876 49.6483 11.8876C53.1446 11.8876 56.4079 13.5192 58.7388 16.0832C57.8064 16.3163 57.3403 16.5494 56.8741 17.0156ZM59.6712 15.1509C57.3403 12.1207 53.6108 10.256 49.4152 10.256C45.2196 10.256 41.4901 12.1207 39.1592 15.1509L39.1592 15.1509C38.9261 15.1509 38.9261 15.1509 38.693 14.9178C38.4599 14.6847 37.9938 14.6847 37.7607 14.4516C37.5276 14.4516 37.5276 14.2185 37.2945 14.2185C37.2945 14.2185 37.2945 14.2185 37.2945 13.9854C37.5276 13.5192 37.9938 13.2862 38.2268 12.82C38.2268 12.82 38.2268 12.5869 38.4599 12.5869C38.9261 12.1207 39.1592 11.8876 39.6254 11.4214C39.8585 11.1883 39.8585 11.1883 40.0916 11.1883C40.3247 10.9553 40.5578 10.7222 41.0239 10.4891C41.257 10.256 41.257 10.256 41.4901 10.256C41.7232 10.0229 41.9563 10.0229 42.4225 9.7898C42.6556 9.7898 42.6556 9.55671 42.8887 9.55671C43.3548 9.32362 43.5879 9.09053 44.0541 9.09053C44.0541 9.09053 44.2872 9.09053 44.2872 8.85744C45.9188 8.15817 47.7836 7.92508 49.4152 7.92508C54.3101 7.92508 58.7388 10.256 61.5359 13.9854C60.8366 14.6847 60.3704 14.9178 59.6712 15.1509Z"   fill="#D5B270" ></path></svg>