<svg xmlns="http://www.w3.org/2000/svg" xmlns:xlink="http://www.w3.org/1999/xlink" width="36" height="36" viewBox="0 0 36 36" fill="none"><path d="M35.955 17.0777C35.9416 16.81 35.9223 16.5428 35.897 16.276C35.8717 16.0092 35.8404 15.7431 35.8031 15.4777C35.7659 15.2123 35.7226 14.9478 35.6734 14.6843C35.6242 14.4209 35.5693 14.1586 35.5085 13.8976C35.4477 13.6366 35.3809 13.3771 35.3085 13.119C35.236 12.861 35.158 12.6047 35.074 12.3502C34.9901 12.0956 34.9006 11.8431 34.8054 11.5926C34.7102 11.342 34.6094 11.0938 34.5031 10.8477C34.3968 10.6017 34.2851 10.3582 34.1679 10.1172C34.0507 9.87612 33.9282 9.63783 33.8003 9.40229C33.6724 9.16674 33.5394 8.93418 33.4012 8.70454C33.2629 8.47497 33.1196 8.24856 32.9712 8.02536C32.8228 7.80219 32.6695 7.58246 32.5113 7.36611C32.3531 7.14976 32.1902 6.93706 32.0224 6.72802C31.8547 6.51898 31.6824 6.31381 31.5055 6.11243C31.3286 5.91113 31.1473 5.71383 30.9616 5.52058C30.7758 5.32736 30.5859 5.1384 30.3918 4.95365C30.1976 4.76894 29.9994 4.58862 29.7971 4.41274C29.5949 4.23688 29.3888 4.0656 29.1789 3.89896C28.969 3.73232 28.7555 3.57043 28.5384 3.41332C28.3213 3.25622 28.1007 3.10405 27.8768 2.95681C27.6528 2.80957 27.4257 2.6674 27.1954 2.53032C26.9651 2.39324 26.7319 2.26137 26.4957 2.13472C26.2595 2.00807 26.0206 1.88676 25.7789 1.77079C25.5373 1.65482 25.2932 1.54431 25.0467 1.43927C24.8001 1.33422 24.5513 1.23473 24.3003 1.14081C24.0493 1.04688 23.7963 0.958621 23.5413 0.87601C23.2864 0.7934 23.0297 0.716535 22.7713 0.645407C22.5129 0.574278 22.253 0.508962 21.9917 0.449456C21.7304 0.389947 21.4678 0.336312 21.2041 0.288547C20.9404 0.240782 20.6758 0.198935 20.4102 0.163006C20.1446 0.127078 19.8783 0.0971027 19.6114 0.0730822C19.3444 0.0490617 19.0771 0.0310195 18.8094 0.0189552C18.5416 0.00689099 18.2738 0.000817035 18.0058 0.0007333C17.7378 0.000649562 17.4699 0.00655612 17.2021 0.018453C16.9344 0.0303498 16.667 0.048225 16.4001 0.0720789C16.1332 0.0959327 15.8669 0.125741 15.6013 0.161504C15.3356 0.197267 15.071 0.238949 14.8072 0.286549C14.5434 0.33415 14.2809 0.38762 14.0195 0.446964C13.7582 0.506307 13.4983 0.571462 13.2398 0.642429C12.9814 0.713395 12.7247 0.790106 12.4696 0.872555C12.2147 0.955003 11.9616 1.04311 11.7105 1.13688C11.4595 1.23064 11.2106 1.32997 10.964 1.43487C10.7173 1.53976 10.4732 1.65012 10.2315 1.76593C9.98979 1.88175 9.7508 2.00291 9.51451 2.12942C9.27822 2.25592 9.04493 2.38764 8.81455 2.52458C8.58417 2.66152 8.35696 2.80354 8.13291 2.95064C7.90885 3.09774 7.68825 3.24977 7.47102 3.40675C7.25379 3.56371 7.04014 3.72547 6.83016 3.89197C6.62017 4.0585 6.41398 4.22964 6.21165 4.40539C6.00929 4.58113 5.81098 4.76131 5.6167 4.94592C5.42239 5.13056 5.23234 5.31942 5.0465 5.51249C4.86067 5.70564 4.67923 5.9028 4.50221 6.104C4.3252 6.30523 4.15276 6.51033 3.98489 6.71927C3.81705 6.92824 3.65396 7.14083 3.49561 7.35704C3.33727 7.57328 3.18383 7.79294 3.03532 8.01604C2.8868 8.23914 2.74334 8.46544 2.60494 8.69494C2.46655 8.92444 2.33335 9.15693 2.20535 9.39241C2.07735 9.62788 1.95468 9.8661 1.83734 10.1071C1.71999 10.348 1.60809 10.5915 1.50163 10.8374C1.39518 11.0834 1.29427 11.3316 1.19891 11.5821C1.10356 11.8326 1.01385 12.0851 0.929788 12.3395C0.845722 12.594 0.767387 12.8502 0.694786 13.1082C0.622185 13.3662 0.555384 13.6257 0.494385 13.8867C0.413283 14.2231 0.342076 14.5616 0.280767 14.9022C0.219458 15.2428 0.168152 15.5848 0.126848 15.9284C0.0855432 16.272 0.0543115 16.6165 0.0331519 16.9619C0.0119926 17.3073 0.000941938 17.653 0 17.999C0.00319069 18.6602 0.0406438 19.3194 0.11236 19.9766C0.139509 20.2248 0.171812 20.4722 0.209271 20.719C0.246729 20.9658 0.28931 21.2118 0.337012 21.4568C0.384715 21.7018 0.437498 21.9458 0.495362 22.1886C0.553226 22.4314 0.616124 22.6729 0.684049 22.9131C0.751975 23.1534 0.824871 23.392 0.902739 23.6292C0.980606 23.8664 1.06338 24.1019 1.15106 24.3356C1.23873 24.5693 1.33124 24.8011 1.42857 25.031C1.52591 25.2609 1.62799 25.4886 1.73481 25.7143C1.84163 25.9399 1.9531 26.1632 2.06923 26.3842C2.18535 26.6051 2.30602 26.8236 2.43124 27.0395C2.55647 27.2555 2.68613 27.4688 2.82024 27.6793C2.95435 27.8899 3.09278 28.0975 3.23554 28.3023C3.3783 28.5071 3.52526 28.7088 3.67643 28.9075C3.82757 29.1062 3.98282 29.3016 4.14211 29.4938C4.3014 29.686 4.46467 29.8748 4.63183 30.0602C4.799 30.2455 4.96993 30.4274 5.14469 30.6057C5.31946 30.784 5.4978 30.9585 5.67981 31.1293C5.86181 31.3002 6.04733 31.4672 6.2363 31.6303C6.42526 31.7934 6.61757 31.9525 6.81314 32.1076C7.00875 32.2627 7.20749 32.4137 7.40939 32.5605C7.61129 32.7074 7.81615 32.8499 8.02396 32.9882C8.23176 33.1265 8.44238 33.2604 8.65578 33.3899C8.86918 33.5194 9.08518 33.6445 9.30382 33.765C9.52242 33.8855 9.74345 34.0014 9.9669 34.1127C10.1903 34.2241 10.416 34.3307 10.6439 34.4326C10.8718 34.5345 11.1017 34.6316 11.3336 34.724C11.5655 34.8163 11.7993 34.9038 12.0349 34.9864C12.2704 35.0689 12.5076 35.1467 12.7464 35.2196C12.9852 35.292 13.2254 35.3598 13.4671 35.4224C13.7087 35.485 13.9515 35.5426 14.1956 35.5954C14.4396 35.6481 14.6846 35.6956 14.9306 35.7381C15.1766 35.7803 15.4234 35.8176 15.671 35.8499C15.9185 35.8819 16.1666 35.9086 16.4153 35.9304C16.664 35.9522 16.913 35.9687 17.1624 35.9803C17.4118 35.9916 17.6613 35.9979 17.9109 35.999C18.1606 35.9997 18.4101 35.9955 18.6595 35.9863C18.909 35.9768 19.1581 35.9624 19.407 35.9427C19.6559 35.9227 19.9042 35.8977 20.152 35.8678C20.3998 35.8376 20.6469 35.8021 20.8932 35.762C21.1396 35.7216 21.3849 35.6762 21.6294 35.6256C21.8738 35.575 22.1171 35.5191 22.3592 35.4583C22.6014 35.3974 22.8421 35.3317 23.0815 35.261C23.3209 35.19 23.5587 35.1144 23.7949 35.0337C24.0312 34.953 24.2656 34.8674 24.4983 34.777C24.7309 34.6865 24.9616 34.5912 25.1903 34.4912C25.419 34.3911 25.6455 34.2863 25.8699 34.1768C26.0942 34.0673 26.3161 33.9532 26.5357 33.8344C26.7553 33.7156 26.9723 33.5924 27.1867 33.4646C27.4012 33.3368 27.6129 33.2046 27.8218 33.068C28.0307 32.9313 28.2367 32.7904 28.4398 32.6452C28.6428 32.5 28.8428 32.3507 29.0397 32.1971C29.2365 32.0436 29.43 31.8861 29.6203 31.7245C29.8106 31.5629 29.9974 31.3974 30.1808 31.228C30.3642 31.0587 30.544 30.8856 30.7202 30.7087C30.8963 30.5318 31.0687 30.3514 31.2374 30.1673C31.406 29.9833 31.5708 29.7958 31.7316 29.6049C31.8925 29.414 32.0493 29.2198 32.202 29.0224C32.3548 28.825 32.5034 28.6244 32.6478 28.4208C32.7922 28.2171 32.9323 28.0106 33.0681 27.8011C33.2039 27.5917 33.3353 27.3795 33.4622 27.1645C33.5892 26.9496 33.7116 26.7321 33.8295 26.5121C33.9474 26.292 34.0607 26.0697 34.1693 25.8449C34.2779 25.6201 34.3819 25.3932 34.481 25.1641C34.5802 24.9351 34.6746 24.704 34.7641 24.471C34.8139 24.3424 34.8622 24.2132 34.9089 24.0834C34.9556 23.9537 35.0008 23.8234 35.0445 23.6926C35.0882 23.5618 35.1304 23.4305 35.171 23.2987C35.2114 23.1669 35.2505 23.0347 35.2881 22.902C35.3257 22.7693 35.3616 22.6362 35.396 22.5026C35.4305 22.3691 35.4632 22.2352 35.4944 22.1008C35.5257 21.9665 35.5556 21.8318 35.5837 21.6968C35.6119 21.5618 35.6382 21.4265 35.6632 21.2909C35.6882 21.1553 35.7117 21.0194 35.7335 20.8832C35.7553 20.747 35.7753 20.6106 35.794 20.474C35.8126 20.3373 35.8295 20.2005 35.845 20.0634C35.8604 19.9264 35.8741 19.7892 35.8864 19.6518C35.8987 19.5145 35.9093 19.377 35.9181 19.2393C35.9269 19.1017 35.9342 18.964 35.9402 18.8262C35.9459 18.6885 35.9501 18.5506 35.9525 18.4127C35.955 18.2748 35.956 18.137 35.955 17.999L35.955 17.0777ZM10.1124 20.2462C10.0572 20.2462 10.0021 20.2449 9.947 20.2422C9.89191 20.2395 9.83689 20.2354 9.78198 20.23C9.7271 20.2246 9.67236 20.2179 9.6178 20.2098C9.56324 20.2017 9.50889 20.1922 9.45478 20.1815C9.40067 20.1707 9.34688 20.1586 9.29334 20.1452C9.23983 20.1318 9.18668 20.1171 9.13391 20.1011C9.0811 20.0851 9.02872 20.0678 8.9768 20.0492C8.92487 20.0307 8.8734 20.0108 8.82242 19.9897C8.77148 19.9686 8.72107 19.9462 8.67118 19.9226C8.62129 19.899 8.57204 19.8742 8.52342 19.8482C8.47476 19.8222 8.42678 19.795 8.37946 19.7667C8.33214 19.7383 8.28555 19.7088 8.23967 19.6782C8.1938 19.6475 8.14872 19.6158 8.10439 19.5829C8.0601 19.55 8.01661 19.5161 7.97396 19.4811C7.93132 19.4461 7.88959 19.4101 7.8487 19.3731C7.80782 19.336 7.76788 19.298 7.72889 19.259C7.68987 19.2199 7.65183 19.18 7.61481 19.1391C7.57775 19.0983 7.54172 19.0565 7.50674 19.0139C7.47176 18.9712 7.4378 18.9277 7.40492 18.8834C7.37205 18.8391 7.34031 18.794 7.30969 18.7482C7.27903 18.7023 7.24953 18.6557 7.22116 18.6084C7.19279 18.5611 7.16562 18.5131 7.1396 18.4644C7.11362 18.4158 7.0888 18.3665 7.06521 18.3166C7.04162 18.2668 7.0193 18.2163 6.99817 18.1654C6.97707 18.1144 6.95725 18.063 6.93865 18.011C6.92005 17.9591 6.90275 17.9068 6.88672 17.854C6.87073 17.8011 6.856 17.748 6.8426 17.6945C6.82921 17.641 6.81711 17.5872 6.80635 17.533C6.7956 17.479 6.78617 17.4246 6.77809 17.3701C6.76997 17.3155 6.76322 17.2608 6.75784 17.2058C6.75242 17.151 6.74835 17.096 6.74564 17.0409C6.74293 16.9858 6.7416 16.9306 6.7416 16.8755C6.7416 16.8203 6.74293 16.7652 6.74564 16.71C6.74835 16.6549 6.75242 16.6 6.75784 16.5451C6.76322 16.4902 6.76997 16.4354 6.77809 16.3808C6.78617 16.3263 6.7956 16.272 6.80635 16.2179C6.81711 16.1637 6.82921 16.1099 6.8426 16.0564C6.856 16.0029 6.87073 15.9498 6.88672 15.8969C6.90275 15.8442 6.92005 15.7918 6.93865 15.7399C6.95725 15.6879 6.97707 15.6365 6.99817 15.5855C7.0193 15.5346 7.04162 15.4841 7.06521 15.4343C7.0888 15.3844 7.11362 15.3351 7.1396 15.2865C7.16562 15.2378 7.19279 15.1898 7.22116 15.1425C7.24953 15.0952 7.27903 15.0486 7.30969 15.0027C7.34031 14.9569 7.37205 14.9118 7.40492 14.8675C7.4378 14.8232 7.47176 14.7797 7.50674 14.737C7.54172 14.6944 7.57775 14.6527 7.61481 14.6118C7.65183 14.5709 7.68987 14.5309 7.72889 14.4919C7.76788 14.4529 7.80782 14.4149 7.8487 14.3778C7.88959 14.3408 7.93132 14.3048 7.97396 14.2698C8.01661 14.2348 8.0601 14.2009 8.10439 14.168C8.14872 14.1352 8.1938 14.1034 8.23967 14.0727C8.28555 14.0421 8.33214 14.0126 8.37946 13.9842C8.42678 13.9559 8.47476 13.9287 8.52342 13.9027C8.57204 13.8767 8.62129 13.8519 8.67118 13.8283C8.72107 13.8047 8.77148 13.7824 8.82242 13.7612C8.8734 13.7401 8.92487 13.7203 8.9768 13.7017C9.02872 13.6831 9.0811 13.6658 9.13391 13.6498C9.18668 13.6338 9.23983 13.6191 9.29334 13.6057C9.34688 13.5923 9.40067 13.5802 9.45478 13.5694C9.50889 13.5587 9.56324 13.5492 9.6178 13.5411C9.67236 13.533 9.7271 13.5263 9.78198 13.5209C9.83689 13.5155 9.89191 13.5115 9.947 13.5087C10.0021 13.506 10.0572 13.5047 10.1124 13.5047C10.1675 13.5047 10.2227 13.506 10.2778 13.5087C10.3329 13.5115 10.3879 13.5155 10.4428 13.5209C10.4977 13.5263 10.5524 13.533 10.607 13.5411C10.6616 13.5492 10.7159 13.5587 10.77 13.5694C10.8241 13.5802 10.8779 13.5923 10.9314 13.6057C10.985 13.6191 11.0381 13.6338 11.0909 13.6498C11.1437 13.6658 11.196 13.6831 11.248 13.7017C11.2999 13.7203 11.3514 13.7401 11.4023 13.7612C11.4533 13.7824 11.5037 13.8047 11.5536 13.8283C11.6035 13.8519 11.6527 13.8767 11.7014 13.9027C11.75 13.9287 11.798 13.9559 11.8453 13.9842C11.8927 14.0126 11.9392 14.0421 11.9851 14.0727C12.031 14.1034 12.0761 14.1352 12.1204 14.168C12.1647 14.2009 12.2081 14.2348 12.2508 14.2698C12.2934 14.3048 12.3352 14.3408 12.3761 14.3778C12.417 14.4149 12.4569 14.4529 12.4959 14.4919C12.5349 14.5309 12.5729 14.5709 12.61 14.6118C12.647 14.6527 12.6831 14.6944 12.7181 14.737C12.753 14.7797 12.787 14.8232 12.8198 14.8675C12.8527 14.9118 12.8844 14.9569 12.9151 15.0027C12.9458 15.0486 12.9753 15.0952 13.0036 15.1425C13.032 15.1898 13.0592 15.2378 13.0852 15.2865C13.1112 15.3351 13.136 15.3844 13.1595 15.4343C13.1831 15.4841 13.2055 15.5346 13.2266 15.5855C13.2477 15.6365 13.2675 15.6879 13.2861 15.7399C13.3047 15.7918 13.322 15.8442 13.338 15.8969C13.354 15.9498 13.3688 16.0029 13.3822 16.0564C13.3955 16.1099 13.4076 16.1637 13.4184 16.2179C13.4292 16.272 13.4386 16.3263 13.4467 16.3808C13.4548 16.4354 13.4615 16.4902 13.467 16.5451C13.4724 16.6 13.4764 16.6549 13.4791 16.71C13.4818 16.7652 13.4832 16.8203 13.4832 16.8755C13.4832 16.9306 13.4818 16.9858 13.4791 17.0409C13.4764 17.096 13.4724 17.151 13.467 17.2058C13.4615 17.2608 13.4548 17.3155 13.4467 17.3701C13.4386 17.4246 13.4292 17.479 13.4184 17.533C13.4076 17.5872 13.3955 17.641 13.3822 17.6945C13.3688 17.748 13.354 17.8011 13.338 17.854C13.322 17.9068 13.3047 17.9591 13.2861 18.011C13.2675 18.063 13.2477 18.1144 13.2266 18.1654C13.2055 18.2163 13.1831 18.2668 13.1595 18.3166C13.136 18.3665 13.1112 18.4158 13.0852 18.4644C13.0592 18.5131 13.032 18.5611 13.0036 18.6084C12.9753 18.6557 12.9458 18.7023 12.9151 18.7482C12.8844 18.794 12.8527 18.8391 12.8198 18.8834C12.787 18.9277 12.753 18.9712 12.7181 19.0139C12.6831 19.0565 12.647 19.0983 12.61 19.1391C12.5729 19.18 12.5349 19.2199 12.4959 19.259C12.4569 19.298 12.417 19.336 12.3761 19.3731C12.3352 19.4101 12.2934 19.4461 12.2508 19.4811C12.2081 19.5161 12.1647 19.55 12.1204 19.5829C12.0761 19.6158 12.031 19.6475 11.9851 19.6782C11.9392 19.7088 11.8927 19.7383 11.8453 19.7667C11.798 19.795 11.75 19.8222 11.7014 19.8482C11.6527 19.8742 11.6035 19.899 11.5536 19.9226C11.5037 19.9462 11.4533 19.9686 11.4023 19.9897C11.3514 20.0108 11.2999 20.0307 11.248 20.0492C11.196 20.0678 11.1437 20.0851 11.0909 20.1011C11.0381 20.1171 10.985 20.1318 10.9314 20.1452C10.8779 20.1586 10.8241 20.1707 10.77 20.1815C10.7159 20.1922 10.6616 20.2017 10.607 20.2098C10.5524 20.2179 10.4977 20.2246 10.4428 20.23C10.3879 20.2354 10.3329 20.2395 10.2778 20.2422C10.2227 20.2449 10.1675 20.2462 10.1124 20.2462ZM33.3709 21.235C33.3222 21.3124 33.2725 21.3891 33.2216 21.465C33.1707 21.5409 33.1187 21.616 33.0655 21.6903C33.0123 21.7647 32.9581 21.8382 32.9027 21.9109C32.8474 21.9836 32.7909 22.0555 32.7334 22.1265C32.6759 22.1975 32.6173 22.2676 32.5577 22.3369C32.4981 22.4062 32.4374 22.4745 32.3758 22.542C32.3141 22.6095 32.2514 22.676 32.1878 22.7416C32.1241 22.8071 32.0595 22.8717 31.9939 22.9353C31.9283 22.999 31.8617 23.0616 31.7943 23.1232C31.7268 23.1849 31.6584 23.2455 31.5891 23.3051C31.5198 23.3647 31.4496 23.4232 31.3786 23.4807C31.3075 23.5382 31.2356 23.5946 31.1629 23.6499C31.0901 23.7053 31.0166 23.7595 30.9422 23.8126C30.8679 23.8657 30.7927 23.9177 30.7168 23.9686C30.6409 24.0194 30.5642 24.0692 30.4868 24.1177C30.4093 24.1663 30.3312 24.2137 30.2524 24.2599C30.1736 24.3062 30.0941 24.3512 30.0139 24.3951C29.9337 24.4389 29.8529 24.4816 29.7714 24.523C29.6899 24.5644 29.6079 24.6046 29.5252 24.6436C29.4425 24.6825 29.3593 24.7202 29.2755 24.7567C29.1917 24.7932 29.1073 24.8284 29.0225 24.8624C28.9376 24.8963 28.8523 24.9289 28.7665 24.9603C28.6806 24.9917 28.5943 25.0218 28.5076 25.0506C28.4209 25.0794 28.3337 25.1069 28.2462 25.1331C28.1586 25.1592 28.0707 25.1841 27.9824 25.2077C27.8941 25.2312 27.8054 25.2534 27.7164 25.2743C27.6275 25.2952 27.5382 25.3148 27.4487 25.333C27.3591 25.3512 27.2693 25.3681 27.1792 25.3836C27.0892 25.3991 26.9989 25.4132 26.9084 25.4261C26.8179 25.4389 26.7272 25.4504 26.6364 25.4605C26.5456 25.4706 26.4546 25.4793 26.3635 25.4867C26.2724 25.494 26.1812 25.5 26.09 25.5047C22.7192 25.5047 19.1012 22.9654 19.1012 17.3474C19.1012 10.6058 14.4495 6.94283 9.86519 6.94283C9.70235 6.94529 9.53968 6.95168 9.37715 6.96202C9.21463 6.97239 9.05245 6.9867 8.89063 7.00498C8.7288 7.02326 8.56754 7.04545 8.40681 7.07157C8.24604 7.09772 8.08604 7.12775 7.92675 7.16164C7.76749 7.1956 7.60915 7.23339 7.45168 7.27502C7.29425 7.31668 7.13791 7.36213 6.9827 7.41139C6.82748 7.46068 6.67353 7.51369 6.52092 7.57047C6.36827 7.62725 6.2171 7.68772 6.06744 7.75184C6.19741 7.60123 6.33016 7.45312 6.46573 7.3075C6.60132 7.16192 6.73959 7.01894 6.8806 6.87859C7.02162 6.73825 7.16523 6.60065 7.31144 6.46576C7.45766 6.33086 7.60637 6.19878 7.75761 6.06954C7.90885 5.94031 8.06249 5.81396 8.21851 5.69053C8.37453 5.56713 8.53284 5.44668 8.69344 5.32926C8.85403 5.21184 9.0168 5.09751 9.18172 4.98627C9.34664 4.87504 9.51363 4.76697 9.68266 4.66206C9.85169 4.55716 10.0227 4.45552 10.1956 4.35708C10.3685 4.25868 10.5431 4.16358 10.7196 4.07176C10.8962 3.98 11.0743 3.89158 11.2542 3.80654C11.434 3.72153 11.6154 3.63993 11.7984 3.56178C11.9813 3.48363 12.1657 3.40897 12.3515 3.33782C12.5372 3.26666 12.7243 3.19906 12.9126 3.13501C13.101 3.07095 13.2905 3.01049 13.4811 2.95363C13.6718 2.89676 13.8634 2.84352 14.0561 2.79393C14.2488 2.74433 14.4423 2.69841 14.6367 2.65616C14.831 2.61391 15.0262 2.57535 15.2221 2.54051C15.4179 2.50566 15.6144 2.47454 15.8114 2.44714C16.0085 2.41975 16.206 2.3961 16.4039 2.37619C16.6019 2.35629 16.8001 2.34015 16.9986 2.32777C17.1972 2.31539 17.3959 2.30678 17.5948 2.30194C17.7937 2.29709 17.9926 2.29603 18.1915 2.29873C18.3904 2.30144 18.5893 2.30791 18.7879 2.31816C18.9866 2.32841 19.185 2.34242 19.3831 2.3602C19.5813 2.37797 19.779 2.3995 19.9763 2.42478C20.1737 2.45006 20.3704 2.47907 20.5667 2.51181C20.7629 2.54455 20.9584 2.58101 21.1533 2.62117C21.3481 2.66133 21.5421 2.70518 21.7353 2.7527C21.9285 2.80022 22.1207 2.85139 22.3119 2.90621C22.5032 2.96102 22.6933 3.01945 22.8824 3.08148C23.0714 3.14351 23.2592 3.2091 23.4457 3.27825C23.6322 3.3474 23.8174 3.42007 24.0011 3.49625C24.1849 3.57243 24.3672 3.65206 24.548 3.73517C24.7287 3.81828 24.9078 3.90476 25.0853 3.99462C25.2628 4.08455 25.4385 4.17775 25.6124 4.27429C25.7863 4.37086 25.9584 4.47067 26.1285 4.57375C26.2987 4.67683 26.4668 4.78311 26.6329 4.89258C26.799 5.00206 26.963 5.11463 27.1249 5.23029C27.2867 5.34599 27.4463 5.46472 27.6037 5.58643C27.761 5.70817 27.916 5.83287 28.0686 5.96049C28.2212 6.08811 28.3713 6.21857 28.519 6.35188C28.6667 6.4852 28.8118 6.62129 28.9543 6.76008C29.0968 6.89892 29.2366 7.04038 29.3737 7.18449C29.5109 7.32863 29.6452 7.4753 29.7767 7.62451C29.9083 7.77374 30.037 7.92541 30.1628 8.0795C30.2887 8.23362 30.4115 8.39007 30.5314 8.54883C30.6512 8.7076 30.768 8.86858 30.8818 9.03177C30.9956 9.19497 31.1062 9.36027 31.2137 9.52765C31.3212 9.69507 31.4255 9.86442 31.5266 10.0358C31.6276 10.2071 31.7255 10.3803 31.82 10.5554C31.9145 10.7305 32.0056 10.9073 32.0934 11.0858C32.1812 11.2643 32.2656 11.4444 32.3465 11.6261C32.4275 11.8079 32.505 11.9911 32.579 12.1757C32.653 12.3604 32.7234 12.5464 32.7904 12.7337C32.8574 12.921 32.9207 13.1096 32.9805 13.2993C33.0403 13.4891 33.0965 13.6799 33.1491 13.8717C33.2016 14.0636 33.2505 14.2564 33.2958 14.4501C33.341 14.6439 33.3826 14.8384 33.4204 15.0337C33.4583 15.229 33.4925 15.4249 33.5229 15.6215C33.5533 15.8181 33.58 16.0152 33.603 16.2129C33.6259 16.4105 33.6451 16.6084 33.6606 16.8068C33.676 17.0051 33.6877 17.2037 33.6956 17.4025C33.7035 17.6012 33.7076 17.8001 33.708 17.999C33.7083 18.2707 33.7015 18.5422 33.6876 18.8136C33.6737 19.0849 33.6527 19.3557 33.6245 19.6259C33.5964 19.8961 33.5611 20.1654 33.5188 20.4338C33.4765 20.7021 33.4272 20.9692 33.3709 21.235Z"   fill="#1D1D1B" ></path><path d="M22.472 19.1227C22.472 19.1779 22.4733 19.233 22.476 19.2881C22.4787 19.3432 22.4828 19.3983 22.4882 19.4531C22.4936 19.508 22.5004 19.5628 22.5085 19.6173C22.5166 19.6719 22.526 19.7263 22.5367 19.7804C22.5475 19.8345 22.5596 19.8883 22.573 19.9418C22.5864 19.9953 22.6011 20.0484 22.6171 20.1012C22.6332 20.154 22.6504 20.2064 22.669 20.2583C22.6876 20.3103 22.7075 20.3617 22.7286 20.4127C22.7497 20.4637 22.772 20.5141 22.7956 20.5639C22.8192 20.6138 22.844 20.6631 22.87 20.7117C22.896 20.7604 22.9232 20.8084 22.9516 20.8557C22.9799 20.903 23.0094 20.9496 23.0401 20.9955C23.0707 21.0413 23.1025 21.0864 23.1353 21.1307C23.1682 21.175 23.2021 21.2185 23.2371 21.2611C23.2721 21.3038 23.3081 21.3456 23.3452 21.3864C23.3822 21.4273 23.4203 21.4673 23.4593 21.5063C23.4983 21.5452 23.5382 21.5833 23.5791 21.6203C23.62 21.6574 23.6617 21.6934 23.7044 21.7284C23.747 21.7634 23.7905 21.7973 23.8348 21.8302C23.8791 21.8631 23.9242 21.8948 23.9701 21.9255C24.0159 21.9561 24.0625 21.9856 24.1098 22.014C24.1572 22.0424 24.2052 22.0695 24.2538 22.0955C24.3024 22.1215 24.3517 22.1463 24.4016 22.1699C24.4514 22.1935 24.5019 22.2158 24.5528 22.2369C24.6038 22.2581 24.6552 22.2779 24.7072 22.2965C24.7591 22.3151 24.8115 22.3324 24.8643 22.3484C24.9171 22.3644 24.9702 22.3791 25.0237 22.3925C25.0773 22.4059 25.1311 22.418 25.1852 22.4288C25.2393 22.4395 25.2936 22.449 25.3482 22.4571C25.4028 22.4651 25.4575 22.4719 25.5124 22.4773C25.5673 22.4827 25.6223 22.4868 25.6774 22.4895C25.7325 22.4922 25.7876 22.4935 25.8428 22.4935C25.8979 22.4935 25.9531 22.4922 26.0082 22.4895C26.0633 22.4868 26.1183 22.4827 26.1732 22.4773C26.2281 22.4719 26.2828 22.4651 26.3374 22.4571C26.3919 22.449 26.4463 22.4395 26.5004 22.4288C26.5545 22.418 26.6083 22.4059 26.6618 22.3925C26.7153 22.3791 26.7685 22.3644 26.8213 22.3484C26.874 22.3324 26.9264 22.3151 26.9783 22.2965C27.0303 22.2779 27.0818 22.2581 27.1327 22.2369C27.1837 22.2158 27.2341 22.1935 27.284 22.1699C27.3338 22.1463 27.3831 22.1215 27.4318 22.0955C27.4804 22.0695 27.5284 22.0424 27.5757 22.014C27.623 21.9856 27.6696 21.9561 27.7155 21.9255C27.7614 21.8948 27.8065 21.8631 27.8507 21.8302C27.8951 21.7973 27.9385 21.7634 27.9812 21.7284C28.0238 21.6934 28.0656 21.6574 28.1065 21.6203C28.1474 21.5833 28.1873 21.5452 28.2263 21.5063C28.2653 21.4673 28.3033 21.4273 28.3404 21.3864C28.3774 21.3456 28.4135 21.3038 28.4484 21.2611C28.4834 21.2185 28.5173 21.175 28.5502 21.1307C28.5831 21.0864 28.6148 21.0413 28.6455 20.9955C28.6761 20.9496 28.7056 20.903 28.734 20.8557C28.7624 20.8084 28.7896 20.7604 28.8155 20.7117C28.8416 20.6631 28.8663 20.6138 28.8899 20.5639C28.9135 20.5141 28.9359 20.4637 28.957 20.4127C28.9781 20.3617 28.9979 20.3103 29.0165 20.2583C29.0351 20.2064 29.0524 20.154 29.0684 20.1012C29.0844 20.0484 29.0991 19.9953 29.1125 19.9418C29.1259 19.8883 29.138 19.8345 29.1488 19.7804C29.1596 19.7263 29.169 19.6719 29.1771 19.6173C29.1852 19.5628 29.1919 19.508 29.1973 19.4531C29.2028 19.3983 29.2068 19.3432 29.2095 19.2881C29.2122 19.233 29.2136 19.1779 29.2136 19.1227C29.2136 19.0676 29.2122 19.0125 29.2095 18.9574C29.2068 18.9023 29.2028 18.8472 29.1973 18.7923C29.1919 18.7374 29.1852 18.6827 29.1771 18.6282C29.169 18.5736 29.1596 18.5192 29.1488 18.4651C29.138 18.411 29.1259 18.3572 29.1125 18.3037C29.0991 18.2502 29.0845 18.197 29.0684 18.1443C29.0524 18.0915 29.0351 18.0391 29.0165 17.9872C28.9979 17.9352 28.9781 17.8838 28.957 17.8328C28.9359 17.7818 28.9135 17.7314 28.8899 17.6815C28.8663 17.6317 28.8416 17.5824 28.8155 17.5338C28.7896 17.4851 28.7624 17.4371 28.734 17.3898C28.7056 17.3425 28.6761 17.2959 28.6455 17.25C28.6148 17.2042 28.5831 17.1591 28.5502 17.1147C28.5173 17.0705 28.4834 17.027 28.4484 16.9843C28.4135 16.9417 28.3774 16.8999 28.3404 16.8591C28.3033 16.8182 28.2653 16.7782 28.2263 16.7392C28.1873 16.7002 28.1474 16.6622 28.1065 16.6252C28.0656 16.5881 28.0238 16.5521 27.9812 16.5171C27.9385 16.4821 27.8951 16.4481 27.8507 16.4153C27.8065 16.3824 27.7614 16.3507 27.7155 16.32C27.6696 16.2894 27.623 16.2599 27.5757 16.2315C27.5284 16.2032 27.4804 16.176 27.4318 16.15C27.3831 16.124 27.3338 16.0992 27.284 16.0756C27.2341 16.052 27.1837 16.0296 27.1327 16.0085C27.0818 15.9874 27.0303 15.9676 26.9783 15.949C26.9264 15.9304 26.874 15.9131 26.8213 15.8971C26.7685 15.8811 26.7153 15.8664 26.6618 15.853C26.6083 15.8396 26.5545 15.8275 26.5004 15.8167C26.4463 15.806 26.3919 15.7965 26.3374 15.7884C26.2828 15.7803 26.2281 15.7736 26.1732 15.7682C26.1183 15.7628 26.0633 15.7587 26.0082 15.756C25.9531 15.7533 25.8979 15.752 25.8428 15.752C25.7876 15.752 25.7325 15.7533 25.6774 15.756C25.6223 15.7587 25.5673 15.7628 25.5124 15.7682C25.4575 15.7736 25.4028 15.7803 25.3482 15.7884C25.2936 15.7965 25.2393 15.806 25.1852 15.8167C25.1311 15.8275 25.0773 15.8396 25.0237 15.853C24.9702 15.8664 24.9171 15.8811 24.8643 15.8971C24.8115 15.9131 24.7591 15.9304 24.7072 15.949C24.6552 15.9676 24.6038 15.9874 24.5528 16.0085C24.5019 16.0296 24.4514 16.052 24.4016 16.0756C24.3517 16.0992 24.3024 16.124 24.2538 16.15C24.2052 16.176 24.1572 16.2032 24.1098 16.2315C24.0625 16.2599 24.0159 16.2894 23.9701 16.32C23.9242 16.3507 23.8791 16.3824 23.8348 16.4153C23.7905 16.4481 23.747 16.4821 23.7044 16.5171C23.6617 16.5521 23.62 16.5881 23.5791 16.6252C23.5382 16.6622 23.4983 16.7002 23.4593 16.7392C23.4203 16.7782 23.3822 16.8182 23.3452 16.8591C23.3081 16.8999 23.2721 16.9417 23.2371 16.9843C23.2021 17.027 23.1682 17.0705 23.1353 17.1147C23.1025 17.1591 23.0707 17.2042 23.0401 17.25C23.0094 17.2959 22.9799 17.3425 22.9516 17.3898C22.9232 17.4371 22.896 17.4851 22.87 17.5338C22.844 17.5824 22.8192 17.6317 22.7956 17.6815C22.772 17.7314 22.7497 17.7818 22.7286 17.8328C22.7075 17.8838 22.6876 17.9352 22.669 17.9872C22.6504 18.0391 22.6332 18.0915 22.6171 18.1443C22.6011 18.197 22.5864 18.2502 22.573 18.3037C22.5596 18.3572 22.5475 18.411 22.5367 18.4651C22.526 18.5192 22.5166 18.5736 22.5085 18.6282C22.5004 18.6827 22.4936 18.7374 22.4882 18.7923C22.4828 18.8472 22.4787 18.9023 22.476 18.9574C22.4733 19.0125 22.472 19.0676 22.472 19.1227Z"   fill="#1D1D1B" ></path></svg>