<svg xmlns="http://www.w3.org/2000/svg" xmlns:xlink="http://www.w3.org/1999/xlink" width="89.9130859375" height="35.18450927734375" viewBox="0 0 89.9130859375 35.18450927734375" fill="none"><path d="M34.0664 20.1064C34.0173 20.2191 33.9661 20.3287 33.913 20.4348C33.2296 21.46 32.2103 22.3173 31.0203 22.8419C31.1799 23.6348 31.3881 24.4975 32.0001 24.9565C32.6957 25.4782 33.7392 25.6521 34.6088 25.6521L34.9566 25.6521L34.9566 26C34.7827 27.5652 35.1305 29.3043 36.0001 30.6956C36.6958 32.0869 38.087 33.1304 39.4783 33.6521C41.0436 34.1739 42.6088 34.3478 44.174 34C45.7392 33.6521 47.1305 32.7826 48.3479 31.7391L48.5218 31.5652L48.6957 31.7391C49.3913 32.2608 50.087 32.6086 50.7826 32.7826C51.4783 32.9565 52.3478 32.9565 53.0435 32.6086C53.7392 32.4347 54.6087 32.0869 55.1305 31.5652C55.6522 31.0434 56.1739 30.3478 56.5218 29.6521L57.2174 29.826C56.6957 31.7391 55.1305 32.9565 53.3913 33.4782C52.5218 33.6521 51.4783 33.826 50.6087 33.4782C49.8158 33.3196 49.0228 32.8718 48.3618 32.2666C47.1826 33.5677 45.8374 34.5368 44.174 34.8695C42.4349 35.3913 40.5218 35.2173 38.9566 34.6956C37.2175 34.1739 35.6523 32.9565 34.9566 31.2173C34.1586 29.7809 33.9465 28.0515 34.1858 26.4324L33.7392 26.5217L32.8697 26.5217C32.3479 26.5217 31.6522 26.3478 31.1305 26C30.6088 25.6521 30.261 25.1304 30.087 24.6087C29.9328 24.146 29.7786 23.6834 29.8669 23.0995C27.7614 23.3918 25.6043 22.8377 23.8261 21.6522C21.7391 20.2609 20.1739 18.5217 18.4348 16.9565C16.6957 15.3913 14.7826 14 12.6956 13.3043C10.6087 12.4348 8.17388 12.087 6.08696 12.6087C4.7321 12.9214 3.50218 13.6087 2.50944 14.5211C1.96214 15.2708 1.52273 16.0913 1.21736 16.9565L0.749632 16.8006L0 18L0.347795 16.4348C1.21736 13.1304 3.99998 10.3478 7.30431 9.47826C10.6087 8.43478 14.087 8.78261 17.3913 9.65217C18.9565 10 20.6957 10.5217 22.2609 10.6957C23.8261 10.8696 25.3913 10.6957 26.7826 9.82609C29.5652 8.26087 31.1304 5.13044 33.5652 2.69565C34.7826 1.47826 36.3478 0.608695 38.087 0.260876C39.8261 -0.0869587 41.5652 -0.0869587 43.3044 0.260876C45.0435 0.608695 46.6087 1.30435 48 2.52174C48.4111 2.88143 48.7766 3.27148 49.0966 3.68741C49.6264 2.86091 50.4001 2.27818 51.3044 1.82606C52.3479 1.30431 53.3913 1.1304 54.6087 1.1304C55.8261 1.1304 56.8696 1.47822 57.7391 2.17387C58.509 2.78981 59.2789 3.54207 59.566 4.43067C60.7425 3.66923 62.2091 3.22957 63.8261 3.39127C64.6956 3.56518 65.3913 3.91301 66.087 4.60866C66.6087 5.1304 67.1305 5.65214 67.6522 6.34779C69.5652 8.78257 71.1305 11.2174 73.5652 12.9565C74.7826 13.826 76.1739 14.5217 77.5652 14.8695C78.9565 15.2173 80.5218 15.0434 81.9131 14.6956C83.2204 14.3688 84.5661 13.85 85.7699 13.1393C86.8628 12.1045 87.797 10.9203 88.5217 9.6522L88.8066 9.82319C88.828 9.76635 88.849 9.70933 88.8696 9.65213L89.1677 9.8012L89.9131 8.60866L89.3913 10.1739C88 14.6956 84 18.3478 79.4783 19.7391C77.2174 20.6087 74.7826 20.7826 72.5218 20.7826C71.3044 20.7826 70.2609 20.7826 69.0435 21.1304C68 21.4782 66.9565 22.1739 66.2609 22.8695C64.6956 24.4347 63.8261 26.8695 61.7391 28.2608C60.6957 28.9565 59.4783 29.4782 58.2609 29.4782C57.0435 29.4782 55.8261 29.3043 54.6087 28.6086C52.3479 27.3913 51.4783 23.913 53.2174 21.826C53.6744 21.2777 54.2753 20.8735 54.9194 20.6637C54.0906 19.9506 53.5429 18.9093 53.3913 18C53.0435 16.7826 53.2175 15.5652 53.7392 14.3478C54.2609 13.3044 55.3044 12.4348 56.3479 11.9131C57.3913 11.3913 58.6087 11.2174 59.8261 11.2174C61.0435 11.2174 62.2609 11.7392 63.1305 12.2609C64.174 12.7826 65.0435 13.4783 65.9131 14C67.8261 15.2174 69.7392 16.087 71.826 16.6087C73.9132 17.1305 76.1738 17.4783 78.261 16.9565C80.939 16.5281 83.419 15.2418 85.4166 13.4636C84.2876 14.1767 82.9477 14.7413 81.7392 15.0434C80.1739 15.3913 78.6087 15.5652 77.0435 15.2173C75.4783 14.8695 74.087 14.1739 72.8696 13.3043C70.2609 11.5652 68.5218 8.78257 66.6087 6.69561C66.087 6.17388 65.5652 5.65214 65.0435 5.1304C64.5218 4.60866 64 4.26083 63.3044 4.08692C62.0603 3.77589 60.8161 4.02111 59.572 4.44952C59.6063 4.5585 59.6333 4.66951 59.6522 4.78257L59.3044 4.60866C59.368 4.5632 59.4326 4.51869 59.4981 4.47518C59.3756 4.51809 59.253 4.5627 59.1304 4.60866L58.9565 4.78257L58.9565 4.60866C58.087 2.86953 56.1739 1.82606 54.2609 1.82606C52.4414 1.82606 50.4646 2.45532 49.2282 3.86349C49.9179 4.81317 50.378 5.89008 50.6087 7.04348C50.7826 7.91304 50.7826 8.78261 50.6087 9.82609C50.4348 10.6957 49.913 11.5652 49.2174 12.2609C48.8389 12.6935 48.3763 13.042 47.8663 13.3012C48.1599 14.7996 48.0886 16.3998 47.6522 17.9999C47.1305 19.913 45.3913 21.3043 43.8261 21.9999C42.0869 22.6956 40.1739 22.8695 38.2609 22.5217C36.6008 22.2198 35.2026 21.2632 34.0664 20.1064ZM86.0853 14.2385C84.0418 16.0971 81.5416 17.4694 78.7825 18C76.5218 18.5217 74.2608 18.1739 71.9999 17.6522C69.7392 17.1305 67.6522 16.2609 65.7392 15.0435C63.8261 14 62.087 12.6087 60 12.6087C57.9131 12.6087 55.6522 13.3044 54.7827 15.0435C53.9131 16.7826 54.2609 19.2174 55.8262 20.4348C55.8566 20.4577 55.8881 20.4798 55.9205 20.5013C56.1823 20.5016 56.4427 20.5364 56.6957 20.6087C56.8891 20.6915 57.0693 20.7964 57.2336 20.919C57.7084 20.9466 58.1975 20.8554 58.6087 20.6087C59.4783 20.2609 60 19.0435 59.8261 18L60 18C60.3478 19.0435 60 20.4348 58.7826 21.1304C58.4804 21.332 58.1197 21.4167 57.7683 21.4524C58.2546 22.1016 58.4224 22.9563 58.087 23.7391L57.913 23.7391C58.2019 22.8725 57.6511 21.8859 56.958 21.4768C56.6508 21.4661 56.2932 21.3991 55.9496 21.2756C55.1071 21.3277 54.3071 21.7798 53.7391 22.3478C52.5217 24.0869 53.2174 26.6956 54.9566 27.913C55.8261 28.4347 57.0435 28.7826 58.087 28.6086C59.1304 28.6086 60.3478 28.2608 61.2174 27.5652C63.1304 26.3478 64 23.913 65.7391 22.3478C66.6087 21.4782 67.6522 20.7826 68.8696 20.4347C70.087 20.0869 71.3044 20.0869 72.3478 19.913C74.6087 19.7391 77.0435 19.3913 79.1305 18.6956C81.7711 17.8506 84.2192 16.3 86.0853 14.2385ZM27.1304 16.2609C27.1304 17.1218 27.7297 17.7829 28.4751 18.0383C28.9253 18.4938 29.6253 18.7336 30.2609 18.5217L29.913 18C29.4489 18.1989 28.9343 18.1956 28.4751 18.0383C28.1861 17.7458 28 17.3645 28 16.9565C28 15.7391 28.6957 14.8696 29.7391 14.5218C30.6087 14.1739 31.8261 14.3478 32.6957 14.8696C33.5652 15.3913 34.087 16.4348 34.087 17.4783C34.1392 18.1053 34.0659 18.748 33.8811 19.3546L33.5652 19.5652C33.6223 19.6304 33.6802 19.6953 33.7388 19.7598C33.246 20.9949 32.2747 22.0183 30.9565 22.3478C28.8696 23.0435 26.6087 22.5217 24.6957 21.3043C22.7826 20.087 21.2174 18.3478 19.4783 16.7826C17.7391 15.2174 15.6522 13.6522 13.3913 12.9565C11.1304 12.087 8.69565 11.7391 6.26089 12.4348C4.86873 12.7331 3.64717 13.4294 2.62869 14.3611C3.94834 12.6268 5.85126 11.2925 8.00002 10.6957C11.1304 9.82609 14.4348 10 17.5652 10.8696C19.1304 11.2174 20.6957 11.9131 22.4348 12.087C24.1739 12.4348 26.087 11.9131 27.4783 11.0435C30.6087 9.13044 32 5.82609 34.4348 3.73913C35.6522 2.52174 37.0435 1.82609 38.6087 1.47826C40 1.30435 41.7391 1.30435 43.3044 1.65217C44.8696 1.82609 46.2609 2.52174 47.4783 3.56522C48.5217 4.6087 49.3913 6 49.7391 7.56522C49.913 8.26087 49.913 9.13044 49.7391 9.82609C49.5652 10.5217 49.2174 11.2174 48.6957 11.7391C48.401 12.0338 48.0508 12.2869 47.6687 12.4905C47.6633 12.4719 47.6578 12.4533 47.6522 12.4347L46.9565 12.6086C46.9627 12.6704 46.9687 12.7322 46.9744 12.794C46.1682 13.0752 45.2917 13.149 44.5217 12.9565C43.8261 12.7826 43.1304 12.4348 42.7826 11.7391C42.2609 11.2174 42.2609 10.3478 42.4348 9.65217C42.6087 8.95652 43.3044 8.43478 44 8.26087C44.6957 8.08696 45.5652 8.26087 46.087 8.95652L46.2609 8.78261C45.7391 8.08696 44.8696 7.56522 44 7.73913C43.1304 7.91304 42.2609 8.43478 41.913 9.30435C41.5652 10.1739 41.7391 11.0435 42.087 11.9131C42.4348 12.7826 43.3044 13.3043 44.1739 13.6522C45.0908 13.9272 46.1044 13.9123 47.0363 13.6327C47.1103 15.0247 47.0279 16.3945 46.6087 17.6521C46.087 19.2173 44.8696 20.4347 43.3044 21.1304C41.9131 21.826 40.1739 21.9999 38.4348 21.6521C36.967 21.3259 35.4992 20.541 34.3183 19.4406C34.5939 18.5906 34.7316 17.6431 34.6087 16.7826C34.4348 15.3913 33.7391 14.1739 32.6957 13.4783C31.6522 12.7826 30.2609 12.7826 29.0435 13.3043C28 13.6522 26.9565 14.8696 27.1304 16.2609Z" fill-rule="evenodd"  fill="#D5B270" ></path></svg>