<svg xmlns="http://www.w3.org/2000/svg" xmlns:xlink="http://www.w3.org/1999/xlink" width="68.7608642578125" height="35.58135986328125" viewBox="0 0 68.7608642578125 35.58135986328125" fill="none"><path d="M24.4131 9.27614C25.8044 7.88483 27.7174 7.18918 29.6304 7.18918C31.5435 7.01527 33.4565 7.36309 35.3696 7.88483C39.0217 8.92831 42.5 10.8414 46.1522 12.4066C49.8043 13.9718 53.6304 15.1892 57.6305 15.0153C59.5435 14.8414 61.6304 14.3196 63.3696 13.2761C65.1087 12.2327 66.6739 10.8414 67.7174 9.27614L67.3696 9.10222C66.3261 11.8848 64.2391 14.1457 61.8043 15.7109C59.3696 17.2761 56.4131 18.1457 53.4565 18.3196C50.5 18.6675 47.5435 18.1457 44.587 17.7979C41.6304 17.4501 38.5 16.9283 35.5435 17.4501C33.9783 17.7979 32.413 18.1457 31.1957 19.1892C30.6739 19.7109 30.1522 20.4066 29.9783 21.2762C29.8044 22.1457 29.9783 23.0153 30.1522 23.7109C30.6739 25.2762 32.2391 26.4936 33.9783 26.4936C35.7174 26.4936 37.1087 25.7979 38.5 25.1023C41.1087 23.7109 43.8913 22.3196 46.8478 21.9718C49.8043 21.4501 52.7609 21.9718 55.3696 23.3631L55.5435 23.0153C52.9348 22.4936 50.3261 22.4936 47.7174 22.8414C45.1087 23.1892 42.6739 24.4066 40.7609 26.3196C38.8478 28.2327 37.8044 30.6675 35.8913 32.2327C34.8478 32.9283 33.8044 33.4501 32.587 33.2762C31.3696 33.1022 30.5 32.4066 29.4565 31.537L29.2826 31.3631L29.1087 31.537C28.0652 32.5805 26.8478 33.4501 25.6304 33.9718C24.4131 34.4936 22.8478 34.8414 21.6304 34.6675C20.2391 34.4936 19.0217 33.7979 18.3261 32.5805C17.6304 31.3631 17.2826 29.9718 17.1087 28.5805L17.1087 28.2327L16.9348 28.4066C13.4565 29.624 9.45654 29.624 6.50002 27.8849C4.9348 27.0153 3.71741 25.624 2.84784 24.0588C1.97828 22.4936 1.28262 20.7544 1.10871 19.0153C0.934799 17.2761 1.10871 15.3631 1.63045 13.7979C2.15219 12.0587 3.19566 10.4935 4.41306 9.27614C5.63045 7.88483 7.19567 7.01527 8.76088 6.31961C10.5 5.62396 12.2391 5.45005 14.1522 5.27614L14.3261 5.27614L14.3261 5.10222C15.0217 3.71092 16.0652 2.49353 17.2826 1.62397C18.6739 0.754407 20.2391 0.580483 21.6304 0.928318C23.1957 1.10223 24.587 1.79788 25.6304 2.84136C26.6739 3.88483 27.3696 5.45005 27.5435 7.01527L28.0652 7.01527C27.8913 5.27614 27.3696 3.71092 26.1522 2.31962C25.1087 0.928318 23.3696 0.232663 21.6304 0.058753C19.8913 -0.115157 18.1522 0.058753 16.7609 1.10223C15.3696 2.1457 14.3261 3.53701 13.8044 5.10222L13.9783 4.92831C10.3261 4.58049 6.15219 5.62396 3.5435 8.58048C2.15219 9.97179 1.10871 11.7109 0.586975 13.4501C0.0652313 15.3631 -0.108681 17.2761 0.0652313 19.1892C0.239143 21.1023 0.934799 23.0153 1.97828 24.5805C3.02175 26.1457 4.41306 27.7109 6.15219 28.5805C9.63045 30.4936 13.8044 30.1457 17.1087 28.7544L16.9348 28.5805C16.7609 30.1457 16.9348 31.7109 17.8044 33.1022C18.6739 34.4936 20.2391 35.3631 21.8044 35.537C23.3696 35.7109 24.9348 35.3631 26.3261 34.6675C27.7174 33.9718 28.9348 32.9283 29.8044 31.7109L29.4565 31.7109C30.1522 32.7544 31.3696 33.7979 32.7609 33.9718C34.1522 34.1457 35.5435 33.624 36.7609 32.7544C37.8044 31.8849 38.6739 30.8414 39.3696 29.7979C40.0652 28.7544 40.7609 27.7109 41.6304 26.6675C43.3696 24.7544 45.6304 23.7109 48.2391 23.1892C50.6739 22.6675 53.2826 22.8414 55.8913 23.1892L56.7609 23.3631L56.0652 23.0153C53.4565 21.4501 50.3261 20.7544 47.1957 21.2762C44.0652 21.624 41.2826 23.0153 38.6739 24.4066C37.2826 25.1023 35.8913 25.624 34.5 25.624C33.1087 25.624 31.8913 24.7544 31.3696 23.3631C31.1957 22.6675 31.0217 21.9718 31.1957 21.2762C31.3696 20.5805 31.7174 20.0588 32.2391 19.537C33.2826 18.4936 34.6739 18.1457 36.0652 17.7979C39.0217 17.2761 41.9783 17.7979 44.9348 18.1457C47.8913 18.4936 51.0217 19.0153 53.9783 18.6675C56.9348 18.4936 60.0652 17.624 62.6739 15.8848C65.2826 14.1457 67.3696 11.7109 68.413 8.7544L68.7609 7.71092L68.0652 8.58048C66.8478 10.1457 65.4565 11.3631 63.7174 12.4066C61.9783 13.2761 60.0652 13.7979 58.1522 13.9718C54.3261 14.1457 50.5 12.9283 47.0217 11.3631C43.5435 9.62396 40.0652 7.88483 36.2391 6.66744C34.3261 6.1457 32.2391 5.97179 30.3261 6.1457C27.3696 6.66744 25.4565 7.53701 24.4131 9.27614Z"   fill="#D5B270" ></path></svg>