<svg xmlns="http://www.w3.org/2000/svg" xmlns:xlink="http://www.w3.org/1999/xlink" width="55.024658203125" height="37.56982421875" viewBox="0 0 55.024658203125 37.56982421875" fill="none"><path d="M6.50304 26.8859C7.37754 26.8859 8.34182 26.7065 9.20241 26.3476C9.78226 28.2885 11.1081 29.9261 12.5899 31.4078C14.329 32.973 16.0681 34.1904 17.9811 35.06C21.9812 36.973 26.1551 37.8426 30.5029 37.4948C34.6768 37.1469 38.8508 35.9295 42.6768 34.3643C46.6768 32.6252 50.329 30.7121 53.6334 27.9295L55.0247 26.7121L53.4595 27.5817C53.4359 27.5926 53.4124 27.6034 53.3888 27.6142L53.2856 27.4078C53.0541 27.6007 52.8188 27.7898 52.58 27.9752C50.5731 28.8457 48.4511 29.5841 46.329 30.1904C43.8942 30.886 41.2855 31.4078 38.8508 31.4078C36.2421 31.4078 33.8073 31.06 31.5464 30.0165C29.3947 29.1889 27.558 27.5736 26.6361 25.4706C27.7583 25.7091 28.9105 25.6778 29.9814 25.3209C30.851 24.973 31.5466 24.6252 32.2421 24.1035C32.9377 23.5817 33.4596 22.8861 33.8073 22.1904C34.6769 20.799 34.8508 19.2339 34.8508 17.4948C34.8508 15.9295 33.9812 14.1904 32.7638 13.1469C31.6342 12.1785 30.2047 11.5096 28.7536 11.2794C29.3401 10.1355 29.6334 8.84491 29.6334 7.40774C29.6334 5.84254 28.7638 4.27732 27.5464 3.58167C26.3292 2.7121 24.764 2.36428 23.3725 2.53819C22.0583 2.70249 20.7437 3.33247 19.7227 4.13483C19.1938 3.23075 18.4137 2.46665 17.6336 1.84254C16.7639 1.14688 15.7204 0.625146 14.503 0.277311C12.2422 -0.244419 9.63346 -0.0705085 7.54647 1.14688C5.28563 2.36428 3.89434 4.45123 3.19864 6.7121C2.69724 8.88498 3.15962 11.3792 4.43152 13.2683C2.02187 14.2269 0.5674 16.5564 0.0682309 18.8861C-0.105692 20.1035 0.0682309 21.4948 0.416079 22.7122C0.937797 23.9296 1.80737 25.1468 2.85085 25.8426C3.89434 26.5383 5.28563 26.8859 6.50304 26.8859ZM8.76389 20.6252C9.2856 20.2774 10.1552 20.4513 10.677 20.799C11.1987 21.147 11.5465 21.8426 11.7205 22.3643C11.8923 23.7393 11.3847 25.1142 10.1977 25.8179C10.7495 27.6634 12.1044 29.1832 13.4594 30.5382C15.0246 31.9295 16.7638 33.1469 18.5029 34.0165C22.1551 35.7556 26.329 36.6252 30.5029 36.4513C34.6768 36.1034 38.6768 35.06 42.5029 33.4947C45.3411 32.3337 48.1792 30.9813 50.7333 29.2955C46.315 31.7205 41.5688 33.479 36.5898 34.1903C33.4594 34.5381 30.3289 34.1903 27.3724 33.3207C25.8072 32.9729 24.4159 32.2773 23.0246 31.5816C21.6333 30.7121 20.4159 29.8425 19.3724 28.6251C17.1115 26.3643 15.7203 23.4077 15.5463 20.1034C15.3724 18.5382 15.5463 16.7991 16.242 15.4077C16.9377 13.8425 18.155 12.6251 19.7202 12.1034C21.2855 11.5817 23.1985 11.7556 24.5898 12.7991C25.2855 13.3208 25.8072 14.1904 25.8072 15.0599C25.9487 15.7673 25.86 16.4747 25.5411 17.0884C26.2633 17.0351 26.9655 17.2043 27.5464 17.4948C28.2423 17.8426 28.7638 18.7122 28.7638 19.5817L28.5899 19.5817C28.416 18.8861 27.8943 18.1903 27.3727 17.8426C26.6769 17.4948 25.9812 17.4948 25.2856 17.6687C25.2269 17.6834 25.1689 17.6999 25.1116 17.7182C24.6403 18.3015 24.058 18.8448 23.4698 19.0322C23.1649 19.5597 23.0438 20.1793 23.1986 20.799C23.3725 22.1904 24.2421 23.5817 25.4596 24.2772C26.8508 24.973 28.416 24.973 29.8075 24.6252C31.1986 24.2772 32.4162 23.2339 33.1116 21.8426C33.8073 20.6252 34.1553 19.0598 33.9812 17.4948C33.9812 16.1034 33.2857 14.5382 32.2421 13.6686C31.1986 12.6251 29.6334 11.9295 28.2423 11.5816L28.0683 11.5816L28.2423 11.4078C28.7638 10.1904 29.1118 8.79906 28.9379 7.58167C28.7638 6.36426 28.2423 5.14689 27.0247 4.45123C25.9812 3.75556 24.5901 3.40776 23.3725 3.58167C22.1553 3.75556 20.7638 4.27732 19.7203 4.97297L19.5466 5.14689L19.3727 4.97297C18.8508 4.10341 17.9812 3.23384 17.1117 2.7121C16.2421 2.01643 15.1987 1.66862 14.1552 1.32079C12.0682 0.799056 9.63346 1.14688 7.7204 2.19035C5.80734 3.23384 4.41607 5.14689 3.72041 7.23382C3.22181 9.22811 3.51732 11.54 4.45508 13.259C4.55635 13.2191 4.65929 13.1818 4.76391 13.1469L4.58998 13.4947L4.76391 13.8425L4.41607 14.0164C2.32908 14.886 0.763874 17.1469 0.589948 19.4078C0.242155 21.6685 1.11172 24.1035 2.85085 25.4948C4.58998 26.7122 7.3726 27.06 9.2856 25.8426C10.3291 25.3209 10.8509 24.1035 10.677 23.06C10.677 22.5381 10.3291 22.0165 9.9813 21.6685C9.63346 21.3209 8.9378 21.147 8.41603 21.3209L8.76389 20.6252ZM23.1871 18.2309C22.5427 18.5329 21.8221 18.6326 21.2855 18.3643C20.7637 18.1903 20.4159 17.4947 20.5898 16.7991C20.7637 16.1034 21.4594 15.5816 22.1551 15.7556C21.2855 15.2338 20.4159 15.7556 20.0681 16.6251C19.7202 17.4947 19.8942 18.5382 20.7637 19.0599C21.3395 19.2902 21.9916 19.3681 22.5685 19.2933C22.3624 19.8281 22.2728 20.4097 22.329 20.973C22.503 22.5381 23.5464 24.2772 25.1116 24.973C25.366 25.0861 25.6249 25.1854 25.887 25.2701L25.6334 25.3208C26.6768 27.9295 28.7638 29.6687 31.1986 30.7121C33.6334 31.5817 36.2421 32.1034 38.8508 31.9295C41.2855 31.7556 43.8942 31.2339 46.329 30.5382C48.156 30.0162 49.983 29.3963 51.7365 28.605C51.6228 28.6866 51.5085 28.7675 51.3935 28.8477C46.7502 31.3133 41.6473 33.0463 36.4159 33.4947C33.4594 33.8425 30.3289 33.3207 27.5463 32.4512C24.7638 31.5816 22.1551 30.0164 20.0681 27.9295C18.155 25.8425 16.7637 23.0599 16.5898 20.1034C16.4159 18.7121 16.5898 17.1469 17.1115 15.9295C17.6333 14.7121 18.8507 13.6686 20.0681 13.1469C21.2855 12.6251 22.8507 12.7991 23.8942 13.4947C24.9376 14.1904 25.1115 15.7556 24.5898 16.9729C24.5264 17.0999 24.4449 17.2242 24.3488 17.3438C23.9003 17.535 23.5062 17.8459 23.1871 18.2309Z" fill-rule="evenodd"  fill="#D5B270" ></path></svg>