<svg xmlns="http://www.w3.org/2000/svg" xmlns:xlink="http://www.w3.org/1999/xlink" width="55.024658203125" height="37.56982421875" viewBox="0 0 55.024658203125 37.56982421875" fill="none"><path d="M48.5216 26.8859C47.6471 26.8859 46.6828 26.7065 45.8223 26.3476C45.2424 28.2885 43.9166 29.9261 42.4348 31.4078C40.6957 32.973 38.9566 34.1904 37.0436 35.06C33.0435 36.973 28.8696 37.8426 24.5218 37.4948C20.3479 37.1469 16.1739 35.9295 12.3479 34.3643C8.34788 32.6252 4.69568 30.7121 1.39128 27.9295L-1.90735e-05 26.7121L1.56518 27.5817C1.58878 27.5926 1.61228 27.6034 1.63588 27.6142L1.73908 27.4078C1.97058 27.6007 2.20588 27.7898 2.44468 27.9752C4.45158 28.8457 6.57358 29.5841 8.69568 30.1904C11.1305 30.886 13.7392 31.4078 16.1739 31.4078C18.7826 31.4078 21.2174 31.06 23.4783 30.0165C25.63 29.1889 27.4667 27.5736 28.3886 25.4706C27.2664 25.7091 26.1142 25.6778 25.0433 25.3209C24.1737 24.973 23.4781 24.6252 22.7826 24.1035C22.087 23.5817 21.5651 22.8861 21.2174 22.1904C20.3478 20.799 20.1739 19.2339 20.1739 17.4948C20.1739 15.9295 21.0435 14.1904 22.2609 13.1469C23.3905 12.1785 24.82 11.5096 26.2711 11.2794C25.6846 10.1355 25.3913 8.84491 25.3913 7.40774C25.3913 5.84254 26.2609 4.27732 27.4783 3.58167C28.6955 2.7121 30.2607 2.36428 31.6522 2.53819C32.9664 2.70249 34.281 3.33247 35.302 4.13483C35.8309 3.23075 36.611 2.46665 37.3911 1.84254C38.2608 1.14688 39.3043 0.625146 40.5217 0.277311C42.7825 -0.244419 45.3912 -0.0705085 47.4782 1.14688C49.739 2.36428 51.1303 4.45123 51.826 6.7121C52.3274 8.88498 51.865 11.3792 50.5931 13.2683C53.0028 14.2269 54.4573 16.5564 54.9564 18.8861C55.1304 20.1035 54.9564 21.4948 54.6086 22.7122C54.0869 23.9296 53.2173 25.1468 52.1738 25.8426C51.1303 26.5383 49.739 26.8859 48.5216 26.8859ZM46.2608 20.6252C45.7391 20.2774 44.8695 20.4513 44.3477 20.799C43.826 21.147 43.4782 21.8426 43.3042 22.3643C43.1324 23.7393 43.64 25.1142 44.827 25.8179C44.2752 27.6634 42.9203 29.1832 41.5653 30.5382C40.0001 31.9295 38.2609 33.1469 36.5218 34.0165C32.8696 35.7556 28.6957 36.6252 24.5218 36.4513C20.3479 36.1034 16.3479 35.06 12.5218 33.4947C9.68358 32.3337 6.84548 30.9813 4.29138 29.2955C8.70968 31.7205 13.4559 33.479 18.4349 34.1903C21.5653 34.5381 24.6958 34.1903 27.6523 33.3207C29.2175 32.9729 30.6088 32.2773 32.0001 31.5816C33.3914 30.7121 34.6088 29.8425 35.6523 28.6251C37.9132 26.3643 39.3044 23.4077 39.4784 20.1034C39.6523 18.5382 39.4784 16.7991 38.7827 15.4077C38.087 13.8425 36.8697 12.6251 35.3045 12.1034C33.7392 11.5817 31.8262 11.7556 30.4349 12.7991C29.7392 13.3208 29.2175 14.1904 29.2175 15.0599C29.076 15.7673 29.1647 16.4747 29.4836 17.0884C28.7614 17.0351 28.0592 17.2043 27.4783 17.4948C26.7824 17.8426 26.2609 18.7122 26.2609 19.5817L26.4348 19.5817C26.6087 18.8861 27.1304 18.1903 27.652 17.8426C28.3478 17.4948 29.0435 17.4948 29.7391 17.6687C29.7978 17.6834 29.8558 17.6999 29.9131 17.7182C30.3844 18.3015 30.9667 18.8448 31.5549 19.0322C31.8598 19.5597 31.9809 20.1793 31.8261 20.799C31.6522 22.1904 30.7826 23.5817 29.5651 24.2772C28.1739 24.973 26.6087 24.973 25.2172 24.6252C23.8261 24.2772 22.6085 23.2339 21.9131 21.8426C21.2174 20.6252 20.8694 19.0598 21.0435 17.4948C21.0435 16.1034 21.739 14.5382 22.7826 13.6686C23.8261 12.6251 25.3913 11.9295 26.7824 11.5816L26.9564 11.5816L26.7824 11.4078C26.2609 10.1904 25.9129 8.79906 26.0868 7.58167C26.2609 6.36426 26.7824 5.14689 28 4.45123C29.0435 3.75556 30.4346 3.40776 31.6522 3.58167C32.8694 3.75556 34.2609 4.27732 35.3044 4.97297L35.4781 5.14689L35.652 4.97297C36.1739 4.10341 37.0435 3.23384 37.913 2.7121C38.7826 2.01643 39.826 1.66862 40.8695 1.32079C42.9565 0.799056 45.3912 1.14688 47.3043 2.19035C49.2173 3.23384 50.6086 5.14689 51.3042 7.23382C51.8028 9.22811 51.5073 11.54 50.5696 13.259C50.4683 13.2191 50.3654 13.1818 50.2607 13.1469L50.4347 13.4947L50.2607 13.8425L50.6086 14.0164C52.6956 14.886 54.2608 17.1469 54.4347 19.4078C54.7825 21.6685 53.9129 24.1035 52.1738 25.4948C50.4347 26.7122 47.6521 27.06 45.7391 25.8426C44.6956 25.3209 44.1738 24.1035 44.3477 23.06C44.3477 22.5381 44.6956 22.0165 45.0434 21.6685C45.3912 21.3209 46.0869 21.147 46.6086 21.3209L46.2608 20.6252ZM31.8376 18.2309C32.482 18.5329 33.2026 18.6326 33.7392 18.3643C34.261 18.1903 34.6088 17.4947 34.4349 16.7991C34.261 16.1034 33.5653 15.5816 32.8696 15.7556C33.7392 15.2338 34.6088 15.7556 34.9566 16.6251C35.3045 17.4947 35.1305 18.5382 34.261 19.0599C33.6852 19.2902 33.0331 19.3681 32.4562 19.2933C32.6623 19.8281 32.7519 20.4097 32.6957 20.973C32.5217 22.5381 31.4783 24.2772 29.9131 24.973C29.6587 25.0861 29.3998 25.1854 29.1377 25.2701L29.3913 25.3208C28.3479 27.9295 26.2609 29.6687 23.8261 30.7121C21.3913 31.5817 18.7826 32.1034 16.1739 31.9295C13.7392 31.7556 11.1305 31.2339 8.69568 30.5382C6.86868 30.0162 5.04168 29.3963 3.28818 28.605C3.40188 28.6866 3.51618 28.7675 3.63118 28.8477C8.27448 31.3133 13.3774 33.0463 18.6088 33.4947C21.5653 33.8425 24.6958 33.3207 27.4784 32.4512C30.2609 31.5816 32.8696 30.0164 34.9566 27.9295C36.8697 25.8425 38.261 23.0599 38.4349 20.1034C38.6088 18.7121 38.4349 17.1469 37.9132 15.9295C37.3914 14.7121 36.174 13.6686 34.9566 13.1469C33.7392 12.6251 32.174 12.7991 31.1305 13.4947C30.0871 14.1904 29.9132 15.7556 30.4349 16.9729C30.4983 17.0999 30.5798 17.2242 30.6759 17.3438C31.1244 17.535 31.5185 17.8459 31.8376 18.2309Z" fill-rule="evenodd"  fill="#D5B270" ></path></svg>