<svg xmlns="http://www.w3.org/2000/svg" xmlns:xlink="http://www.w3.org/1999/xlink" width="60.06268310546875" height="32.92803955078125" viewBox="0 0 60.06268310546875 32.92803955078125" fill="none"><path d="M47.4782 17.8657C47.165 15.5167 45.7238 13.4498 43.6624 12.5536C43.5674 12.77 43.4493 12.9767 43.3043 13.17C42.0869 14.3874 40.3478 14.9091 38.7825 14.9091C37.2153 14.9091 35.648 14.2029 34.7172 13.0451C34.054 13.5402 33.5488 13.8877 33.0435 14.5614C32.6957 15.0831 32.3479 15.9527 32.3479 16.6483C32.174 18.2135 32.6957 19.9527 33.9131 20.9961C34.9566 22.0396 36.6957 22.5614 38.2609 22.2135C39.6522 21.8657 40.8696 20.3005 40.8696 18.5614L41.2174 18.5614C41.3914 20.3005 40.3479 22.3874 38.4348 22.9092C36.6957 23.4309 34.6087 23.0831 33.2174 21.6918C32.5059 21.0692 31.9763 20.2646 31.6519 19.3711C30.4486 19.774 29.1635 19.7502 28.0001 19.6048C26.4349 19.4309 25.2175 18.9091 23.8262 18.3874C21.2175 17.17 18.7827 15.9526 16.0001 15.4309C13.3914 14.7352 10.6088 15.0831 8.00008 15.9526C6.40678 16.4837 5.00818 17.404 3.84378 18.5948C5.04878 17.798 6.43738 17.2739 7.82598 16.9961C10.6086 16.3004 13.3913 16.8222 15.826 17.6918C20.8695 19.4309 25.0434 22.9092 29.913 24.8222C32.3478 25.8657 34.7825 26.3875 37.3912 26.5614C39.9999 26.5614 42.6086 26.0396 44.5217 24.4744C46.4348 22.9092 47.6522 20.3005 47.4782 17.8657ZM1.42218 21.0064C1.35128 21.1166 1.28298 21.2291 1.21738 21.344L-1.90735e-05 23.6049L1.73908 21.6918C2.21998 21.1307 2.81178 20.6805 3.46328 20.341C3.00568 20.6752 2.59718 21.0695 2.26078 21.5179L2.78258 21.8657C3.22208 21.1122 3.84308 20.4493 4.57168 19.8854C5.01048 19.7485 5.46178 19.655 5.91298 19.6049C7.47818 19.4309 9.21728 19.6049 10.7826 20.1266C13.913 20.9962 16.8695 22.7353 19.4782 24.6483C22.2608 26.5614 24.8695 28.4744 27.9999 30.0396C30.9565 31.6048 34.2608 32.6483 37.7391 32.8222C41.2173 33.1701 44.5217 32.6483 47.8261 31.4309C50.9565 30.2135 53.913 28.3005 56.1739 25.6918C58.4347 23.0831 59.826 19.7788 60 16.3004C60.1739 14.5613 60 12.8222 59.3043 11.0831C58.6658 9.64639 57.5877 8.20971 55.9356 7.57997C56.1689 6.66298 56.1324 5.76208 55.826 4.99611C55.6521 3.95263 54.9565 3.08307 53.913 2.38742C53.0434 1.86568 52 1.51785 50.9565 1.51785C49.997 1.51785 49.0375 1.81195 48.2132 2.26494C45.7859 0.101684 42.3775 -0.550023 39.3043 0.474367C36.6951 1.48905 34.5692 3.47026 33.7322 6.1159C32.5588 5.5187 31.2359 5.53496 29.913 5.86568C29.2174 6.21351 28.6956 6.56133 28.3478 7.08308C28.092 7.46669 27.8363 7.94434 27.7188 8.44687C26.7843 8.08413 25.74 7.97737 24.6956 8.12654C23.4782 8.30046 22.2609 8.99611 21.5652 10.0396C20.8696 11.083 20.5217 12.3004 20.3478 13.3439C20.3478 14.2713 20.3478 15.1986 20.7322 16.0491C19.2471 15.4226 17.738 14.8546 16.174 14.5613C13.3914 13.8657 10.261 14.2135 7.65228 15.257C4.86968 16.3004 2.60878 18.3874 1.39138 20.9961L1.42218 21.0064ZM33.5858 6.63894C33.4959 7.00737 33.4304 7.38755 33.3912 7.77872C33.2204 9.31651 33.5531 11.0222 34.3895 12.5659C33.5953 12.9112 32.8257 13.4025 32.3479 14.0396C31.8261 14.7353 31.3044 15.7787 31.3044 16.6483C31.2355 17.4064 31.3031 18.1645 31.4965 18.8794C29.0361 19.471 26.4527 18.4944 24.174 17.5178C23.3499 17.1882 22.5257 16.8238 21.6961 16.4631L21.913 16.3004C21.3913 15.6048 21.3913 14.3874 21.3913 13.3439C21.3913 12.3004 21.7391 11.257 22.4348 10.5613C23.1304 9.86567 24 9.17002 24.8695 8.99611C25.913 8.82221 26.9565 8.82221 28 9.17002L28.3478 9.34393L28.5217 8.99611C28.6956 7.95265 29.5652 7.08308 30.6087 6.73524C31.5448 6.42321 32.6209 6.39111 33.5858 6.63894ZM42.9565 12.3004C43.0542 12.3284 43.1509 12.3588 43.2463 12.3917C43.1641 12.5448 43.0674 12.6892 42.9565 12.8222C42.0869 13.8657 40.3478 14.2135 38.9565 14.2135C37.5652 14.2135 36.1738 13.3439 35.4782 12.1265C34.7825 10.9091 34.6086 9.34393 34.6086 7.95263C34.9565 4.99611 37.2173 2.56133 39.9999 1.51785C42.7826 0.474367 46.0869 1.17003 48.3478 3.08307L48.5217 3.25698L48.6956 3.08307C50.2608 2.2135 52.1739 2.38742 53.5652 3.43089C54.9565 4.30046 55.4782 6.2135 55.3043 7.95263L55.3043 8.30046L55.6521 8.47437C57.0434 8.99611 58.0869 10.3874 58.7826 11.7787C59.3043 13.17 59.4782 14.9091 59.4782 16.4744C59.3043 19.7788 58.0869 22.9092 56 25.344C53.913 27.7788 51.1304 29.6918 48 30.9092C44.8695 32.1266 41.5651 32.6483 38.4347 32.3005C35.1304 32.1266 31.9999 31.0831 29.0434 29.5179C26.0869 28.1266 23.3043 26.2135 20.6956 24.3005C17.913 22.3875 15.1304 20.4744 11.826 19.6049C10.2608 19.0831 8.52168 18.9092 6.78258 19.0831C6.25368 19.136 5.72488 19.2532 5.21558 19.4299C6.38038 18.676 7.73698 18.1457 9.04338 17.8657C11.6521 17.3439 14.2608 17.6918 16.5217 18.7353C21.3912 20.6483 25.5652 23.9527 30.4347 26.0396C32.8695 27.0831 35.4782 27.7788 38.2608 27.9527C39.6521 27.9527 41.0434 27.9527 42.2608 27.6049C43.6522 27.257 44.8695 26.5614 45.913 25.6918C46.9565 24.8222 47.8261 23.6049 48.3478 22.3875C48.8695 21.1701 49.2174 19.7788 49.0435 18.3875C48.6956 15.6048 46.6087 13.17 44 12.4744L43.715 12.4269C43.9223 11.8976 44 11.3164 44 10.7352C43.8261 9.86567 43.4782 9.17002 42.9565 8.64828L42.7826 8.8222C43.6817 9.8711 43.8061 11.3073 43.2671 12.3522L42.9565 12.3004Z" fill-rule="evenodd"  fill="#D5B270" ></path></svg>