<svg xmlns="http://www.w3.org/2000/svg" xmlns:xlink="http://www.w3.org/1999/xlink" width="92.5218505859375" height="33.66107177734375" viewBox="0 0 92.5218505859375 33.66107177734375" fill="none"><path d="M47.1306 2.22341C47.091 2.18391 47.0513 2.14491 47.0113 2.10642C47.3454 1.74408 47.7909 1.49327 48.3479 1.35399C49.0437 1.18008 49.7393 1.18008 50.435 1.18008C51.8226 1.35353 53.0373 2.04598 53.9063 3.25744C53.8498 3.31804 53.7942 3.37923 53.7393 3.44096L54.0001 3.44096L54.0872 3.61485L54.2611 3.44095L54.435 3.26704C55.8263 1.87573 57.7393 1.00617 59.6524 0.832256C61.5654 0.832256 63.6524 1.52791 65.0436 2.74529C66.6088 3.96268 67.4785 5.87574 67.6524 7.78878C67.8262 9.7018 67.3045 11.6149 65.9131 13.1801L65.7393 13.5279L65.948 13.6322L66.0871 14.0496C66.159 13.9856 66.2296 13.9198 66.2986 13.8522C66.7469 14.1909 67.1777 14.642 67.4785 15.0931C67.8262 15.6148 67.8262 16.3105 67.8262 16.8322C67.6524 18.0496 66.435 19.0931 65.2176 19.6148L64.8698 19.7887L65.2176 19.9626L65.2176 20.4844C65.3867 20.4421 65.5558 20.3895 65.7225 20.3266C66.6855 20.9228 67.8399 21.1264 68.8698 20.8322C69.5654 20.6583 70.0871 20.3105 70.6088 19.9626L72.174 18.9191L72.1743 18.919C74.2612 17.7017 76.3481 16.4844 78.7828 16.6583C80.0002 16.8322 81.0435 17.354 82.0871 18.0496L85.2175 20.1365C86.0087 20.664 86.7999 21.0915 87.7427 21.3431C86.8459 21.0482 86.0317 20.5054 85.2175 19.9626L82.2609 17.8757C81.2176 17.1801 80.174 16.4844 78.7828 16.3105C77.5654 16.1366 76.174 16.3105 74.9566 16.8322C73.7393 17.354 72.6958 18.0496 71.6524 18.7452C70.6088 19.4409 69.7393 20.3105 68.5219 20.4844C67.6953 20.7599 66.7595 20.5989 65.8875 20.2607C66.3456 20.0669 66.7778 19.7937 67.1306 19.4409C67.6524 18.9191 68.174 18.2235 68.3479 17.354C68.5219 16.4844 68.3479 15.6148 67.8262 14.9192C67.4221 14.3803 67.018 13.9458 66.452 13.6965C67.7858 12.2936 68.5079 10.2151 68.3479 8.13659C68.3461 8.11176 68.3441 8.08696 68.3419 8.06222C68.9194 8.2553 69.4771 8.56991 69.9133 9.00602C70.435 9.35386 70.9567 9.87558 71.1307 10.5712C71.8262 11.7886 71.8262 13.3539 71.4785 14.7451L71.3046 15.2669L71.8262 14.919C71.8539 14.9037 71.8815 14.8886 71.9092 14.8736L72.0002 14.919C72.0283 14.8742 72.0554 14.8289 72.0816 14.7833C73.5966 14.0136 75.398 13.711 77.0436 13.8756C78.7828 14.0495 80.5219 15.093 81.9133 16.3104C83.3045 17.5277 84.6958 18.9191 86.261 19.9625C86.9567 20.4843 88.0002 21.006 88.8697 21.1799C89.8045 21.3357 90.5997 21.2124 91.5054 21.06C90.8077 21.3534 90.0502 21.5542 89.2779 21.5718C90.0641 21.5811 90.8863 21.3976 91.6174 21.0636C90.8209 21.7836 89.8453 22.258 88.8697 22.3974C87.4784 22.5713 86.261 22.0496 85.0436 21.5278C83.8262 21.0061 82.6088 20.4844 81.0435 20.1365C79.6523 19.9626 78.0871 20.4844 76.8697 21.3539C74.6088 22.9191 73.0436 25.3539 70.9566 26.9191C69.9131 27.7887 68.6958 28.3104 67.4785 27.9626C66.261 27.7887 65.0436 27.267 64.174 26.2235L63.8262 25.8757L63.6524 26.3974C63.3045 27.7887 62.6088 29.0061 61.5654 30.0496C60.6959 31.093 59.3045 31.6148 58.0872 31.7887C56.6959 32.1365 55.3045 31.9626 54.0872 31.6148C52.6959 31.267 51.4785 30.5713 50.435 29.5278L49.9132 29.8757C50.9566 31.093 52.174 31.9626 53.7393 32.4844C55.1306 33.0061 56.8698 33.18 58.2611 32.8322C59.8263 32.6583 61.2176 31.7887 62.2611 30.5713C63.1522 29.5317 63.7896 28.3652 64.065 27.0718C64.9283 27.9845 66.1163 28.5352 67.3045 28.8322C68.8698 29.18 70.435 28.4844 71.4783 27.6148C73.7393 25.8757 75.3045 23.6148 77.3914 22.0496C78.4349 21.3539 79.6523 20.8322 80.8697 21.0061C82.0871 21.18 83.4784 21.7018 84.6958 22.2235C85.9132 22.7452 87.3045 23.267 88.6958 23.0931C90.0871 22.9191 91.3045 22.0496 92.174 21.0061L92.5219 20.6583L92.1551 20.7805C92.2206 20.7411 92.2849 20.7003 92.3479 20.6583L92.174 20.4844C92.0635 20.617 91.9473 20.744 91.8262 20.8651L91.8262 20.8321C90.9567 21.006 89.9132 21.006 89.0437 20.8321C88.1741 20.6582 87.3045 20.1364 86.6089 19.6147C85.2176 18.3973 83.8263 17.006 82.435 15.7886C81.0436 14.5712 79.3046 13.3539 77.2176 13.1799C75.5975 13.0326 73.7279 13.3843 72.3483 14.2349C72.8523 12.982 72.7598 11.5411 72.1741 10.2234C71.8262 9.52775 71.3046 8.83211 70.6088 8.31036C69.9133 7.78863 69.0436 7.61472 68.3481 7.4408L68.281 7.54135C67.9828 5.53936 66.9758 3.83886 65.3914 2.57139C63.6524 1.18008 61.5654 0.484422 59.3045 0.658346C57.2171 0.658346 55.4262 1.69609 54.0686 3.08721C53.7309 2.51392 53.2733 1.961 52.6959 1.52791C52.0001 1.00617 51.1306 0.832256 50.435 0.658346C49.5653 0.484422 48.6959 0.658346 48.0001 0.832256C47.4299 1.06038 46.9343 1.28851 46.5136 1.66383C46.3067 1.4943 46.0947 1.33818 45.8791 1.19661C46.0834 1.35166 46.2808 1.5206 46.472 1.70172C46.2677 1.89108 46.0814 2.11717 45.9132 2.39748L46.7827 2.39748C46.8326 2.32282 46.8858 2.25173 46.9427 2.1842C47.006 2.25396 47.0686 2.32503 47.1306 2.39732C47.8965 3.29093 48.4751 4.27825 48.7285 5.35928C48.7536 5.35383 48.7787 5.34851 48.8036 5.34331C48.5576 4.24694 47.9147 3.16445 47.1306 2.22341ZM48.8697 6.10496L48.8697 5.70167C48.8526 5.58216 48.8305 5.46266 48.8036 5.34331C49.3293 5.23439 49.8731 5.17993 50.4348 5.17993C52 5.35384 53.7393 5.70167 55.1306 6.57123C56.6958 7.4408 57.7393 8.8321 58.4348 10.3973C59.8261 13.5278 60.0001 17.1799 58.4348 20.1365C56.9275 22.984 53.6455 25.0248 50.4534 24.7054C50.5942 26.5571 50.3949 28.5511 49.3914 30.2235C48.3479 31.9626 46.6087 33.3539 44.5219 33.5278C42.6089 33.8757 40.5218 33.5278 38.7826 32.6583C37.1549 31.6817 35.832 30.4004 35.0988 28.6719C34.4122 29.244 33.4669 29.5442 32.5218 29.7017C31.4783 29.8757 30.4348 29.5278 29.5653 29.0061C28.6957 28.4843 28.0001 27.4409 27.6523 26.5713C27.3044 25.7017 26.9566 24.8322 26.7827 23.7887C26.6273 23.012 26.5414 22.166 26.4164 21.328L26.261 21.3539C26.0872 20.3104 25.2176 19.093 24.3481 18.5713C23.4784 17.8756 22.0872 17.7017 21.0436 18.0496C18.7829 18.7452 16.8698 20.4843 14.7829 22.0496C13.7393 22.9191 12.6959 23.6148 11.6525 24.3104C10.6089 25.0061 9.21765 25.5278 8.00025 25.5278C5.39155 25.7017 2.78285 24.8321 0.695953 23.2669L0.783051 23.1362C0.753853 23.1219 0.724754 23.1076 0.695648 23.093L5.34058e-05 22.7452L0.695648 22.7452C0.808151 22.7518 0.920654 22.7572 1.03305 22.7613L1.04375 22.7452C1.05075 22.7509 1.05775 22.7567 1.06485 22.7624C1.50475 22.7775 1.94415 22.7731 2.38045 22.7487C2.09165 22.6641 1.80615 22.563 1.52465 22.4446C1.36385 22.432 1.20345 22.4162 1.04355 22.3974L1.04355 22.2235C1.20245 22.303 1.36295 22.3766 1.52465 22.4446C3.36675 22.5899 5.25745 22.3309 6.98995 21.6263C7.65495 21.3133 8.28545 20.9337 8.86955 20.4843C10.087 19.6148 10.9566 18.5713 11.8261 17.3538C12.8696 16.3104 13.7392 15.093 14.7827 14.0495C15.6523 13.006 16.8696 11.9625 18.2609 11.2669C19.3501 10.7223 20.4392 10.3909 21.6118 10.1892C21.7687 10.16 21.9263 10.1354 22.0844 10.1154C22.2571 10.091 22.4319 10.0692 22.6087 10.0495C22.8233 10.0376 23.0373 10.033 23.25 10.0356C25.2715 9.81892 27.2865 10.5124 28.9613 11.7158C28.3666 9.96616 28.3991 7.97692 29.2174 6.22341C29.9131 4.8321 31.1305 3.96254 32.5218 3.61471C33.3421 3.38035 34.3203 3.38286 35.2435 3.62224C35.5693 3.65351 35.8932 3.71322 36.2102 3.80183C36.7452 2.62289 37.5637 1.59399 38.7826 0.832106C40.174 0.136451 41.7392 -0.211369 43.3045 0.136451C44.2849 0.245386 45.1288 0.627268 45.8791 1.19661C45.1646 0.727686 44.4085 0.418382 43.6523 0.310361C42.4348 0.136451 41.0436 0.136451 39.8261 0.832106C38.7826 1.52776 37.7392 2.57123 37.2174 3.78863L37.0436 4.13645L36.6957 3.96254C36.5363 3.9012 36.3741 3.84765 36.2102 3.80183C36.1889 3.84889 36.1679 3.89619 36.1474 3.94372C36.2752 4.00276 36.4002 4.06701 36.5218 4.13645L36 4.31037C36.0464 4.18673 36.0956 4.06448 36.1474 3.94372C35.8577 3.80982 35.5537 3.70267 35.2435 3.62224C33.3502 3.44047 31.4002 4.2205 30.4348 5.87558C29.7392 6.91906 29.5653 8.13645 29.7392 9.35384C29.7392 10.5712 30.261 11.7886 30.9566 12.8321L30.6087 13.1799C30.1129 12.6391 29.5588 12.145 28.9613 11.7158C29.0175 11.8808 29.0792 12.0436 29.1463 12.2039C29.6813 12.6447 30.1721 13.146 30.6087 13.7017L30.261 14.0495C29.8011 13.4976 29.4263 12.8728 29.1463 12.2039C27.4979 10.8458 25.4316 10.0626 23.25 10.0356C23.2101 10.0399 23.1702 10.0445 23.1304 10.0495C22.7809 10.0495 22.4313 10.0715 22.0844 10.1154C21.9254 10.1378 21.7679 10.1623 21.6118 10.1892C20.7444 10.3506 19.9025 10.6518 19.1304 11.093C17.7392 11.7886 16.6956 12.6582 15.6523 13.7017C14.6087 14.7451 13.5653 15.9626 12.6956 17.006C11.6523 18.0496 10.7827 19.267 9.56525 20.1365C8.77085 20.7607 7.90235 21.2553 6.98995 21.6263C5.57135 22.2941 3.99605 22.6585 2.38045 22.7487C3.74105 23.1474 5.17495 23.1798 6.60875 22.9191C8.34785 22.5713 10.087 21.5278 11.6523 20.4843C13.0435 19.4409 14.6087 18.0496 16.0001 16.8321C17.3913 15.6147 19.3044 14.3973 21.3913 14.3973C23.3044 14.3973 25.3913 15.6147 26.4349 17.3538C26.9566 18.2235 27.1304 19.267 27.3044 20.1365C27.4782 21.0061 27.6523 22.0496 27.8261 22.9191C28.3478 24.8322 28.8695 26.7452 30.261 27.6148C31.6523 28.4843 33.7392 28.4843 35.3044 27.6148L35.4783 27.4409L35.6523 27.6148C36.5218 29.18 37.9131 30.5713 39.4783 31.267C41.0436 31.9626 42.9566 32.1365 44.6958 31.9626C46.4348 31.7887 47.8263 30.7452 48.8697 29.18C49.7393 27.6148 50.0871 25.7017 49.9132 23.9626L49.9132 23.6148L50.261 23.6148C53.2174 23.9626 56.3479 21.8757 57.5653 19.267C58.261 18.0496 58.4348 16.4843 58.4348 14.9191C58.4348 13.5278 58.261 11.9625 57.5653 10.5712C57.0436 9.35384 56 8.13645 54.7827 7.26689C53.3914 6.39732 52 6.0495 50.4348 6.0495C49.8923 5.9892 49.3706 6.01252 48.8697 6.10496ZM48.8493 6.10876C48.8561 6.10748 48.8629 6.10621 48.8697 6.10496L48.8697 6.57123C48.8697 6.41535 48.8628 6.26119 48.8493 6.10876ZM48.8493 6.10876C47.9133 6.2852 47.0506 6.70288 46.261 7.26689C45.0436 8.13645 44.174 9.52776 44 10.9191L44 11.4408L43.6523 11.2669C43.5691 11.2431 43.4855 11.2216 43.4012 11.2023L43.3045 11.2669L43.3045 11.1811C40.9427 10.6884 38.2117 11.8953 37.2174 14.0495C36.8695 15.2669 36.6957 16.6582 37.2174 17.7017C37.7392 18.9191 38.6087 19.7887 39.8261 20.1365C41.0436 20.4843 42.4348 20.4843 43.4784 19.9626C44.6958 19.4409 45.3914 18.2235 45.3914 17.006C45.3914 16.4843 45.2176 15.7886 44.6958 15.4408C44.174 15.093 43.4784 14.9191 42.9566 15.093C42.4348 15.2669 41.9131 15.7886 41.7392 16.3104C41.5653 17.006 41.9131 17.5278 42.6089 17.7017L42.6089 17.8757C41.9131 17.8757 41.2174 17.006 41.3913 16.3104C41.5653 15.4408 42.261 14.9191 42.9566 14.7451C43.6523 14.5712 44.3479 14.5712 45.0436 15.093C45.7393 15.4408 46.0871 16.3104 46.0871 17.006C46.261 18.3974 45.3914 19.9626 44 20.6583C42.6089 21.5278 41.0436 21.5278 39.6523 21.18C38.087 20.8322 36.8695 19.6148 36.3479 18.2235C35.8261 16.8321 35.6523 15.2669 36.3479 13.8756C37.66 11.2514 40.6734 10.0193 43.3461 10.7627C43.5914 9.15644 44.4366 7.72212 45.7393 6.74515C46.6595 6.05489 47.6561 5.59293 48.7285 5.35928C48.786 5.60429 48.8269 5.85412 48.8493 6.10876ZM2.76375 23.8402C3.97025 24.1254 5.23665 24.1805 6.43485 23.9626C8.34785 23.6148 10.2609 22.7452 11.8261 21.7017C13.3913 20.6583 14.9566 19.267 16.3478 18.0496C17.7392 16.8321 19.4782 15.7886 21.2175 15.7886C22.9302 15.7886 24.6429 16.8007 25.525 18.3265C25.32 18.1589 25.1012 18.0079 24.8698 17.8756C23.6524 17.18 22.0872 17.0061 20.8698 17.3539C18.261 18.2235 16.3481 20.1365 14.435 21.5278C12.3481 23.093 10.4351 24.8321 8.00025 24.8321C6.23575 24.9582 4.37995 24.6275 2.76375 23.8402ZM89.2779 21.5718C89.0809 21.5695 88.8862 21.555 88.6958 21.5278C88.3594 21.4858 88.0433 21.4234 87.7427 21.3431C87.9952 21.4262 88.2543 21.4896 88.5219 21.5278C88.7744 21.5639 89.0269 21.5775 89.2779 21.5718Z" fill-rule="evenodd"  fill="#D5B270" ></path></svg>