<svg xmlns="http://www.w3.org/2000/svg" xmlns:xlink="http://www.w3.org/1999/xlink" width="60.06268310546875" height="32.92803955078125" viewBox="0 0 60.06268310546875 32.92803955078125" fill="none"><path d="M12.5845 17.8657C12.8977 15.5167 14.3389 13.4498 16.4003 12.5536C16.4953 12.77 16.6134 12.9767 16.7584 13.17C17.9758 14.3874 19.7149 14.9091 21.2802 14.9091C22.8474 14.9091 24.4147 14.2029 25.3455 13.0451C26.0087 13.5402 26.5139 13.8877 27.0192 14.5614C27.367 15.0831 27.7148 15.9527 27.7148 16.6483C27.8887 18.2135 27.367 19.9527 26.1496 20.9961C25.1061 22.0396 23.367 22.5614 21.8018 22.2135C20.4105 21.8657 19.1931 20.3005 19.1931 18.5614L18.8453 18.5614C18.6713 20.3005 19.7148 22.3874 21.6279 22.9092C23.367 23.4309 25.454 23.0831 26.8453 21.6918C27.5568 21.0692 28.0864 20.2646 28.4108 19.3711C29.6141 19.774 30.8992 19.7502 32.0626 19.6048C33.6278 19.4309 34.8452 18.9091 36.2365 18.3874C38.8452 17.17 41.28 15.9526 44.0626 15.4309C46.6713 14.7352 49.4539 15.0831 52.0626 15.9526C53.6559 16.4837 55.0545 17.404 56.2189 18.5948C55.0139 17.798 53.6253 17.2739 52.2367 16.9961C49.4541 16.3004 46.6714 16.8222 44.2367 17.6918C39.1932 19.4309 35.0193 22.9092 30.1497 24.8222C27.7149 25.8657 25.2802 26.3875 22.6715 26.5614C20.0628 26.5614 17.4541 26.0396 15.541 24.4744C13.6279 22.9092 12.4105 20.3005 12.5845 17.8657ZM58.6405 21.0064C58.7114 21.1166 58.7797 21.2291 58.8453 21.344L60.0627 23.6049L58.3236 21.6918C57.8427 21.1307 57.2509 20.6805 56.5994 20.341C57.057 20.6752 57.4655 21.0695 57.8019 21.5179L57.2801 21.8657C56.8406 21.1122 56.2196 20.4493 55.491 19.8854C55.0522 19.7485 54.6009 19.655 54.1497 19.6049C52.5845 19.4309 50.8454 19.6049 49.2801 20.1266C46.1497 20.9962 43.1932 22.7353 40.5845 24.6483C37.8019 26.5614 35.1932 28.4744 32.0628 30.0396C29.1062 31.6048 25.8019 32.6483 22.3236 32.8222C18.8454 33.1701 15.541 32.6483 12.2366 31.4309C9.1062 30.2135 6.14968 28.3005 3.88881 25.6918C1.62794 23.0831 0.236638 19.7788 0.0627273 16.3004C-0.111187 14.5613 0.0627273 12.8222 0.758379 11.0831C1.3969 9.64639 2.47499 8.20971 4.12713 7.57997C3.89375 6.66298 3.93025 5.76208 4.23664 4.99611C4.41055 3.95263 5.1062 3.08307 6.14968 2.38742C7.01925 1.86568 8.06272 1.51785 9.1062 1.51785C10.0657 1.51785 11.0252 1.81195 11.8495 2.26494C14.2768 0.101684 17.6852 -0.550023 20.7584 0.474367C23.3676 1.48905 25.4935 3.47026 26.3305 6.1159C27.5039 5.5187 28.8268 5.53496 30.1497 5.86568C30.8453 6.21351 31.3671 6.56133 31.7149 7.08308C31.9707 7.46669 32.2264 7.94434 32.3439 8.44687C33.2784 8.08413 34.3227 7.97737 35.3671 8.12654C36.5845 8.30046 37.8018 8.99611 38.4975 10.0396C39.1931 11.083 39.541 12.3004 39.7149 13.3439C39.7149 14.2713 39.7149 15.1986 39.3305 16.0491C40.8156 15.4226 42.3247 14.8546 43.8887 14.5613C46.6713 13.8657 49.8017 14.2135 52.4104 15.257C55.193 16.3004 57.4539 18.3874 58.6713 20.9961L58.6405 21.0064ZM26.4769 6.63894C26.5668 7.00737 26.6323 7.38755 26.6715 7.77872C26.8423 9.31651 26.5096 11.0222 25.6732 12.5659C26.4674 12.9112 27.237 13.4025 27.7148 14.0396C28.2366 14.7353 28.7583 15.7787 28.7583 16.6483C28.8272 17.4064 28.7596 18.1645 28.5662 18.8794C31.0266 19.471 33.61 18.4944 35.8887 17.5178C36.7128 17.1882 37.537 16.8238 38.3666 16.4631L38.1497 16.3004C38.6714 15.6048 38.6714 14.3874 38.6714 13.3439C38.6714 12.3004 38.3236 11.257 37.6279 10.5613C36.9323 9.86567 36.0627 9.17002 35.1932 8.99611C34.1497 8.82221 33.1062 8.82221 32.0627 9.17002L31.7149 9.34393L31.541 8.99611C31.3671 7.95265 30.4975 7.08308 29.454 6.73524C28.5179 6.42321 27.4418 6.39111 26.4769 6.63894ZM17.1062 12.3004C17.0085 12.3284 16.9118 12.3588 16.8164 12.3917C16.8986 12.5448 16.9953 12.6892 17.1062 12.8222C17.9758 13.8657 19.7149 14.2135 21.1062 14.2135C22.4975 14.2135 23.8889 13.3439 24.5845 12.1265C25.2802 10.9091 25.4541 9.34393 25.4541 7.95263C25.1062 4.99611 22.8454 2.56133 20.0628 1.51785C17.2801 0.474367 13.9758 1.17003 11.7149 3.08307L11.541 3.25698L11.3671 3.08307C9.80185 2.2135 7.88881 2.38742 6.49751 3.43089C5.1062 4.30046 4.58447 6.2135 4.75838 7.95263L4.75838 8.30046L4.41055 8.47437C3.01925 8.99611 1.97577 10.3874 1.28012 11.7787C0.758379 13.17 0.584466 14.9091 0.584466 16.4744C0.758379 19.7788 1.97577 22.9092 4.06273 25.344C6.14968 27.7788 8.93229 29.6918 12.0627 30.9092C15.1932 32.1266 18.4976 32.6483 21.628 32.3005C24.9323 32.1266 28.0628 31.0831 31.0193 29.5179C33.9758 28.1266 36.7584 26.2135 39.3671 24.3005C42.1497 22.3875 44.9323 20.4744 48.2367 19.6049C49.8019 19.0831 51.541 18.9092 53.2801 19.0831C53.809 19.136 54.3378 19.2532 54.8471 19.4299C53.6823 18.676 52.3257 18.1457 51.0193 17.8657C48.4106 17.3439 45.8019 17.6918 43.541 18.7353C38.6715 20.6483 34.4975 23.9527 29.628 26.0396C27.1932 27.0831 24.5845 27.7788 21.8019 27.9527C20.4106 27.9527 19.0193 27.9527 17.8019 27.6049C16.4105 27.257 15.1932 26.5614 14.1497 25.6918C13.1062 24.8222 12.2366 23.6049 11.7149 22.3875C11.1932 21.1701 10.8453 19.7788 11.0192 18.3875C11.3671 15.6048 13.454 13.17 16.0627 12.4744L16.3477 12.4269C16.1404 11.8976 16.0627 11.3164 16.0627 10.7352C16.2366 9.86567 16.5845 9.17002 17.1062 8.64828L17.2801 8.8222C16.381 9.8711 16.2566 11.3073 16.7956 12.3522L17.1062 12.3004Z" fill-rule="evenodd"  fill="#D5B270" ></path></svg>